<svg width="23" height="24" viewBox="0 0 23 24" fill="none" xmlns="http://www.w3.org/2000/svg">
<path d="M8.16992 12.0899L8.78265 13.157H10.2107L10.9248 14.4015H12.2491L12.9632 13.157H14.3913L15.0016 12.0899H8.16992Z" fill="#754BDD"/>
<path d="M8.62846 13.1545L8.5778 13.0719L8.49096 12.9309H8.48854L7.96748 12.0899H6.64071L6.62382 12.1191L5.97974 13.1545L6.64071 14.2192H7.96748L8.61157 13.1837L8.62846 13.1545Z" fill="#754BDD"/>
<path d="M4.78797 13.8376L4.41406 14.4914L4.78797 15.1453H5.5382L5.91211 14.4914L5.5382 13.8376H4.78797Z" fill="#754BDD"/>
<path d="M10.1071 15.6484L10.7512 14.523H10.7536L10.7705 14.4914L10.7199 14.4015L10.6306 14.2483L10.1071 13.3344H8.78277L8.76347 13.366L8.11938 14.4914L8.78277 15.6484H10.1071Z" fill="#754BDD"/>
<path d="M10.9249 14.5814L10.2615 15.7359L10.9249 16.8929H12.2492L12.9126 15.7359L12.2492 14.5814H10.9249Z" fill="#754BDD"/>
<path d="M16.5336 12.0899H15.2068L14.6834 13.0014L14.5965 13.157L14.5435 13.2445L14.5628 13.2785L15.2068 14.4015H16.5336L17.1946 13.2445L16.5505 12.1215L16.5336 12.0899Z" fill="#754BDD"/>
<path d="M17.6359 13.8376L17.262 14.4914L17.6359 15.1453H18.3861L18.76 14.4914L18.3861 13.8376H17.6359Z" fill="#754BDD"/>
<path d="M14.3913 13.3344H13.0645L12.5435 14.2483L12.4542 14.4015L12.4036 14.4914L12.4205 14.523H12.4229L13.0645 15.6484H14.3913L15.0547 14.4914L14.4082 13.3684V13.366L14.3913 13.3344Z" fill="#754BDD"/>
<path d="M6.97825 15.2352L6.65259 15.8064L6.97825 16.3752H7.62958L7.95765 15.8064L7.62958 15.2352H6.97825Z" fill="#754BDD"/>
<path d="M9.06501 16.3897L8.68628 17.0508L9.06501 17.712H9.82489L10.2036 17.0508L9.82489 16.3897H9.06501Z" fill="#754BDD"/>
<path d="M11.1275 17.4932L10.6667 18.2953L11.1275 19.0999H12.0466L12.5073 18.2953L12.0466 17.4932H11.1275Z" fill="#754BDD"/>
<path d="M15.4093 15.0018L14.9509 15.8064L15.4093 16.6085H16.3284L16.7891 15.8064L16.3284 15.0018H15.4093Z" fill="#754BDD"/>
<path d="M13.3492 16.3897L12.9705 17.0508L13.3492 17.712H14.1067L14.4878 17.0508L14.1067 16.3897H13.3492Z" fill="#754BDD"/>
<path d="M7.09887 18.0085L6.89624 18.3658L7.09887 18.7207H7.50897L7.71402 18.3658L7.50897 18.0085H7.09887Z" fill="#754BDD"/>
<path d="M9.24118 19.2531L9.03613 19.6104L9.24118 19.9677H9.65127L9.85391 19.6104L9.65127 19.2531H9.24118Z" fill="#754BDD"/>
<path d="M11.3833 20.5L11.1782 20.8573L11.3833 21.2122H11.791L11.996 20.8573L11.791 20.5H11.3833Z" fill="#754BDD"/>
<path d="M15.665 18.0085L15.46 18.3658L15.665 18.7207H16.0727L16.2777 18.3658L16.0727 18.0085H15.665Z" fill="#754BDD"/>
<path d="M13.5229 19.2531L13.3203 19.6104L13.5229 19.9677H13.933L14.1381 19.6104L13.933 19.2531H13.5229Z" fill="#754BDD"/>
<path d="M14.3913 10.8454H12.9632L12.2491 9.59851H10.9248L10.2107 10.8454H8.78265L8.16992 11.9125H15.0016L14.3913 10.8454Z" fill="#754BDD"/>
<path d="M5.04611 12.7122H5.86147L6.26915 12H6.26674H6.26915L5.86147 11.2878H5.04611L4.63843 12L5.04611 12.7122Z" fill="#754BDD"/>
<path d="M6.64071 11.9125H7.96748L8.48854 10.9986H8.49096L8.5778 10.8454L8.62846 10.7555L8.61157 10.7239L7.96748 9.59851H6.64071L5.97974 10.7555L6.62382 11.8785L6.64071 11.9125Z" fill="#754BDD"/>
<path d="M5.5382 10.1624L5.91211 9.50858L5.5382 8.85474H4.78797L4.41406 9.50858L4.78797 10.1624H5.5382Z" fill="#754BDD"/>
<path d="M8.78277 10.6656H10.1071L10.6306 9.75412L10.7199 9.59856L10.7705 9.50862L10.7536 9.47702H10.7512L10.1071 8.35406H8.78277L8.11938 9.50862L8.76347 10.634L8.78277 10.6656Z" fill="#754BDD"/>
<path d="M12.2492 9.42103L12.9126 8.26404L12.2492 7.10706H10.9249L10.2615 8.26404L10.9249 9.42103H12.2492Z" fill="#754BDD"/>
<path d="M15.2068 9.59851L14.5628 10.7239L14.5435 10.7555L14.5965 10.8454L14.6834 10.9986L15.2068 11.9125H16.5336L16.5505 11.8785L17.1946 10.7555L16.5336 9.59851H15.2068Z" fill="#754BDD"/>
<path d="M18.3861 10.1624L18.76 9.50858L18.3861 8.85474H17.6359L17.262 9.50858L17.6359 10.1624H18.3861Z" fill="#754BDD"/>
<path d="M13.0645 10.6656H14.3913L14.4082 10.634L15.0547 9.50862L14.3913 8.35406H13.0645L12.4229 9.47702H12.4205L12.4036 9.50862L12.4542 9.59856L12.5435 9.75412L13.0645 10.6656Z" fill="#754BDD"/>
<path d="M7.62958 8.7648L7.95765 8.19603L7.62958 7.62726H6.97825L6.65259 8.19603L6.97825 8.7648H7.62958Z" fill="#754BDD"/>
<path d="M9.82489 7.61267L10.2036 6.9491L9.82489 6.28796H9.06501L8.68628 6.9491L9.06501 7.61267H9.82489Z" fill="#754BDD"/>
<path d="M12.0466 6.50669L12.5073 5.70458L12.0466 4.90247H11.1275L10.6667 5.70458L11.1275 6.50669H12.0466Z" fill="#754BDD"/>
<path d="M16.3284 8.99815L16.7891 8.19603L16.3284 7.39392H15.4093L14.9509 8.19603L15.4093 8.99815H16.3284Z" fill="#754BDD"/>
<path d="M14.1067 7.61267L14.4878 6.9491L14.1067 6.28796H13.3492L12.9705 6.9491L13.3492 7.61267H14.1067Z" fill="#754BDD"/>
<path d="M7.50897 5.99142L7.71402 5.63654L7.50897 5.27924H7.09887L6.89624 5.63654L7.09887 5.99142H7.50897Z" fill="#754BDD"/>
<path d="M9.65127 4.74696L9.85391 4.38965L9.65127 4.03235H9.24118L9.03613 4.38965L9.24118 4.74696H9.65127Z" fill="#754BDD"/>
<path d="M11.791 3.50245L11.996 3.14515L11.791 2.78784H11.3833L11.1782 3.14515L11.3833 3.50245H11.791Z" fill="#754BDD"/>
<path d="M16.0727 5.99142L16.2777 5.63654L16.0727 5.27924H15.665L15.46 5.63654L15.665 5.99142H16.0727Z" fill="#754BDD"/>
<path d="M13.933 4.74696L14.1381 4.38965L13.933 4.03235H13.5229L13.3203 4.38965L13.5229 4.74696H13.933Z" fill="#754BDD"/>
<path d="M17.2934 12.7462H18.1498L18.5768 12L18.1498 11.2538H17.2934L16.8665 12H16.8689H16.8665L17.2934 12.7462Z" fill="#754BDD"/>
</svg>
