<svg width="316" height="210" viewBox="0 0 316 210" fill="none" xmlns="http://www.w3.org/2000/svg">
<g clip-path="url(#clip0_139_16665)">
<path opacity="0.21" d="M52.7293 37.0075C55.9685 29.8243 52.7736 21.3741 45.5933 18.1335C38.4129 14.893 29.9662 18.0892 26.727 25.2725C23.4877 32.4557 26.6826 40.9059 33.863 44.1465C41.0433 47.387 49.4901 44.1908 52.7293 37.0075Z" stroke="#3F3F3F" stroke-miterlimit="10" stroke-dasharray="3 3"/>
<path opacity="0.21" d="M311.09 113.696C316.149 101.699 310.529 87.8713 298.537 82.8104C286.545 77.7496 272.723 83.3721 267.664 95.3687C262.605 107.365 268.226 121.193 280.217 126.254C292.209 131.315 306.031 125.692 311.09 113.696Z" stroke="#3F3F3F" stroke-miterlimit="10" stroke-dasharray="3 3"/>
<path opacity="0.21" d="M291.207 59.4439C298.076 53.3025 298.667 42.7535 292.528 35.8822C286.389 29.0108 275.845 28.4191 268.976 34.5606C262.108 40.702 261.516 51.251 267.655 58.1223C273.794 64.9937 284.339 65.5853 291.207 59.4439Z" stroke="#3F3F3F" stroke-miterlimit="10" stroke-dasharray="3 3"/>
<path opacity="0.21" d="M64.3581 117.353C71.0386 102.61 64.5082 85.2416 49.7719 78.5584C35.0357 71.8752 17.674 78.4084 10.9936 93.1506C4.31307 107.893 10.8435 125.262 25.5798 131.945C40.316 138.628 57.6777 132.095 64.3581 117.353Z" stroke="#3F3F3F" stroke-miterlimit="10" stroke-dasharray="3 3"/>
<path opacity="0.21" d="M26.0126 49.336C25.6039 50.4825 24.3468 51.078 23.2008 50.6691C22.0547 50.2603 21.4595 49.0027 21.8681 47.8561C22.2768 46.7096 23.5339 46.1141 24.68 46.523C25.826 46.9318 26.4213 48.1894 26.0126 49.336Z" fill="#BBBBBB"/>
<path opacity="0.21" d="M306.294 141.2C305.921 142.355 304.677 142.991 303.522 142.617C302.367 142.244 301.732 141 302.105 139.844C302.478 138.689 303.722 138.054 304.877 138.427C306.032 138.8 306.667 140.04 306.294 141.2Z" fill="#BBBBBB"/>
<path opacity="0.21" d="M16.3734 74.5994C17.1242 75.0349 17.3818 75.9992 16.9465 76.7503C16.5111 77.5013 15.5472 77.759 14.7965 77.3235C14.0458 76.888 13.7882 75.9237 14.2235 75.1727C14.6588 74.4217 15.6227 74.1639 16.3734 74.5994Z" fill="#BBBBBB"/>
<path opacity="0.21" d="M299.089 22.7704C299.893 23.5037 299.951 24.748 299.218 25.5523C298.485 26.3567 297.241 26.4144 296.437 25.6812C295.633 24.9479 295.575 23.7037 296.308 22.8993C297.041 22.095 298.285 22.0372 299.089 22.7704Z" fill="#BBBBBB"/>
<path d="M0.821777 198.388H315.778" stroke="#3F3F3F" stroke-miterlimit="10" stroke-linecap="round" stroke-linejoin="round"/>
<path d="M272.805 28.7964C272.805 24.0592 268.967 20.2197 264.232 20.2197H52.3632C47.628 20.2197 43.79 24.0592 43.79 28.7964V37.0309H272.801V28.7964H272.805Z" fill="white" stroke="#3F3F3F" stroke-miterlimit="10" stroke-linecap="round" stroke-linejoin="round"/>
<path d="M43.7944 37.0309V189.558C43.7944 194.295 47.6324 198.135 52.3676 198.135H264.237C268.972 198.135 272.81 194.295 272.81 189.558V37.0309H43.7944Z" stroke="white" stroke-miterlimit="10" stroke-linecap="round" stroke-linejoin="round"/>
<path d="M43.7944 37.0309V189.558C43.7944 194.295 47.6324 198.135 52.3676 198.135H264.237C268.972 198.135 272.81 194.295 272.81 189.558V37.0309H43.7944Z" fill="white" stroke="#3F3F3F" stroke-miterlimit="10" stroke-linecap="round" stroke-linejoin="round"/>
<path d="M60.249 32.5315C61.982 30.7978 61.982 27.9869 60.249 26.2532C58.516 24.5195 55.7063 24.5195 53.9733 26.2532C52.2403 27.9869 52.2403 30.7978 53.9733 32.5315C55.7063 34.2651 58.516 34.2651 60.249 32.5315Z" fill="#05001C"/>
<path d="M72.1365 33.4914C74.3984 32.5475 75.4671 29.9479 74.5235 27.6851C73.5799 25.4223 70.9814 24.3531 68.7195 25.2971C66.4576 26.2411 65.3889 28.8406 66.3325 31.1034C67.2761 33.3662 69.8746 34.4354 72.1365 33.4914Z" fill="#05001C"/>
<path d="M85.4578 33.4906C87.7196 32.5467 88.7883 29.9471 87.8448 27.6843C86.9012 25.4215 84.3027 24.3524 82.0408 25.2963C79.7789 26.2403 78.7102 28.8399 79.6538 31.1026C80.5974 33.3654 83.1959 34.4346 85.4578 33.4906Z" fill="#05001C"/>
<path d="M264.694 42.9679H97.9033V59.6102H264.694V42.9679Z" fill="white" stroke="#3F3F3F" stroke-miterlimit="10" stroke-linecap="round" stroke-linejoin="round"/>
<path d="M93.6882 42.9679H74.6851V59.6102H93.6882V42.9679Z" fill="white" stroke="#3F3F3F" stroke-miterlimit="10" stroke-linecap="round" stroke-linejoin="round"/>
<path d="M70.3049 42.9679H51.3018V59.6102H70.3049V42.9679Z" fill="white" stroke="#3F3F3F" stroke-miterlimit="10" stroke-linecap="round" stroke-linejoin="round"/>
<path d="M64.6637 46.7585L56.9434 51.2913L64.6637 55.8241" stroke="#3F3F3F" stroke-width="2" stroke-miterlimit="10" stroke-linecap="round" stroke-linejoin="round"/>
<path d="M80.7749 55.824L88.5619 51.2513L80.7749 46.6785" stroke="#3F3F3F" stroke-width="2" stroke-miterlimit="10" stroke-linecap="round" stroke-linejoin="round"/>
<path d="M78.8604 63.8808H51.3018V86.4379H78.8604V63.8808Z" fill="white" stroke="#010E41" stroke-miterlimit="10"/>
<path opacity="0.21" d="M78.8604 63.8808H51.3018V86.4379H78.8604V63.8808Z" fill="#BBBBBB"/>
<path d="M109.831 63.8808H82.272V86.4379H109.831V63.8808Z" fill="white" stroke="#010E41" stroke-miterlimit="10"/>
<path opacity="0.21" d="M109.831 63.8808H82.272V86.4379H109.831V63.8808Z" fill="#BBBBBB"/>
<path d="M140.805 63.8808H113.247V86.4379H140.805V63.8808Z" fill="white" stroke="#010E41" stroke-miterlimit="10"/>
<path d="M171.775 63.8808H144.216V86.4379H171.775V63.8808Z" fill="white" stroke="#010E41" stroke-miterlimit="10"/>
<path d="M202.75 63.8808H175.191V86.4379H202.75V63.8808Z" fill="white" stroke="#010E41" stroke-miterlimit="10"/>
<path d="M233.724 63.8808H206.166V86.4379H233.724V63.8808Z" fill="white" stroke="#010E41" stroke-miterlimit="10"/>
<path d="M264.694 63.8808H237.136V86.4379H264.694V63.8808Z" fill="white" stroke="#010E41" stroke-miterlimit="10"/>
<path d="M78.8604 89.7042H51.3018V112.261H78.8604V89.7042Z" fill="white" stroke="#010E41" stroke-miterlimit="10"/>
<path d="M109.831 89.7042H82.272V112.261H109.831V89.7042Z" fill="white" stroke="#010E41" stroke-miterlimit="10"/>
<path d="M140.805 89.7042H113.247V112.261H140.805V89.7042Z" fill="white" stroke="#010E41" stroke-miterlimit="10"/>
<path d="M171.775 89.7042H144.216V112.261H171.775V89.7042Z" fill="white" stroke="#010E41" stroke-miterlimit="10"/>
<path d="M202.75 89.7042H175.191V112.261H202.75V89.7042Z" fill="white" stroke="#010E41" stroke-miterlimit="10"/>
<path d="M233.724 89.7042H206.166V112.261H233.724V89.7042Z" fill="white" stroke="#010E41" stroke-miterlimit="10"/>
<path d="M264.694 89.7042H237.136V112.261H264.694V89.7042Z" fill="white" stroke="#010E41" stroke-miterlimit="10"/>
<path d="M78.8604 115.523H51.3018V138.08H78.8604V115.523Z" fill="white" stroke="#010E41" stroke-miterlimit="10"/>
<path d="M109.831 115.523H82.272V138.08H109.831V115.523Z" fill="white" stroke="#010E41" stroke-miterlimit="10"/>
<path d="M140.805 115.523H113.247V138.08H140.805V115.523Z" fill="white" stroke="#010E41" stroke-miterlimit="10"/>
<path d="M171.775 115.523H144.216V138.08H171.775V115.523Z" fill="white" stroke="#010E41" stroke-miterlimit="10"/>
<path d="M202.75 115.523H175.191V138.08H202.75V115.523Z" fill="white" stroke="#010E41" stroke-miterlimit="10"/>
<path d="M233.724 115.523H206.166V138.08H233.724V115.523Z" fill="white" stroke="#010E41" stroke-miterlimit="10"/>
<path d="M264.694 115.523H237.136V138.08H264.694V115.523Z" fill="white" stroke="#010E41" stroke-miterlimit="10"/>
<path d="M78.8604 141.346H51.3018V163.904H78.8604V141.346Z" fill="white" stroke="#010E41" stroke-miterlimit="10"/>
<path d="M109.831 141.346H82.272V163.904H109.831V141.346Z" fill="white" stroke="#010E41" stroke-miterlimit="10"/>
<path d="M140.805 141.346H113.247V163.904H140.805V141.346Z" fill="white" stroke="#010E41" stroke-miterlimit="10"/>
<path d="M171.775 141.346H144.216V163.904H171.775V141.346Z" fill="white" stroke="#010E41" stroke-miterlimit="10"/>
<path d="M202.75 141.346H175.191V163.904H202.75V141.346Z" fill="white" stroke="#010E41" stroke-miterlimit="10"/>
<path d="M233.724 141.346H206.166V163.904H233.724V141.346Z" fill="white" stroke="#010E41" stroke-miterlimit="10"/>
<path d="M264.694 141.346H237.136V163.904H264.694V141.346Z" fill="white" stroke="#010E41" stroke-miterlimit="10"/>
<path d="M78.8604 167.165H51.3018V189.723H78.8604V167.165Z" fill="white" stroke="#010E41" stroke-miterlimit="10"/>
<path d="M109.831 167.165H82.272V189.723H109.831V167.165Z" fill="white" stroke="#010E41" stroke-miterlimit="10"/>
<path d="M140.805 167.165H113.247V189.723H140.805V167.165Z" fill="white" stroke="#010E41" stroke-miterlimit="10"/>
<path d="M171.775 167.165H144.216V189.723H171.775V167.165Z" fill="white" stroke="#010E41" stroke-miterlimit="10"/>
<path d="M202.75 167.165H175.191V189.723H202.75V167.165Z" fill="white" stroke="#010E41" stroke-miterlimit="10"/>
<path d="M233.724 167.165H206.166V189.723H233.724V167.165Z" fill="white" stroke="#010E41" stroke-miterlimit="10"/>
<path opacity="0.21" d="M233.724 167.165H206.166V189.723H233.724V167.165Z" fill="#BBBBBB"/>
<path d="M264.694 167.165H237.136V189.723H264.694V167.165Z" fill="white" stroke="#010E41" stroke-miterlimit="10"/>
<path opacity="0.21" d="M264.694 167.165H237.136V189.723H264.694V167.165Z" fill="#BBBBBB"/>
<path d="M138.344 66.2938C138.344 66.7693 137.913 67.1559 137.385 67.1559C136.856 67.1559 136.425 66.7693 136.425 66.2938C136.425 65.8183 136.856 65.4317 137.385 65.4317C137.913 65.4272 138.344 65.8138 138.344 66.2938Z" fill="#3F3F3F"/>
<path d="M169.399 66.2938C169.399 66.7693 168.968 67.1559 168.439 67.1559C167.911 67.1559 167.48 66.7693 167.48 66.2938C167.48 65.8183 167.911 65.4317 168.439 65.4317C168.968 65.4272 169.399 65.8138 169.399 66.2938Z" fill="#3F3F3F"/>
<path d="M200.458 66.2938C200.458 66.7693 200.027 67.1559 199.498 67.1559C198.969 67.1559 198.539 66.7693 198.539 66.2938C198.539 65.8183 198.969 65.4317 199.498 65.4317C200.027 65.4272 200.458 65.8138 200.458 66.2938Z" fill="#3F3F3F"/>
<path d="M231.512 66.2938C231.512 66.7693 231.081 67.1559 230.553 67.1559C230.024 67.1559 229.593 66.7693 229.593 66.2938C229.593 65.8183 230.024 65.4317 230.553 65.4317C231.081 65.4317 231.512 65.8139 231.512 66.2938Z" fill="#3F3F3F"/>
<path d="M262.571 66.2938C262.571 66.7693 262.14 67.1559 261.612 67.1559C261.083 67.1559 260.652 66.7693 260.652 66.2938C260.652 65.8183 261.083 65.4317 261.612 65.4317C262.14 65.4272 262.571 65.8138 262.571 66.2938Z" fill="#3F3F3F"/>
<path d="M138.344 92.2816C138.344 92.7571 137.913 93.1437 137.384 93.1437C136.856 93.1437 136.425 92.7571 136.425 92.2816C136.425 91.8061 136.856 91.4195 137.384 91.4195C137.913 91.4195 138.344 91.8061 138.344 92.2816Z" fill="#3F3F3F"/>
<path d="M169.398 92.2816C169.398 92.7571 168.968 93.1437 168.439 93.1437C167.91 93.1437 167.479 92.7571 167.479 92.2816C167.479 91.8061 167.91 91.4195 168.439 91.4195C168.968 91.4195 169.398 91.8061 169.398 92.2816Z" fill="#3F3F3F"/>
<path d="M76.1905 92.2816C76.1905 92.7571 75.7596 93.1437 75.231 93.1437C74.7024 93.1437 74.2715 92.7571 74.2715 92.2816C74.2715 91.8061 74.7024 91.4195 75.231 91.4195C75.7596 91.4195 76.1905 91.8061 76.1905 92.2816Z" fill="#3F3F3F"/>
<path d="M107.25 92.2816C107.25 92.7571 106.819 93.1437 106.29 93.1437C105.761 93.1437 105.331 92.7571 105.331 92.2816C105.331 91.8061 105.761 91.4195 106.29 91.4195C106.819 91.4195 107.25 91.8061 107.25 92.2816Z" fill="#3F3F3F"/>
<path d="M200.458 92.2816C200.458 92.7571 200.027 93.1437 199.498 93.1437C198.969 93.1437 198.539 92.7571 198.539 92.2816C198.539 91.8061 198.969 91.4195 199.498 91.4195C200.027 91.4195 200.458 91.8061 200.458 92.2816Z" fill="#3F3F3F"/>
<path d="M231.512 92.2816C231.512 92.7571 231.081 93.1437 230.552 93.1437C230.024 93.1437 229.593 92.7571 229.593 92.2816C229.593 91.8061 230.024 91.4195 230.552 91.4195C231.081 91.4195 231.512 91.8061 231.512 92.2816Z" fill="#3F3F3F"/>
<path d="M262.571 92.2816C262.571 92.7571 262.14 93.1437 261.611 93.1437C261.083 93.1437 260.652 92.7571 260.652 92.2816C260.652 91.8061 261.083 91.4195 261.611 91.4195C262.14 91.4195 262.571 91.8061 262.571 92.2816Z" fill="#3F3F3F"/>
<path d="M138.344 118.149C138.344 118.625 137.913 119.012 137.384 119.012C136.856 119.012 136.425 118.625 136.425 118.149C136.425 117.674 136.856 117.287 137.384 117.287C137.913 117.287 138.344 117.674 138.344 118.149Z" fill="#3F3F3F"/>
<path d="M169.398 118.149C169.398 118.625 168.968 119.012 168.439 119.012C167.91 119.012 167.479 118.625 167.479 118.149C167.479 117.674 167.91 117.287 168.439 117.287C168.968 117.287 169.398 117.674 169.398 118.149Z" fill="#3F3F3F"/>
<path d="M76.1905 118.149C76.1905 118.625 75.7596 119.012 75.231 119.012C74.7024 119.012 74.2715 118.625 74.2715 118.149C74.2715 117.674 74.7024 117.287 75.231 117.287C75.7596 117.287 76.1905 117.674 76.1905 118.149Z" fill="#3F3F3F"/>
<path d="M107.25 118.149C107.25 118.625 106.819 119.012 106.29 119.012C105.761 119.012 105.331 118.625 105.331 118.149C105.331 117.674 105.761 117.287 106.29 117.287C106.819 117.287 107.25 117.674 107.25 118.149Z" fill="#3F3F3F"/>
<path d="M200.458 118.149C200.458 118.625 200.027 119.012 199.498 119.012C198.969 119.012 198.539 118.625 198.539 118.149C198.539 117.674 198.969 117.287 199.498 117.287C200.027 117.287 200.458 117.674 200.458 118.149Z" fill="#3F3F3F"/>
<path d="M231.512 118.149C231.512 118.625 231.081 119.012 230.552 119.012C230.024 119.012 229.593 118.625 229.593 118.149C229.593 117.674 230.024 117.287 230.552 117.287C231.081 117.287 231.512 117.674 231.512 118.149Z" fill="#3F3F3F"/>
<path d="M262.571 118.149C262.571 118.625 262.14 119.012 261.611 119.012C261.083 119.012 260.652 118.625 260.652 118.149C260.652 117.674 261.083 117.287 261.611 117.287C262.14 117.287 262.571 117.674 262.571 118.149Z" fill="#3F3F3F"/>
<path d="M138.344 144.013C138.344 144.488 137.913 144.875 137.384 144.875C136.856 144.875 136.425 144.488 136.425 144.013C136.425 143.537 136.856 143.151 137.384 143.151C137.913 143.151 138.344 143.537 138.344 144.013Z" fill="#3F3F3F"/>
<path d="M169.398 144.013C169.398 144.488 168.968 144.875 168.439 144.875C167.91 144.875 167.479 144.488 167.479 144.013C167.479 143.537 167.91 143.151 168.439 143.151C168.968 143.151 169.398 143.537 169.398 144.013Z" fill="#3F3F3F"/>
<path d="M76.1905 144.013C76.1905 144.488 75.7596 144.875 75.231 144.875C74.7024 144.875 74.2715 144.488 74.2715 144.013C74.2715 143.537 74.7024 143.151 75.231 143.151C75.7596 143.151 76.1905 143.537 76.1905 144.013Z" fill="#3F3F3F"/>
<path d="M107.25 144.013C107.25 144.488 106.819 144.875 106.29 144.875C105.761 144.875 105.331 144.488 105.331 144.013C105.331 143.537 105.761 143.151 106.29 143.151C106.819 143.151 107.25 143.537 107.25 144.013Z" fill="#3F3F3F"/>
<path d="M200.458 144.013C200.458 144.488 200.027 144.875 199.498 144.875C198.969 144.875 198.539 144.488 198.539 144.013C198.539 143.537 198.969 143.151 199.498 143.151C200.027 143.151 200.458 143.537 200.458 144.013Z" fill="#3F3F3F"/>
<path d="M231.512 144.013C231.512 144.488 231.081 144.875 230.552 144.875C230.024 144.875 229.593 144.488 229.593 144.013C229.593 143.537 230.024 143.151 230.552 143.151C231.081 143.151 231.512 143.537 231.512 144.013Z" fill="#3F3F3F"/>
<path d="M262.571 144.013C262.571 144.488 262.14 144.875 261.611 144.875C261.083 144.875 260.652 144.488 260.652 144.013C260.652 143.537 261.083 143.151 261.611 143.151C262.14 143.151 262.571 143.537 262.571 144.013Z" fill="#3F3F3F"/>
<path d="M138.344 169.881C138.344 170.356 137.913 170.743 137.384 170.743C136.856 170.743 136.425 170.356 136.425 169.881C136.425 169.405 136.856 169.019 137.384 169.019C137.913 169.019 138.344 169.405 138.344 169.881Z" fill="#3F3F3F"/>
<path d="M169.398 169.881C169.398 170.356 168.968 170.743 168.439 170.743C167.91 170.743 167.479 170.356 167.479 169.881C167.479 169.405 167.91 169.019 168.439 169.019C168.968 169.019 169.398 169.405 169.398 169.881Z" fill="#3F3F3F"/>
<path d="M76.1905 169.881C76.1905 170.356 75.7596 170.743 75.231 170.743C74.7024 170.743 74.2715 170.356 74.2715 169.881C74.2715 169.405 74.7024 169.019 75.231 169.019C75.7596 169.019 76.1905 169.405 76.1905 169.881Z" fill="#3F3F3F"/>
<path d="M107.25 169.881C107.25 170.356 106.819 170.743 106.29 170.743C105.761 170.743 105.331 170.356 105.331 169.881C105.331 169.405 105.761 169.019 106.29 169.019C106.819 169.019 107.25 169.405 107.25 169.881Z" fill="#3F3F3F"/>
<path d="M200.458 169.881C200.458 170.356 200.027 170.743 199.498 170.743C198.969 170.743 198.539 170.356 198.539 169.881C198.539 169.405 198.969 169.019 199.498 169.019C200.027 169.019 200.458 169.405 200.458 169.881Z" fill="#3F3F3F"/>
<path d="M229.864 102.573C230.745 97.0991 227.024 91.9466 221.553 91.0645C216.081 90.1824 210.931 93.9047 210.049 99.3786C209.167 104.852 212.888 110.005 218.36 110.887C223.831 111.769 228.982 108.047 229.864 102.573Z" fill="#FFD11C"/>
<path d="M224.768 106.591C224.6 106.609 224.426 106.547 224.302 106.413L214.751 96.3256C214.534 96.0945 214.547 95.7345 214.774 95.5212C215.005 95.3035 215.364 95.3124 215.582 95.5435L225.133 105.631C225.35 105.862 225.337 106.222 225.11 106.44C225.013 106.529 224.893 106.582 224.768 106.591Z" fill="white"/>
<path d="M214.334 105.809C214.316 105.64 214.378 105.467 214.512 105.342L224.595 95.7879C224.826 95.5701 225.186 95.5835 225.399 95.8101C225.617 96.0412 225.608 96.4011 225.377 96.6189L215.294 106.173C215.063 106.391 214.703 106.378 214.485 106.151C214.396 106.053 214.343 105.933 214.334 105.809Z" fill="white"/>
<path d="M125.284 163.179C130.826 163.179 135.319 158.685 135.319 153.141C135.319 147.596 130.826 143.102 125.284 143.102C119.742 143.102 115.25 147.596 115.25 153.141C115.25 158.685 119.742 163.179 125.284 163.179Z" fill="#FFD11C"/>
<path d="M123.951 158.447C123.902 158.455 123.858 158.455 123.809 158.455C123.507 158.46 123.214 158.34 123.01 158.118L119.354 154.198C118.95 153.767 118.972 153.092 119.407 152.687C119.833 152.283 120.513 152.305 120.917 152.741L123.769 155.794L129.628 148.532C130.015 148.092 130.694 148.043 131.139 148.43C131.583 148.817 131.632 149.497 131.241 149.941L124.604 158.095C124.431 158.287 124.2 158.411 123.951 158.447Z" fill="white"/>
<path d="M167.675 180.866C169.124 175.515 165.962 170.002 160.613 168.552C155.264 167.103 149.753 170.266 148.304 175.618C146.856 180.969 150.017 186.482 155.367 187.931C160.716 189.381 166.226 186.217 167.675 180.866Z" fill="#754BDD"/>
<path d="M156.667 183.546C156.618 183.554 156.574 183.554 156.525 183.554C156.223 183.559 155.93 183.439 155.725 183.217L152.07 179.297C151.665 178.866 151.688 178.191 152.123 177.786C152.549 177.382 153.229 177.404 153.633 177.84L156.485 180.893L162.344 173.627C162.731 173.187 163.41 173.138 163.854 173.525C164.299 173.911 164.343 174.591 163.957 175.036L157.32 183.19C157.147 183.386 156.916 183.51 156.667 183.546Z" fill="white"/>
<path d="M202.865 142.684L179.579 138.178L175.075 161.473L193.194 164.984L199.378 160.726L202.865 142.684Z" fill="#754BDD" stroke="#010E41" stroke-miterlimit="10" stroke-linecap="round" stroke-linejoin="round"/>
<path d="M184.723 144.533C184.537 145.488 183.613 146.115 182.653 145.933C181.698 145.746 181.072 144.822 181.254 143.866C181.441 142.911 182.365 142.284 183.32 142.466C184.284 142.649 184.906 143.577 184.723 144.533Z" fill="white" stroke="#3F3F3F" stroke-miterlimit="10" stroke-linecap="round" stroke-linejoin="round"/>
<path d="M183.529 150.714C183.342 151.67 182.418 152.296 181.463 152.114C180.508 151.927 179.882 151.003 180.064 150.048C180.25 149.092 181.174 148.466 182.129 148.648C183.084 148.83 183.711 149.754 183.529 150.714Z" fill="white" stroke="#3F3F3F" stroke-miterlimit="10" stroke-linecap="round" stroke-linejoin="round"/>
<path d="M182.334 156.891C182.147 157.847 181.223 158.473 180.268 158.291C179.313 158.104 178.687 157.18 178.869 156.225C179.055 155.269 179.979 154.643 180.934 154.825C181.89 155.011 182.516 155.936 182.334 156.891Z" fill="white" stroke="#3F3F3F" stroke-miterlimit="10" stroke-linecap="round" stroke-linejoin="round"/>
<path d="M186.074 146.341L199.32 148.906" stroke="#3F3F3F" stroke-miterlimit="10" stroke-linecap="round" stroke-linejoin="round"/>
<path d="M184.879 152.518L198.125 155.083" stroke="#3F3F3F" stroke-miterlimit="10" stroke-linecap="round" stroke-linejoin="round"/>
<path d="M183.684 158.7L196.93 161.264" stroke="#3F3F3F" stroke-miterlimit="10" stroke-linecap="round" stroke-linejoin="round"/>
<path d="M182.138 159.833C182.054 159.815 181.983 159.766 181.938 159.682L178.78 153.523C178.709 153.385 178.762 153.212 178.904 153.141C179.042 153.069 179.215 153.123 179.286 153.265L182.445 159.424C182.516 159.562 182.462 159.735 182.32 159.806C182.262 159.837 182.2 159.846 182.138 159.833Z" fill="#3F3F3F"/>
<path d="M178.349 158.255C178.274 158.242 178.207 158.198 178.163 158.131C178.078 157.998 178.118 157.824 178.247 157.74L184.075 154.007C184.208 153.923 184.382 153.958 184.466 154.092C184.55 154.225 184.51 154.398 184.382 154.483L178.554 158.215C178.491 158.255 178.416 158.269 178.349 158.255Z" fill="#3F3F3F"/>
<path d="M181.507 151.359C181.494 151.354 181.481 151.354 181.472 151.35C181.396 151.323 181.334 151.265 181.303 151.194L180.734 149.888C180.672 149.745 180.739 149.577 180.881 149.514C181.023 149.452 181.192 149.519 181.254 149.661L181.694 150.679L185.096 148.768C185.234 148.692 185.407 148.741 185.483 148.874C185.558 149.012 185.509 149.186 185.376 149.261L181.698 151.323C181.645 151.359 181.574 151.372 181.507 151.359Z" fill="#3F3F3F"/>
<path d="M182.893 145.195C182.88 145.19 182.867 145.19 182.858 145.186C182.782 145.159 182.72 145.106 182.689 145.031L182.12 143.724C182.058 143.582 182.125 143.413 182.267 143.351C182.409 143.289 182.578 143.355 182.64 143.497L183.08 144.515L186.483 142.604C186.62 142.529 186.794 142.577 186.869 142.711C186.945 142.849 186.896 143.022 186.762 143.097L183.084 145.159C183.027 145.195 182.956 145.208 182.893 145.195Z" fill="#3F3F3F"/>
<path d="M187.046 145.906C187.886 145.781 188.686 145.39 189.294 144.799C189.494 144.608 189.681 144.386 189.743 144.115C189.805 143.844 189.716 143.524 189.472 143.395C189.174 143.235 188.779 143.44 188.637 143.746C188.499 144.053 188.557 144.417 188.681 144.733C188.996 145.55 189.734 146.19 190.587 146.395C191.44 146.595 192.386 146.35 193.034 145.759C193.292 145.524 193.51 145.226 193.55 144.879C193.59 144.533 193.407 144.151 193.079 144.044C192.746 143.937 192.372 144.146 192.208 144.453C192.044 144.759 192.048 145.133 192.124 145.47C192.315 146.333 192.959 147.075 193.781 147.395C194.602 147.715 195.58 147.595 196.299 147.088C196.681 146.821 197.006 146.417 197.028 145.95C197.05 145.484 196.668 144.995 196.202 145.026C195.824 145.053 195.535 145.413 195.486 145.786C195.437 146.159 195.588 146.533 195.797 146.848C196.588 148.021 198.334 148.412 199.551 147.692" stroke="#FFD11C" stroke-miterlimit="10" stroke-linecap="round" stroke-linejoin="round"/>
<path d="M186.047 152.016C186.94 151.665 187.753 151.101 188.401 150.39C188.57 150.208 188.725 150.008 188.797 149.768C188.868 149.532 188.828 149.248 188.645 149.079C188.406 148.861 188.001 148.928 187.775 149.154C187.548 149.381 187.464 149.719 187.459 150.039C187.442 151.034 188.121 152.007 189.063 152.332C190.005 152.656 191.137 152.314 191.742 151.523C191.928 151.274 192.075 150.972 192.044 150.661C192.013 150.35 191.764 150.052 191.453 150.048C191.169 150.048 190.924 150.292 190.853 150.572C190.782 150.848 190.853 151.145 190.96 151.407C191.289 152.212 191.981 152.856 192.803 153.127C193.629 153.398 194.567 153.283 195.304 152.83C195.802 152.523 196.224 152.021 196.259 151.439C196.295 150.856 195.811 150.239 195.229 150.283C194.807 150.314 194.46 150.674 194.354 151.088C194.247 151.496 194.354 151.936 194.545 152.314C194.895 152.998 195.548 153.518 196.29 153.705C197.032 153.892 197.854 153.745 198.489 153.314" stroke="#FFD11C" stroke-miterlimit="10" stroke-linecap="round" stroke-linejoin="round"/>
<path d="M184.812 157.896C185.634 157.887 186.442 157.522 186.993 156.913C187.26 156.616 187.464 156.136 187.193 155.838C186.944 155.562 186.442 155.691 186.247 156.007C186.051 156.322 186.096 156.731 186.22 157.082C186.549 158.029 187.42 158.762 188.406 158.922C189.392 159.082 190.453 158.664 191.062 157.873C191.351 157.496 191.502 156.869 191.106 156.602C190.831 156.416 190.427 156.549 190.236 156.82C190.04 157.087 190.018 157.447 190.067 157.776C190.236 158.931 191.293 159.895 192.457 159.962C193.625 160.029 194.78 159.189 195.078 158.055C195.184 157.66 195.149 157.158 194.802 156.94C194.442 156.718 193.932 156.962 193.767 157.349C193.603 157.736 193.709 158.193 193.914 158.562C194.545 159.682 196.13 160.131 197.254 159.504" stroke="#FFD11C" stroke-miterlimit="10" stroke-linecap="round" stroke-linejoin="round"/>
<path d="M199.36 160.815L193.105 164.966L194.105 159.797L199.36 160.815Z" fill="#754BDD" stroke="#010E41" stroke-miterlimit="10" stroke-linecap="round" stroke-linejoin="round"/>
<path d="M167.164 63.032L143.776 66.9915L147.73 90.3841L165.929 87.3045L170.224 81.1497L167.164 63.032Z" fill="#FFD11C" stroke="#010E41" stroke-miterlimit="10" stroke-linecap="round" stroke-linejoin="round"/>
<path d="M165.967 65.0618L145.88 68.3442L146.191 70.2519L166.278 66.9696L165.967 65.0618Z" fill="white" stroke="#010E41" stroke-miterlimit="10"/>
<path d="M166.54 68.5955L146.453 71.8779L146.765 73.7856L166.852 70.5033L166.54 68.5955Z" fill="white" stroke="#010E41" stroke-miterlimit="10"/>
<path d="M167.117 72.1233L147.03 75.4056L147.342 77.3134L167.429 74.0311L167.117 72.1233Z" fill="white" stroke="#010E41" stroke-miterlimit="10"/>
<path d="M167.695 75.6558L147.608 78.9382L147.92 80.8459L168.007 77.5636L167.695 75.6558Z" fill="white" stroke="#010E41" stroke-miterlimit="10"/>
<path d="M168.273 79.1885L148.186 82.4708L148.498 84.3786L168.584 81.0963L168.273 79.1885Z" fill="white" stroke="#010E41" stroke-miterlimit="10"/>
<path d="M166.578 83.089L148.762 86.0003L149.073 87.9081L166.889 84.9968L166.578 83.089Z" fill="white" stroke="#010E41" stroke-miterlimit="10"/>
<path d="M170.242 81.2386L165.84 87.3223L164.965 82.1318L170.242 81.2386Z" fill="#FFD11C" stroke="#010E41" stroke-miterlimit="10" stroke-linecap="round" stroke-linejoin="round"/>
<path d="M265.312 118.994L242.31 113.203L236.522 136.214L254.42 140.72L260.829 136.814L265.312 118.994Z" fill="#754BDD" stroke="#010E41" stroke-miterlimit="10" stroke-linecap="round" stroke-linejoin="round"/>
<path d="M263.406 120.378L243.695 115.298L243.213 117.17L262.924 122.25L263.406 120.378Z" fill="white" stroke="#010E41" stroke-miterlimit="10"/>
<path d="M262.513 123.844L242.802 118.764L242.32 120.636L262.031 125.716L262.513 123.844Z" fill="white" stroke="#010E41" stroke-miterlimit="10"/>
<path d="M261.619 127.31L241.909 122.23L241.427 124.102L261.137 129.182L261.619 127.31Z" fill="white" stroke="#010E41" stroke-miterlimit="10"/>
<path d="M260.727 130.772L241.017 125.692L240.534 127.564L260.245 132.644L260.727 130.772Z" fill="white" stroke="#010E41" stroke-miterlimit="10"/>
<path d="M259.834 134.238L240.124 129.158L239.641 131.03L259.352 136.11L259.834 134.238Z" fill="white" stroke="#010E41" stroke-miterlimit="10"/>
<path d="M256.716 137.129L239.234 132.623L238.752 134.495L256.234 139.001L256.716 137.129Z" fill="white" stroke="#010E41" stroke-miterlimit="10"/>
<path d="M260.807 136.903L254.331 140.698L255.614 135.596L260.807 136.903Z" fill="#754BDD" stroke="#010E41" stroke-miterlimit="10" stroke-linecap="round" stroke-linejoin="round"/>
<path d="M22.8676 196.677C22.8676 196.677 19.7937 197.148 20.9353 198.659C22.0814 200.17 35.0167 202.752 44.5272 196.815L22.8676 196.677Z" fill="#3F3F3F"/>
<path d="M20.9312 175.951C20.9312 175.951 32.365 172.187 45.6824 174.649C45.6824 174.645 34.3951 180.15 20.9312 175.951Z" fill="white" stroke="#010E41" stroke-miterlimit="10" stroke-linecap="round" stroke-linejoin="round"/>
<path d="M25.6886 183.857C25.6886 183.857 22.6324 174.911 15.5385 165.717C8.44447 156.527 11.8738 151.101 16.4891 152.341C21.1044 153.58 29.8242 167.437 32.6315 182.479" fill="white"/>
<path d="M25.6886 183.857C25.6886 183.857 22.6324 174.911 15.5385 165.717C8.44447 156.527 11.8738 151.101 16.4891 152.341C21.1044 153.58 29.8242 167.437 32.6315 182.479" stroke="#010E41" stroke-miterlimit="10" stroke-linecap="round" stroke-linejoin="round"/>
<path d="M12.8955 153.101C12.8955 153.101 22.7391 160.54 30.0774 185.341L12.8955 153.101Z" fill="white"/>
<path d="M12.8955 153.101C12.8955 153.101 22.7391 160.54 30.0774 185.341" stroke="#010E41" stroke-miterlimit="10" stroke-linecap="round" stroke-linejoin="round"/>
<path d="M26.2081 166.779L25.6484 176.622L28.1671 176.764L26.2081 166.779Z" fill="#3F3F3F" stroke="#010E41" stroke-miterlimit="10"/>
<path d="M44.9762 178.457C44.9762 178.457 45.989 170.605 50.2756 161.877C54.5622 153.149 50.8397 149.274 47.2639 151.061C43.6836 152.852 38.8417 165.677 39.0505 178.488" fill="white"/>
<path d="M44.9762 178.457C44.9762 178.457 45.989 170.605 50.2756 161.877C54.5622 153.149 50.8397 149.274 47.2639 151.061C43.6836 152.852 38.8417 165.677 39.0505 178.488" stroke="#010E41" stroke-miterlimit="10" stroke-linecap="round" stroke-linejoin="round"/>
<path d="M50.3379 151.083C50.3379 151.083 43.5016 158.833 41.6226 180.404L50.3379 151.083Z" fill="white"/>
<path d="M50.3379 151.083C50.3379 151.083 43.5016 158.833 41.6226 180.404" stroke="#010E41" stroke-miterlimit="10" stroke-linecap="round" stroke-linejoin="round"/>
<path d="M28.6025 178.413C28.6025 178.413 27.0122 168.094 21.0776 156.731C15.143 145.368 19.9182 140.133 24.6979 142.377C29.4731 144.622 36.2784 161.366 36.4205 178.266" fill="white"/>
<path d="M28.6025 178.413C28.6025 178.413 27.0122 168.094 21.0776 156.731C15.143 145.368 19.9182 140.133 24.6979 142.377C29.4731 144.622 36.2784 161.366 36.4205 178.266" stroke="#010E41" stroke-miterlimit="10" stroke-linecap="round" stroke-linejoin="round"/>
<path d="M20.6421 142.502C20.6421 142.502 29.9038 152.492 33.0888 180.87L20.6421 142.502Z" fill="white"/>
<path d="M20.6421 142.502C20.6421 142.502 29.9038 152.492 33.0888 180.87" stroke="#010E41" stroke-miterlimit="10" stroke-linecap="round" stroke-linejoin="round"/>
<path d="M36.0031 163.188L31.2456 176.484L33.7643 176.622L36.0031 163.188Z" fill="#3F3F3F" stroke="#010E41" stroke-miterlimit="10"/>
<path d="M39.921 168.508L44.6785 174.942L39.499 175.782L39.921 168.508Z" fill="#3F3F3F" stroke="#010E41" stroke-miterlimit="10"/>
<path d="M34.102 178.413C33.9554 177.689 30.7748 157.274 31.9298 150.47C33.0892 143.666 34.6794 142.071 37.8644 142.071C41.0493 142.071 43.6524 146.995 42.2043 160.607C40.9072 172.787 39.89 178.56 39.89 178.56L34.102 178.413Z" fill="white" stroke="#010E41" stroke-miterlimit="10" stroke-linecap="round" stroke-linejoin="round"/>
<path d="M37.8688 142.066C37.8688 142.066 36.4207 162.482 37.0026 178.408L37.8688 142.066Z" fill="white"/>
<path d="M37.8688 142.066C37.8688 142.066 36.4207 162.482 37.0026 178.408" stroke="#010E41" stroke-miterlimit="10" stroke-linecap="round" stroke-linejoin="round"/>
<path d="M20.9312 175.951C20.9312 175.951 31.7876 178.413 45.6824 174.649L44.3808 197.091C44.3808 197.091 38.4462 200.566 23.8274 198.104L20.9312 175.951Z" fill="white" stroke="#010E41" stroke-miterlimit="10" stroke-linecap="round" stroke-linejoin="round"/>
<path d="M273.192 197.388C273.192 197.388 270.118 197.859 271.26 199.37C272.406 200.881 285.341 203.463 294.851 197.526L273.192 197.388Z" fill="#3F3F3F"/>
<path d="M271.255 176.662C271.255 176.662 282.689 172.898 296.007 175.36C296.007 175.36 284.715 180.861 271.255 176.662Z" fill="white" stroke="#010E41" stroke-miterlimit="10" stroke-linecap="round" stroke-linejoin="round"/>
<path d="M276.013 184.568C276.013 184.568 272.957 175.622 265.863 166.428C258.769 157.238 262.198 151.812 266.813 153.052C271.429 154.296 280.148 168.148 282.956 183.19" fill="white"/>
<path d="M276.013 184.568C276.013 184.568 272.957 175.622 265.863 166.428C258.769 157.238 262.198 151.812 266.813 153.052C271.429 154.296 280.148 168.148 282.956 183.19" stroke="#010E41" stroke-miterlimit="10" stroke-linecap="round" stroke-linejoin="round"/>
<path d="M263.22 153.812C263.22 153.812 273.063 161.251 280.402 186.052L263.22 153.812Z" fill="white"/>
<path d="M263.22 153.812C263.22 153.812 273.063 161.251 280.402 186.052" stroke="#010E41" stroke-miterlimit="10" stroke-linecap="round" stroke-linejoin="round"/>
<path d="M276.532 167.494L275.973 177.337L278.491 177.475L276.532 167.494Z" fill="#3F3F3F" stroke="#010E41" stroke-miterlimit="10"/>
<path d="M295.3 179.168C295.3 179.168 296.313 171.316 300.6 162.588C304.886 153.86 301.164 149.985 297.588 151.772C294.008 153.563 289.166 166.388 289.375 179.199" fill="white"/>
<path d="M295.3 179.168C295.3 179.168 296.313 171.316 300.6 162.588C304.886 153.86 301.164 149.985 297.588 151.772C294.008 153.563 289.166 166.388 289.375 179.199" stroke="#010E41" stroke-miterlimit="10" stroke-linecap="round" stroke-linejoin="round"/>
<path d="M300.662 151.798C300.662 151.798 293.826 159.549 291.947 181.119L300.662 151.798Z" fill="white"/>
<path d="M300.662 151.798C300.662 151.798 293.826 159.549 291.947 181.119" stroke="#010E41" stroke-miterlimit="10" stroke-linecap="round" stroke-linejoin="round"/>
<path d="M278.927 179.124C278.927 179.124 277.336 168.805 271.402 157.442C265.467 146.079 270.242 140.844 275.022 143.088C279.797 145.333 286.603 162.077 286.745 178.977" fill="white"/>
<path d="M278.927 179.124C278.927 179.124 277.336 168.805 271.402 157.442C265.467 146.079 270.242 140.844 275.022 143.088C279.797 145.333 286.603 162.077 286.745 178.977" stroke="#010E41" stroke-miterlimit="10" stroke-linecap="round" stroke-linejoin="round"/>
<path d="M270.966 143.217C270.966 143.217 280.228 153.207 283.413 181.586L270.966 143.217Z" fill="white"/>
<path d="M270.966 143.217C270.966 143.217 280.228 153.207 283.413 181.586" stroke="#010E41" stroke-miterlimit="10" stroke-linecap="round" stroke-linejoin="round"/>
<path d="M286.327 163.899L281.57 177.195L284.088 177.337L286.327 163.899Z" fill="#3F3F3F" stroke="#010E41" stroke-miterlimit="10"/>
<path d="M290.245 169.219L295.003 175.658L289.823 176.498L290.245 169.219Z" fill="#3F3F3F" stroke="#010E41" stroke-miterlimit="10"/>
<path d="M284.426 179.124C284.28 178.4 281.099 157.984 282.254 151.181C283.413 144.377 285.004 142.782 288.189 142.782C291.374 142.782 293.977 147.706 292.529 161.317C291.231 173.498 290.214 179.271 290.214 179.271L284.426 179.124Z" fill="white" stroke="#010E41" stroke-miterlimit="10" stroke-linecap="round" stroke-linejoin="round"/>
<path d="M288.189 142.782C288.189 142.782 286.741 163.197 287.322 179.124L288.189 142.782Z" fill="white"/>
<path d="M288.189 142.782C288.189 142.782 286.741 163.197 287.322 179.124" stroke="#010E41" stroke-miterlimit="10" stroke-linecap="round" stroke-linejoin="round"/>
<path d="M271.255 176.662C271.255 176.662 282.112 179.124 296.007 175.36L294.705 197.802C294.705 197.802 288.77 201.277 274.152 198.815L271.255 176.662Z" fill="white" stroke="#010E41" stroke-miterlimit="10" stroke-linecap="round" stroke-linejoin="round"/>
<path d="M57.3603 102.067C52.5496 104.058 47.0725 101.854 45.1268 97.1433C43.1812 92.4328 45.5044 87.0068 50.3107 85.0159C55.1215 83.0251 60.5986 85.2292 62.5442 89.9397C64.4898 94.6458 62.1666 100.076 57.3603 102.067Z" fill="#3F3F3F"/>
<path d="M62.0156 93.4904C59.9456 95.659 56.0766 95.3213 53.3713 92.7349C50.6661 90.1486 50.1508 86.3002 52.2208 84.1316C54.2909 81.963 58.1599 82.3007 60.8651 84.887C63.5703 87.4734 64.0856 91.3262 62.0156 93.4904Z" fill="white" stroke="#010E41" stroke-width="1.116" stroke-miterlimit="10" stroke-linecap="round" stroke-linejoin="round"/>
<path d="M44.6252 127.757C41.7467 122.322 43.0616 117.23 45.0916 109.595C45.7979 106.946 48.9029 106.538 51.346 105.302C53.4738 104.227 54.8597 104.556 54.8597 104.556L55.9747 115.23C55.9702 115.297 55.9702 115.363 55.9658 115.434C55.717 118.976 54.9663 126.446 54.9663 126.446" fill="white"/>
<path d="M44.6252 127.757C41.7467 122.322 43.0616 117.23 45.0916 109.595C45.7979 106.946 48.9029 106.538 51.346 105.302C53.4738 104.227 54.8597 104.556 54.8597 104.556L55.9747 115.23C55.9702 115.297 55.9702 115.363 55.9658 115.434C55.717 118.976 54.9663 126.446 54.9663 126.446" stroke="#010E41" stroke-width="1.116" stroke-miterlimit="10" stroke-linecap="round" stroke-linejoin="round"/>
<path d="M72.2593 195.215L72.2993 191.927L72.4503 179.715L83.4178 179.955L82.3161 191.829L82.1207 193.949C82.1207 193.949 94.8783 198.93 94.6962 201.441C94.5141 203.952 78.6381 201.432 78.6381 201.432C78.6381 201.432 68.9544 203.272 72.2593 195.215Z" fill="white" stroke="#010E41" stroke-width="1.116" stroke-miterlimit="10" stroke-linecap="round" stroke-linejoin="round"/>
<path d="M71.4907 199.05C71.4907 199.606 71.5218 200.197 71.5884 200.819C71.5884 200.819 74.7512 202.161 83.5776 202.801C93.439 203.512 94.7938 202.348 94.7938 202.348C94.7938 202.348 94.8916 201.877 94.7361 201.161C84.1284 202.405 75.8484 200.481 71.4907 199.05Z" fill="#010E41"/>
<path d="M79.313 201.521C79.313 201.521 81.2675 196.313 83.5951 194.473L85.8117 195.526C85.8117 195.526 82.991 198.908 82.5468 201.859L79.313 201.521Z" fill="#010E41"/>
<path d="M84.7725 201.912C84.7725 201.912 85.7142 198.366 88.0463 196.526L90.0807 197.553C90.0807 197.553 88.4505 199.299 88.0107 202.25L84.7725 201.912Z" fill="#010E41"/>
<path d="M42.7591 191.016L43.2522 189.283L45.2955 170.094L55.8188 173.191L52.6072 192.371C52.6072 192.371 52.6383 192.393 52.6871 192.429C53.6377 193.136 63.5791 200.623 62.7884 202.89C61.9577 205.267 47.29 198.681 47.29 198.681C47.29 198.681 37.4686 197.926 42.7591 191.016Z" fill="white" stroke="#010E41" stroke-width="1.116" stroke-miterlimit="10" stroke-linecap="round" stroke-linejoin="round"/>
<path d="M41.0132 194.513C40.8666 195.051 40.7423 195.629 40.6445 196.246C40.6445 196.246 43.3453 198.37 51.7008 201.29C61.0336 204.556 62.6461 203.783 62.6461 203.783C62.6461 203.783 62.8638 203.352 62.8993 202.623C52.3405 201.059 44.8467 197.037 41.0132 194.513Z" fill="#010E41"/>
<path d="M47.9204 198.944C47.9204 198.944 51.1676 194.429 53.895 193.26L55.7607 194.86C55.7607 194.86 52.1537 197.388 50.9543 200.117L47.9204 198.944Z" fill="#010E41"/>
<path d="M53.0913 200.752C53.0913 200.752 54.9259 197.575 57.6578 196.411L59.3546 197.935C59.3546 197.935 57.3246 199.197 56.1297 201.93L53.0913 200.752Z" fill="#010E41"/>
<path d="M54.2775 129.681L67.1195 132.623L81.7517 132.237C81.7517 132.237 89.4409 155.878 88.7702 187.865C88.7702 187.865 80.6989 190.625 68.3189 187.834C68.3189 187.834 65.4004 162.53 65.7203 148.99C65.7203 148.99 62.753 187.358 59.91 187.678C47.5833 189.069 39.8008 183.937 39.8008 183.937C44.9314 145.168 54.2775 129.681 54.2775 129.681Z" fill="#010E41"/>
<path d="M54.0423 134.81C54.0423 134.81 47.619 143.2 41.1958 184.71" stroke="white" stroke-miterlimit="10" stroke-linecap="round" stroke-linejoin="round"/>
<path d="M72.8765 148.777C72.8765 148.777 67.0174 149.661 62.1089 148.777" stroke="white" stroke-miterlimit="10" stroke-linecap="round" stroke-linejoin="round"/>
<path d="M65.9824 149.172C65.9824 149.172 67.9769 150.505 70.4822 151.461" stroke="white" stroke-miterlimit="10" stroke-linecap="round" stroke-linejoin="round"/>
<path d="M84.8168 102.72C89.1478 106.555 94.6516 111.728 94.6516 111.728L99.6267 97.241L99.6 96.33C101.555 96.6011 103.474 96.9388 105.317 97.4365C105.419 101.463 105.597 119.527 100.56 124.086C94.8826 129.224 80.8545 114.754 80.8545 114.754L84.8168 102.72Z" fill="white" stroke="#010E41" stroke-width="1.116" stroke-miterlimit="10" stroke-linecap="round" stroke-linejoin="round"/>
<path d="M72.2325 102.409C72.2325 102.409 69.5762 105.231 73.0099 110.346C76.4436 115.461 81.0856 117.643 81.0856 117.643C81.0856 117.643 88.8681 111.475 90.0541 107.004L89.219 105.915C89.2146 105.92 80.1216 93.2104 72.2325 102.409Z" fill="white" stroke="#010E41" stroke-width="1.116" stroke-miterlimit="10" stroke-linecap="round" stroke-linejoin="round"/>
<path d="M79.0999 99.0408C79.0999 99.0408 68.0614 97.3166 57.858 98.0543C57.858 98.0543 50.8839 124.824 50.7817 129.575C50.7817 129.575 62.2911 137.765 82.8801 133.014C82.8801 133.014 82.3737 125.78 81.5475 117.487" fill="white"/>
<path d="M79.0999 99.0408C79.0999 99.0408 68.0614 97.3166 57.858 98.0543C57.858 98.0543 50.8839 124.824 50.7817 129.575C50.7817 129.575 62.2911 137.765 82.8801 133.014C82.8801 133.014 82.3737 125.78 81.5475 117.487" stroke="#010E41" stroke-width="1.116" stroke-miterlimit="10" stroke-linecap="round" stroke-linejoin="round"/>
<path d="M70.3624 98.8853C70.3624 98.8853 74.4491 98.6897 77.1188 99.3341C77.1188 99.3341 76.2881 102.378 71.6506 103.236C70.9043 103.374 70.1447 103.374 69.3896 103.32C66.942 103.147 63.8592 102.565 62.6421 99.0674C62.6421 99.0674 66.3157 98.9519 70.3624 98.8853Z" fill="white" stroke="#010E41" stroke-width="1.116" stroke-miterlimit="10" stroke-linecap="round" stroke-linejoin="round"/>
<path d="M55.0683 118.789C55.0683 118.789 48.3341 118.612 43.1191 113.092C43.1191 113.092 47.5479 97.2588 58.1156 98.232" fill="white"/>
<path d="M55.0683 118.789C55.0683 118.789 48.3341 118.612 43.1191 113.092C43.1191 113.092 47.5479 97.2588 58.1156 98.232" stroke="#010E41" stroke-width="1.116" stroke-miterlimit="10" stroke-linecap="round" stroke-linejoin="round"/>
<path d="M82.8711 131.881C82.8711 131.881 64.8851 136.089 52.0298 128.948" stroke="#010E41" stroke-width="0.4313" stroke-miterlimit="10" stroke-linecap="round" stroke-linejoin="round"/>
<path d="M74.5335 128.388C68.6167 124.104 63.455 118.785 59.355 112.741" stroke="#010E41" stroke-width="0.4313" stroke-miterlimit="10" stroke-linecap="round" stroke-linejoin="round"/>
<path d="M66.8352 130.268C63.5481 127.57 60.8962 124.109 59.146 120.234" stroke="#010E41" stroke-width="0.4313" stroke-miterlimit="10" stroke-linecap="round" stroke-linejoin="round"/>
<path d="M58.1157 98.232C58.1157 98.232 60.4744 106.52 55.064 118.789" stroke="#010E41" stroke-width="0.4313" stroke-miterlimit="10" stroke-linecap="round" stroke-linejoin="round"/>
<path d="M79.1001 99.0408C79.1001 99.0408 81.4633 105.049 81.641 118.425" stroke="#010E41" stroke-width="0.4313" stroke-miterlimit="10" stroke-linecap="round" stroke-linejoin="round"/>
<path d="M75.0312 99.8008L75.2578 94.4326C71.6242 95.9968 67.4397 96.459 63.6729 95.8724L64.3303 100.076" fill="white"/>
<path d="M75.0312 99.8008L75.2578 94.4326C71.6242 95.9968 67.4397 96.459 63.6729 95.8724L64.3303 100.076" stroke="#010E41" stroke-width="1.116" stroke-miterlimit="10" stroke-linecap="round" stroke-linejoin="round"/>
<path d="M62.8022 90.9841L63.6729 95.8768C67.4442 96.4634 71.6242 96.0012 75.2578 94.437L75.3777 89.9175L62.8022 90.9841Z" fill="#010E41" stroke="#010E41" stroke-miterlimit="10"/>
<path d="M106.143 101.823C106.507 99.6363 107.103 98.6542 107.103 98.6542C107.294 97.8188 107.658 97.3655 107.698 95.7657C107.716 95.1302 107.698 94.3659 107.342 93.8593C105.375 91.0419 102.154 94.0059 102.154 94.0059C102.154 94.0059 102.82 89.0199 101.781 89.1532C100.741 89.2865 100.568 95.5924 100.568 95.5924C100.391 97.5121 100.502 100.307 100.502 100.307L100.031 101.974" fill="white"/>
<path d="M106.143 101.823C106.507 99.6363 107.103 98.6542 107.103 98.6542C107.294 97.8188 107.658 97.3655 107.698 95.7657C107.716 95.1302 107.698 94.3659 107.342 93.8593C105.375 91.0419 102.154 94.0059 102.154 94.0059C102.154 94.0059 102.82 89.0199 101.781 89.1532C100.741 89.2865 100.568 95.5924 100.568 95.5924C100.391 97.5121 100.502 100.307 100.502 100.307L100.031 101.974" stroke="#010E41" stroke-width="1.116" stroke-miterlimit="10" stroke-linecap="round" stroke-linejoin="round"/>
<path d="M102.03 95.3524C102.03 95.3524 104.029 93.4327 104.322 94.6725C104.615 95.9124 101.062 99.7519 101.062 99.7519" stroke="#010E41" stroke-width="1.116" stroke-miterlimit="10" stroke-linecap="round" stroke-linejoin="round"/>
<path d="M103.78 96.2323C103.78 96.2323 104.939 96.6678 105.601 97.7521" stroke="#010E41" stroke-width="1.116" stroke-miterlimit="10" stroke-linecap="round" stroke-linejoin="round"/>
<path d="M106.214 92.9794C106.214 92.9794 107.245 94.3125 106.489 95.8723C106.112 96.65 105.397 96.6545 105.29 95.9834" stroke="#010E41" stroke-width="1.116" stroke-miterlimit="10" stroke-linecap="round" stroke-linejoin="round"/>
<path d="M104.975 92.7527C104.975 92.7527 106.458 93.6282 105.699 95.4057C105.259 96.4367 104.157 95.939 104.673 94.7347C105.032 93.8948 104.144 93.006 104.144 93.006" stroke="#010E41" stroke-width="1.116" stroke-miterlimit="10" stroke-linecap="round" stroke-linejoin="round"/>
<path d="M106.245 96.2901C106.245 96.2901 106.254 96.8456 106.707 96.8634C107.196 96.8811 107.684 95.9435 107.564 94.9169" stroke="#010E41" stroke-width="1.116" stroke-miterlimit="10" stroke-linecap="round" stroke-linejoin="round"/>
<path d="M23.6807 145.279C18.8699 149.057 18.0304 156.02 21.8061 160.837L23.0455 162.419C26.8212 167.232 33.782 168.072 38.5972 164.295L40.3918 162.886L25.4753 143.875L23.6807 145.279Z" fill="white" stroke="#3F3F3F" stroke-miterlimit="10" stroke-linecap="round" stroke-linejoin="round"/>
<path d="M117.781 99.4008C117.91 99.2986 118.035 99.183 118.146 99.063L117.923 99.0764C117.675 99.0941 117.426 99.0719 117.186 99.0186L112.424 97.9565C111.078 97.6543 110.203 96.3567 110.425 94.9969L111.047 91.2329C111.291 89.7487 110.23 88.3666 108.733 88.22L104.766 87.8378C103.393 87.7045 102.363 86.5224 102.421 85.1404L102.612 80.5809L30.1748 140.178L45.0913 159.189L117.781 99.4008Z" fill="#754BDD" stroke="#010E41" stroke-miterlimit="10"/>
<path d="M30.1699 140.18L27.8184 142.026L42.735 161.039L45.0866 159.192L30.1699 140.18Z" fill="white" stroke="#3F3F3F" stroke-miterlimit="10" stroke-linecap="round" stroke-linejoin="round"/>
<path d="M27.8193 142.024L25.4678 143.87L40.3844 162.882L42.736 161.036L27.8193 142.024Z" fill="white" stroke="#3F3F3F" stroke-miterlimit="10" stroke-linecap="round" stroke-linejoin="round"/>
<path d="M118.874 97.8943L122.97 86.5091C121.531 85.7181 120.131 84.5449 118.941 83.0251C117.786 81.5541 116.995 79.9632 116.555 78.4212L104.588 79.6922C103.958 79.7588 103.362 80.0032 102.865 80.3943L102.612 80.5943L102.421 85.1537C102.363 86.5313 103.394 87.7178 104.766 87.8511L108.733 88.2333C110.23 88.3755 111.292 89.762 111.047 91.2462L110.425 95.0102C110.199 96.37 111.078 97.6721 112.424 97.9698L117.186 99.0319C117.431 99.0852 117.679 99.103 117.924 99.0897L118.146 99.0764C118.466 98.7297 118.714 98.3298 118.874 97.8943Z" fill="white" stroke="#3F3F3F" stroke-miterlimit="10" stroke-linecap="round" stroke-linejoin="round"/>
<path d="M122.97 86.5046L124.427 82.4518C125.271 80.1099 123.374 77.6969 120.9 77.9591L116.556 78.4212C116.991 79.9633 117.786 81.5542 118.941 83.0251C120.132 84.5405 121.531 85.7136 122.97 86.5046Z" fill="#754BDD" stroke="#010E41" stroke-miterlimit="10"/>
<path d="M102.918 86.7713L33.2935 144.151" stroke="#3F3F3F" stroke-miterlimit="10" stroke-linecap="round" stroke-linejoin="round"/>
<path d="M111.114 97.2189L41.4888 154.598" stroke="#3F3F3F" stroke-miterlimit="10" stroke-linecap="round" stroke-linejoin="round"/>
<path d="M52.0299 121.62L60.7853 134.183L62.953 137.685C62.953 137.685 66.7465 137.183 70.6689 139.525C71.886 140.253 69.8959 140.884 69.8959 140.884C69.8959 140.884 70.6156 143.062 66.1468 146.266C65.3117 146.866 64.4455 147.915 60.4388 144.257C60.4388 144.257 49.6801 137.347 44.625 127.748" fill="white"/>
<path d="M52.0299 121.62L60.7853 134.183L62.953 137.685C62.953 137.685 66.7465 137.183 70.6689 139.525C71.886 140.253 69.8959 140.884 69.8959 140.884C69.8959 140.884 70.6156 143.062 66.1468 146.266C65.3117 146.866 64.4455 147.915 60.4388 144.257C60.4388 144.257 49.6801 137.347 44.625 127.748" stroke="#010E41" stroke-width="1.116" stroke-miterlimit="10" stroke-linecap="round" stroke-linejoin="round"/>
<path d="M55.5481 117.656C55.5481 117.656 48.9605 117.07 43.5234 111.839" stroke="#010E41" stroke-width="0.4313" stroke-miterlimit="10" stroke-linecap="round" stroke-linejoin="round"/>
<path d="M84.4708 64.6229C84.4708 64.6229 87.1005 69.6579 87.1671 77.4302C87.2293 84.5937 81.9121 92.4772 72.1485 94.3614C62.9712 96.1345 54.6156 93.8726 50.1958 82.8473C45.7759 71.8265 49.2318 62.9032 60.8301 59.2059C72.2551 55.5708 81.348 58.2149 84.4708 64.6229Z" fill="#3F3F3F"/>
<path d="M80.6281 82.4029L80.1128 75.7593C80.1128 75.7593 87.4333 72.4486 88.5927 78.6656C89.7521 84.8826 83.2222 86.0869 80.6281 82.4029Z" fill="white" stroke="#010E41" stroke-width="1.116" stroke-miterlimit="10" stroke-linecap="round" stroke-linejoin="round"/>
<path d="M82.8181 82.4785C82.8359 82.474 82.8536 82.4696 82.867 82.4607C82.9247 82.4251 82.9425 82.3451 82.9069 82.2874C82.8892 82.2607 81.1479 79.4299 83.058 77.7457C83.7287 77.1547 84.435 76.8836 85.1502 76.9414C86.3895 77.0391 87.2691 78.0968 87.2779 78.1057C87.3224 78.159 87.4023 78.1679 87.4556 78.1235C87.5089 78.079 87.5178 77.999 87.4734 77.9457C87.4334 77.8968 86.5184 76.7992 85.1724 76.6881C84.3817 76.6259 83.6132 76.9147 82.8892 77.5546C80.8147 79.3811 82.6715 82.3896 82.6937 82.4207C82.7204 82.4607 82.7692 82.4829 82.8181 82.4785Z" fill="#3F3F3F"/>
<path d="M85.5769 79.6077C85.6169 79.6032 85.6524 79.581 85.6702 79.5455C85.7057 79.4833 85.6835 79.4077 85.6213 79.3722C85.5991 79.3588 83.2892 78.1057 81.9389 79.8788C81.8944 79.9365 81.9078 80.0121 81.9611 80.0565C82.0144 80.101 82.0943 80.0876 82.1387 80.0343C83.3559 78.4345 85.4792 79.581 85.4969 79.5944C85.5236 79.6077 85.5502 79.6121 85.5769 79.6077Z" fill="#3F3F3F"/>
<path d="M82.4495 64.8941C82.4495 64.8941 84.8482 69.9601 85.0303 77.7146C85.1991 84.8649 80.6371 92.6416 72.0595 94.3703C63.9971 95.9923 56.5966 93.6015 52.5277 82.5318C48.4588 71.4621 51.3594 62.6188 61.5273 59.1126C71.5353 55.6641 79.5977 58.4504 82.4495 64.8941Z" fill="white" stroke="#010E41" stroke-width="1.116" stroke-miterlimit="10" stroke-linecap="round" stroke-linejoin="round"/>
<path d="M49.2586 81.9363L52.328 80.8609C52.328 80.8609 55.3353 75.1194 57.2321 73.7462C60.7102 71.231 65.4188 71.5376 67.5466 64.9651L66.3827 56.304C66.3827 56.304 53.7362 55.2197 48.9654 63.3164C44.1946 71.4132 49.2586 81.9363 49.2586 81.9363Z" fill="#3F3F3F"/>
<path d="M87.5848 76.7725L84.3377 76.5459C84.3377 76.5459 81.4681 72.2531 79.2781 71.4354C75.2625 69.9289 71.3402 70.7377 67.5466 64.9607L66.3828 56.2996C66.3828 56.2996 76.2042 52.1934 82.9429 58.7348C89.6859 65.2806 87.5848 76.7725 87.5848 76.7725Z" fill="#3F3F3F"/>
<path d="M52.5055 79.31C52.5055 79.31 46.1089 77.9146 46.6331 84.216C47.1572 90.5175 53.7759 89.9486 55.2996 85.7092" fill="white"/>
<path d="M52.5055 79.31C52.5055 79.31 46.1089 77.9146 46.6331 84.216C47.1572 90.5175 53.7759 89.9486 55.2996 85.7092" stroke="#010E41" stroke-width="1.116" stroke-miterlimit="10" stroke-linecap="round" stroke-linejoin="round"/>
<path d="M53.2118 86.358C53.194 86.3624 53.1762 86.358 53.1585 86.3536C53.0918 86.3313 53.0519 86.2647 53.0741 86.1936C53.0829 86.1625 54.0158 82.9718 51.7281 81.8563C50.9241 81.4653 50.1734 81.3897 49.4982 81.6342C48.3299 82.0563 47.7569 83.3095 47.7525 83.3184C47.7258 83.3806 47.6503 83.4117 47.5837 83.3806C47.5215 83.3539 47.4904 83.2784 47.5215 83.2117C47.5481 83.1584 48.1389 81.8519 49.4094 81.3897C50.1556 81.1187 50.973 81.1987 51.8392 81.6208C54.3223 82.834 53.3273 86.2247 53.3139 86.2602C53.305 86.318 53.2606 86.3536 53.2118 86.358Z" fill="#3F3F3F"/>
<path d="M49.7956 84.3227C49.7556 84.3271 49.7156 84.3138 49.689 84.2871C49.6401 84.2382 49.6401 84.1583 49.689 84.1094C49.7068 84.0916 51.6035 82.2696 53.3759 83.625C53.4337 83.6694 53.4425 83.745 53.3981 83.8027C53.3537 83.8605 53.2782 83.8694 53.2204 83.825C51.6213 82.6029 49.88 84.2738 49.8622 84.2871C49.8445 84.3049 49.8223 84.3182 49.7956 84.3227Z" fill="#3F3F3F"/>
<path d="M71.1354 86.4291C69.2209 86.6868 68.7811 85.1226 68.7767 85.1048C68.7589 85.0382 68.7989 84.9671 68.8655 84.9493C68.9277 84.9315 69.0032 84.9715 69.021 85.0382C69.0388 85.1004 69.4608 86.5758 71.4464 86.1091C71.513 86.0958 71.5841 86.1358 71.5974 86.2025C71.6152 86.2691 71.5707 86.3402 71.5041 86.3536C71.3797 86.3891 71.2554 86.4158 71.1354 86.4291Z" fill="#3F3F3F" stroke="#3F3F3F" stroke-width="0.25" stroke-miterlimit="10"/>
<path d="M58.511 77.2925C58.511 77.2925 57.1162 76.3504 59.5637 74.6084C62.0158 72.8664 62.9841 73.0486 63.5039 73.684C63.9792 74.2662 63.5039 75.2927 62.1046 76.2437C60.4344 77.3858 59.275 77.8391 58.511 77.2925Z" fill="#3F3F3F"/>
<path d="M63.8901 81.1675C64.0056 82.0207 63.5303 82.7895 62.8329 82.8829C62.131 82.9762 61.4736 82.3629 61.3581 81.5097C61.2426 80.6565 61.7179 79.8877 62.4153 79.7944C63.1172 79.701 63.7746 80.3143 63.8901 81.1675Z" fill="#3F3F3F"/>
<path d="M77.4165 79.3456C77.532 80.1988 77.0567 80.9676 76.3592 81.0609C75.6574 81.1542 75 80.541 74.8845 79.6877C74.769 78.8345 75.2443 78.0657 75.9417 77.9724C76.6391 77.8791 77.301 78.4923 77.4165 79.3456Z" fill="#3F3F3F"/>
<path d="M78.8244 74.3195C78.8244 74.3195 79.9216 73.0441 77.0965 72.0087C74.2713 70.9777 73.3873 71.4088 73.0542 72.1598C72.7477 72.8441 73.4806 73.7107 75.0798 74.2573C76.9987 74.9194 78.2336 75.0483 78.8244 74.3195Z" fill="#3F3F3F"/>
<path d="M71.1574 83.345C71.1085 83.3495 71.0597 83.3317 71.033 83.2873C70.9975 83.2295 71.0153 83.1495 71.073 83.1139C71.0819 83.1095 72.0236 82.5096 72.3479 81.5497C72.6011 80.7987 72.3523 79.7544 71.8193 79.3589C71.4994 79.1233 71.1174 79.15 70.7043 79.4389C70.691 79.4477 70.6688 79.4655 70.6421 79.4833C69.2207 80.5898 68.4699 80.2788 68.0879 79.8255C67.3905 78.99 67.3861 75.0839 67.3328 74.2573C67.3283 74.1862 67.3816 74.1284 67.4527 74.124C67.5238 74.1195 67.5815 74.1729 67.586 74.244C67.7237 76.4615 67.737 79.0122 68.2834 79.6655C68.732 80.2032 69.4739 80.0743 70.4866 79.2878C70.5177 79.2655 70.54 79.2433 70.5577 79.2344C71.0597 78.8789 71.5616 78.8523 71.9703 79.1544C72.5877 79.6166 72.8765 80.772 72.5833 81.6297C72.2324 82.674 71.2462 83.3006 71.2018 83.3272C71.1885 83.3361 71.1707 83.3406 71.1574 83.345Z" fill="#3F3F3F" stroke="#3F3F3F" stroke-width="0.25" stroke-miterlimit="10"/>
<path d="M54.9174 76.5681C54.9174 76.5681 56.2633 77.7457 56.2544 81.3497C56.2411 84.9537 55.1617 86.558 55.9613 88.3355C56.7608 90.1086 57.6804 91.6995 56.5254 94.7836C56.5254 94.7836 57.2228 92.0284 55.0862 90.0997C52.9496 88.1711 53.7447 84.6204 54.0645 82.4918C54.3843 80.3632 51.2305 78.1501 51.2305 78.1501" fill="#3F3F3F"/>
<path d="M82.6227 74.3506C82.6227 74.3506 81.6365 75.8437 82.6005 79.3144C83.5644 82.7851 85.0303 84.0516 84.7282 85.9758C84.4262 87.9 83.9597 89.6775 85.8876 92.3439C85.8876 92.3439 84.4883 89.8686 86.0386 87.4423C87.5889 85.0159 85.8832 81.803 85.017 79.8343C84.1463 77.8657 86.6028 74.8972 86.6028 74.8972" fill="#3F3F3F"/>
<path d="M102.225 115.923C101.443 116.305 100.502 116.105 99.9642 115.425C99.2001 114.466 98.1563 112.968 98.5649 112.399C99.1868 111.533 101.172 114.341 101.172 114.341C101.172 114.341 98.7426 111.03 99.8309 110.413C100.924 109.795 102.931 113.292 102.931 113.292C102.931 113.292 101.03 109.702 101.514 108.711C101.999 107.715 104.437 112.404 104.437 112.404C104.437 112.404 102.376 108.68 103.389 108.057C104.402 107.435 106.454 110.942 106.174 112.172C105.894 113.399 103.353 115.065 103.389 115.172C103.411 115.221 102.86 115.612 102.225 115.923Z" fill="white" stroke="#010E41" stroke-width="1.116" stroke-miterlimit="10" stroke-linecap="round" stroke-linejoin="round"/>
</g>
<defs>
<clipPath id="clip0_139_16665">
<rect width="316" height="210" fill="white"/>
</clipPath>
</defs>
</svg>
