<svg width="260" height="243" viewBox="0 0 260 243" fill="none" xmlns="http://www.w3.org/2000/svg">
<path opacity="0.21" d="M36.964 107.269C51.5372 104.223 60.8856 89.9213 57.8441 75.3255C54.8026 60.7297 40.523 51.367 25.9497 54.4132C11.3765 57.4593 2.02812 71.761 5.06961 86.3568C8.11111 100.953 22.3907 110.315 36.964 107.269Z" stroke="#3F3F3F" stroke-miterlimit="10" stroke-dasharray="3 3"/>
<path opacity="0.21" d="M3.46961 53.8359C3.32637 52.4491 4.33437 51.2111 5.71904 51.0676C7.10371 50.9241 8.33984 51.9337 8.48308 53.3205C8.62632 54.7073 7.61832 55.9453 6.23365 56.0888C4.84898 56.2323 3.61286 55.2227 3.46961 53.8359Z" fill="#BBBBBB"/>
<path opacity="0.21" d="M241.363 112.293C251.89 101.75 251.89 84.6565 241.363 74.1133C230.837 63.5702 213.769 63.5702 203.242 74.1133C192.715 84.6565 192.715 101.75 203.242 112.293C213.769 122.837 230.837 122.837 241.363 112.293Z" stroke="#3F3F3F" stroke-miterlimit="10" stroke-dasharray="3 3"/>
<path opacity="0.21" d="M246.647 62.8634C248.01 62.5978 249.336 63.4904 249.602 64.856C249.867 66.2215 248.976 67.5499 247.612 67.8156C246.249 68.0812 244.922 67.1886 244.657 65.823C244.392 64.4522 245.283 63.1291 246.647 62.8634Z" fill="#BBBBBB"/>
<path opacity="0.21" d="M94.8621 215.101C100.183 205.082 96.3867 192.64 86.3831 187.311C76.3795 181.983 63.9567 185.785 58.636 195.804C53.3153 205.823 57.1114 218.265 67.115 223.594C77.1186 228.923 89.5414 225.12 94.8621 215.101Z" stroke="#3F3F3F" stroke-miterlimit="10" stroke-dasharray="3 3"/>
<path opacity="0.21" d="M103.065 218.962C103.473 219.94 103.012 221.066 102.036 221.47C101.06 221.879 99.9348 221.417 99.5316 220.439C99.1231 219.461 99.5847 218.335 100.561 217.931C101.532 217.522 102.656 217.984 103.065 218.962Z" fill="#BBBBBB"/>
<path opacity="0.21" d="M175.228 208.099C178.819 193.628 170.017 178.982 155.569 175.385C141.12 171.789 126.497 180.604 122.906 195.075C119.315 209.545 128.117 224.192 142.565 227.788C157.013 231.384 171.637 222.569 175.228 208.099Z" stroke="#3F3F3F" stroke-miterlimit="10" stroke-dasharray="3 3"/>
<path opacity="0.21" d="M173.842 171.46C175.232 171.46 176.362 172.592 176.362 173.984C176.362 175.376 175.238 176.508 173.842 176.508C172.452 176.508 171.322 175.376 171.322 173.984C171.322 172.592 172.452 171.46 173.842 171.46Z" fill="#BBBBBB"/>
<path opacity="0.21" d="M130.403 36.572C139.411 33.4962 144.223 23.6895 141.152 14.668C138.081 5.64658 128.29 0.826657 119.282 3.90243C110.275 6.97821 105.462 16.7849 108.533 25.8064C111.604 34.8278 121.396 39.6478 130.403 36.572Z" stroke="#3F3F3F" stroke-miterlimit="10" stroke-dasharray="3 3"/>
<path opacity="0.21" d="M147.64 4.70245C146.695 6.05207 144.833 6.3815 143.486 5.43571C142.138 4.48992 141.809 2.6249 142.753 1.27528C143.698 -0.0743373 145.56 -0.403771 146.907 0.542023C148.255 1.48782 148.584 3.35284 147.64 4.70245Z" fill="#BBBBBB"/>
<path d="M9.98975 232.809H244.938" stroke="#010E41" stroke-width="2" stroke-miterlimit="10"/>
<path d="M235.782 23.613C235.782 19.0222 232.068 15.3028 227.484 15.3028H22.3458C17.762 15.3028 14.0483 19.0222 14.0483 23.613V31.5938H235.782V23.613Z" fill="white" stroke="#3F3F3F" stroke-miterlimit="10" stroke-linecap="round" stroke-linejoin="round"/>
<path d="M14.0483 31.5991V179.446C14.0483 184.037 17.762 187.756 22.3458 187.756H227.479C232.063 187.756 235.776 184.037 235.776 179.446V31.5991H14.0483Z" stroke="white" stroke-miterlimit="10" stroke-linecap="round" stroke-linejoin="round"/>
<path d="M14.0483 31.5991V179.446C14.0483 184.037 17.762 187.756 22.3458 187.756H227.479C232.063 187.756 235.776 184.037 235.776 179.446V31.5991H14.0483Z" fill="white" stroke="#3F3F3F" stroke-miterlimit="10" stroke-linecap="round" stroke-linejoin="round"/>
<path d="M20.8813 55.4619H228.948" stroke="#010E41" stroke-miterlimit="10"/>
<path d="M124.912 38.1134V181.242" stroke="#010E41" stroke-miterlimit="10"/>
<path d="M176.713 38.1931V181.316" stroke="#010E41" stroke-miterlimit="10"/>
<path d="M72.6768 38.1931V181.316" stroke="#010E41" stroke-miterlimit="10"/>
<path d="M121.406 41.3387H75.6689V51.3386H121.406V41.3387Z" fill="#754BDD" stroke="#010E41" stroke-miterlimit="10" stroke-linecap="round" stroke-linejoin="round"/>
<path d="M69.2815 41.3387H23.5449V51.3386H69.2815V41.3387Z" fill="#754BDD" stroke="#010E41" stroke-miterlimit="10" stroke-linecap="round" stroke-linejoin="round"/>
<path d="M225.643 41.3387H179.907V51.3386H225.643V41.3387Z" fill="#754BDD" stroke="#010E41" stroke-miterlimit="10" stroke-linecap="round" stroke-linejoin="round"/>
<path d="M173.524 41.3387H127.788V51.3386H173.524V41.3387Z" fill="#FFD11C" stroke="#010E41" stroke-miterlimit="10" stroke-linecap="round" stroke-linejoin="round"/>
<path d="M26.9403 28.4961C29.3136 28.4961 31.2376 26.5692 31.2376 24.1922C31.2376 21.8152 29.3136 19.8883 26.9403 19.8883C24.567 19.8883 22.6431 21.8152 22.6431 24.1922C22.6431 26.5692 24.567 28.4961 26.9403 28.4961Z" fill="#05001C"/>
<path d="M39.8373 28.4961C42.2106 28.4961 44.1346 26.5692 44.1346 24.1922C44.1346 21.8152 42.2106 19.8883 39.8373 19.8883C37.464 19.8883 35.54 21.8152 35.54 24.1922C35.54 26.5692 37.464 28.4961 39.8373 28.4961Z" fill="#05001C"/>
<path d="M52.7343 28.4961C55.1076 28.4961 57.0315 26.5692 57.0315 24.1922C57.0315 21.8152 55.1076 19.8883 52.7343 19.8883C50.361 19.8883 48.437 21.8152 48.437 24.1922C48.437 26.5692 50.361 28.4961 52.7343 28.4961Z" fill="#05001C"/>
<path d="M220.969 119.919L188.459 116.439C184.878 116.056 182.283 112.836 182.671 109.25L185.297 84.6168C185.679 81.0302 188.894 78.4319 192.475 78.8198L224.985 82.3001C228.566 82.6827 231.161 85.9026 230.773 89.4892L228.147 114.122C227.765 117.704 224.55 120.302 220.969 119.919Z" fill="white" stroke="#010E41" stroke-miterlimit="10"/>
<path opacity="0.3" d="M220.969 119.919L188.459 116.439C184.878 116.056 182.283 112.836 182.671 109.25L185.297 84.6168C185.679 81.0302 188.894 78.4319 192.475 78.8198L224.985 82.3001C228.566 82.6827 231.161 85.9026 230.773 89.4892L228.147 114.122C227.765 117.704 224.55 120.302 220.969 119.919Z" fill="#BBBBBB"/>
<path d="M226.062 86.5104L190.514 82.7077L190.111 86.4852L225.659 90.2879L226.062 86.5104Z" fill="white" stroke="#010E41" stroke-miterlimit="10"/>
<path d="M196.48 92.5179C196.337 93.8463 195.149 94.808 193.822 94.6698C192.496 94.5264 191.536 93.3362 191.674 92.0078C191.817 90.6794 193.005 89.7177 194.332 89.8559C195.658 89.9993 196.618 91.1895 196.48 92.5179Z" stroke="#3F3F3F" stroke-miterlimit="10" stroke-linecap="round" stroke-linejoin="round"/>
<path d="M195.562 101.099C195.419 102.427 194.231 103.389 192.904 103.251C191.578 103.108 190.618 101.917 190.756 100.589C190.899 99.2606 192.087 98.2989 193.414 98.437C194.745 98.5805 195.706 99.7707 195.562 101.099Z" stroke="#3F3F3F" stroke-miterlimit="10" stroke-linecap="round" stroke-linejoin="round"/>
<path d="M194.644 109.686C194.501 111.014 193.313 111.976 191.987 111.838C190.66 111.694 189.7 110.504 189.838 109.176C189.981 107.847 191.17 106.885 192.496 107.024C193.827 107.162 194.788 108.352 194.644 109.686Z" stroke="#3F3F3F" stroke-miterlimit="10" stroke-linecap="round" stroke-linejoin="round"/>
<path d="M198.533 94.8292L222.497 97.3956" stroke="#3F3F3F" stroke-miterlimit="10" stroke-linecap="round" stroke-linejoin="round"/>
<path d="M197.616 103.41L221.585 105.977" stroke="#3F3F3F" stroke-miterlimit="10" stroke-linecap="round" stroke-linejoin="round"/>
<path d="M196.698 111.997L220.667 114.558" stroke="#3F3F3F" stroke-miterlimit="10" stroke-linecap="round" stroke-linejoin="round"/>
<path d="M195.631 105.26C195.515 105.249 195.409 105.185 195.345 105.079L190.321 97.029C190.209 96.8483 190.262 96.6039 190.443 96.4923C190.623 96.3807 190.867 96.4339 190.979 96.6145L196.003 104.664C196.114 104.845 196.061 105.089 195.881 105.201C195.801 105.249 195.716 105.265 195.631 105.26Z" fill="#010E41"/>
<path d="M190.273 103.538C190.172 103.527 190.072 103.474 190.008 103.389C189.875 103.219 189.907 102.975 190.082 102.842L197.605 97.0609C197.775 96.928 198.019 96.9599 198.152 97.1352C198.284 97.3053 198.252 97.5497 198.077 97.6825L190.554 103.464C190.469 103.522 190.369 103.549 190.273 103.538Z" fill="#010E41"/>
<path d="M192.109 110.839C192.093 110.839 192.072 110.833 192.056 110.828C191.95 110.801 191.859 110.732 191.806 110.637L190.883 108.915C190.782 108.724 190.851 108.49 191.042 108.389C191.228 108.288 191.467 108.357 191.568 108.549L192.289 109.888L196.714 106.885C196.889 106.769 197.133 106.811 197.255 106.992C197.377 107.172 197.329 107.411 197.149 107.534L192.369 110.78C192.289 110.828 192.199 110.849 192.109 110.839Z" fill="#010E41"/>
<path d="M194.066 93.5221C194.05 93.5221 194.029 93.5168 194.013 93.5115C193.907 93.4849 193.817 93.4159 193.764 93.3202L192.841 91.5987C192.74 91.4074 192.809 91.1736 193 91.0726C193.186 90.9717 193.424 91.0407 193.525 91.232L194.247 92.571L198.671 89.5689C198.846 89.452 199.09 89.4945 199.212 89.6752C199.334 89.8558 199.287 90.0949 199.106 90.2172L194.326 93.4637C194.252 93.5115 194.156 93.5327 194.066 93.5221Z" fill="#010E41"/>
<path d="M199.435 93.7187C200.172 93.5646 200.968 93.368 201.435 92.7729C201.897 92.1778 201.711 91.0726 200.963 90.9664C200.157 90.8495 199.695 92.045 200.13 92.7357C200.565 93.4265 201.44 93.6762 202.236 93.8569C202.873 94.0003 203.525 94.1385 204.173 94.0322C204.815 93.9313 205.457 93.5434 205.669 92.927C205.886 92.3107 205.51 91.503 204.868 91.418C203.934 91.2958 203.446 92.6932 203.976 93.469C204.507 94.2448 205.52 94.4945 206.443 94.6858C207.244 94.8505 208.072 95.0205 208.878 94.8664C209.685 94.7176 210.475 94.1704 210.656 93.368C210.836 92.5657 210.157 91.6199 209.345 91.7368C208.656 91.8378 208.226 92.656 208.385 93.3362C208.544 94.0163 209.138 94.5264 209.796 94.7708C210.454 95.0099 211.165 95.0311 211.865 95.0471C212.486 95.063 213.123 95.0737 213.706 94.8717C214.295 94.6698 214.831 94.2129 214.948 93.6018C215.064 92.9908 214.619 92.2841 213.998 92.2735C213.404 92.2681 212.942 92.9058 212.979 93.5009C213.017 94.096 213.42 94.6114 213.902 94.9674C215.568 96.1948 218.269 95.5625 219.218 93.7187C219.579 93.0173 219.558 91.9387 218.815 91.6837C218.253 91.4924 217.627 91.9759 217.499 92.5604C217.372 93.1449 217.621 93.7453 217.972 94.2288C219.001 95.6528 220.98 96.3117 222.651 95.7857" stroke="#3F3F3F" stroke-miterlimit="10" stroke-linecap="round" stroke-linejoin="round"/>
<path d="M198.894 101.976C199.695 102.247 200.671 101.742 200.921 100.929C201.165 100.116 200.539 98.4902 199.817 98.9365C198.756 99.5848 200.051 101.503 201.032 102.268C202.014 103.033 203.441 103.177 204.555 102.624C205.181 102.316 205.733 101.742 205.786 101.046C205.839 100.35 205.202 99.6167 204.518 99.7601C203.648 99.9408 203.552 101.296 204.189 101.917C204.825 102.539 205.801 102.619 206.693 102.661C207.351 102.693 208.035 102.725 208.65 102.491C209.266 102.257 209.807 101.689 209.796 101.025C209.78 100.366 209.006 99.7814 208.428 100.1C207.743 100.483 207.971 101.551 208.481 102.146C209.494 103.336 211.282 103.788 212.741 103.23C214.2 102.667 215.218 101.131 215.176 99.5635C214.067 99.6113 213.293 100.924 213.584 102.002C213.876 103.076 214.969 103.798 216.072 103.915C217.176 104.032 218.279 103.639 219.25 103.097C220.067 102.64 220.921 101.731 220.497 100.897C220.073 100.068 218.64 100.345 218.322 101.221C218.004 102.098 218.582 103.092 219.383 103.559C220.184 104.027 221.15 104.096 222.078 104.16" stroke="#3F3F3F" stroke-miterlimit="10" stroke-linecap="round" stroke-linejoin="round"/>
<path d="M197.494 110.562C198.73 110.716 199.95 109.537 199.844 108.293C199.282 108.086 198.656 108.665 198.671 109.266C198.687 109.866 199.181 110.366 199.738 110.584C200.295 110.801 200.91 110.791 201.51 110.78C202.433 110.764 203.436 110.711 204.125 110.1C204.81 109.484 204.794 108.097 203.908 107.842C203.213 107.64 202.491 108.341 202.491 109.064C202.491 109.787 203.043 110.419 203.69 110.738C204.337 111.056 205.075 111.12 205.796 111.179C206.475 111.237 207.176 111.29 207.823 111.083C208.47 110.876 209.059 110.329 209.107 109.648C209.155 108.968 208.454 108.283 207.812 108.506C206.953 108.809 207.128 110.127 207.712 110.828C209.192 112.603 212.258 112.682 213.829 110.987C214.327 110.451 214.651 109.553 214.152 109.021C213.664 108.506 212.683 108.82 212.428 109.478C212.173 110.143 212.523 110.918 213.091 111.349C213.653 111.779 214.38 111.928 215.086 111.997C216.152 112.103 217.346 112.018 218.099 111.258C218.853 110.499 218.709 108.905 217.675 108.644C216.768 108.421 215.908 109.446 216.057 110.366C216.211 111.285 217.081 111.954 217.988 112.156C218.895 112.364 219.845 112.199 220.762 112.039" stroke="#3F3F3F" stroke-miterlimit="10" stroke-linecap="round" stroke-linejoin="round"/>
<path d="M115.851 164.164L83.1972 165.886C79.6002 166.077 76.5338 163.309 76.3428 159.706L75.043 134.967C74.852 131.365 77.6161 128.293 81.213 128.102L113.867 126.381C117.464 126.189 120.53 128.958 120.721 132.56L122.021 157.299C122.212 160.902 119.448 163.978 115.851 164.164Z" fill="white" stroke="#010E41" stroke-miterlimit="10"/>
<path d="M115.606 130.383L79.9038 132.263L80.103 136.057L115.805 134.177L115.606 130.383Z" fill="#FFD11C" stroke="#010E41" stroke-miterlimit="10" stroke-linecap="round" stroke-linejoin="round"/>
<path d="M115.966 137.285L80.2642 139.165L80.3898 141.558L116.092 139.678L115.966 137.285Z" fill="#754BDD" stroke="#010E41" stroke-miterlimit="10" stroke-linecap="round" stroke-linejoin="round"/>
<path d="M116.173 141.153L80.4707 143.032L80.5963 145.425L116.298 143.546L116.173 141.153Z" fill="#754BDD" stroke="#010E41" stroke-miterlimit="10" stroke-linecap="round" stroke-linejoin="round"/>
<path d="M102.373 145.761L80.6733 146.904L80.799 149.297L102.499 148.154L102.373 145.761Z" fill="#754BDD" stroke="#010E41" stroke-miterlimit="10" stroke-linecap="round" stroke-linejoin="round"/>
<path d="M104.335 149.541L80.876 150.776L81.0016 153.169L104.46 151.934L104.335 149.541Z" fill="#754BDD" stroke="#010E41" stroke-miterlimit="10" stroke-linecap="round" stroke-linejoin="round"/>
<path d="M102.776 153.503L81.0762 154.646L81.2018 157.039L102.902 155.896L102.776 153.503Z" fill="#754BDD" stroke="#010E41" stroke-miterlimit="10" stroke-linecap="round" stroke-linejoin="round"/>
<path d="M106.736 157.177L81.2803 158.517L81.4059 160.91L106.862 159.57L106.736 157.177Z" fill="#754BDD" stroke="#010E41" stroke-miterlimit="10" stroke-linecap="round" stroke-linejoin="round"/>
<path d="M164.903 118.012L132.393 114.531C128.812 114.149 126.217 110.929 126.605 107.342L129.231 82.7092C129.613 79.1227 132.828 76.5244 136.409 76.9123L168.919 80.3926C172.5 80.7751 175.095 83.9951 174.707 87.5817L172.081 112.215C171.699 115.801 168.484 118.394 164.903 118.012Z" fill="#FFD11C" stroke="#010E41" stroke-miterlimit="10" stroke-linecap="round" stroke-linejoin="round"/>
<path d="M170.004 84.6058L134.456 80.8031L134.053 84.5806L169.601 88.3833L170.004 84.6058Z" fill="white" stroke="#010E41" stroke-miterlimit="10"/>
<path d="M154.941 109.438L131.663 106.948L131.408 109.331L154.687 111.821L154.941 109.438Z" fill="white" stroke="#010E41" stroke-miterlimit="10"/>
<path d="M166.639 106.79L132.077 103.093L131.823 105.476L166.384 109.173L166.639 106.79Z" fill="white" stroke="#010E41" stroke-miterlimit="10"/>
<path d="M162.788 102.482L132.488 99.2408L132.234 101.623L162.534 104.865L162.788 102.482Z" fill="white" stroke="#010E41" stroke-miterlimit="10"/>
<path d="M165.662 98.8891L132.899 95.3843L132.645 97.767L165.408 101.272L165.662 98.8891Z" fill="white" stroke="#010E41" stroke-miterlimit="10"/>
<path d="M163.61 94.7725L133.311 91.5312L133.056 93.914L163.356 97.1552L163.61 94.7725Z" fill="white" stroke="#010E41" stroke-miterlimit="10"/>
<path d="M169.267 91.4768L133.718 87.674L133.464 90.0567L169.012 93.8595L169.267 91.4768Z" fill="white" stroke="#010E41" stroke-miterlimit="10"/>
<path d="M215.059 113.75C215.059 113.75 224.534 114.011 222.874 118.687C222.874 118.687 230.779 121.179 228.344 125.27C228.344 125.27 233.782 131.093 229.771 133.16C229.771 133.16 235.251 138.458 230.567 142.284C230.567 142.284 233.973 147.863 229.251 148.468C229.251 148.468 229.988 154.786 225.203 152.725C225.203 152.725 220.253 157.65 217.797 153.527C217.797 153.527 214.932 156.997 209.972 153.139C209.972 153.139 204.417 153.92 202.406 151.577L215.059 113.75Z" fill="#3F3F3F"/>
<path d="M215.059 113.75C215.059 113.75 200.56 106.142 198.135 114.276C198.135 114.276 187.976 114.085 189.344 118.617C189.344 118.617 180.294 122.401 183.275 127.528C183.275 127.528 176.691 131.364 180.331 136.2C180.331 136.2 176.235 140.982 180.14 142.517C180.14 142.517 179.503 148.569 184.013 147.884C184.013 147.884 186.076 152.198 189.238 149.765C189.238 149.765 192.172 153.681 197.748 151.662C197.748 151.662 202.952 153.75 205.467 151.954L215.059 113.75Z" fill="#3F3F3F"/>
<path d="M201.414 239.344C202.905 239.079 204.396 239.142 205.733 239.536C206.242 239.684 206.804 240.014 206.704 240.577C206.613 241.087 206.04 241.427 205.542 241.619C203.08 242.538 198.751 242.07 198.926 240.248C199.717 240.125 200.502 240.003 201.292 239.886" fill="#3F3F3F"/>
<path d="M185.052 240.269C186.543 239.998 188.034 240.067 189.371 240.46C189.88 240.609 190.443 240.938 190.342 241.502C190.252 242.012 189.679 242.352 189.18 242.543C186.718 243.462 182.389 242.995 182.564 241.172C183.355 241.05 184.14 240.928 184.93 240.811" fill="#3F3F3F"/>
<path d="M158.638 232.777C160.129 232.511 161.619 232.575 162.956 232.968C163.466 233.117 164.028 233.446 163.927 234.01C163.837 234.52 163.264 234.86 162.765 235.051C160.304 235.97 155.975 235.503 156.15 233.68C156.94 233.558 157.725 233.436 158.516 233.319" fill="#3F3F3F"/>
<path d="M137.555 240.327C139.045 240.062 140.536 240.125 141.873 240.519C142.382 240.667 142.945 240.997 142.844 241.56C142.754 242.07 142.197 242.458 141.682 242.602C139.152 243.303 134.727 242.001 134.902 240.184C135.692 240.062 136.647 240.992 137.438 240.869" fill="#3F3F3F"/>
<path d="M218.327 234.892C219.818 234.626 221.309 234.69 222.646 235.083C223.155 235.232 223.717 235.561 223.617 236.124C223.526 236.635 222.953 236.975 222.455 237.166C219.993 238.085 215.664 237.618 215.839 235.795C216.63 235.673 217.415 235.551 218.205 235.434" fill="#3F3F3F"/>
<path d="M231.574 239.498C233.065 239.233 234.556 239.297 235.893 239.69C236.402 239.839 236.965 240.168 236.864 240.731C236.774 241.241 236.201 241.581 235.702 241.773C233.24 242.692 228.911 242.224 229.086 240.402C229.877 240.28 230.662 240.157 231.452 240.04" fill="#3F3F3F"/>
<path d="M209.881 213.601L213.579 212.984L215.982 222.251C214.874 222.878 213.712 223.351 212.529 223.717L209.881 213.601Z" fill="#3F3F3F" stroke="#3F3F3F" stroke-miterlimit="10" stroke-linecap="round" stroke-linejoin="round"/>
<path d="M215.982 222.251L219.372 235.338C219.372 235.338 218.014 237.315 215.796 236.204L212.528 223.723C213.717 223.351 214.873 222.873 215.982 222.251Z" fill="white" stroke="#3F3F3F" stroke-miterlimit="10" stroke-linecap="round" stroke-linejoin="round"/>
<path d="M189.721 222.405L191.52 212.644L195.133 213.659L193.477 222.522C192.225 222.549 190.973 222.501 189.721 222.405Z" fill="#3F3F3F" stroke="#3F3F3F" stroke-miterlimit="10" stroke-linecap="round" stroke-linejoin="round"/>
<path d="M193.472 222.517L190.888 236.353C190.888 236.353 188.825 237.564 187.286 235.614L189.716 222.4C190.973 222.501 192.225 222.549 193.472 222.517Z" fill="white" stroke="#3F3F3F" stroke-miterlimit="10" stroke-linecap="round" stroke-linejoin="round"/>
<path d="M227.808 219.477L233.081 239.823C233.081 239.823 231.638 241.927 229.277 240.742L224.248 221.534C225.447 220.944 226.614 220.232 227.808 219.477Z" fill="white" stroke="#3F3F3F" stroke-miterlimit="10" stroke-linecap="round" stroke-linejoin="round"/>
<path d="M222.985 216.704L226.922 216.045L227.813 219.472C226.619 220.227 225.452 220.939 224.253 221.534L222.985 216.704Z" fill="#3F3F3F" stroke="#3F3F3F" stroke-miterlimit="10" stroke-linecap="round" stroke-linejoin="round"/>
<path d="M206.21 222.533L202.783 240.907C202.783 240.907 200.587 242.198 198.947 240.12L202.157 222.697C203.483 222.735 204.879 222.564 206.21 222.533Z" fill="white" stroke="#3F3F3F" stroke-miterlimit="10" stroke-linecap="round" stroke-linejoin="round"/>
<path d="M207.287 216.762L206.21 222.533C204.873 222.565 203.478 222.735 202.157 222.697L203.451 215.678L207.287 216.762Z" fill="#3F3F3F" stroke="#3F3F3F" stroke-miterlimit="10" stroke-linecap="round" stroke-linejoin="round"/>
<path d="M197.276 219.461C197.276 219.461 213.669 222.878 234.784 215.785C234.784 215.785 239.246 193.845 239.766 180.71C240.291 167.576 236.095 155.094 222.715 154.967C209.335 154.834 198.454 174.935 196.878 186.491C196.878 186.491 183.498 187.018 181.27 195.163C179.042 203.309 182.713 217.23 182.713 217.23C182.713 217.23 195.313 219.461 197.276 219.461Z" fill="#010E41"/>
<path d="M168.58 144.606L163.688 147.863" stroke="#010E41" stroke-miterlimit="10" stroke-linecap="round" stroke-linejoin="round"/>
<path d="M163.688 147.863C167.057 156.582 171.551 161.04 173.068 162.368C176.909 165.875 183.795 165.312 188.835 165.259L192.984 154.255C192.947 154.26 192.905 154.276 192.862 154.303C187.902 154.202 180.183 154.356 177.434 154.584C175.535 152.145 171.195 147.177 168.58 144.606" fill="white"/>
<path d="M163.688 147.863C167.057 156.582 171.551 161.04 173.068 162.368C176.909 165.875 183.795 165.312 188.835 165.259L192.984 154.255C192.947 154.26 192.905 154.276 192.862 154.303C187.902 154.202 180.183 154.356 177.434 154.584C175.535 152.145 171.195 147.177 168.58 144.606" stroke="#010E41" stroke-miterlimit="10" stroke-linecap="round" stroke-linejoin="round"/>
<path d="M163.858 148.394C162.617 146.492 161.651 145.812 161.651 145.812C161.126 145.105 160.601 144.829 159.906 143.341C159.63 142.751 159.327 142.029 159.455 141.402C160.139 137.943 164.383 139.398 164.383 139.398C164.383 139.398 161.71 134.988 162.733 134.685C163.763 134.383 166.527 140.238 166.527 140.238C167.482 141.97 168.532 144.637 168.532 144.637L170.484 146.561" fill="white"/>
<path d="M163.858 148.394C162.617 146.492 161.651 145.812 161.651 145.812C161.126 145.105 160.601 144.829 159.906 143.341C159.63 142.751 159.327 142.029 159.455 141.402C160.139 137.943 164.383 139.398 164.383 139.398C164.383 139.398 161.71 134.988 162.733 134.685C163.763 134.383 166.527 140.238 166.527 140.238C167.482 141.97 168.532 144.637 168.532 144.637L170.484 146.561" stroke="#010E41" stroke-miterlimit="10" stroke-linecap="round" stroke-linejoin="round"/>
<path d="M165.052 140.615C165.052 140.615 162.383 139.632 162.622 140.918C162.861 142.204 167.773 144.345 167.773 144.345" stroke="#010E41" stroke-miterlimit="10" stroke-linecap="round" stroke-linejoin="round"/>
<path d="M163.773 142.167C163.773 142.167 162.866 143.054 162.691 144.345" stroke="#010E41" stroke-miterlimit="10" stroke-linecap="round" stroke-linejoin="round"/>
<path d="M160.144 140.116C160.144 140.116 159.725 141.795 161.078 142.948C161.752 143.522 162.426 143.235 162.251 142.56" stroke="#010E41" stroke-miterlimit="10" stroke-linecap="round" stroke-linejoin="round"/>
<path d="M161.221 139.388C161.221 139.388 160.192 140.822 161.635 142.183C162.473 142.969 163.301 142.05 162.325 141.125C161.641 140.482 162.107 139.281 162.107 139.281" stroke="#010E41" stroke-miterlimit="10" stroke-linecap="round" stroke-linejoin="round"/>
<path d="M161.482 143.235C161.482 143.235 161.704 143.761 161.285 143.963C160.834 144.181 159.991 143.506 159.678 142.486" stroke="#010E41" stroke-miterlimit="10" stroke-linecap="round" stroke-linejoin="round"/>
<path d="M203.817 151.29C203.817 151.29 200.289 151.88 196.348 152.767C193.17 153.484 189.122 152.098 182.989 154.01C182.989 154.01 182.506 164.34 186.809 167.661C189.498 169.037 192.363 170.046 194.072 170.099C194.072 170.099 193.711 179.967 194.549 183.181C195.387 186.396 216.332 187.235 220.943 183.463L220.104 170.036C220.104 170.036 226.11 170.312 228.858 166.725C228.858 166.725 225.134 153.814 218.571 151.991C212.014 150.174 203.817 151.29 203.817 151.29Z" fill="white" stroke="#3F3F3F" stroke-miterlimit="10" stroke-linecap="round" stroke-linejoin="round"/>
<path d="M198.628 153.256C198.697 153.049 206.799 152.135 210.64 152.209C210.64 152.209 210.151 155.854 204.703 156.263C200.098 156.614 198.628 153.256 198.628 153.256Z" fill="white" stroke="#3F3F3F" stroke-miterlimit="10" stroke-linecap="round" stroke-linejoin="round"/>
<path d="M209.054 154C209.085 153.909 209.101 153.862 209.101 153.862L209.08 149.951L209.075 149.048C206.581 150.201 202.533 150.695 200.549 150.87L200.873 154.016" fill="white"/>
<path d="M209.054 154C209.085 153.909 209.101 153.862 209.101 153.862L209.08 149.951L209.075 149.048C206.581 150.201 202.533 150.695 200.549 150.87L200.873 154.016" stroke="#3F3F3F" stroke-miterlimit="10" stroke-linecap="round" stroke-linejoin="round"/>
<path d="M209.059 146.04L200.172 147.145L200.454 149.871L200.554 150.87C202.533 150.689 206.581 150.201 209.08 149.048L209.059 146.04Z" fill="#05001C" stroke="#202020" stroke-miterlimit="10"/>
<path d="M185.678 223.85C188.204 222.782 190.729 221.64 193.159 220.498C193.684 222.788 194.183 224.961 194.618 226.842C192.628 228.415 190.23 229.35 187.726 229.86C187.105 228.096 186.421 226.066 185.678 223.85Z" fill="#010E41" stroke="#010E41" stroke-miterlimit="10" stroke-linecap="round" stroke-linejoin="round"/>
<path d="M188.851 233.032C188.512 232.113 188.135 231.045 187.721 229.865C190.225 229.355 192.623 228.42 194.613 226.847C195.488 230.657 196.093 233.282 196.093 233.282C199.764 239.371 191.865 239.052 191.865 239.052C191.865 239.052 179.381 243.08 178.92 241.077C178.458 239.068 188.851 233.032 188.851 233.032Z" fill="white" stroke="#3F3F3F" stroke-miterlimit="10" stroke-linecap="round" stroke-linejoin="round"/>
<path d="M197.329 236.236C197.398 236.688 197.451 237.166 197.472 237.676C197.472 237.676 195.09 239.158 188.05 240.779C180.187 242.591 178.946 241.82 178.946 241.82C178.946 241.82 178.808 241.454 178.845 240.853C187.556 240.529 193.997 237.936 197.329 236.236Z" fill="#3F3F3F" stroke="#3F3F3F" stroke-miterlimit="10" stroke-linecap="round" stroke-linejoin="round"/>
<path d="M191.329 239.212C191.329 239.212 189.1 235.253 186.994 234.057L185.339 235.189C185.339 235.189 188.039 237.564 188.766 239.892L191.329 239.212Z" fill="#3F3F3F" stroke="#3F3F3F" stroke-miterlimit="10" stroke-linecap="round" stroke-linejoin="round"/>
<path d="M186.978 240.21C186.978 240.21 185.774 237.469 183.668 236.273L182.156 237.357C182.156 237.357 183.689 238.563 184.416 240.891L186.978 240.21Z" fill="#3F3F3F" stroke="#3F3F3F" stroke-miterlimit="10" stroke-linecap="round" stroke-linejoin="round"/>
<path d="M173.338 213.877C175.996 214.557 178.697 215.184 181.317 215.747C180.463 217.644 179.646 219.456 178.914 221.071C176.336 220.843 173.922 219.972 171.72 218.718C172.208 217.23 172.749 215.609 173.338 213.877Z" fill="#010E41" stroke="#010E41" stroke-miterlimit="10" stroke-linecap="round" stroke-linejoin="round"/>
<path d="M157.545 223.478C158.388 221.603 170.314 223.101 170.314 223.101C170.696 221.858 171.174 220.37 171.72 218.707C173.922 219.961 176.341 220.832 178.914 221.061C177.158 224.95 175.922 227.687 175.922 227.687C175.163 234.759 169.068 229.716 169.068 229.716C169.068 229.716 156.701 225.354 157.545 223.478Z" fill="white" stroke="#3F3F3F" stroke-miterlimit="10" stroke-linecap="round" stroke-linejoin="round"/>
<path d="M175.126 230.795C174.909 231.194 174.659 231.608 174.373 232.028C174.373 232.028 171.582 231.762 164.998 228.787C157.645 225.46 157.125 224.095 157.125 224.095C157.125 224.095 157.237 223.718 157.629 223.266C164.754 228.287 171.444 230.126 175.126 230.795Z" fill="#3F3F3F" stroke="#3F3F3F" stroke-miterlimit="10" stroke-linecap="round" stroke-linejoin="round"/>
<path d="M168.553 229.525C168.553 229.525 169.174 225.025 168.219 222.798L166.219 222.692C166.219 222.692 166.93 226.22 166.102 228.51L168.553 229.525Z" fill="#3F3F3F" stroke="#3F3F3F" stroke-miterlimit="10" stroke-linecap="round" stroke-linejoin="round"/>
<path d="M164.478 227.681C164.478 227.681 165.179 224.77 164.224 222.538L162.367 222.485C162.367 222.485 162.855 224.376 162.027 226.666L164.478 227.681Z" fill="#3F3F3F" stroke="#3F3F3F" stroke-miterlimit="10" stroke-linecap="round" stroke-linejoin="round"/>
<path d="M214.698 151.221C214.698 151.221 213.388 157.879 214.348 164.706C214.348 164.706 216.008 169.175 219.07 169.961L220.995 183.011C220.995 183.011 225.542 189.844 222.046 196.587C218.55 203.33 196.517 210.423 196.517 210.423C196.517 210.423 199.138 221.895 199.313 222.596C199.488 223.298 190.745 229.865 180.166 226.624L179.116 220.407C179.116 220.407 173.609 219.004 171.158 215.418C168.712 211.826 178.59 197.203 178.59 197.203C178.59 197.203 178.85 188.006 189.61 185.381L193.981 183.893C193.981 183.893 191.795 167.953 195.467 152.544L197.52 152.151C197.52 152.151 196.469 161.173 196.734 163.798C196.734 163.798 205.87 163.054 211.382 163.139C211.382 163.139 210.682 155.695 212.343 150.966C212.337 150.96 213.738 151.045 214.698 151.221Z" fill="white" stroke="#3F3F3F" stroke-miterlimit="10" stroke-linecap="round" stroke-linejoin="round"/>
<path d="M222.969 187.044C222.969 187.044 221.569 188.803 217.706 188.803C213.849 188.803 204.475 183.766 204.475 183.766L222.969 187.044Z" fill="#3F3F3F" stroke="#3F3F3F" stroke-miterlimit="10" stroke-linecap="round" stroke-linejoin="round"/>
<path d="M203.117 199.695C203.117 199.695 198.438 203.197 195.026 204.116L196.777 211.603" fill="#3F3F3F"/>
<path d="M178.59 197.198C178.59 197.198 177.28 207.442 179.116 220.402L178.59 197.198Z" fill="white"/>
<path d="M178.59 197.198C178.59 197.198 177.28 207.442 179.116 220.402" stroke="#3F3F3F" stroke-miterlimit="10" stroke-linecap="round" stroke-linejoin="round"/>
<path d="M174.129 201.029L179.063 199.919L180.129 205.445C178.548 206.125 176.957 206.693 175.333 207.203L174.129 201.029Z" fill="#3F3F3F" stroke="#3F3F3F" stroke-miterlimit="10" stroke-linecap="round" stroke-linejoin="round"/>
<path d="M180.124 205.445L186.787 240.051C186.787 240.051 184.978 243.6 182.018 241.603L175.328 207.198C176.952 206.699 178.543 206.13 180.124 205.445Z" fill="white" stroke="#3F3F3F" stroke-miterlimit="10" stroke-linecap="round" stroke-linejoin="round"/>
<path d="M142.775 199.919L147.709 201.029L146.616 206.645C144.897 206.576 143.205 206.555 141.512 206.486L142.775 199.919Z" fill="#3F3F3F" stroke="#3F3F3F" stroke-miterlimit="10" stroke-linecap="round" stroke-linejoin="round"/>
<path d="M146.616 206.645L139.814 241.608C136.854 243.606 135.045 240.056 135.045 240.056L141.507 206.486C143.199 206.55 144.891 206.576 146.616 206.645Z" fill="white" stroke="#3F3F3F" stroke-miterlimit="10" stroke-linecap="round" stroke-linejoin="round"/>
<path d="M156.521 192.655L161.571 192.857L161.418 206.273C159.736 206.656 158.017 206.985 156.314 207.384L156.521 192.655Z" fill="#3F3F3F" stroke="#3F3F3F" stroke-miterlimit="10" stroke-linecap="round" stroke-linejoin="round"/>
<path d="M161.423 206.273L161.11 234.196C158.558 236.693 155.942 234.153 155.942 234.153L156.314 207.384C158.022 206.991 159.741 206.661 161.423 206.273Z" fill="white" stroke="#3F3F3F" stroke-miterlimit="10" stroke-linecap="round" stroke-linejoin="round"/>
<path d="M122.631 195.535C122.631 199.791 139.857 203.239 161.105 203.239C182.352 203.239 199.578 199.791 199.578 195.535C199.578 194.621 199.578 190.28 199.578 190.28C194.257 187.304 177.806 187.83 161.105 187.83C145.666 187.83 128.758 187.655 122.631 190.28C122.631 190.28 122.631 194.371 122.631 195.535Z" fill="white" stroke="#010E41" stroke-miterlimit="10"/>
<path d="M161.099 197.984C182.348 197.984 199.573 194.535 199.573 190.28C199.573 186.025 182.348 182.575 161.099 182.575C139.851 182.575 122.625 186.025 122.625 190.28C122.625 194.535 139.851 197.984 161.099 197.984Z" fill="white" stroke="#010E41" stroke-miterlimit="10"/>
<path d="M182.023 195.482C182.023 195.482 193.005 191.651 194.872 189.935C196.745 188.218 191.986 185.328 191.986 185.328L182.023 195.482Z" fill="#3F3F3F" stroke="#3F3F3F" stroke-miterlimit="10" stroke-linecap="round" stroke-linejoin="round"/>
<path d="M182.023 195.482C182.023 195.482 191.589 190.546 194.321 188.436C197.801 185.742 172.134 177.607 167.481 177.002C165.731 176.773 156.128 182.278 152.415 184.377L182.023 195.482Z" fill="white" stroke="#010E41" stroke-miterlimit="10" stroke-linecap="round" stroke-linejoin="round"/>
<path d="M180.591 195.174C180.591 195.174 190.973 190.052 193.62 187.974C196.989 185.323 171.577 177.528 167.078 176.938C165.386 176.715 156.038 182.156 152.436 184.223L180.591 195.174Z" fill="white" stroke="#010E41" stroke-miterlimit="10" stroke-linecap="round" stroke-linejoin="round"/>
<path d="M179.328 194.595C179.328 194.595 187.997 190.089 190.443 188.171C193.562 185.721 170.06 178.511 165.895 177.969C164.33 177.767 155.683 182.793 153.29 184.472L179.328 194.595Z" fill="white" stroke="#010E41" stroke-miterlimit="10" stroke-linecap="round" stroke-linejoin="round"/>
<path d="M189.885 188.532L163.778 178.771" stroke="#010E41" stroke-miterlimit="10" stroke-linecap="round" stroke-linejoin="round"/>
<path d="M186.771 190.323L160.818 180.02" stroke="#010E41" stroke-miterlimit="10" stroke-linecap="round" stroke-linejoin="round"/>
<path d="M183.732 192.118L157.778 181.816" stroke="#010E41" stroke-miterlimit="10" stroke-linecap="round" stroke-linejoin="round"/>
<path d="M178.745 181.741L167.131 189.935" stroke="#010E41" stroke-miterlimit="10" stroke-linecap="round" stroke-linejoin="round"/>
<path d="M183.806 183.766L172.818 191.81" stroke="#010E41" stroke-miterlimit="10" stroke-linecap="round" stroke-linejoin="round"/>
<path d="M188.251 185.487L176.638 193.681" stroke="#010E41" stroke-miterlimit="10" stroke-linecap="round" stroke-linejoin="round"/>
<path d="M178.336 179.993C177.296 180.206 175.917 180.498 175.657 180.583C175.657 180.583 174.24 182.496 173.556 182.453C172.872 182.411 173.052 181.258 174.659 179.611C175.503 178.75 176.744 178.404 177.742 178.272" fill="white"/>
<path d="M178.336 179.993C177.296 180.206 175.917 180.498 175.657 180.583C175.657 180.583 174.24 182.496 173.556 182.453C172.872 182.411 173.052 181.258 174.659 179.611C175.503 178.75 176.744 178.404 177.742 178.272" stroke="#3F3F3F" stroke-miterlimit="10" stroke-linecap="round" stroke-linejoin="round"/>
<path d="M179.169 180.413C178.193 180.726 176.378 181.306 176.15 181.412C176.15 181.412 174.941 183.463 174.256 183.495C173.572 183.521 173.625 182.358 175.057 180.551C175.768 179.653 176.877 179.186 177.821 178.936" fill="white"/>
<path d="M179.169 180.413C178.193 180.726 176.378 181.306 176.15 181.412C176.15 181.412 174.941 183.463 174.256 183.495C173.572 183.521 173.625 182.358 175.057 180.551C175.768 179.653 176.877 179.186 177.821 178.936" stroke="#3F3F3F" stroke-miterlimit="10" stroke-linecap="round" stroke-linejoin="round"/>
<path d="M181.073 181.492C181.073 181.492 178.309 182.204 177.917 182.342C177.917 182.342 176.171 184.095 175.556 184.047C174.94 183.994 175.153 182.878 176.681 181.295C177.455 180.493 178.453 180.03 179.344 179.908" fill="white"/>
<path d="M181.073 181.492C181.073 181.492 178.309 182.204 177.917 182.342C177.917 182.342 176.171 184.095 175.556 184.047C174.94 183.994 175.153 182.878 176.681 181.295C177.455 180.493 178.453 180.03 179.344 179.908" stroke="#3F3F3F" stroke-miterlimit="10" stroke-linecap="round" stroke-linejoin="round"/>
<path d="M182.564 181.874C182.564 181.874 180.872 183.463 179.275 183.899C178.57 184.09 178.034 183.925 178.241 183.341C178.501 182.597 179.843 181.523 180.522 180.896" fill="white"/>
<path d="M182.564 181.874C182.564 181.874 180.872 183.463 179.275 183.899C178.57 184.09 178.034 183.925 178.241 183.341C178.501 182.597 179.843 181.523 180.522 180.896" stroke="#3F3F3F" stroke-miterlimit="10" stroke-linecap="round" stroke-linejoin="round"/>
<path d="M197.801 201.072C200.82 191.481 212.751 195.291 219.707 194.897C223.134 194.701 233.458 189.956 236.1 174.669C237.904 164.228 232.98 158.777 229.044 156.162C237.447 159.589 240.201 169.929 239.771 180.71C239.246 193.845 234.789 215.785 234.789 215.785C213.674 222.878 197.281 219.461 197.281 219.461C197.239 219.461 197.18 219.461 197.127 219.456C196.538 216.417 195.44 208.585 197.801 201.072Z" fill="#010E41"/>
<path d="M197.562 179.116C197.562 179.116 193.058 178.808 192.315 179.116C191.573 179.425 191.923 180.211 192.231 180.604C192.533 180.997 197.562 179.116 197.562 179.116Z" fill="white" stroke="#3F3F3F" stroke-miterlimit="10" stroke-linecap="round" stroke-linejoin="round"/>
<path d="M197.345 179.159C197.345 179.159 191.355 180.078 190.352 180.822C189.344 181.566 188.777 183.798 189.127 184.106C189.477 184.414 189.827 184.541 190.92 182.921L196.692 181.082L197.345 179.159Z" fill="white" stroke="#3F3F3F" stroke-miterlimit="10" stroke-linecap="round" stroke-linejoin="round"/>
<path d="M195.461 180.647C195.461 180.647 192.183 181.433 191.482 181.874C190.782 182.31 189.339 184.456 189.514 185.291C189.689 186.125 190.649 186.034 191.79 184.855C192.925 183.67 195.987 182.097 195.987 182.097L196.904 180.96L195.461 180.647Z" fill="white" stroke="#3F3F3F" stroke-miterlimit="10" stroke-linecap="round" stroke-linejoin="round"/>
<path d="M196.554 181.082C196.554 181.082 192.883 182.092 192.007 183.187C191.132 184.281 190.373 186.518 190.872 186.778C191.965 187.347 192.4 185.641 194.283 183.755L197.87 182.836L196.554 181.082Z" fill="white" stroke="#3F3F3F" stroke-miterlimit="10" stroke-linecap="round" stroke-linejoin="round"/>
<path d="M192.973 179.988C193.567 179.86 199.074 178.686 199.705 178.644C199.705 178.644 211.228 176.8 220.194 177.22L219.075 169.961C219.075 169.961 222.486 170.663 228.168 167.597C228.168 167.597 229.913 177.305 229.828 179.903C229.744 182.506 227.903 188.702 216.926 186.699C207.647 185.009 204.485 183.76 204.485 183.76C204.485 183.76 201.658 186.258 195.689 184.871C195.689 184.871 193.546 187.937 192.543 187.559C191.535 187.182 193.302 184.43 193.678 183.739C194.055 183.048 196.442 182.671 196.442 182.671" fill="white"/>
<path d="M192.973 179.988C193.567 179.86 199.074 178.686 199.705 178.644C199.705 178.644 211.228 176.8 220.194 177.22L219.075 169.961C219.075 169.961 222.486 170.663 228.168 167.597C228.168 167.597 229.913 177.305 229.828 179.903C229.744 182.506 227.903 188.702 216.926 186.699C207.647 185.009 204.485 183.76 204.485 183.76C204.485 183.76 201.658 186.258 195.689 184.871C195.689 184.871 193.546 187.937 192.543 187.559C191.535 187.182 193.302 184.43 193.678 183.739C194.055 183.048 196.442 182.671 196.442 182.671" stroke="#3F3F3F" stroke-miterlimit="10" stroke-linecap="round" stroke-linejoin="round"/>
<path d="M182.023 195.482L184.023 174.478C184.023 174.478 185.042 170.471 181.477 169.053C177.912 167.634 156.898 163.463 156.898 163.463C156.898 163.463 154.261 163.203 153.232 167.347C152.208 171.492 152.255 184.207 151.826 187.544C151.831 187.544 174.14 194.01 182.023 195.482Z" fill="#754BDD" stroke="#010E41" stroke-miterlimit="10" stroke-linecap="round" stroke-linejoin="round"/>
<path d="M182.023 195.482L184.023 174.478C184.023 174.478 185.042 170.471 181.477 169.053C177.912 167.634 156.898 163.463 156.898 163.463C156.898 163.463 154.261 163.203 153.232 167.347C152.208 171.492 152.255 184.207 151.826 187.544C151.831 187.544 174.14 194.01 182.023 195.482Z" stroke="#010E41" stroke-miterlimit="10" stroke-linecap="round" stroke-linejoin="round"/>
<path d="M164.076 179.053C164.007 180.61 165.211 181.933 166.765 182.002C168.32 182.071 169.641 180.865 169.715 179.308C169.784 177.751 168.58 176.428 167.025 176.359C165.466 176.29 164.145 177.496 164.076 179.053Z" fill="white" stroke="#010E41" stroke-miterlimit="10" stroke-linecap="round" stroke-linejoin="round"/>
<path d="M208.178 196.125C204.565 196.343 200.915 197.427 199.769 200.811C197.541 207.379 197.934 214.472 198.459 217.623" stroke="white" stroke-width="0.5" stroke-miterlimit="10" stroke-linecap="round" stroke-linejoin="round"/>
<path d="M236.259 163.006C236.259 163.006 242.179 174.244 233.739 186.757C226.784 197.06 218.656 196.874 216.163 196.608C215.345 196.523 213.536 196.236 211.393 196.125" stroke="white" stroke-width="0.5" stroke-miterlimit="10" stroke-linecap="round" stroke-linejoin="round"/>
<path d="M219.07 169.961L219.462 172.411C219.462 172.411 224.412 172.023 228.349 168.899L228.168 167.597C228.163 167.597 223.356 170.44 219.07 169.961Z" fill="#3F3F3F" stroke="#3F3F3F" stroke-miterlimit="10" stroke-linecap="round" stroke-linejoin="round"/>
<path d="M211.865 152.74C211.828 152.82 210.655 157.23 205.552 157.655C200.448 158.086 198.305 155.509 197.488 154.064" stroke="#010E41" stroke-width="0.5" stroke-miterlimit="10" stroke-linecap="round" stroke-linejoin="round"/>
<path d="M228.582 165.854C228.582 165.854 225.075 169.366 218.003 169.483" stroke="#010E41" stroke-width="0.5" stroke-miterlimit="10" stroke-linecap="round" stroke-linejoin="round"/>
<path d="M207.738 175.641C204.427 174.414 201.372 172.507 198.814 170.068" stroke="#010E41" stroke-width="0.5" stroke-miterlimit="10" stroke-linecap="round" stroke-linejoin="round"/>
<path d="M203.404 176.518C200.48 175.009 197.923 172.788 196.024 170.099" stroke="#010E41" stroke-width="0.5" stroke-miterlimit="10" stroke-linecap="round" stroke-linejoin="round"/>
<path d="M206.517 184.441C208.311 181.242 206.109 177.916 206.109 177.916H205.085C205.085 177.916 207.287 180.923 205.493 184.122L206.517 184.441Z" fill="white" stroke="#3F3F3F" stroke-miterlimit="10" stroke-linecap="round" stroke-linejoin="round"/>
<path d="M193.493 138.267L193.875 132.321C193.875 132.321 187.297 129.446 186.331 135.02C185.371 140.594 191.223 141.593 193.493 138.267Z" fill="white" stroke="#3F3F3F" stroke-miterlimit="10" stroke-linecap="round" stroke-linejoin="round"/>
<path d="M191.599 144.297C191.488 144.297 191.371 144.292 191.259 144.276C190.851 144.228 190.464 144.09 190.114 143.878C189.461 143.479 189.005 142.847 188.824 142.103C188.506 140.785 189.164 139.409 190.389 138.835C190.464 138.798 190.554 138.777 190.639 138.777C190.708 138.777 190.771 138.787 190.835 138.814C190.984 138.867 191.1 138.973 191.164 139.117C191.228 139.255 191.238 139.414 191.185 139.558C191.132 139.701 191.026 139.818 190.888 139.887C190.156 140.227 189.769 141.051 189.954 141.837C190.06 142.278 190.336 142.656 190.724 142.895C190.994 143.059 191.297 143.144 191.61 143.144C191.742 143.144 191.88 143.128 192.013 143.097C192.655 142.942 193.138 142.448 193.281 141.8C193.313 141.651 193.403 141.258 193.742 141.258C193.758 141.258 193.79 141.258 193.801 141.263C193.875 141.274 193.944 141.322 193.981 141.386L194.315 141.912C194.352 141.97 194.363 142.045 194.352 142.114C194.114 143.198 193.36 143.973 192.289 144.228C192.05 144.271 191.822 144.297 191.599 144.297Z" fill="white"/>
<path d="M190.628 139.042C190.665 139.042 190.697 139.048 190.734 139.064C190.814 139.09 190.877 139.149 190.915 139.228C190.952 139.303 190.952 139.388 190.925 139.467C190.899 139.547 190.84 139.611 190.766 139.643C189.923 140.041 189.472 140.987 189.689 141.896C189.811 142.406 190.129 142.842 190.58 143.118C190.893 143.309 191.244 143.41 191.604 143.41C191.758 143.41 191.917 143.389 192.071 143.352C192.809 143.171 193.371 142.602 193.535 141.859C193.573 141.699 193.62 141.524 193.737 141.524C193.742 141.524 193.748 141.524 193.758 141.524L194.092 142.05C193.875 143.027 193.201 143.729 192.225 143.963C192.023 144.01 191.817 144.037 191.61 144.037C191.504 144.037 191.403 144.032 191.302 144.016C190.931 143.973 190.58 143.851 190.262 143.654C189.668 143.293 189.254 142.719 189.09 142.044C188.803 140.849 189.397 139.6 190.511 139.074C190.538 139.053 190.586 139.042 190.628 139.042ZM190.628 138.511C190.506 138.511 190.379 138.538 190.267 138.591C188.93 139.218 188.209 140.721 188.559 142.161C188.755 142.974 189.259 143.665 189.97 144.101C190.358 144.34 190.782 144.483 191.222 144.536C191.344 144.552 191.472 144.558 191.594 144.558C191.843 144.558 192.087 144.526 192.331 144.467C193.504 144.181 194.326 143.341 194.591 142.151C194.623 142.013 194.596 141.869 194.522 141.752L194.188 141.226C194.108 141.099 193.976 141.008 193.827 140.987C193.801 140.982 193.753 140.976 193.721 140.976C193.355 140.976 193.116 141.226 193.005 141.726C192.883 142.273 192.474 142.693 191.933 142.82C191.822 142.847 191.705 142.863 191.588 142.863C191.328 142.863 191.068 142.788 190.84 142.65C190.511 142.448 190.283 142.13 190.188 141.758C190.029 141.093 190.358 140.403 190.973 140.11C191.175 140.015 191.334 139.845 191.408 139.632C191.482 139.42 191.477 139.191 191.376 138.984C191.281 138.782 191.111 138.623 190.899 138.548C190.824 138.527 190.729 138.511 190.628 138.511Z" fill="#3F3F3F"/>
<path d="M191.541 138.357C191.525 138.357 191.509 138.352 191.493 138.341C191.44 138.309 191.424 138.24 191.456 138.187C191.472 138.16 192.994 135.61 191.265 134.127C190.66 133.607 190.029 133.373 189.387 133.431C188.278 133.538 187.509 134.489 187.498 134.499C187.461 134.547 187.387 134.558 187.339 134.515C187.291 134.478 187.281 134.404 187.323 134.356C187.355 134.313 188.161 133.32 189.366 133.203C190.071 133.139 190.761 133.389 191.413 133.952C193.286 135.562 191.663 138.272 191.647 138.298C191.626 138.346 191.583 138.362 191.541 138.357Z" fill="#010E41"/>
<path d="M189.042 135.828C189.01 135.822 188.979 135.806 188.957 135.769C188.926 135.716 188.947 135.647 189 135.615C189.021 135.605 191.069 134.457 192.3 136.024C192.337 136.072 192.331 136.147 192.278 136.184C192.231 136.221 192.156 136.216 192.119 136.162C191.01 134.744 189.132 135.796 189.111 135.806C189.09 135.822 189.063 135.828 189.042 135.828Z" fill="#010E41"/>
<path d="M191.281 122.135C191.281 122.135 189.201 126.694 189.127 133.633C189.064 140.031 193.228 146.933 200.91 148.373C208.131 149.728 214.714 147.501 218.216 137.549C221.717 127.602 219.017 119.723 209.897 116.715C200.921 113.75 193.753 116.338 191.281 122.135Z" fill="white" stroke="#3F3F3F" stroke-miterlimit="10" stroke-linecap="round" stroke-linejoin="round"/>
<path d="M211.738 119.308C211.738 119.308 211.818 122.868 206.428 123.431C206.428 123.431 204.942 127.464 200.65 125.838C200.65 125.838 198.401 130.089 193.865 130.164C193.865 130.164 193.111 133.214 188.835 132.156C188.835 132.156 187.525 107.836 212.141 116.035L211.738 119.308Z" fill="#3F3F3F"/>
<path d="M210.47 120.265C210.47 120.265 210.444 124.887 214.964 125.971C214.964 125.971 213.876 129.25 217.261 131.141C217.261 131.141 215.659 133.915 218.593 136.433L221.086 136.736C221.086 136.736 227.744 120.472 212.147 116.035" fill="#3F3F3F"/>
<path d="M217.022 135.514C217.022 135.514 222.72 134.186 222.327 139.829C221.956 145.121 216.736 145.073 214.916 141.938" fill="white"/>
<path d="M217.022 135.514C217.022 135.514 222.72 134.186 222.327 139.829C221.956 145.121 216.736 145.073 214.916 141.938" stroke="#3F3F3F" stroke-miterlimit="10" stroke-linecap="round" stroke-linejoin="round"/>
<path d="M216.476 141.827C216.491 141.827 216.507 141.827 216.523 141.821C216.582 141.8 216.613 141.736 216.598 141.678C216.587 141.651 215.717 138.809 217.749 137.783C218.46 137.422 219.133 137.347 219.738 137.56C220.789 137.927 221.314 139.037 221.319 139.048C221.346 139.106 221.415 139.127 221.468 139.101C221.526 139.074 221.547 139.005 221.521 138.952C221.5 138.904 220.953 137.746 219.813 137.347C219.144 137.114 218.412 137.193 217.643 137.581C215.441 138.697 216.369 141.715 216.38 141.747C216.396 141.795 216.433 141.821 216.476 141.827Z" fill="#010E41"/>
<path d="M219.505 139.962C219.537 139.967 219.574 139.956 219.601 139.93C219.643 139.882 219.643 139.813 219.595 139.77C219.579 139.754 217.861 138.15 216.296 139.382C216.248 139.42 216.237 139.494 216.274 139.542C216.311 139.59 216.386 139.6 216.433 139.563C217.845 138.453 219.42 139.924 219.436 139.94C219.463 139.951 219.484 139.962 219.505 139.962Z" fill="#010E41"/>
<path d="M201.144 140.812C202.857 141.019 203.229 139.616 203.234 139.6C203.25 139.542 203.213 139.478 203.154 139.462C203.096 139.446 203.032 139.483 203.017 139.542C203.001 139.6 202.64 140.923 200.863 140.53C200.799 140.52 200.741 140.557 200.73 140.615C200.714 140.679 200.756 140.737 200.815 140.748C200.932 140.78 201.038 140.801 201.144 140.812Z" fill="#3F3F3F" stroke="#3F3F3F" stroke-width="0.25" stroke-miterlimit="10"/>
<path d="M212.311 132.491C212.311 132.491 213.548 131.63 211.335 130.105C209.123 128.575 208.263 128.75 207.807 129.324C207.388 129.85 207.828 130.764 209.086 131.598C210.598 132.597 211.638 132.99 212.311 132.491Z" fill="#3F3F3F"/>
<path d="M207.552 136.019C207.462 136.784 207.892 137.464 208.518 137.539C209.144 137.613 209.728 137.055 209.818 136.29C209.908 135.525 209.478 134.845 208.852 134.77C208.232 134.696 207.648 135.254 207.552 136.019Z" fill="#3F3F3F"/>
<path d="M195.451 134.553C195.361 135.318 195.791 135.998 196.417 136.072C197.043 136.147 197.627 135.589 197.717 134.824C197.807 134.058 197.377 133.378 196.751 133.304C196.125 133.23 195.542 133.787 195.451 134.553Z" fill="#3F3F3F"/>
<path d="M194.13 130.079C194.13 130.079 193.133 128.952 195.642 127.99C198.152 127.034 198.947 127.406 199.255 128.075C199.536 128.686 198.894 129.468 197.473 129.978C195.77 130.589 194.666 130.722 194.13 130.079Z" fill="#3F3F3F"/>
<path d="M201.091 138.054C201.133 138.059 201.176 138.038 201.202 138.001C201.234 137.948 201.218 137.879 201.165 137.847C201.155 137.842 200.311 137.316 200.009 136.465C199.775 135.796 199.982 134.861 200.454 134.499C200.735 134.282 201.08 134.303 201.452 134.558C201.462 134.568 201.484 134.579 201.505 134.6C202.789 135.573 203.457 135.286 203.791 134.877C204.401 134.122 204.364 130.626 204.396 129.887C204.401 129.824 204.348 129.77 204.29 129.77C204.226 129.765 204.173 129.813 204.173 129.877C204.078 131.864 204.094 134.143 203.616 134.733C203.224 135.217 202.56 135.116 201.643 134.42C201.616 134.398 201.595 134.382 201.579 134.372C201.128 134.064 200.677 134.042 200.316 134.319C199.77 134.738 199.526 135.775 199.796 136.54C200.125 137.47 201.011 138.017 201.048 138.043C201.059 138.043 201.075 138.049 201.091 138.054Z" fill="#3F3F3F" stroke="#3F3F3F" stroke-width="0.25" stroke-miterlimit="10"/>
<path d="M216.422 147.613C216.311 147.613 216.194 147.608 216.083 147.592C215.743 147.549 215.414 147.448 215.107 147.289C214.131 146.779 213.579 145.854 213.605 144.744C213.605 144.675 213.637 144.606 213.685 144.558L214.131 144.127C214.178 144.08 214.247 144.053 214.316 144.053C214.322 144.053 214.332 144.053 214.338 144.053C214.725 144.085 214.72 144.547 214.714 144.696C214.698 145.355 215.054 145.955 215.637 146.258C215.881 146.386 216.147 146.449 216.417 146.449C216.592 146.449 216.767 146.423 216.937 146.37C217.372 146.231 217.728 145.934 217.934 145.525C218.306 144.807 218.12 143.92 217.494 143.41C217.372 143.309 217.298 143.171 217.282 143.022C217.266 142.868 217.308 142.714 217.409 142.597C217.505 142.48 217.643 142.4 217.797 142.385C217.807 142.385 217.85 142.379 217.86 142.379C217.993 142.379 218.12 142.427 218.221 142.507C219.271 143.357 219.584 144.85 218.964 146.056C218.614 146.736 218.014 147.241 217.287 147.47C217.006 147.565 216.714 147.613 216.422 147.613Z" fill="white"/>
<path d="M217.866 142.65C217.935 142.65 218.004 142.677 218.062 142.719C219.017 143.495 219.298 144.845 218.736 145.939C218.417 146.556 217.876 147.013 217.213 147.225C216.953 147.305 216.688 147.347 216.423 147.347C216.322 147.347 216.216 147.342 216.115 147.326C215.807 147.289 215.51 147.198 215.229 147.05C214.338 146.587 213.85 145.748 213.871 144.744L214.316 144.313C214.444 144.324 214.454 144.521 214.449 144.691C214.433 145.45 214.842 146.141 215.515 146.492C215.797 146.641 216.11 146.715 216.417 146.715C216.619 146.715 216.821 146.683 217.017 146.619C217.521 146.46 217.929 146.115 218.173 145.647C218.603 144.818 218.386 143.793 217.664 143.203C217.6 143.15 217.558 143.075 217.547 142.99C217.537 142.905 217.563 142.826 217.616 142.762C217.669 142.698 217.744 142.655 217.829 142.645C217.844 142.65 217.855 142.65 217.866 142.65ZM217.866 142.119C217.834 142.119 217.802 142.119 217.775 142.124C217.553 142.145 217.351 142.257 217.208 142.432C217.065 142.608 217.001 142.826 217.027 143.054C217.054 143.277 217.16 143.479 217.335 143.623C217.866 144.053 218.019 144.802 217.706 145.408C217.531 145.748 217.229 146.003 216.863 146.12C216.72 146.168 216.571 146.189 216.423 146.189C216.194 146.189 215.972 146.136 215.765 146.024C215.271 145.769 214.974 145.264 214.985 144.706C215.001 143.925 214.555 143.803 214.364 143.787C214.348 143.787 214.338 143.787 214.322 143.787C214.184 143.787 214.051 143.84 213.956 143.936L213.51 144.366C213.409 144.462 213.351 144.595 213.346 144.738C213.319 145.955 213.913 146.97 214.99 147.528C215.324 147.703 215.685 147.815 216.057 147.857C216.179 147.873 216.306 147.879 216.428 147.879C216.746 147.879 217.065 147.831 217.378 147.73C218.173 147.475 218.826 146.928 219.208 146.184C219.887 144.866 219.547 143.235 218.396 142.305C218.248 142.183 218.057 142.119 217.866 142.119Z" fill="#3F3F3F"/>
<path d="M183.806 153.777C183.806 153.777 183.774 163.436 187.779 167.682" stroke="#010E41" stroke-width="0.5" stroke-miterlimit="10" stroke-linecap="round" stroke-linejoin="round"/>
<path d="M197.801 201.072C200.819 191.481 212.751 195.291 219.706 194.897C223.133 194.701 233.457 189.956 236.099 174.669C237.903 164.228 232.98 158.777 229.043 156.162" stroke="white" stroke-width="0.5" stroke-miterlimit="10" stroke-linecap="round" stroke-linejoin="round"/>
<path d="M82.8148 114.441C86.6664 110.249 88.1996 103.421 88.1996 103.421C91.8708 100.35 93.4465 94.4997 92.9531 94.2553C92.1361 93.8515 90.8681 97.47 90.8681 97.47C90.8681 97.47 92.5128 92.5019 91.5578 92.3372C90.4331 92.1406 89.2659 96.5295 89.2659 96.5295C89.2659 96.5295 90.6241 90.7538 89.7434 90.9238C89.1439 91.0407 88.1996 93.4052 87.6638 94.877C87.4462 95.5465 87.2606 96.0353 87.2606 96.0353C87.2606 96.0353 87.4197 95.5518 87.6638 94.877C88.1625 93.3467 88.8521 90.86 87.9821 91.0513C86.73 91.317 85.165 97.1033 85.165 97.1033C85.165 97.1033 84.0297 92.5603 83.0588 94.2925C82.0879 96.0247 82.141 100.355 82.141 100.355C82.141 100.355 80.4327 103.262 76.2681 109.749L81.2232 114.207" fill="white"/>
<path d="M82.8148 114.441C86.6664 110.249 88.1996 103.421 88.1996 103.421C91.8708 100.35 93.4465 94.4997 92.9531 94.2553C92.1361 93.8515 90.8681 97.47 90.8681 97.47C90.8681 97.47 92.5128 92.5019 91.5578 92.3372C90.4331 92.1406 89.2659 96.5295 89.2659 96.5295C89.2659 96.5295 90.6241 90.7538 89.7434 90.9238C89.1439 91.0407 88.1996 93.4052 87.6638 94.877M87.6638 94.877C87.4462 95.5465 87.2606 96.0353 87.2606 96.0353C87.2606 96.0353 87.4197 95.5518 87.6638 94.877ZM87.6638 94.877C88.1625 93.3467 88.8521 90.86 87.9821 91.0513C86.73 91.317 85.165 97.1033 85.165 97.1033C85.165 97.1033 84.0297 92.5603 83.0588 94.2925C82.0879 96.0247 82.141 100.355 82.141 100.355C82.141 100.355 80.4327 103.262 76.2681 109.749L81.2232 114.207" stroke="#010E41" stroke-width="1.4524" stroke-miterlimit="10" stroke-linecap="round" stroke-linejoin="round"/>
<path d="M86.2417 97.2574C87.2126 98.3041 87.7643 99.7281 87.759 101.157" stroke="#010E41" stroke-width="1.4524" stroke-miterlimit="10" stroke-linecap="round" stroke-linejoin="round"/>
<path d="M108.513 95.2489L75.8593 96.9705C72.2623 97.1618 69.1959 94.3934 69.0049 90.7909L67.7051 66.0515C67.5141 62.449 70.2782 59.3778 73.8751 59.1865L106.529 57.465C110.126 57.2737 113.192 60.042 113.383 63.6445L114.683 88.3839C114.869 91.9865 112.11 95.0576 108.513 95.2489Z" fill="white" stroke="#010E41" stroke-miterlimit="10"/>
<path opacity="0.3" d="M108.513 95.2489L75.8593 96.9705C72.2623 97.1618 69.1959 94.3934 69.0049 90.7909L67.7051 66.0515C67.5141 62.449 70.2782 59.3778 73.8751 59.1865L106.529 57.465C110.126 57.2737 113.192 60.042 113.383 63.6445L114.683 88.3839C114.869 91.9865 112.11 95.0576 108.513 95.2489Z" fill="#BBBBBB"/>
<path d="M108.264 61.4694L72.5615 63.3493L72.7607 67.1431L108.463 65.2632L108.264 61.4694Z" fill="white" stroke="#010E41" stroke-miterlimit="10"/>
<path d="M79.9976 72.077C80.0665 73.4106 79.0426 74.553 77.711 74.6221C76.3794 74.6912 75.2388 73.6657 75.1698 72.332C75.1008 70.9983 76.1247 69.8559 77.4564 69.7869C78.7933 69.7178 79.9286 70.7433 79.9976 72.077Z" stroke="#3F3F3F" stroke-miterlimit="10" stroke-linecap="round" stroke-linejoin="round"/>
<path d="M80.4536 80.6954C80.5226 82.029 79.4987 83.1714 78.1671 83.2405C76.8354 83.3096 75.6948 82.2841 75.6258 80.9504C75.5569 79.6167 76.5808 78.4743 77.9124 78.4053C79.244 78.3362 80.3794 79.3617 80.4536 80.6954Z" stroke="#3F3F3F" stroke-miterlimit="10" stroke-linecap="round" stroke-linejoin="round"/>
<path d="M80.9048 89.3138C80.9738 90.6475 79.9499 91.7898 78.6182 91.8589C77.2866 91.928 76.146 90.9025 76.077 89.5688C76.0081 88.2352 77.032 87.0928 78.3636 87.0237C79.6952 86.9546 80.8358 87.9801 80.9048 89.3138Z" stroke="#3F3F3F" stroke-miterlimit="10" stroke-linecap="round" stroke-linejoin="round"/>
<path d="M82.3901 74.0323L106.465 72.7677" stroke="#3F3F3F" stroke-miterlimit="10" stroke-linecap="round" stroke-linejoin="round"/>
<path d="M82.8462 82.656L106.916 81.3861" stroke="#3F3F3F" stroke-miterlimit="10" stroke-linecap="round" stroke-linejoin="round"/>
<path d="M83.2974 91.2744L107.367 90.0045" stroke="#3F3F3F" stroke-miterlimit="10" stroke-linecap="round" stroke-linejoin="round"/>
<path d="M81.7373 93.4583C81.6206 93.4636 81.5039 93.4211 81.4243 93.3255L75.1906 86.1736C75.0474 86.0088 75.0686 85.7644 75.2277 85.621C75.3922 85.4775 75.6363 85.4934 75.7795 85.6582L82.0132 92.8101C82.1564 92.9748 82.1352 93.2192 81.976 93.3627C81.9018 93.4211 81.8222 93.453 81.7373 93.4583Z" fill="#010E41"/>
<path d="M76.1722 92.6081C76.0714 92.6135 75.9653 92.5763 75.8857 92.5019C75.7319 92.3531 75.7213 92.1087 75.8698 91.9493L82.3847 85.0524C82.5332 84.8983 82.7773 84.8877 82.9364 85.0365C83.0903 85.1853 83.1009 85.4297 82.9523 85.5891L76.4375 92.4859C76.3632 92.5656 76.2677 92.6028 76.1722 92.6081Z" fill="#010E41"/>
<path d="M78.2309 82.0556C78.215 82.0556 78.1937 82.0556 78.1778 82.0556C78.0664 82.045 77.9656 81.9919 77.9019 81.9015L76.7189 80.35C76.5862 80.18 76.6181 79.9356 76.7931 79.8027C76.9629 79.6699 77.207 79.7018 77.3396 79.8771L78.2627 81.0886L82.1568 77.4223C82.3106 77.2788 82.56 77.2841 82.7085 77.4382C82.8571 77.5976 82.8464 77.8421 82.6926 77.9908L78.4855 81.9547C78.4059 82.0131 78.3211 82.0503 78.2309 82.0556Z" fill="#010E41"/>
<path d="M77.7797 73.4531C77.7638 73.4531 77.7426 73.4531 77.7266 73.4531C77.6152 73.4425 77.5144 73.3894 77.4508 73.2991L76.2677 71.7475C76.1351 71.5775 76.1669 71.3331 76.342 71.2002C76.5117 71.0674 76.7558 71.0993 76.8884 71.2746L77.8115 72.4861L81.7056 68.8198C81.8594 68.6764 82.1088 68.6817 82.2573 68.8358C82.4059 68.9952 82.3953 69.2396 82.2414 69.3884L78.0344 73.3522C77.9548 73.4106 77.8699 73.4478 77.7797 73.4531Z" fill="#010E41"/>
<path d="M83.1064 72.7943C83.8067 72.5233 84.5654 72.2045 84.9315 71.5456C85.2975 70.8868 84.9315 69.8241 84.1834 69.8347C83.3664 69.8453 83.1011 71.0993 83.6423 71.7157C84.1834 72.332 85.0853 72.4383 85.897 72.4914C86.5496 72.5339 87.2127 72.5605 87.8334 72.3586C88.4541 72.1567 89.0218 71.6732 89.1385 71.0302C89.2552 70.3873 88.7565 69.6487 88.1093 69.67C87.1703 69.6966 86.905 71.1578 87.5523 71.8379C88.1995 72.5233 89.2393 72.6083 90.1784 72.6508C90.9954 72.688 91.8389 72.7199 92.6135 72.4436C93.3827 72.1673 94.0777 71.5031 94.1308 70.6849C94.1838 69.8666 93.3615 69.0377 92.5816 69.2821C91.9132 69.4893 91.6214 70.3661 91.8866 71.0143C92.1519 71.6625 92.8204 72.0717 93.5048 72.2045C94.1891 72.3373 94.9 72.2417 95.5897 72.1461C96.2051 72.061 96.8311 71.9707 97.3829 71.6785C97.9293 71.3862 98.3909 70.8496 98.4121 70.2279C98.4333 69.6062 97.8763 68.9792 97.2609 69.0696C96.672 69.1599 96.3165 69.8613 96.4492 70.4404C96.5765 71.0249 97.0593 71.4713 97.5898 71.7422C99.4307 72.688 101.993 71.636 102.64 69.67C102.884 68.9208 102.693 67.8581 101.919 67.7253C101.335 67.6243 100.794 68.2035 100.757 68.7986C100.725 69.3937 101.065 69.9516 101.489 70.3714C102.731 71.6147 104.784 71.9495 106.359 71.1631" stroke="#3F3F3F" stroke-miterlimit="10" stroke-linecap="round" stroke-linejoin="round"/>
<path d="M83.8809 81.0355C84.7138 81.1736 85.5998 80.5254 85.7165 79.6858C85.8332 78.8463 84.9578 77.3426 84.3106 77.8899C83.3662 78.6975 84.9472 80.3872 86.0401 80.9823C87.133 81.5827 88.5601 81.4977 89.5734 80.7751C90.1411 80.3713 90.5973 79.7177 90.539 79.0217C90.4806 78.3256 89.7379 77.7039 89.0853 77.9537C88.2524 78.2725 88.3744 79.6221 89.1012 80.1322C89.828 80.6423 90.8042 80.5679 91.6902 80.4722C92.348 80.3978 93.0271 80.3235 93.6001 79.994C94.1731 79.6646 94.6187 79.0163 94.4967 78.3628C94.3747 77.7145 93.5205 77.2576 93.0006 77.6667C92.3852 78.1503 92.7778 79.1704 93.3773 79.6805C94.5656 80.6954 96.4066 80.8601 97.7541 80.0737C99.1069 79.2873 99.8709 77.6083 99.5791 76.0674C98.4915 76.2905 97.9345 77.7092 98.396 78.7241C98.8523 79.739 100.046 80.2809 101.155 80.2172C102.264 80.1534 103.293 79.5955 104.163 78.9048C104.9 78.3256 105.601 77.2895 105.049 76.535C104.502 75.7858 103.128 76.2852 102.948 77.1991C102.773 78.1131 103.5 79.0057 104.364 79.3405C105.229 79.6752 106.195 79.5902 107.118 79.5052" stroke="#3F3F3F" stroke-miterlimit="10" stroke-linecap="round" stroke-linejoin="round"/>
<path d="M83.8545 89.7335C85.1012 89.691 86.1198 88.3308 85.8121 87.1246C85.2232 87.0077 84.698 87.6825 84.8094 88.2723C84.9209 88.8621 85.4832 89.2766 86.0668 89.4041C86.6504 89.5316 87.2552 89.4254 87.844 89.3191C88.7512 89.1544 89.738 88.9471 90.3163 88.2298C90.8946 87.5125 90.6611 86.147 89.7433 86.0354C89.0271 85.945 88.4223 86.7527 88.539 87.4647C88.6558 88.1767 89.2977 88.7134 89.9874 88.9259C90.6771 89.1384 91.4198 89.0853 92.136 89.0268C92.8151 88.9737 93.5154 88.9206 94.1202 88.6071C94.725 88.2989 95.2237 87.6666 95.16 86.9918C95.1016 86.3117 94.3005 85.7431 93.701 86.0726C92.9 86.5083 93.2766 87.7835 93.9663 88.3839C95.7064 89.9036 98.7517 89.4944 100.03 87.571C100.439 86.9599 100.619 86.0247 100.041 85.5784C99.4785 85.1427 98.5607 85.6103 98.4121 86.3064C98.2689 87.0024 98.7357 87.7144 99.3618 88.0492C99.9878 88.3839 100.731 88.4158 101.436 88.3733C102.502 88.3095 103.67 88.0332 104.296 87.1671C104.922 86.2957 104.529 84.7442 103.463 84.6539C102.534 84.5742 101.845 85.7272 102.136 86.6145C102.434 87.5019 103.399 88.0173 104.327 88.0757C105.256 88.1342 106.168 87.826 107.049 87.5231" stroke="#3F3F3F" stroke-miterlimit="10" stroke-linecap="round" stroke-linejoin="round"/>
<path d="M85.17 97.098C85.17 97.098 84.0347 92.555 83.0638 94.2872C82.093 96.0194 82.146 100.35 82.146 100.35" fill="white"/>
<path d="M85.17 97.098C85.17 97.098 84.0347 92.555 83.0638 94.2872C82.093 96.0194 82.146 100.35 82.146 100.35" stroke="#010E41" stroke-width="1.4524" stroke-miterlimit="10" stroke-linecap="round" stroke-linejoin="round"/>
<path d="M57.2593 145.339C64.8511 140.148 68.3579 137.788 76.4325 128.256C80.4433 123.522 88.173 105.52 88.173 105.52C88.173 105.52 88.173 105.52 80.5334 102.996C80.5334 102.996 71.8965 114.478 69.0263 117.103C66.6071 119.319 58.4317 123.878 58.4317 123.878" fill="white"/>
<path d="M57.2593 145.339C64.8511 140.148 68.3579 137.788 76.4325 128.256C80.4433 123.522 88.173 105.52 88.173 105.52C88.173 105.52 88.173 105.52 80.5334 102.996C80.5334 102.996 71.8965 114.478 69.0263 117.103C66.6071 119.319 58.4317 123.878 58.4317 123.878" stroke="#010E41" stroke-width="1.4524" stroke-miterlimit="10" stroke-linecap="round" stroke-linejoin="round"/>
<path d="M86.7881 105.265L84.4326 109.09C84.4326 109.09 80.7773 107.661 78.4907 104.441L80.8038 101.317C80.8038 101.317 83.796 103.952 86.7881 105.265Z" fill="white" stroke="#010E41" stroke-width="1.116" stroke-miterlimit="10" stroke-linecap="round" stroke-linejoin="round"/>
<path d="M86.788 105.265L86.3848 109.5C86.3848 109.5 87.4883 109.484 88.0877 109.181L88.1779 105.525C88.1726 105.52 87.4564 105.541 86.788 105.265Z" fill="white" stroke="#010E41" stroke-width="1.116" stroke-miterlimit="10" stroke-linecap="round" stroke-linejoin="round"/>
<path d="M49.8425 234.137L46.6328 175.094L63.4876 173.054C63.4876 173.054 59.9331 217.389 57.4502 232.41C57.4502 232.41 69.1324 236.863 69.0475 239.073C68.9626 241.289 55.4714 239.387 55.4714 239.387C55.4714 239.387 47.1793 241.316 49.8425 234.137Z" fill="white" stroke="#010E41" stroke-width="1.116" stroke-miterlimit="10" stroke-linecap="round" stroke-linejoin="round"/>
<path d="M30.176 235.875C30.176 235.875 29.55 194.802 29.4439 164.94C29.4279 160.493 45.5082 172.421 45.5082 172.421C45.5082 172.421 40.2666 219.132 37.7837 234.153C37.7837 234.153 49.0839 238.5 48.999 240.715C48.9142 242.931 35.8102 241.13 35.8102 241.13C35.8102 241.13 27.5127 243.053 30.176 235.875Z" fill="white" stroke="#010E41" stroke-width="1.116" stroke-miterlimit="10" stroke-linecap="round" stroke-linejoin="round"/>
<path d="M45.1686 236.98C48.7337 238.771 49.7895 240.402 49.7895 240.402C49.7895 240.402 49.5879 240.901 44.5161 241.268C44.2508 239.764 44.4895 238.239 45.1686 236.98Z" fill="white" stroke="#010E41" stroke-width="1.116" stroke-miterlimit="10" stroke-linecap="round" stroke-linejoin="round"/>
<path d="M29.9848 235.12C34.6163 237.846 40.3672 235.083 40.3672 235.083C42.3301 235.694 43.9058 236.348 45.1684 236.98C44.4894 238.239 44.2559 239.764 44.5212 241.268C43.2161 241.364 41.5874 241.449 39.5555 241.512C29.624 241.831 29.311 239.238 29.311 239.238C29.3216 236.725 30.0166 235.258 29.9848 235.12Z" fill="white" stroke="#010E41" stroke-width="1.116" stroke-miterlimit="10" stroke-linecap="round" stroke-linejoin="round"/>
<path d="M29.3057 239.238C29.3216 239.727 29.364 240.248 29.4436 240.79C29.4436 240.79 32.2607 241.879 40.0329 242.176C48.7176 242.506 49.8741 241.443 49.8741 241.443C49.8741 241.443 49.9484 241.023 49.7893 240.402C40.5104 241.815 33.1785 240.37 29.3057 239.238Z" fill="white" stroke="#010E41" stroke-width="1.116" stroke-miterlimit="10" stroke-linecap="round" stroke-linejoin="round"/>
<path d="M41.6616 239.18C41.5661 239.18 41.4918 239.105 41.4865 239.01C41.3751 236.842 42.9773 235.944 43.0463 235.907C43.1311 235.859 43.2372 235.891 43.285 235.976C43.3327 236.061 43.3009 236.167 43.216 236.215C43.1577 236.247 41.7412 237.049 41.842 238.988C41.8473 239.084 41.773 239.169 41.6775 239.174C41.6669 239.18 41.6669 239.18 41.6616 239.18Z" fill="#010E41"/>
<path d="M39.9693 238.537H39.964C39.8685 238.531 39.7889 238.452 39.7942 238.356C39.8738 236.082 41.2531 235.301 41.3115 235.269C41.3964 235.221 41.5025 235.253 41.5502 235.338C41.598 235.423 41.5662 235.529 41.4813 235.577C41.4282 235.604 40.2186 236.305 40.1443 238.367C40.1443 238.462 40.0648 238.537 39.9693 238.537Z" fill="#010E41"/>
<path d="M40.7172 236.236H40.7119C40.6429 236.231 40.5793 236.188 40.5528 236.119C40.4785 235.923 39.8418 234.169 40.2981 233.558C40.383 233.446 40.5421 233.314 40.8286 233.335C41.0567 233.351 41.2318 233.457 41.3379 233.638C41.7305 234.313 40.9666 235.954 40.8817 236.135C40.8445 236.199 40.7809 236.236 40.7172 236.236ZM40.765 233.691C40.6535 233.691 40.6058 233.733 40.5793 233.776C40.3724 234.058 40.5315 234.902 40.7384 235.577C40.9878 234.945 41.2106 234.137 41.0302 233.824C40.9984 233.771 40.9453 233.707 40.8021 233.696C40.7862 233.691 40.7756 233.691 40.765 233.691Z" fill="#010E41"/>
<path d="M40.7121 236.263C40.7068 236.263 40.7015 236.263 40.6962 236.263C40.484 236.241 38.6325 236.029 38.2929 235.343C38.2293 235.216 38.1868 235.014 38.3301 234.769C38.4468 234.573 38.6165 234.461 38.8288 234.451C38.8394 234.451 38.8553 234.451 38.8659 234.451C39.6405 234.451 40.728 235.822 40.8501 235.981C40.8925 236.034 40.8978 236.114 40.866 236.178C40.8394 236.231 40.7758 236.263 40.7121 236.263ZM38.8712 234.807C38.8659 234.807 38.8553 234.807 38.85 234.807C38.7863 234.812 38.7067 234.833 38.6378 234.955C38.5688 235.072 38.5847 235.141 38.6112 235.189C38.7651 235.503 39.598 235.737 40.2877 235.853C39.8421 235.354 39.2373 234.807 38.8712 234.807Z" fill="#010E41"/>
<path d="M64.7661 165.493L59.7049 232.671C59.7049 232.671 54.458 233.473 47.6832 232.214L46.845 179.127L40.1922 234.015C40.1922 234.015 31.2847 234.918 28.5472 233.005C28.5472 233.005 27.0458 188.638 28.6851 163.707L64.7661 165.493Z" fill="#010E41"/>
<path d="M39.9268 180.195C39.8631 180.195 39.8154 180.142 39.8101 180.078C39.8101 180.014 39.8631 179.956 39.9268 179.956C45.4761 179.871 53.3862 178.378 53.4658 178.367C53.5295 178.357 53.5931 178.399 53.6037 178.463C53.6143 178.527 53.5719 178.59 53.5082 178.601C53.4287 178.617 45.4973 180.11 39.9321 180.195H39.9268Z" fill="white"/>
<path d="M30.1971 232.841C30.1334 232.841 30.0857 232.788 30.0804 232.724C30.0804 232.681 29.9531 227.947 30.2448 168.644C30.2448 168.58 30.2979 168.527 30.3669 168.527C30.4411 168.521 30.4836 168.58 30.4836 168.649C30.1918 227.91 30.3138 232.681 30.3191 232.724C30.3191 232.788 30.2714 232.846 30.2024 232.846C30.2024 232.841 30.1971 232.841 30.1971 232.841Z" fill="white"/>
<path d="M49.3384 231.842C49.2747 231.842 49.2217 231.789 49.2217 231.725L49.296 179.387C49.296 179.324 49.349 179.271 49.418 179.271C49.4869 179.271 49.5347 179.324 49.5347 179.393L49.4604 231.73C49.4604 231.789 49.4074 231.842 49.3384 231.842Z" fill="white"/>
<path d="M47.9907 177.039C47.9271 177.039 47.874 176.98 47.874 176.917L48.2083 168.091C48.2083 168.027 48.2666 167.974 48.3303 167.974C48.3939 167.974 48.447 168.033 48.447 168.096L48.1128 176.922C48.1128 176.991 48.0597 177.039 47.9907 177.039Z" fill="white"/>
<path d="M30.563 176.63C30.5312 176.63 30.5047 176.614 30.4835 176.592C30.4357 176.545 30.441 176.47 30.4888 176.422C33.847 173.208 35.741 168.516 35.55 163.867C35.55 163.803 35.5977 163.745 35.6667 163.745C35.7357 163.739 35.7887 163.792 35.7887 163.861C35.9797 168.58 34.0645 173.341 30.6532 176.598C30.6267 176.619 30.5949 176.63 30.563 176.63Z" fill="white"/>
<path d="M63.4451 176.693C63.4345 176.693 63.4239 176.693 63.4079 176.688C61.5564 176.035 60.0126 174.249 59.3866 172.018C58.7446 169.749 59.047 167.336 59.3335 165.721C59.3441 165.657 59.4025 165.615 59.4714 165.626C59.5351 165.636 59.5775 165.7 59.5669 165.764C59.2858 167.358 58.9887 169.728 59.6147 171.954C60.2248 174.111 61.705 175.838 63.4875 176.465C63.5512 176.486 63.583 176.555 63.5618 176.619C63.5459 176.667 63.4981 176.699 63.4451 176.693Z" fill="white"/>
<path d="M48.012 176.587C47.943 176.587 46.3833 176.492 46.118 173.319C45.8633 170.248 45.9429 166.104 45.9429 166.067C45.9429 166.003 46.0013 165.95 46.0649 165.95C46.1339 165.96 46.1817 166.003 46.1817 166.072C46.1817 166.114 46.1021 170.243 46.3567 173.304C46.6008 176.242 48.0067 176.353 48.0226 176.353C48.0862 176.359 48.1393 176.412 48.134 176.476C48.1287 176.539 48.0756 176.587 48.012 176.587Z" fill="white"/>
<path d="M64.9894 235.253C68.5545 237.044 69.6103 238.675 69.6103 238.675C69.6103 238.675 69.4087 239.174 64.3369 239.541C64.0716 238.032 64.3103 236.507 64.9894 235.253Z" fill="white" stroke="#010E41" stroke-width="1.116" stroke-miterlimit="10" stroke-linecap="round" stroke-linejoin="round"/>
<path d="M49.8055 233.393C54.437 236.119 60.1879 233.356 60.1879 233.356C62.1509 233.967 63.7265 234.621 64.9892 235.253C64.3101 236.512 64.0767 238.037 64.3419 239.541C63.0368 239.637 61.4081 239.722 59.3762 239.785C49.4448 240.104 49.1265 237.511 49.1265 237.511C49.1477 234.998 49.8374 233.526 49.8055 233.393Z" fill="white" stroke="#010E41" stroke-width="1.116" stroke-miterlimit="10" stroke-linecap="round" stroke-linejoin="round"/>
<path d="M49.1265 237.511C49.1424 238 49.1848 238.521 49.2644 239.063C49.2644 239.063 52.0815 240.152 59.8537 240.45C68.5384 240.779 69.6949 239.716 69.6949 239.716C69.6949 239.716 69.7692 239.297 69.6101 238.675C60.3312 240.083 52.9993 238.638 49.1265 237.511Z" fill="white" stroke="#010E41" stroke-width="1.116" stroke-miterlimit="10" stroke-linecap="round" stroke-linejoin="round"/>
<path d="M61.4824 237.447C61.3869 237.447 61.3126 237.373 61.3073 237.277C61.1959 235.11 62.7981 234.212 62.8671 234.174C62.9519 234.127 63.058 234.158 63.1058 234.243C63.1535 234.328 63.1217 234.435 63.0368 234.483C62.9785 234.514 61.562 235.317 61.6628 237.256C61.6681 237.352 61.5938 237.437 61.4983 237.442C61.4877 237.447 61.4877 237.447 61.4824 237.447Z" fill="#010E41"/>
<path d="M59.7901 236.805H59.7848C59.6893 236.799 59.6097 236.719 59.615 236.624C59.6946 234.35 61.0739 233.569 61.1323 233.537C61.2172 233.494 61.3233 233.521 61.371 233.606C61.4188 233.691 61.387 233.797 61.3021 233.845C61.249 233.871 60.0394 234.573 59.9651 236.634C59.9651 236.73 59.8856 236.805 59.7901 236.805Z" fill="#010E41"/>
<path d="M60.538 234.509H60.5327C60.4637 234.504 60.4001 234.461 60.3736 234.392C60.2993 234.196 59.6626 232.442 60.1189 231.831C60.2038 231.72 60.3629 231.587 60.6494 231.608C60.8776 231.624 61.0526 231.73 61.1587 231.911C61.5513 232.586 60.7874 234.227 60.7025 234.408C60.6653 234.467 60.607 234.509 60.538 234.509ZM60.5858 231.959C60.4743 231.959 60.4266 232.001 60.3948 232.044C60.1879 232.325 60.347 233.17 60.5539 233.845C60.8033 233.213 61.0261 232.405 60.8457 232.091C60.8139 232.038 60.7608 231.975 60.6176 231.964C60.607 231.959 60.5964 231.959 60.5858 231.959Z" fill="#010E41"/>
<path d="M60.5383 234.536C60.533 234.536 60.5277 234.536 60.5224 234.536C60.3102 234.514 58.4586 234.302 58.1191 233.616C58.0554 233.489 58.013 233.287 58.1562 233.043C58.2729 232.846 58.4427 232.734 58.6549 232.724C59.4242 232.671 60.5542 234.089 60.6815 234.254C60.724 234.307 60.7293 234.387 60.6974 234.451C60.6603 234.498 60.602 234.536 60.5383 234.536ZM58.6921 233.074C58.6868 233.074 58.6761 233.074 58.6708 233.074C58.6072 233.08 58.5276 233.101 58.4586 233.223C58.3897 233.34 58.4056 233.409 58.4321 233.457C58.5913 233.771 59.4189 234.004 60.1086 234.121C59.6629 233.622 59.0581 233.074 58.6921 233.074Z" fill="#010E41"/>
<path d="M42.4789 158.059C42.4523 158.059 42.4205 158.043 42.4046 158.017C42.3781 157.974 42.3887 157.916 42.4311 157.889C46.1289 155.525 49.3757 152.353 51.8214 148.702C51.848 148.66 51.9063 148.649 51.9488 148.676C51.9912 148.702 52.0018 148.761 51.9753 148.803C49.5136 152.469 46.2509 155.663 42.5319 158.038C42.516 158.054 42.5001 158.059 42.4789 158.059Z" fill="#2D3567"/>
<path d="M47.9272 160.349C47.906 160.349 47.8848 160.339 47.8689 160.323C47.8317 160.286 47.8317 160.232 47.8636 160.195C50.4791 157.448 52.5853 154.127 53.954 150.589C53.9699 150.541 54.0283 150.519 54.0707 150.535C54.1185 150.551 54.1397 150.604 54.1238 150.652C52.7444 154.212 50.6223 157.554 47.9909 160.317C47.9803 160.339 47.9538 160.349 47.9272 160.349Z" fill="#2D3567"/>
<path d="M42.7495 114.898L42.8874 117.916C46.0388 118.862 49.3174 119.085 52.3732 118.538L52.5908 114.239L42.7495 114.898Z" fill="#010E41" stroke="#010E41" stroke-miterlimit="10"/>
<path d="M52.2673 120.53L52.3681 118.538C49.307 119.085 46.0283 118.857 42.8823 117.916L42.9725 119.956C45.9382 121.078 49.0895 121.088 52.2673 120.53Z" fill="#010E41" stroke="#010E41" stroke-miterlimit="10"/>
<path d="M45.975 125.36C45.975 125.36 46.7973 127.603 47.3278 133.299C47.7469 137.799 46.2084 160.493 45.5399 169.866C45.3595 172.368 44.2454 174.021 44.2454 174.021C44.2454 174.021 30.6003 172.135 26.5259 164.09C26.5259 164.09 27.8734 154.919 30.6693 141.285C30.6693 141.285 34.4785 122.029 35.9374 121.811C40.2612 121.173 41.3647 121.396 41.3647 121.396L45.975 125.36Z" fill="white" stroke="#010E41" stroke-miterlimit="10" stroke-linecap="round" stroke-linejoin="round"/>
<path d="M61.6468 122.842C58.2037 121.694 54.1399 122.013 54.1399 122.013L49.0893 125.477C49.0893 125.477 48.0972 127.65 47.1369 133.288C46.373 137.751 45.7417 160.137 45.5135 169.297C45.418 169.573 46.9619 173.84 46.9619 173.84C46.9619 173.84 61.4028 173.447 66.082 165.737C66.082 165.737 66.708 157.347 64.952 143.538C64.952 143.538 64.8087 141.232 64.4639 138.182" fill="white"/>
<path d="M61.6468 122.842C58.2037 121.694 54.1399 122.013 54.1399 122.013L49.0893 125.477C49.0893 125.477 48.0972 127.65 47.1369 133.288C46.373 137.751 45.7417 160.137 45.5135 169.297C45.418 169.573 46.9619 173.84 46.9619 173.84C46.9619 173.84 61.4028 173.447 66.082 165.737C66.082 165.737 66.708 157.347 64.952 143.538C64.952 143.538 64.8087 141.232 64.4639 138.182" stroke="#010E41" stroke-width="1.116" stroke-miterlimit="10" stroke-linecap="round" stroke-linejoin="round"/>
<path d="M49.132 172.969C49.0789 172.969 49.0312 172.932 49.0152 172.878C49.0099 172.852 48.2513 170.243 47.8216 167.682C47.5404 166.013 47.7791 158.792 48.0338 151.141C48.177 146.874 48.3202 142.464 48.3786 138.883C48.5431 129.011 50.8402 125.668 50.941 125.53C50.9835 125.472 51.0578 125.461 51.1161 125.498C51.1745 125.541 51.1851 125.621 51.148 125.674C51.1267 125.706 48.7977 129.106 48.6333 138.883C48.5749 142.464 48.4264 146.88 48.2831 151.141C48.0285 158.777 47.7897 165.987 48.0656 167.629C48.4953 170.179 49.2487 172.772 49.254 172.799C49.2752 172.868 49.2328 172.937 49.1691 172.958C49.1585 172.969 49.1426 172.969 49.132 172.969Z" fill="#010E41" stroke="#010E41" stroke-width="0.25" stroke-miterlimit="10"/>
<path d="M36.7971 121.694C36.7971 121.694 32.033 121.938 27.9108 126.71C16.6424 139.754 12.812 162.517 12.812 162.517C12.812 162.517 14.95 162.007 20.0325 163.777C20.0325 163.777 25.6189 157.926 29.7093 147.443C29.7093 147.443 32.6165 141.72 33.9428 135.371" fill="white"/>
<path d="M36.7971 121.694C36.7971 121.694 32.033 121.938 27.9108 126.71C16.6424 139.754 12.812 162.517 12.812 162.517C12.812 162.517 14.95 162.007 20.0325 163.777C20.0325 163.777 25.6189 157.926 29.7093 147.443C29.7093 147.443 32.6165 141.72 33.9428 135.371" stroke="#010E41" stroke-miterlimit="10" stroke-linecap="round" stroke-linejoin="round"/>
<path d="M52.1503 122.842L52.267 120.53C49.0838 121.088 45.9325 121.078 42.9722 119.956L43.0889 122.496" fill="white"/>
<path d="M52.1503 122.842L52.267 120.53C49.0838 121.088 45.9325 121.078 42.9722 119.956L43.0889 122.496" stroke="#010E41" stroke-width="1.116" stroke-miterlimit="10" stroke-linecap="round" stroke-linejoin="round"/>
<path d="M42.5528 119.962C42.5528 119.962 40.5421 119.941 39.8312 120.732C38.6906 122.007 38.1123 122.879 38.1123 122.879C38.1123 122.879 39.8843 126.906 43.7836 128.288C43.7836 128.288 44.6908 125.488 45.8315 124.994C45.8315 124.994 43.5237 123.888 42.8287 122.523C42.5687 121.976 42.5528 119.962 42.5528 119.962Z" fill="white" stroke="#010E41" stroke-width="1.116" stroke-miterlimit="10" stroke-linecap="round" stroke-linejoin="round"/>
<path d="M52.6172 120.243C52.6172 120.243 54.856 120.456 55.5033 121.301C56.5431 122.661 57.0577 123.57 57.0577 123.57C57.0577 123.57 54.9887 127.448 50.9885 128.527C50.9885 128.527 50.2935 125.663 49.1953 125.089C49.1953 125.089 51.5827 124.165 52.3785 122.858C52.6809 122.332 52.6172 120.243 52.6172 120.243Z" fill="white" stroke="#010E41" stroke-width="1.116" stroke-miterlimit="10" stroke-linecap="round" stroke-linejoin="round"/>
<path d="M57.3281 144.653C55.6676 144.59 53.2961 142.145 53.19 142.034C53.1688 142.013 53.1582 141.986 53.1582 141.959L53.2431 136.965C53.2431 136.906 53.3014 136.859 53.3704 136.859L60.9569 136.965C61.0365 136.975 61.079 137.013 61.0843 137.071L61.3124 142.262C61.3124 142.289 61.3018 142.315 61.2806 142.337C61.1957 142.422 59.2274 144.42 57.5934 144.643C57.5085 144.653 57.4183 144.659 57.3281 144.653ZM53.4182 141.928C53.7153 142.23 56.1185 144.621 57.5563 144.425C58.994 144.234 60.8031 142.485 61.063 142.225L60.8402 137.183L53.503 137.082L53.4182 141.928Z" fill="#010E41" stroke="#010E41" stroke-width="0.5" stroke-miterlimit="10"/>
<path d="M53.519 138.75C53.45 138.745 53.397 138.697 53.397 138.639C53.397 138.58 53.4553 138.532 53.5243 138.532L60.9994 138.724C61.0684 138.724 61.1214 138.777 61.1214 138.835C61.1214 138.894 61.0631 138.941 60.9941 138.941L53.519 138.75Z" fill="#010E41" stroke="#010E41" stroke-width="0.5" stroke-miterlimit="10"/>
<path d="M49.5932 128.623C49.5826 128.957 49.3014 129.218 48.9672 129.207C48.633 129.197 48.373 128.915 48.3836 128.58C48.3942 128.245 48.6754 127.985 49.0096 127.996C49.3439 128.006 49.6038 128.288 49.5932 128.623Z" fill="#010E41"/>
<path d="M48.3837 136.492C48.3731 136.827 48.092 137.087 47.7577 137.076C47.4235 137.066 47.1635 136.784 47.1741 136.449C47.1848 136.115 47.4659 135.854 47.8002 135.865C48.1344 135.876 48.3944 136.157 48.3837 136.492Z" fill="#010E41"/>
<path d="M48.081 145.36C48.0704 145.695 47.7892 145.955 47.455 145.945C47.1208 145.934 46.8608 145.652 46.8714 145.318C46.882 144.983 47.1632 144.722 47.4974 144.733C47.8317 144.749 48.0916 145.031 48.081 145.36Z" fill="#010E41"/>
<path d="M47.8901 154.133C47.8795 154.467 47.5983 154.728 47.2641 154.717C46.9298 154.706 46.6699 154.425 46.6805 154.09C46.6911 153.755 46.9723 153.495 47.3065 153.506C47.6407 153.516 47.9007 153.798 47.8901 154.133Z" fill="#010E41"/>
<path d="M47.5239 164.202C47.5133 164.536 47.2321 164.797 46.8979 164.786C46.5636 164.775 46.3037 164.494 46.3143 164.159C46.3249 163.824 46.6061 163.564 46.9403 163.575C47.2745 163.585 47.5345 163.867 47.5239 164.202Z" fill="#010E41"/>
<path d="M49.8425 182.613L17.7457 188.872C14.2124 189.563 10.7905 187.251 10.1008 183.707L5.37381 159.393C4.68412 155.854 6.99191 152.427 10.5305 151.736L42.6273 145.477C46.1606 144.786 49.5825 147.098 50.2722 150.642L54.9992 174.956C55.6836 178.495 53.3758 181.922 49.8425 182.613Z" fill="#754BDD" stroke="#010E41" stroke-miterlimit="10" stroke-linecap="round" stroke-linejoin="round"/>
<path d="M44.9146 149.196L9.82031 156.039L10.5452 159.768L45.6395 152.925L44.9146 149.196Z" fill="white" stroke="#010E41" stroke-miterlimit="10"/>
<path d="M34.1166 158.341L11.1353 162.822L11.5925 165.174L34.5738 160.693L34.1166 158.341Z" fill="white" stroke="#010E41" stroke-miterlimit="10"/>
<path d="M45.9974 159.975L11.877 166.628L12.3342 168.98L46.4546 162.327L45.9974 159.975Z" fill="white" stroke="#010E41" stroke-miterlimit="10"/>
<path d="M42.5299 164.599L12.6172 170.431L13.0744 172.783L42.9871 166.951L42.5299 164.599Z" fill="white" stroke="#010E41" stroke-miterlimit="10"/>
<path d="M45.7006 167.927L13.356 174.233L13.8132 176.585L46.1578 170.279L45.7006 167.927Z" fill="white" stroke="#010E41" stroke-miterlimit="10"/>
<path d="M44.0098 172.207L14.0972 178.04L14.5544 180.392L44.4671 174.56L44.0098 172.207Z" fill="white" stroke="#010E41" stroke-miterlimit="10"/>
<path d="M49.9302 175.002L14.8359 181.845L15.2932 184.197L50.3875 177.354L49.9302 175.002Z" fill="white" stroke="#010E41" stroke-miterlimit="10"/>
<path d="M23.1357 133.463C23.1357 133.463 21.6025 135.865 18.6634 142.586C18.0427 144.005 15.4643 151.572 15.3052 152.719C15.024 154.722 15.772 156.763 17.1832 158.277C21.2046 162.586 27.7142 166.396 27.7142 166.396C30.6108 170.413 36.4891 172.289 36.7649 171.816C37.2265 171.029 33.6295 169.393 33.6295 169.393C33.6295 169.393 38.5687 171.545 38.7968 170.599C39.0621 169.478 34.68 167.868 34.68 167.868C34.68 167.868 40.4574 169.807 40.3407 168.904C40.2611 168.282 37.9162 167.097 36.4572 166.412C35.7888 166.125 35.306 165.891 35.306 165.891C35.306 165.891 35.7888 166.098 36.4572 166.412C37.9798 167.066 40.4574 168.006 40.3194 167.108C40.1232 165.817 34.3457 163.66 34.3457 163.66C34.3457 163.66 39.0197 162.958 37.322 161.805C35.6243 160.652 31.1891 160.572 31.1891 160.572C31.1891 160.572 29.2368 157.719 23.7193 151.784L25.8096 154.069C25.8096 154.069 30.7169 146.348 32.1494 141.662" fill="white"/>
<path d="M23.1357 133.463C23.1357 133.463 21.6025 135.865 18.6634 142.586C18.0427 144.005 15.4643 151.572 15.3052 152.719C15.024 154.722 15.772 156.763 17.1832 158.277C21.2046 162.586 27.7142 166.396 27.7142 166.396C30.6108 170.413 36.4891 172.289 36.7649 171.816C37.2265 171.029 33.6295 169.393 33.6295 169.393C33.6295 169.393 38.5687 171.545 38.7968 170.599C39.0621 169.478 34.68 167.868 34.68 167.868C34.68 167.868 40.4574 169.807 40.3407 168.904C40.2611 168.282 37.9162 167.097 36.4572 166.412M36.4572 166.412C35.7888 166.125 35.306 165.891 35.306 165.891C35.306 165.891 35.7888 166.098 36.4572 166.412ZM36.4572 166.412C37.9798 167.066 40.4574 168.006 40.3194 167.108C40.1232 165.817 34.3457 163.66 34.3457 163.66C34.3457 163.66 39.0197 162.958 37.322 161.805C35.6243 160.652 31.1891 160.572 31.1891 160.572C31.1891 160.572 29.2368 157.719 23.7193 151.784L25.8096 154.069C25.8096 154.069 30.7169 146.348 32.1494 141.662" stroke="#010E41" stroke-miterlimit="10" stroke-linecap="round" stroke-linejoin="round"/>
<path d="M26.0642 164.186L22.3877 161.603C22.3877 161.603 24.0217 158.033 27.3693 155.934L30.3456 158.431C30.3509 158.436 27.5497 161.269 26.0642 164.186Z" fill="white" stroke="#010E41" stroke-width="1.116" stroke-miterlimit="10" stroke-linecap="round" stroke-linejoin="round"/>
<path d="M26.0645 164.186L21.868 163.532C21.868 163.532 21.8202 164.637 22.0908 165.254L25.7302 165.556C25.7302 165.556 25.7514 164.839 26.0645 164.186Z" fill="white" stroke="#010E41" stroke-width="1.116" stroke-miterlimit="10" stroke-linecap="round" stroke-linejoin="round"/>
<path d="M58.4635 86.7368C60.4901 90.079 61.6095 92.6826 62.7236 101.79C63.5937 108.894 58.7818 116.545 50.1926 118.176C42.118 119.707 33.2529 117.464 29.3164 106.343C25.3746 95.2171 27.8521 85.6688 37.9056 81.8537C47.9485 78.0334 56.0708 82.8048 58.4635 86.7368Z" fill="white" stroke="#010E41" stroke-width="1.4524" stroke-miterlimit="10" stroke-linecap="round" stroke-linejoin="round"/>
<path d="M56.0867 81.0461C66.432 88.0705 63.7104 104.17 62.8244 102.805C58.2353 95.7484 55.6676 87.4275 55.6676 87.4275C54.9036 86.1842 51.4711 83.6709 51.4605 82.1885C51.4499 80.706 52.4314 79.1439 53.7789 79.1492" fill="#05001C"/>
<path d="M62.6599 103.272C64.5274 99.1384 64.6866 94.2606 63.095 90.0152C61.5034 85.7697 58.1823 82.1991 54.0654 80.3128" stroke="#010E41" stroke-width="0.5841" stroke-miterlimit="10" stroke-linecap="round" stroke-linejoin="round"/>
<path d="M29.5871 104.632C29.5871 104.632 34.3353 97.8047 34.5316 92.2947C34.5316 92.2947 49.938 97.013 57.6147 87.9854C59.1904 86.1311 60.2833 80.8548 57.6731 80.4457C57.6731 80.4457 58.1506 72.9324 50.4261 74.9781C42.7017 77.0238 41.2533 75.892 36.7227 76.6944C32.192 77.4967 28.8656 83.1396 28.8656 83.1396C19.0668 91.1735 24.5259 103.671 25.9742 105.079C29.7675 108.756 29.5871 104.632 29.5871 104.632Z" fill="#05001C"/>
<path d="M29.6719 83.5487C26.4728 85.3872 24.0589 88.5487 23.1305 92.1246C22.2021 95.7006 22.7698 99.6431 24.669 102.805C25.4383 104.09 26.5047 105.307 27.9371 105.748" stroke="#010E41" stroke-width="0.5841" stroke-miterlimit="10" stroke-linecap="round" stroke-linejoin="round"/>
<path d="M28.807 84.181C27.7672 83.8091 25.8945 82.6189 26.6584 81.8272C27.1253 81.3436 27.9211 82.3426 28.3561 82.8633C28.1492 82.2682 27.9476 81.6731 27.7407 81.0727C27.6876 80.9186 27.6346 80.7592 27.6452 80.5998C27.6558 80.4404 27.7513 80.2703 27.9052 80.2225C28.1333 80.1534 28.3508 80.3607 28.494 80.5572C29.1678 81.4712 29.6612 82.5179 29.9371 83.6231" fill="#05001C"/>
<path d="M50.4155 109.446C48.495 109.68 48.0812 108.113 48.0759 108.097C48.06 108.028 48.0971 107.959 48.1661 107.943C48.2298 107.927 48.304 107.964 48.32 108.033C48.3359 108.097 48.7444 109.574 50.7285 109.133C50.7975 109.122 50.8665 109.16 50.8771 109.229C50.893 109.298 50.8506 109.367 50.7816 109.377C50.6596 109.409 50.5323 109.431 50.4155 109.446Z" fill="#040602"/>
<path d="M30.8658 104.138C30.8658 104.138 24.4889 102.666 24.9398 108.979C25.3165 114.266 30.4626 114.866 32.903 112.411" fill="white"/>
<path d="M30.8658 104.138C30.8658 104.138 24.4889 102.666 24.9398 108.979C25.3165 114.266 30.4626 114.866 32.903 112.411" stroke="#010E41" stroke-width="1.4524" stroke-miterlimit="10" stroke-linecap="round" stroke-linejoin="round"/>
<path d="M37.651 100.477C37.651 100.477 36.2663 99.5209 38.7332 97.8047C41.2055 96.0884 42.1711 96.2797 42.6804 96.9227C43.1472 97.5071 42.6591 98.5326 41.2532 99.4678C39.5715 100.594 38.4096 101.035 37.651 100.477Z" fill="#05001C"/>
<path d="M43.5188 104.468C43.6249 105.323 43.1421 106.088 42.4418 106.173C41.7415 106.258 41.089 105.637 40.9829 104.781C40.8768 103.926 41.3596 103.161 42.0599 103.076C42.7601 102.991 43.4127 103.612 43.5188 104.468Z" fill="#040602"/>
<path d="M58.0389 97.2096C58.0389 97.2096 59.153 95.945 56.3413 94.877C53.5295 93.8143 52.6382 94.2341 52.2987 94.9779C51.9856 95.6581 52.7072 96.5348 54.2987 97.1033C56.2086 97.7834 57.4395 97.9322 58.0389 97.2096Z" fill="#05001C"/>
<path d="M53.9009 101.747C54.007 102.603 54.6595 103.224 55.3598 103.139C56.0601 103.054 56.5429 102.289 56.4368 101.434C56.3307 100.578 55.6781 99.9566 54.9778 100.042C54.2775 100.132 53.7947 100.892 53.9009 101.747Z" fill="#040602"/>
<path d="M31.4917 111.2C31.4758 111.2 31.4546 111.2 31.4387 111.195C31.3697 111.173 31.3326 111.104 31.3538 111.035C31.3644 111.003 32.3353 107.821 30.0593 106.678C29.2582 106.274 28.5102 106.195 27.8311 106.428C26.6586 106.838 26.0697 108.081 26.0644 108.097C26.0326 108.161 25.9583 108.187 25.8947 108.161C25.831 108.134 25.8045 108.054 25.831 107.991C25.8575 107.937 26.4623 106.641 27.7409 106.189C28.4889 105.929 29.306 106.014 30.1707 106.45C32.6377 107.693 31.6031 111.078 31.5925 111.11C31.5819 111.163 31.5395 111.195 31.4917 111.2Z" fill="#040602"/>
<path d="M28.0964 109.122C28.0592 109.128 28.0168 109.112 27.9903 109.085C27.9425 109.032 27.9425 108.952 27.9956 108.905C28.0168 108.889 29.932 107.087 31.688 108.463C31.7411 108.506 31.7517 108.586 31.7092 108.639C31.6668 108.692 31.5872 108.703 31.5342 108.66C29.9479 107.417 28.1919 109.069 28.1706 109.085C28.1494 109.106 28.1229 109.117 28.0964 109.122Z" fill="#040602"/>
<path d="M50.4685 106.359C50.4208 106.365 50.373 106.343 50.3465 106.301C50.3094 106.242 50.3306 106.163 50.3889 106.126C50.3995 106.12 51.3439 105.53 51.6781 104.574C51.9434 103.825 51.7046 102.778 51.1794 102.374C50.8664 102.135 50.4791 102.156 50.0653 102.443C50.0547 102.454 50.0335 102.47 50.0016 102.491C48.5692 103.58 47.8212 103.262 47.4445 102.805C46.7601 101.96 46.3729 94.6964 46.3304 93.8675C46.3251 93.7984 46.3835 93.7399 46.4524 93.7346C46.5214 93.7293 46.5798 93.7824 46.5851 93.8568C46.6965 96.0778 47.1103 101.986 47.6461 102.645C48.0865 103.187 48.8292 103.07 49.8531 102.289C49.8849 102.268 49.9062 102.247 49.9221 102.236C50.4261 101.885 50.9301 101.864 51.3333 102.172C51.9434 102.64 52.2192 103.804 51.9222 104.659C51.5561 105.701 50.564 106.317 50.5216 106.343C50.5057 106.349 50.4897 106.354 50.4685 106.359Z" fill="#040602"/>
<path d="M51.5557 102.188C50.7546 98.5167 53.0836 94.8823 56.7495 94.0799C60.4155 93.2776 64.0443 95.6102 64.8454 99.2818C65.6465 102.953 63.3175 106.588 59.6515 107.39C55.9909 108.187 52.3568 105.855 51.5557 102.188ZM51.9112 102.109C52.6698 105.584 56.1076 107.794 59.5772 107.034C63.0469 106.274 65.2539 102.831 64.4952 99.3562C63.7366 95.8812 60.2988 93.6708 56.8291 94.4306C53.3595 95.1904 51.1525 98.6389 51.9112 102.109Z" fill="#05001C"/>
<path d="M33.396 106.163C32.5949 102.491 34.9239 98.8567 38.5899 98.0544C42.2558 97.2521 45.8846 99.5847 46.6857 103.256C47.4868 106.928 45.1578 110.562 41.4919 111.365C37.8259 112.167 34.1971 109.834 33.396 106.163ZM33.7462 106.088C34.5048 109.563 37.9426 111.774 41.4123 111.014C44.8819 110.254 47.0889 106.811 46.3302 103.336C45.5716 99.861 42.1338 97.6506 38.6641 98.4104C35.1945 99.1702 32.9875 102.613 33.7462 106.088Z" fill="#05001C"/>
<path d="M46.3408 102.544C46.3727 102.539 46.3992 102.523 46.4257 102.502C48.6327 100.467 51.5135 101.37 51.54 101.381C51.6355 101.413 51.7363 101.359 51.7681 101.264C51.7999 101.168 51.7469 101.067 51.6514 101.035C51.6196 101.025 48.5372 100.058 46.1764 102.231C46.1021 102.3 46.0968 102.411 46.1658 102.486C46.2135 102.539 46.2825 102.555 46.3408 102.544Z" fill="#05001C"/>
</svg>
