<svg width="331" height="348" viewBox="0 0 331 348" fill="none" xmlns="http://www.w3.org/2000/svg">
<g opacity="0.03">
<path d="M26.2898 381.089C26.2898 371.311 34.3253 363.378 44.2296 363.378H294.57V121.512C294.57 111.734 302.605 103.801 312.509 103.801H312.696C322.601 103.801 330.636 111.711 330.636 121.489C330.636 169.526 330.659 303.557 330.636 374.678C330.636 389.46 321.9 398.731 307.3 398.754C232.271 398.846 93.5174 398.8 44.253 398.777C34.302 398.8 26.2898 390.867 26.2898 381.089Z" fill="#754BDD"/>
<path d="M29.2321 33.7659C29.2321 28.0006 29.0452 23.4345 29.2788 18.8915C29.8628 7.40701 37.9917 -0.433787 48.6435 0.0274364C59.2719 0.48866 65.9293 7.84518 65.9994 19.5372C66.0928 39.3006 66.1162 59.0641 65.9994 78.8275C65.9293 90.6579 59.2953 97.7838 48.5034 98.0144C37.5012 98.245 29.9328 90.8424 29.3021 79.1273C29.1386 76.014 29.2788 72.9008 29.2788 69.2571H-3.14371V310.477C-3.14371 320.232 -11.1559 328.142 -21.0368 328.142C-30.9177 328.142 -38.9299 320.255 -38.9299 310.477C-38.9766 263.04 -39 131.845 -39 61.8775C-39 40.6382 -31.9455 33.7659 -10.2215 33.7659C2.5092 33.7659 15.2166 33.7659 29.2321 33.7659Z" fill="#754BDD"/>
<path d="M250.303 131.635C192.115 166.527 165.322 228.884 137.478 285.638C134.465 291.795 128.578 304.756 127.76 305.401C110.615 273.946 85.9008 248.51 61.0701 223.142C77.2112 223.258 95.8285 228.631 120.402 240.231C137.501 220.421 154.25 200.335 171.792 180.94C188.284 162.699 207.111 147.017 230.074 137.124C235.656 134.703 244.252 133.019 250.303 131.635Z" fill="#754BDD"/>
<path d="M226.663 68.9089C211.059 68.9089 196.6 68.9089 181.393 68.9089C181.393 57.1707 181.393 45.963 181.393 33.7636C196.226 33.7636 210.872 33.7636 226.663 33.7636C226.663 27.9983 226.406 23.1785 226.71 18.4049C227.457 7.1049 235.073 -0.182437 245.537 0.0712362C255.558 0.301848 263.337 7.68142 263.547 18.4049C263.944 38.7448 263.944 59.0848 263.594 79.4247C263.384 90.9323 255.862 98.0121 245.164 98.0582C234.418 98.1043 227.434 91.1398 226.687 79.4709C226.5 76.3115 226.663 73.1752 226.663 68.9089Z" fill="#754BDD"/>
<path d="M128.229 68.9331C112.672 68.9331 98.0022 68.9331 82.6318 68.9331C82.6318 57.2411 82.6318 46.2639 82.6318 33.9954C97.4649 33.9954 112.321 33.9954 128.229 33.9954C128.229 27.9995 128.112 23.2489 128.252 18.4752C128.579 7.59034 136.451 -0.181273 146.799 0.0032161C156.891 0.187706 164.739 7.77483 164.833 18.1524C165.02 38.7691 165.043 59.3627 164.833 79.9794C164.716 90.4722 157.007 97.8979 146.823 98.0363C136.101 98.1516 128.603 90.7951 128.229 79.7027C128.135 76.3588 128.229 72.9919 128.229 68.9331Z" fill="#754BDD"/>
</g>
</svg>
