<svg width="28" height="20" viewBox="0 0 28 20" fill="none" xmlns="http://www.w3.org/2000/svg">
<path d="M27.334 1.99366C27.334 1.26033 26.7393 0.666992 26.0073 0.666992H15.3273C14.9755 0.666992 14.638 0.806765 14.3892 1.05556C14.1404 1.30436 14.0007 1.6418 14.0007 1.99366C14.0007 2.34551 14.1404 2.68296 14.3892 2.93175C14.638 3.18055 14.9755 3.32033 15.3273 3.32033H26.0073C26.3592 3.32033 26.6966 3.18055 26.9454 2.93175C27.1942 2.68296 27.334 2.34551 27.334 1.99366ZM27.334 10.0003C27.334 9.26699 26.7393 8.67366 26.0073 8.67366H1.99399C1.64213 8.67366 1.30469 8.81343 1.05589 9.06223C0.807095 9.31103 0.66732 9.64847 0.66732 10.0003C0.66732 10.3522 0.807095 10.6896 1.05589 10.9384C1.30469 11.1872 1.64213 11.327 1.99399 11.327H26.0073C26.3592 11.327 26.6966 11.1872 26.9454 10.9384C27.1942 10.6896 27.334 10.3522 27.334 10.0003ZM26.0073 16.6803C26.3592 16.6803 26.6966 16.8201 26.9454 17.0689C27.1942 17.3177 27.334 17.6551 27.334 18.007C27.334 18.3588 27.1942 18.6963 26.9454 18.9451C26.6966 19.1939 26.3592 19.3337 26.0073 19.3337H9.99399C9.64213 19.3337 9.30469 19.1939 9.05589 18.9451C8.80709 18.6963 8.66732 18.3588 8.66732 18.007C8.66732 17.6551 8.80709 17.3177 9.05589 17.0689C9.30469 16.8201 9.64213 16.6803 9.99399 16.6803H26.0073Z" fill="#754BDD"/>
</svg>
