<svg width="177" height="43" viewBox="0 0 177 43" fill="none" xmlns="http://www.w3.org/2000/svg">
<g clip-path="url(#clip0_142_177)">
<path d="M6.88184 40.6682C6.88184 39.6376 7.72882 38.8014 8.77278 38.8014H35.1598V13.3077C35.1598 12.277 36.0068 11.4408 37.0507 11.4408H37.0704C38.1144 11.4408 38.9614 12.2746 38.9614 13.3052C38.9614 18.3685 38.9638 32.496 38.9614 39.9925C38.9614 41.5506 38.0405 42.5278 36.5017 42.5302C28.5932 42.5399 13.9679 42.5351 8.77524 42.5326C7.72636 42.5351 6.88184 41.6989 6.88184 40.6682Z" fill="#754BDD"/>
<path d="M7.19198 4.05884C7.19198 3.45115 7.17228 2.96986 7.1969 2.491C7.25846 1.28049 8.11529 0.454031 9.23804 0.502646C10.3583 0.551261 11.06 1.32667 11.0674 2.55907C11.0773 4.64222 11.0797 6.72538 11.0674 8.80854C11.06 10.0555 10.3608 10.8066 9.22326 10.8309C8.06358 10.8552 7.26584 10.075 7.19937 8.84014C7.18213 8.51199 7.1969 8.18384 7.1969 7.79978H3.77942V33.2255C3.77942 34.2537 2.9349 35.0874 1.8934 35.0874C0.851909 35.0874 0.00738649 34.2561 0.00738649 33.2255C0.00246216 28.2254 0 14.3968 0 7.02193C0 4.78321 0.743573 4.05884 3.03339 4.05884C4.37526 4.05884 5.71468 4.05884 7.19198 4.05884Z" fill="#754BDD"/>
<path d="M30.4938 14.3748C24.3606 18.0525 21.5365 24.6253 18.6016 30.6073C18.284 31.2564 17.6635 32.6224 17.5773 32.6905C15.7701 29.375 13.1651 26.6938 10.5479 24.02C12.2492 24.0322 14.2115 24.5985 16.8017 25.8212C18.604 23.7332 20.3694 21.616 22.2185 19.5717C23.9568 17.649 25.9413 15.9961 28.3616 14.9533C28.9501 14.698 29.8561 14.5206 30.4938 14.3748Z" fill="#FED035"/>
<path d="M28.0021 7.7631C26.3574 7.7631 24.8333 7.7631 23.2305 7.7631C23.2305 6.52584 23.2305 5.3445 23.2305 4.05863C24.7939 4.05863 26.3377 4.05863 28.0021 4.05863C28.0021 3.45094 27.9751 2.94291 28.0071 2.43974C28.0859 1.24867 28.8885 0.480554 29.9916 0.507292C31.0478 0.5316 31.8677 1.30944 31.8899 2.43974C31.9318 4.58367 31.9318 6.7276 31.8948 8.87152C31.8727 10.0845 31.0798 10.8307 29.9522 10.8356C28.8196 10.8404 28.0834 10.1063 28.0046 8.87639C27.9849 8.54337 28.0021 8.21279 28.0021 7.7631Z" fill="#754BDD"/>
<path d="M17.6267 7.76553C15.9869 7.76553 14.4407 7.76553 12.8206 7.76553C12.8206 6.53314 12.8206 5.3761 12.8206 4.08293C14.384 4.08293 15.95 4.08293 17.6267 4.08293C17.6267 3.45094 17.6144 2.9502 17.6292 2.44704C17.6636 1.29972 18.4934 0.480554 19.5841 0.5C20.6478 0.519446 21.4751 1.31916 21.4849 2.41301C21.5046 4.5861 21.5071 6.75677 21.4849 8.92986C21.4726 10.0359 20.6601 10.8186 19.5866 10.8331C18.4564 10.8453 17.6661 10.0699 17.6267 8.90069C17.6169 8.54823 17.6267 8.19334 17.6267 7.76553Z" fill="#754BDD"/>
<path d="M124.817 34.6497H55.2756V31.6744H124.817C125.649 31.6744 126.324 32.3405 126.324 33.1621C126.324 33.9837 125.649 34.6497 124.817 34.6497Z" fill="#754BDD"/>
<path d="M133.486 29.0371H130.817V27.3988H137.999V29.0371H135.33V35.8578H133.484V29.0371H133.486Z" fill="#754BDD"/>
<path d="M143.212 29.3458V30.8601C141.865 30.8601 141.006 31.6234 141.006 32.8169V35.8578H139.186V29.4941H141.006V30.6754C141.429 29.8514 142.227 29.3458 143.212 29.3458Z" fill="#754BDD"/>
<path d="M149.97 32.0536V35.8578H148.212V35.2185C147.752 35.7362 147.016 36.0061 146.317 36.0061C144.945 36.0061 143.884 35.1942 143.884 33.9739C143.884 32.7172 145.068 31.8568 146.565 31.8568C147.09 31.8568 147.663 31.9686 148.21 32.1776V32.0536C148.21 31.3755 147.786 30.7848 146.725 30.7848C146.127 30.7848 145.566 30.9817 145.053 31.2393L144.443 30.0458C145.354 29.5913 146.238 29.3434 147.136 29.3434C148.823 29.3458 149.97 30.391 149.97 32.0536ZM148.212 33.85V33.2593C147.801 33.111 147.326 33.0259 146.829 33.0259C146.169 33.0259 145.644 33.4076 145.644 33.9253C145.644 34.4431 146.105 34.7615 146.73 34.7615C147.427 34.7615 148.087 34.4406 148.212 33.85Z" fill="#754BDD"/>
<path d="M151.142 32.6686C151.142 30.8601 152.763 29.3458 154.671 29.3458C155.717 29.3458 156.579 29.7639 157.202 30.4299L155.993 31.4508C155.668 31.0935 155.158 30.8601 154.658 30.8601C153.71 30.8601 152.913 31.6842 152.913 32.6565C152.913 33.6531 153.71 34.4917 154.671 34.4917C155.171 34.4917 155.693 34.2462 156.03 33.8767L157.239 34.8855C156.604 35.5758 155.729 36.0061 154.658 36.0061C152.75 36.0061 151.142 34.4795 151.142 32.6686Z" fill="#754BDD"/>
<path d="M162.102 32.3113L164.583 35.8578H162.488L160.893 33.4683L160.119 34.2924V35.8553H158.3V27.2505H160.119V32.236L162.513 29.4916H164.608L162.102 32.3113Z" fill="#754BDD"/>
<path d="M169.983 33.85L171.143 35.0192C170.569 35.6098 169.458 36.0036 168.511 36.0036C166.59 36.0036 165.093 34.6132 165.093 32.6565C165.093 30.7362 166.526 29.3458 168.41 29.3458C170.429 29.3458 171.615 30.8601 171.615 33.2617H166.964C167.176 33.9521 167.737 34.4188 168.498 34.4188C169.01 34.4163 169.633 34.183 169.983 33.85ZM166.989 31.9686H169.87C169.695 31.3414 169.222 30.9355 168.486 30.9355C167.799 30.9331 167.225 31.3269 166.989 31.9686Z" fill="#754BDD"/>
<path d="M176.877 29.3458V30.8601C175.53 30.8601 174.671 31.6234 174.671 32.8169V35.8578H172.851V29.4941H174.671V30.6754C175.094 29.8514 175.892 29.3458 176.877 29.3458Z" fill="#754BDD"/>
<path d="M55.2485 7.03144H59.9069L64.3241 14.8074L68.7412 7.03144H73.3996V23.3175H68.7412V14.5935L64.3241 22.3695L59.9069 14.5935V23.3175H55.2485V7.03144Z" fill="#020F40"/>
<path d="M81.0349 17.9601L74.6973 7.03144H80.0278L83.3665 13.6455L86.8973 7.03144H92.0112L85.6957 17.9601V23.3175H81.0373V17.9601H81.0349Z" fill="#020F40"/>
<path d="M112.176 19.2168V23.3175H99.8359V7.03144H104.494V19.2168H112.176Z" fill="#020F40"/>
<path d="M118.824 11.1321V12.9576H126.676V17.0583H118.824V19.2168H127.444V23.3175H114.166V7.03144H127.444V11.1321H118.824Z" fill="#020F40"/>
<path d="M140.218 21.1371H134.478L133.639 23.3175H128.38L134.717 7.03144H139.976L146.317 23.3175H141.057L140.218 21.1371ZM138.898 17.7462L137.362 13.7865L135.801 17.7462H138.898Z" fill="#020F40"/>
<path d="M162.259 7.03144L155.919 23.3175H150.66L144.322 7.03144H149.581L153.304 16.56L157.002 7.03144H162.259Z" fill="#020F40"/>
<path d="M168.38 11.1321V12.9576H176.232V17.0583H168.38V19.2168H177V23.3175H163.722V7.03144H177V11.1321H168.38Z" fill="#020F40"/>
</g>
<defs>
<clipPath id="clip0_142_177">
<rect width="177" height="42.0375" fill="white" transform="translate(0 0.5)"/>
</clipPath>
</defs>
</svg>
