<svg width="316" height="311" viewBox="0 0 316 311" fill="none" xmlns="http://www.w3.org/2000/svg">
<path d="M92.5534 17.1322L86.2227 17.1661L86.3914 48.6653L92.7222 48.6314L92.5534 17.1322Z" fill="#E0E0E0"/>
<path d="M47.7805 17.2183L31.3884 17.306L31.4814 34.6948L47.8735 34.6071L47.7805 17.2183Z" fill="#EBEBEB"/>
<path d="M64.0881 17.1264L47.696 17.2141L47.7891 34.603L64.1812 34.5153L64.0881 17.1264Z" fill="#F5F5F5"/>
<path d="M31.4133 22.1088C42.3084 22.2007 53.2246 22.1371 64.1197 21.9604C64.3458 21.9604 64.3458 21.6142 64.1197 21.6142C53.2246 21.5506 42.3084 21.6072 31.4133 21.8121C31.2154 21.8121 31.2154 22.1018 31.4133 22.1088Z" fill="#E0E0E0"/>
<path d="M50.9473 34.3169L21.166 34.4765L21.2419 48.6434L51.0232 48.4838L50.9473 34.3169Z" fill="#EBEBEB"/>
<path d="M80.588 34.1545L50.8066 34.314L50.8825 48.4808L80.6638 48.3214L80.588 34.1545Z" fill="#F5F5F5"/>
<path d="M21.1894 38.4166C40.973 38.6427 60.8272 38.4378 80.6037 38.1198C80.8298 38.1128 80.8298 37.7736 80.6037 37.7736C60.8201 37.6676 40.9659 37.6817 21.1894 38.1198C20.9916 38.1198 20.9916 38.4095 21.1894 38.4166Z" fill="#E0E0E0"/>
<path d="M125.421 48.6407H10.0471V53.714H125.421V48.6407Z" fill="#E0E0E0"/>
<path d="M33.6249 51.0855H28.9404V68.4037H33.6249V51.0855Z" fill="#E0E0E0"/>
<path d="M103.538 51.0855H98.854V68.4037H103.538V51.0855Z" fill="#E0E0E0"/>
<path d="M98.7253 5.38875L92.3945 5.42267L92.6266 48.7429L98.9574 48.709L98.7253 5.38875Z" fill="#EBEBEB"/>
<path d="M108.618 13.4555L98.7825 13.5084L98.9711 48.6111L108.806 48.5583L108.618 13.4555Z" fill="#F5F5F5"/>
<path d="M108.548 20.2152C108.548 20.307 106.344 20.3848 103.631 20.3848C100.917 20.3848 98.7129 20.307 98.7129 20.2152C98.7129 20.1233 100.917 20.0456 103.631 20.0456C106.344 20.0456 108.548 20.1233 108.548 20.2152Z" fill="#E0E0E0"/>
<path d="M108.548 18.7384C108.548 18.8303 106.344 18.908 103.631 18.908C100.917 18.908 98.7129 18.8303 98.7129 18.7384C98.7129 18.6466 100.917 18.5688 103.631 18.5688C106.344 18.5688 108.548 18.6466 108.548 18.7384Z" fill="#E0E0E0"/>
<path d="M108.548 43.2779C108.548 43.3697 106.344 43.4474 103.631 43.4474C100.917 43.4474 98.7129 43.3697 98.7129 43.2779C98.7129 43.186 100.917 43.1083 103.631 43.1083C106.344 43.1083 108.548 43.1789 108.548 43.2779Z" fill="#E0E0E0"/>
<path d="M108.548 41.8011C108.548 41.893 106.344 41.9707 103.631 41.9707C100.917 41.9707 98.7129 41.893 98.7129 41.8011C98.7129 41.7093 100.917 41.6315 103.631 41.6315C106.344 41.6315 108.548 41.7093 108.548 41.8011Z" fill="#E0E0E0"/>
<path d="M103.786 38.5862C103.694 38.5862 103.616 35.0462 103.616 30.6796C103.616 26.3129 103.694 22.7659 103.786 22.7659C103.878 22.7659 103.956 26.3059 103.956 30.6796C103.963 35.0392 103.885 38.5862 103.786 38.5862Z" fill="#E0E0E0"/>
<path d="M119.358 22.0735H108.654V48.5701H119.358V22.0735Z" fill="#EBEBEB"/>
<path d="M97.2855 12.782C97.2855 13.7853 96.473 14.5979 95.4697 14.5979C94.4663 14.5979 93.6538 13.7853 93.6538 12.782C93.6538 11.7786 94.4663 10.9661 95.4697 10.9661C96.473 10.9661 97.2855 11.7786 97.2855 12.782Z" fill="#E0E0E0"/>
<path d="M96.028 17.7916H94.9045V43.5605H96.028V17.7916Z" fill="#E0E0E0"/>
<path d="M22.3752 228.439L22.3752 309.95H172.829V228.439H22.3752Z" fill="#EBEBEB"/>
<path d="M172.83 228.436C172.83 228.436 172.703 228.542 172.456 228.733C172.195 228.931 171.813 229.207 171.325 229.574C170.315 230.316 168.853 231.39 166.959 232.782C163.151 235.559 157.654 239.572 150.871 244.518C137.255 254.403 118.468 268.054 97.7165 283.133H97.7095L97.6035 283.21L97.4975 283.133C76.7389 268.054 57.9445 254.403 44.3362 244.518C37.5533 239.565 32.0563 235.559 28.248 232.782C26.3615 231.397 24.8918 230.316 23.8885 229.574C23.401 229.207 23.0265 228.931 22.758 228.733C22.5037 228.542 22.3835 228.436 22.3835 228.436C22.3835 228.436 22.5249 228.521 22.7863 228.705C23.0548 228.896 23.4363 229.164 23.938 229.517C24.9554 230.245 26.4392 231.305 28.3398 232.669C32.1623 235.424 37.6805 239.402 44.4917 244.313C58.1211 254.177 76.9367 267.8 97.7165 282.843H97.4975H97.5046C118.284 267.8 137.093 254.184 150.722 244.32C157.534 239.41 163.052 235.432 166.881 232.676C168.789 231.312 170.266 230.252 171.283 229.525C171.785 229.171 172.166 228.903 172.435 228.712C172.689 228.521 172.83 228.436 172.83 228.436Z" fill="#E0E0E0"/>
<path d="M257.08 256.396C254.586 254.827 251.725 253.845 248.792 253.541C247.436 253.4 245.959 253.442 244.871 254.262C244.638 254.438 244.419 254.693 244.468 254.975C244.504 255.187 244.68 255.336 244.85 255.463C248.227 258.042 253.328 258.367 257.08 256.396Z" fill="#E0E0E0"/>
<path d="M256.868 256.163C254.989 254.7 253.102 253.223 251.513 251.45C249.923 249.676 248.63 247.578 248.156 245.246C248.015 244.539 247.966 243.734 248.425 243.169C252.693 246.504 256.042 250.814 256.868 256.163Z" fill="#E0E0E0"/>
<path d="M257.038 256.367C256.72 254.036 256.6 251.633 257.137 249.337C257.674 247.041 258.924 244.85 260.881 243.536C261.616 245.26 261.305 247.246 260.783 249.047C259.977 251.831 258.719 254.481 257.073 256.862" fill="#E0E0E0"/>
<path d="M261.221 263.857C258.684 264.168 256.473 265.504 254.572 267.22C252.678 268.937 251.329 271.248 250.771 273.749C253.258 273.594 255.37 271.842 256.904 269.87C258.437 267.899 259.497 265.737 261.178 263.9" fill="#E0E0E0"/>
<path d="M262.125 265.058C260.083 260.02 260.818 253.951 264.019 249.556C265.467 254.7 264.937 260.508 262.125 265.058Z" fill="#E0E0E0"/>
<path d="M267.657 271.637C265.354 271.495 263.008 272.039 261.009 273.191C259.009 274.343 257.356 276.095 256.324 278.158C256.183 278.441 256.063 278.794 256.247 279.049C256.409 279.268 256.727 279.289 256.995 279.268C259.228 279.126 261.207 277.777 262.839 276.251C264.471 274.717 265.898 272.951 267.7 271.629" fill="#E0E0E0"/>
<path d="M267.481 271.283C266.294 267.482 266.216 263.334 267.269 259.491C267.686 257.971 268.378 256.374 269.784 255.661C269.904 255.597 270.045 255.548 270.166 255.59C270.286 255.633 270.356 255.76 270.406 255.873C270.907 256.919 271.049 258.099 270.999 259.257C270.95 260.409 270.71 261.554 270.469 262.684C270.024 264.776 269.791 267.03 268.646 268.831C268.371 269.262 268.131 269.722 267.919 270.181C267.7 270.64 267.7 270.803 267.502 271.163" fill="#E0E0E0"/>
<path d="M282.107 273.46C281.025 269.34 282.17 264.338 284.77 260.96C284.961 260.713 285.215 260.444 285.526 260.473C286.007 260.515 286.127 261.151 286.106 261.631C285.922 265.85 284.516 269.997 282.107 273.46Z" fill="#E0E0E0"/>
<path d="M283.428 274.364C288.437 275.664 294.182 274.399 298.35 271.333C295.884 270.082 292.973 269.722 290.274 270.344C287.568 270.951 285.102 272.159 283.428 274.364Z" fill="#E0E0E0"/>
<path d="M284.537 271.615C287.342 267.044 292.719 264.055 298.074 263.786C297.46 265.963 295.665 267.659 293.644 268.683C291.624 269.708 289.37 270.153 287.144 270.584C286.282 270.753 285.095 270.937 284.537 271.615Z" fill="#E0E0E0"/>
<path d="M282.382 258.296C283.145 255.696 283.908 253.068 284.113 250.369C284.325 247.662 283.936 244.843 282.53 242.526C279.909 247.599 279.648 253.52 282.297 258.572" fill="#E0E0E0"/>
<path d="M291.207 253.838C294.273 248.27 300.519 243.819 306.85 243.197C304.405 249.273 297.749 253.965 291.207 253.838Z" fill="#E0E0E0"/>
<path d="M289.278 254.926C293.849 255.626 297.743 258.544 302.01 260.31C302.922 260.692 303.911 260.988 304.886 260.861C305.868 260.734 306.836 260.077 307.055 259.109C307.239 258.311 306.871 257.456 306.299 256.869C305.727 256.283 304.964 255.915 304.208 255.597C299.558 253.661 294.57 253.612 289.667 254.785" fill="#E0E0E0"/>
<path d="M286.635 258.134C287.667 258.431 288.02 258.968 288.84 259.66C291.617 262.027 294.952 263.737 298.499 264.62C298.866 264.712 299.354 264.747 299.537 264.415C299.7 264.126 299.495 263.772 299.29 263.511C297.806 261.653 295.686 260.381 293.461 259.554C291.235 258.727 289.299 257.724 286.643 257.936" fill="#E0E0E0"/>
<path d="M283.647 238.774C287.363 242.243 292.599 244.024 297.658 243.543C297.891 243.522 298.138 243.487 298.294 243.317C298.647 242.935 298.223 242.342 297.813 242.024C293.701 238.809 288.706 237.474 283.647 238.774Z" fill="#E0E0E0"/>
<path d="M287.187 237.481C292.097 233.799 298.838 232.683 304.667 234.598C302.462 236.767 299.41 237.933 296.336 238.258C293.263 238.576 290.189 238.23 287.187 237.481Z" fill="#E0E0E0"/>
<path d="M285.78 228.585C285.378 224.473 285.639 221.229 285.349 217.096C285.328 216.764 285.258 216.368 284.947 216.248C284.516 216.085 284.155 216.608 284.014 217.046C282.792 220.855 283.456 225.222 285.766 228.486" fill="#E0E0E0"/>
<path d="M285.484 229.037C288.268 227.313 290.359 225.066 292.295 222.416C293.638 220.579 294.775 218.368 294.471 216.114C292.585 216.078 290.79 217.117 289.561 218.551C288.331 219.986 287.604 221.78 287.06 223.589C286.508 225.405 286.127 227.263 285.484 229.037Z" fill="#E0E0E0"/>
<path d="M292.175 227.179C298.294 224.918 303.996 221.554 308.934 217.294C306.935 216.488 304.639 216.969 302.639 217.781C298.068 219.625 294.33 222.741 292.09 227.136" fill="#E0E0E0"/>
<path d="M287.37 231.291C290.465 231.63 293.609 231.849 296.676 231.333C299.693 230.832 302.547 229.631 305.366 228.443C305.599 228.345 305.854 228.224 305.96 227.998C306.073 227.744 305.953 227.44 305.748 227.256C305.543 227.073 305.274 226.981 305.006 226.91C301.94 226.055 298.633 226.451 295.616 227.468C292.592 228.486 290.119 229.694 287.37 231.291Z" fill="#E0E0E0"/>
<path d="M269.699 238.915C267.587 234.654 267.728 229.68 269.551 225.292C270.837 227.249 270.992 229.737 270.759 232.068C270.526 234.393 269.812 236.788 269.77 239.134" fill="#E0E0E0"/>
<path d="M261.27 234.661C255.999 234.562 250.728 236.809 247.146 240.674C249.774 241.084 252.488 240.406 254.876 239.24C257.271 238.074 259.398 236.435 261.503 234.803" fill="#E0E0E0"/>
<path d="M255.596 232.768C253.018 232.556 250.538 232.238 248.058 233.001C245.578 233.757 243.324 235.488 242.313 237.869C244.723 238.138 247.167 237.537 249.379 236.534C251.59 235.53 253.604 234.146 255.596 232.768Z" fill="#E0E0E0"/>
<path d="M263.99 232.853C261.673 231.333 259.292 229.786 256.586 229.157C253.887 228.528 250.757 228.995 248.87 231.03C251.053 232.316 253.71 232.464 256.247 232.464C258.783 232.464 261.892 232.436 264.28 233.276" fill="#E0E0E0"/>
<path d="M264.005 232.973C260.041 229.079 258.536 222.084 260.133 216.757C263.249 221.498 264.647 227.341 264.005 232.973Z" fill="#E0E0E0"/>
<path d="M274.907 221.943C275.656 220.205 276.179 218.382 276.85 216.608C277.521 214.842 278.355 213.097 279.619 211.691C280.884 210.284 282.644 209.239 284.53 209.147C283.35 214.503 279.789 219.293 274.999 221.971" fill="#E0E0E0"/>
<path d="M272.935 224.239C271.699 222.536 270.264 220.226 268.59 218.954C266.908 217.682 264.725 216.912 262.676 217.4C264.76 221.123 268.696 223.752 272.935 224.239Z" fill="#E0E0E0"/>
<path d="M273.331 222.084C272.518 220.021 271.706 217.937 271.374 215.746C271.049 213.556 271.247 211.217 272.363 209.302C274.539 213.415 275.239 217.831 273.437 222.127" fill="#E0E0E0"/>
<path d="M274.928 209.309C276.157 205.232 279.895 202.229 283.929 200.852C284.438 200.675 284.975 200.534 285.505 200.618C286.035 200.703 286.558 201.064 286.671 201.586C286.819 202.279 286.247 202.901 285.703 203.36C282.566 206.045 278.877 208.08 274.928 209.309Z" fill="#E0E0E0"/>
<path d="M274.977 205.974C275.133 203.346 275.295 200.675 276.15 198.188C277.005 195.694 278.651 193.362 281.054 192.267C281.463 194.923 280.29 197.566 278.877 199.848C277.464 202.131 275.761 204.293 274.914 206.843" fill="#E0E0E0"/>
<path d="M274.907 207.783C273.889 204.809 273.783 201.035 272.003 198.442C270.759 196.633 268.767 195.397 267.693 193.482C266.979 195.27 267.198 197.333 267.94 199.113C268.682 200.894 269.918 202.42 271.233 203.826C272.561 205.24 273.684 206.292 274.907 207.783Z" fill="#E0E0E0"/>
<path d="M274.928 295.328C274.85 295.328 274.78 275.495 274.773 251.04C274.765 226.578 274.829 206.752 274.907 206.752C274.984 206.752 275.055 226.578 275.062 251.04C275.069 275.495 275.013 295.328 274.928 295.328Z" fill="#E0E0E0"/>
<path d="M292.26 235.926C292.267 235.947 291.998 236.046 291.511 236.209C290.974 236.392 290.288 236.619 289.462 236.901C287.731 237.488 285.357 238.343 282.778 239.403C280.227 240.498 277.818 241.388 276.44 242.575C275.755 243.162 275.359 243.797 275.168 244.257C274.97 244.723 274.935 245.006 274.907 244.999C274.9 244.999 274.9 244.928 274.914 244.794C274.935 244.659 274.97 244.462 275.062 244.214C275.232 243.727 275.613 243.048 276.306 242.42C276.998 241.791 277.952 241.225 279.054 240.71C280.156 240.194 281.372 239.664 282.665 239.127C285.251 238.067 287.646 237.24 289.398 236.696C290.274 236.421 290.988 236.223 291.483 236.089C291.977 235.969 292.253 235.905 292.26 235.926Z" fill="#E0E0E0"/>
<path d="M297.94 221.971C297.947 221.978 297.877 222.056 297.728 222.197C297.559 222.353 297.347 222.551 297.093 222.798C296.499 223.335 295.701 224.063 294.719 224.953C292.67 226.776 289.886 229.256 286.812 231.99C283.725 234.739 281.061 237.361 279.21 239.339C278.284 240.328 277.556 241.141 277.055 241.713C276.821 241.982 276.631 242.193 276.482 242.37C276.348 242.518 276.277 242.596 276.27 242.589C276.263 242.582 276.32 242.497 276.44 242.335C276.56 242.172 276.737 241.939 276.977 241.642C277.45 241.049 278.157 240.208 279.068 239.198C280.884 237.184 283.534 234.527 286.628 231.771C289.723 229.03 292.542 226.571 294.591 224.79C295.595 223.928 296.421 223.222 297.029 222.699C297.297 222.473 297.524 222.289 297.7 222.141C297.849 222.028 297.933 221.964 297.94 221.971Z" fill="#E0E0E0"/>
<path d="M283.477 234.781C283.399 234.746 284.042 233.255 284.685 231.376C285.335 229.496 285.639 227.906 285.724 227.921C285.802 227.928 285.618 229.567 284.961 231.468C284.636 232.422 284.283 233.255 284 233.849C283.717 234.442 283.512 234.803 283.477 234.781Z" fill="#E0E0E0"/>
<path d="M274.949 246.786C274.935 246.8 274.765 246.603 274.476 246.235C274.151 245.818 273.748 245.295 273.26 244.674C272.236 243.352 270.823 241.522 269.233 239.523C267.643 237.523 266.188 235.728 265.135 234.435C264.64 233.821 264.216 233.305 263.891 232.895C263.602 232.528 263.446 232.323 263.46 232.308C263.474 232.294 263.658 232.478 263.976 232.824C264.294 233.171 264.746 233.672 265.29 234.308C266.385 235.573 267.869 237.346 269.459 239.346C271.049 241.346 272.441 243.197 273.423 244.553C273.917 245.232 274.306 245.783 274.567 246.172C274.829 246.553 274.963 246.772 274.949 246.786Z" fill="#E0E0E0"/>
<path d="M271.148 241.911C271.098 241.96 270.088 240.759 269.558 238.929C269.169 237.643 269.148 236.463 269.198 235.926L269.325 235.933C269.268 236.166 269.226 236.286 269.205 236.279C269.183 236.272 269.183 236.145 269.198 235.912L269.325 235.919C269.374 236.456 269.452 237.594 269.833 238.844C270.342 240.618 271.225 241.861 271.148 241.911Z" fill="#E0E0E0"/>
<path d="M266.244 235.735C266.209 235.778 265.884 235.361 265.135 235.092C264.393 234.803 263.277 234.739 262.047 234.845C260.818 234.937 259.723 235.156 258.938 235.347C258.154 235.545 257.674 235.693 257.659 235.651C257.645 235.615 258.105 235.396 258.882 235.149C259.659 234.902 260.775 234.647 262.019 234.555C263.255 234.449 264.435 234.541 265.206 234.902C265.983 235.248 266.265 235.728 266.244 235.735Z" fill="#E0E0E0"/>
<path d="M265.078 234.245C265.057 234.287 264.428 233.983 263.376 233.623C262.323 233.262 260.825 232.881 259.129 232.747C257.434 232.619 255.893 232.768 254.798 232.966C253.703 233.163 253.039 233.368 253.018 233.319C253.01 233.298 253.173 233.234 253.47 233.128C253.766 233.015 254.205 232.895 254.756 232.768C255.858 232.513 257.426 232.33 259.15 232.464C260.874 232.598 262.401 233.015 263.446 233.432C263.969 233.637 264.386 233.828 264.662 233.983C264.944 234.131 265.093 234.223 265.078 234.245Z" fill="#E0E0E0"/>
<path d="M274.907 227.921C274.829 227.942 274.271 226.006 273.663 223.611C273.055 221.208 272.624 219.244 272.702 219.23C272.78 219.209 273.338 221.145 273.946 223.547C274.553 225.935 274.984 227.899 274.907 227.921Z" fill="#E0E0E0"/>
<path d="M274.991 227.921C274.907 227.949 274.546 226.656 273.614 225.342C272.702 223.992 271.543 223.321 271.586 223.25C271.6 223.222 271.918 223.335 272.37 223.653C272.815 223.964 273.373 224.494 273.847 225.179C274.815 226.543 275.055 227.914 274.991 227.921Z" fill="#E0E0E0"/>
<path d="M274.928 284.758C274.9 284.765 274.836 284.284 274.617 283.436C274.398 282.596 273.981 281.401 273.289 280.002C271.918 277.204 269.424 273.65 266.258 270.096C264.69 268.302 263.164 266.613 261.871 264.988C260.578 263.37 259.511 261.829 258.734 260.466C257.956 259.102 257.448 257.936 257.151 257.109C257.003 256.692 256.897 256.374 256.84 256.148C256.776 255.929 256.748 255.809 256.755 255.809C256.783 255.802 256.925 256.261 257.25 257.074C257.575 257.879 258.105 259.031 258.903 260.367C259.694 261.709 260.768 263.228 262.069 264.825C263.369 266.429 264.895 268.111 266.463 269.905C269.643 273.474 272.13 277.063 273.458 279.911C274.129 281.331 274.518 282.546 274.709 283.408C274.801 283.839 274.864 284.171 274.885 284.404C274.928 284.631 274.942 284.751 274.928 284.758Z" fill="#E0E0E0"/>
<path d="M290.592 267.065C290.599 267.086 290.302 267.235 289.773 267.524C289.25 267.821 288.501 268.273 287.646 268.93C286.791 269.588 285.83 270.442 284.848 271.481C283.866 272.52 282.855 273.721 281.824 275.014C279.761 277.6 277.832 279.889 276.68 281.719C276.094 282.624 275.67 283.394 275.387 283.924C275.104 284.461 274.956 284.758 274.935 284.751C274.928 284.744 274.949 284.666 275.013 284.518C275.076 284.369 275.154 284.15 275.288 283.875C275.535 283.323 275.938 282.539 276.511 281.606C277.634 279.734 279.549 277.416 281.605 274.83C282.636 273.537 283.661 272.329 284.664 271.297C285.667 270.266 286.65 269.411 287.526 268.768C288.409 268.125 289.179 267.694 289.723 267.425C289.992 267.291 290.218 267.206 290.366 267.143C290.507 267.086 290.585 267.058 290.592 267.065Z" fill="#E0E0E0"/>
<path d="M290.896 272.802C290.903 272.845 290.232 272.923 289.158 273.057C288.091 273.198 286.6 273.375 285.046 273.869C283.491 274.378 282.205 275.148 281.365 275.805C280.517 276.462 280.114 277.007 280.079 276.971C280.065 276.964 280.149 276.816 280.333 276.568C280.517 276.328 280.821 276.003 281.237 275.643C282.064 274.929 283.364 274.117 284.961 273.594C286.558 273.085 288.063 272.944 289.144 272.852C290.225 272.774 290.896 272.767 290.896 272.802Z" fill="#E0E0E0"/>
<path d="M280.58 276.335C280.489 276.286 281.273 275.092 281.88 273.481C282.453 271.863 282.58 270.435 282.686 270.457C282.721 270.464 282.721 270.817 282.658 271.389C282.587 271.955 282.453 272.746 282.149 273.58C281.845 274.413 281.449 275.106 281.146 275.593C280.835 276.081 280.616 276.357 280.58 276.335Z" fill="#E0E0E0"/>
<path d="M295.658 251.662C295.665 251.669 295.566 251.718 295.383 251.81C295.171 251.909 294.895 252.029 294.57 252.177C294.21 252.333 293.779 252.524 293.291 252.785C292.804 253.039 292.231 253.301 291.631 253.654C291.327 253.824 291.016 254.007 290.684 254.191C290.359 254.382 290.034 254.601 289.688 254.82C288.988 255.244 288.289 255.767 287.547 256.297C286.084 257.406 284.551 258.713 283.074 260.232C281.612 261.759 280.354 263.341 279.294 264.839C278.786 265.602 278.291 266.316 277.895 267.03C277.69 267.383 277.479 267.715 277.302 268.047C277.125 268.379 276.956 268.704 276.793 269.008C276.454 269.616 276.214 270.195 275.981 270.697C275.74 271.191 275.564 271.637 275.422 271.997C275.281 272.329 275.168 272.605 275.083 272.824C274.998 273.014 274.956 273.106 274.942 273.106C274.935 273.106 274.963 273 275.027 272.802C275.104 272.576 275.203 272.301 275.316 271.955C275.444 271.587 275.606 271.135 275.832 270.633C276.058 270.124 276.284 269.538 276.609 268.923C276.765 268.612 276.927 268.287 277.104 267.941C277.281 267.602 277.486 267.263 277.69 266.91C278.086 266.189 278.574 265.461 279.082 264.691C280.135 263.172 281.4 261.575 282.87 260.035C284.36 258.508 285.915 257.194 287.391 256.085C288.148 255.555 288.854 255.039 289.561 254.622C289.914 254.41 290.239 254.191 290.571 254C290.903 253.817 291.228 253.64 291.532 253.478C292.14 253.131 292.719 252.877 293.221 252.637C293.715 252.389 294.16 252.213 294.528 252.071C294.867 251.944 295.142 251.838 295.369 251.746C295.552 251.683 295.658 251.655 295.658 251.662Z" fill="#E0E0E0"/>
<path d="M283.265 259.964C283.237 259.957 283.378 259.476 283.943 258.946C284.502 258.417 285.512 257.929 286.692 257.894C287.865 257.865 288.882 258.19 289.582 258.459C290.281 258.734 290.691 258.954 290.677 258.989C290.663 259.031 290.225 258.869 289.518 258.65C288.812 258.431 287.815 258.148 286.706 258.183C285.597 258.219 284.636 258.643 284.085 259.102C283.512 259.561 283.315 259.992 283.265 259.964Z" fill="#E0E0E0"/>
<path d="M281.414 261.879C281.336 261.836 282.036 260.812 282.191 259.342C282.375 257.879 281.93 256.721 282.015 256.692C282.043 256.678 282.205 256.947 282.34 257.434C282.474 257.915 282.566 258.614 282.474 259.377C282.382 260.141 282.135 260.798 281.894 261.236C281.654 261.674 281.442 261.9 281.414 261.879Z" fill="#E0E0E0"/>
<path d="M261.235 287.598C261.659 295.18 263.948 302.881 267.46 310.675H282.735C286.084 302.959 288.211 295.265 288.586 287.598H261.235Z" fill="#E0E0E0"/>
<path d="M286.113 299.857C286.113 299.935 281.082 299.999 274.878 299.999C268.675 299.999 263.644 299.935 263.644 299.857C263.644 299.78 268.675 299.716 274.878 299.716C281.082 299.716 286.113 299.78 286.113 299.857Z" fill="#FAFAFA"/>
<path d="M285.766 302.606C285.766 302.684 281.054 302.747 275.239 302.747C269.424 302.747 264.711 302.684 264.711 302.606C264.711 302.528 269.424 302.465 275.239 302.465C281.054 302.465 285.766 302.528 285.766 302.606Z" fill="#FAFAFA"/>
<path d="M267.707 292.572C267.785 292.572 267.848 294.148 267.848 296.091C267.848 298.034 267.785 299.61 267.707 299.61C267.629 299.61 267.565 298.034 267.565 296.091C267.558 294.148 267.622 292.572 267.707 292.572Z" fill="#FAFAFA"/>
<path d="M275.889 292.572C275.966 292.572 276.03 294.205 276.03 296.218C276.03 298.232 275.966 299.864 275.889 299.864C275.811 299.864 275.747 298.232 275.747 296.218C275.747 294.205 275.811 292.572 275.889 292.572Z" fill="#FAFAFA"/>
<path d="M283.569 292.509C283.647 292.509 283.71 294.176 283.71 296.225C283.71 298.282 283.647 299.942 283.569 299.942C283.491 299.942 283.428 298.282 283.428 296.225C283.428 294.176 283.491 292.509 283.569 292.509Z" fill="#FAFAFA"/>
<path d="M288.098 292.572C288.098 292.65 282.198 292.714 274.928 292.714C267.65 292.714 261.75 292.65 261.75 292.572C261.75 292.495 267.65 292.431 274.928 292.431C282.205 292.431 288.098 292.495 288.098 292.572Z" fill="#FAFAFA"/>
<path d="M316 310.548C316 310.647 245.436 310.731 158.417 310.731C71.3692 310.731 0.81958 310.647 0.81958 310.548C0.81958 310.449 71.3621 310.364 158.417 310.364C245.436 310.364 316 310.442 316 310.548Z" fill="#010E41"/>
<path d="M244.094 27.1962H72.7397V263.645H244.094V27.1962Z" fill="white"/>
<path d="M244.094 263.645C244.094 262.168 244.023 167.042 243.924 27.1962L244.094 27.3657C192.437 27.3728 134.182 27.3799 72.7611 27.3799H72.7399L72.9236 27.1962C72.9094 115.603 72.9024 197.425 72.8882 263.645L72.7399 263.497C176.681 263.589 242.857 263.645 244.094 263.645C242.857 263.645 176.681 263.702 72.7399 263.794H72.5915V263.645C72.5844 197.425 72.5703 115.596 72.5562 27.1962V27.0125H72.7399H72.7611C134.182 27.0195 192.437 27.0266 244.094 27.0266H244.263V27.1962C244.157 167.049 244.094 262.168 244.094 263.645Z" fill="#010E41"/>
<path d="M243.069 190.076C243.069 190.175 205.163 190.26 158.417 190.26C111.657 190.26 73.7573 190.175 73.7573 190.076C73.7573 189.977 111.65 189.893 158.417 189.893C205.17 189.893 243.069 189.977 243.069 190.076Z" fill="#010E41"/>
<path d="M127.329 65.2844C129.213 57.2252 124.208 49.1642 116.149 47.2796C108.09 45.395 100.029 50.4004 98.1447 58.4595C96.2602 66.5187 101.265 74.5797 109.324 76.4643C117.383 78.3489 125.444 73.3435 127.329 65.2844Z" fill="#754BDD"/>
<path d="M112.173 69.6685C108.845 69.6685 106.146 67.1107 106.146 63.9523V55.4663L112.173 56.724L118.2 55.4663V63.9523C118.2 67.1107 115.501 69.6685 112.173 69.6685Z" fill="white"/>
<path d="M176.279 59.3596H140.746C139.509 59.3596 138.499 58.3562 138.499 57.1127V56.8795C138.499 55.643 139.502 54.6326 140.746 54.6326H176.279C177.515 54.6326 178.525 55.6359 178.525 56.8795V57.1127C178.518 58.3492 177.515 59.3596 176.279 59.3596Z" fill="#754BDD"/>
<path d="M219.781 120.613H97.0525C95.816 120.613 94.8057 119.609 94.8057 118.366V118.133C94.8057 116.896 95.809 115.886 97.0525 115.886H219.781C221.018 115.886 222.028 116.889 222.028 118.133V118.366C222.028 119.609 221.018 120.613 219.781 120.613Z" fill="#E0E0E0"/>
<path d="M219.781 134.773H97.0525C95.816 134.773 94.8057 133.769 94.8057 132.526V132.292C94.8057 131.056 95.809 130.046 97.0525 130.046H219.781C221.018 130.046 222.028 131.049 222.028 132.292V132.526C222.028 133.769 221.018 134.773 219.781 134.773Z" fill="#E0E0E0"/>
<path d="M219.781 186.049H97.0525C95.816 186.049 94.8057 185.046 94.8057 183.802V183.569C94.8057 182.332 95.809 181.322 97.0525 181.322H219.781C221.018 181.322 222.028 182.325 222.028 183.569V183.802C222.028 185.039 221.018 186.049 219.781 186.049Z" fill="#E0E0E0"/>
<path d="M219.781 201.12H97.0525C95.816 201.12 94.8057 200.117 94.8057 198.873V198.64C94.8057 197.404 95.809 196.393 97.0525 196.393H219.781C221.018 196.393 222.028 197.397 222.028 198.64V198.873C222.028 200.117 221.018 201.12 219.781 201.12Z" fill="#E0E0E0"/>
<path d="M219.781 216.199H97.0525C95.816 216.199 94.8057 215.195 94.8057 213.952V213.718C94.8057 212.482 95.809 211.472 97.0525 211.472H219.781C221.018 211.472 222.028 212.475 222.028 213.718V213.952C222.028 215.195 221.018 216.199 219.781 216.199Z" fill="#E0E0E0"/>
<path d="M220.05 108.721H97.3208C96.0844 108.721 95.074 107.718 95.074 106.474V106.241C95.074 105.004 96.0773 103.994 97.3208 103.994H220.05C221.286 103.994 222.296 104.997 222.296 106.241V106.474C222.296 107.718 221.286 108.721 220.05 108.721Z" fill="#E0E0E0"/>
<path d="M128.155 94.3846H97.3208C96.0844 94.3846 95.074 93.3813 95.074 92.1377V91.9045C95.074 90.668 96.0773 89.6576 97.3208 89.6576H128.155C129.391 89.6576 130.402 90.6609 130.402 91.9045V92.1377C130.402 93.3813 129.391 94.3846 128.155 94.3846Z" fill="#E0E0E0"/>
<path d="M212.369 69.1033H140.159C138.923 69.1033 137.913 68.0999 137.913 66.8564V66.6232C137.913 65.3867 138.916 64.3763 140.159 64.3763H212.369C213.606 64.3763 214.616 65.3796 214.616 66.6232V66.8564C214.616 68.0999 213.606 69.1033 212.369 69.1033Z" fill="#E0E0E0"/>
<path d="M201.022 162.893V149.366H206.063C210.789 149.366 214.136 152.162 214.136 156.12C214.136 160.077 210.789 162.893 206.063 162.893H201.022ZM204.842 159.428H206.693C208.741 159.428 210.198 158.049 210.198 156.12C210.198 154.19 208.741 152.831 206.693 152.831H204.842V159.428Z" fill="#754BDD"/>
<path d="M199.085 152.772H192.016V154.288H198.455V157.695H192.016V159.487H199.085V162.893H188.196V149.366H199.085V152.772Z" fill="#754BDD"/>
<path d="M182.682 149.366H186.995L181.796 162.893H177.484L172.286 149.366H176.598L179.65 157.281L182.682 149.366Z" fill="#754BDD"/>
<path d="M164.243 163.129C160.246 163.129 156.879 159.92 156.879 156.12C156.879 152.319 160.246 149.129 164.243 149.129C168.24 149.129 171.608 152.319 171.608 156.12C171.608 159.92 168.24 163.129 164.243 163.129ZM164.243 159.664C166.094 159.664 167.669 158.049 167.669 156.12C167.669 154.21 166.094 152.595 164.243 152.595C162.392 152.595 160.817 154.21 160.817 156.12C160.817 158.049 162.392 159.664 164.243 159.664Z" fill="#754BDD"/>
<path d="M155.869 162.893H151.518L148.663 158.817H147.481V162.893H143.661V149.366H150.139C153.172 149.366 155.318 151.315 155.318 154.091C155.318 156.021 154.294 157.537 152.64 158.305L155.869 162.893ZM147.481 152.831V155.352H149.824C150.73 155.352 151.38 154.82 151.38 154.091C151.38 153.363 150.73 152.831 149.824 152.831H147.481Z" fill="#754BDD"/>
<path d="M130.47 162.893V149.366H136.948C139.98 149.366 142.127 151.315 142.127 154.091C142.127 156.868 139.98 158.817 136.948 158.817H134.29V162.893H130.47ZM134.29 155.352H136.633C137.539 155.352 138.189 154.82 138.189 154.091C138.189 153.363 137.539 152.831 136.633 152.831H134.29V155.352Z" fill="#754BDD"/>
<path d="M117.279 162.893V149.366H123.757C126.789 149.366 128.936 151.315 128.936 154.091C128.936 156.868 126.789 158.817 123.757 158.817H121.099V162.893H117.279ZM121.099 155.352H123.442C124.348 155.352 124.997 154.82 124.997 154.091C124.997 153.363 124.348 152.831 123.442 152.831H121.099V155.352Z" fill="#754BDD"/>
<path d="M111.765 162.893L111.075 161.082H106.369L105.68 162.893H101.368L106.566 149.366H110.879L116.077 162.893H111.765ZM107.452 158.266H109.992L108.732 154.977L107.452 158.266Z" fill="#754BDD"/>
<path d="M223.794 172.518H93.2654V140.609H223.794V172.518ZM93.9719 171.811H223.088V141.315H93.9719V171.811Z" fill="#754BDD"/>
<path d="M212.37 240.688C212.207 240.696 212.179 239.728 211.684 238.138C211.197 236.576 210.073 234.329 207.713 232.626C206.54 231.793 205.092 231.1 203.432 230.839C201.785 230.584 199.934 230.662 198.196 231.348C197.32 231.665 196.472 232.132 195.695 232.725C194.911 233.305 194.197 234.018 193.618 234.845C192.409 236.47 191.731 238.548 191.71 240.688C191.731 242.829 192.409 244.907 193.618 246.532C194.204 247.359 194.911 248.072 195.695 248.652C196.472 249.238 197.313 249.711 198.196 250.029C199.941 250.715 201.785 250.793 203.432 250.538C205.092 250.277 206.548 249.577 207.713 248.751C210.073 247.048 211.197 244.801 211.684 243.239C212.179 241.649 212.214 240.688 212.37 240.688C212.461 240.681 212.68 241.656 212.377 243.409C212.235 244.285 211.882 245.338 211.281 246.461C210.674 247.585 209.769 248.765 208.498 249.782C207.233 250.793 205.608 251.662 203.707 252.036C201.821 252.396 199.673 252.375 197.61 251.619C196.571 251.273 195.568 250.743 194.642 250.065C193.709 249.401 192.862 248.567 192.155 247.599C190.707 245.691 189.88 243.225 189.859 240.688C189.88 238.152 190.707 235.679 192.155 233.778C192.854 232.81 193.709 231.983 194.642 231.319C195.568 230.641 196.571 230.111 197.61 229.765C199.673 229.009 201.821 228.98 203.707 229.348C205.608 229.722 207.233 230.591 208.498 231.602C209.769 232.619 210.674 233.806 211.281 234.923C211.882 236.046 212.235 237.099 212.377 237.975C212.687 239.72 212.461 240.696 212.37 240.688Z" fill="#754BDD"/>
<path d="M166.761 244.716C166.768 244.723 166.691 244.787 166.542 244.914C166.394 245.041 166.168 245.225 165.857 245.451C165.242 245.896 164.295 246.532 162.953 247.097C161.617 247.655 159.844 248.164 157.76 247.995C156.728 247.91 155.626 247.655 154.552 247.161C153.485 246.666 152.425 245.924 151.613 244.886C150.793 243.854 150.256 242.511 150.143 241.077C150.03 239.65 150.362 238.081 151.316 236.824C151.782 236.195 152.418 235.672 153.16 235.333C153.895 234.993 154.778 234.852 155.605 235.107C156.438 235.347 157.124 235.969 157.548 236.725C157.979 237.481 158.184 238.364 158.141 239.254C158.028 241.056 156.954 242.639 155.704 243.925C154.432 245.211 152.983 246.369 151.394 247.366C149.804 248.362 148.066 249.189 146.229 249.81C144.392 250.418 142.449 250.87 140.442 250.899C138.457 250.92 136.393 250.46 134.825 249.224C133.256 248.002 132.288 246.193 131.857 244.363C131.419 242.511 131.546 240.604 131.949 238.844C132.366 237.078 133.009 235.425 133.8 233.884C134.217 233.121 134.712 232.407 135.319 231.807C135.92 231.213 136.676 230.712 137.531 230.577C138.379 230.429 139.269 230.697 139.891 231.242C140.527 231.779 140.922 232.513 141.127 233.277C141.53 234.838 140.972 236.378 140.258 237.594C139.898 238.208 139.488 238.781 139.057 239.311C138.64 239.848 138.188 240.342 137.75 240.823C136.846 241.762 135.913 242.575 134.98 243.296C134.041 243.995 133.108 244.596 132.204 245.098C130.395 246.108 128.713 246.716 127.321 247.118C125.922 247.528 124.806 247.677 124.05 247.79C123.682 247.825 123.4 247.846 123.188 247.867C122.99 247.881 122.891 247.889 122.891 247.881C122.891 247.874 122.99 247.86 123.181 247.832C123.393 247.804 123.675 247.768 124.043 247.719C124.792 247.585 125.901 247.415 127.286 246.984C128.664 246.56 130.331 245.938 132.112 244.921C133.002 244.419 133.92 243.812 134.846 243.112C135.758 242.398 136.683 241.586 137.566 240.646C137.997 240.166 138.435 239.678 138.845 239.141C139.269 238.618 139.665 238.053 140.018 237.452C140.71 236.265 141.219 234.789 140.838 233.354C140.647 232.648 140.272 231.962 139.693 231.482C139.128 231.001 138.343 230.761 137.587 230.895C136.824 231.008 136.132 231.468 135.56 232.04C134.98 232.612 134.507 233.305 134.104 234.047C133.334 235.552 132.698 237.198 132.295 238.922C131.907 240.646 131.787 242.49 132.211 244.278C132.627 246.051 133.56 247.783 135.051 248.934C136.535 250.107 138.506 250.552 140.442 250.531C142.392 250.51 144.307 250.065 146.116 249.464C147.924 248.849 149.634 248.037 151.203 247.062C152.771 246.087 154.199 244.935 155.449 243.677C156.679 242.427 157.696 240.9 157.802 239.233C157.901 237.608 157.018 235.87 155.513 235.417C154.778 235.191 153.973 235.311 153.287 235.622C152.595 235.933 151.994 236.428 151.556 237.014C150.652 238.194 150.327 239.692 150.426 241.063C150.525 242.448 151.033 243.734 151.818 244.73C152.595 245.741 153.612 246.468 154.651 246.956C155.689 247.45 156.77 247.705 157.781 247.797C159.816 247.98 161.575 247.5 162.896 246.97C164.232 246.426 165.186 245.818 165.814 245.394C166.125 245.175 166.365 245.006 166.521 244.893C166.676 244.765 166.761 244.709 166.761 244.716Z" fill="#010E41"/>
<path d="M201.58 247.069C198.938 247.069 196.797 245.041 196.797 242.533V235.792L201.58 236.795L206.364 235.792V242.533C206.364 245.041 204.223 247.069 201.58 247.069Z" fill="#754BDD"/>
<path d="M243.069 106.736C243.069 106.835 205.163 106.919 158.417 106.919C111.657 106.919 73.7573 106.835 73.7573 106.736C73.7573 106.637 111.65 106.552 158.417 106.552C205.17 106.552 243.069 106.637 243.069 106.736Z" fill="#010E41"/>
<path d="M34.2184 287.16C34.2184 287.16 30.728 263.179 31.0247 249.231C31.3144 235.283 31.0106 219.583 31.0106 219.583H32.6145C32.6145 219.583 31.5264 247.274 32.7134 263.977C33.8934 280.667 37.0163 287.16 37.0163 287.16H34.2184Z" fill="#010E41"/>
<path d="M44.612 192.606C44.287 191.786 43.8913 190.931 43.1494 190.465C42.132 189.822 40.7966 190.09 39.6519 190.493C34.7979 192.21 30.495 201.261 28.5308 206.024L34.9745 227.744C46.6115 216.947 48.6252 202.788 44.612 192.606Z" fill="#FFD11C"/>
<path d="M42.7677 191.341C42.7748 191.348 42.7466 191.44 42.6759 191.624C42.5911 191.829 42.4851 192.097 42.3579 192.415C42.0753 193.1 41.6797 194.09 41.2063 195.326C40.2595 197.792 39.0442 201.24 37.9632 205.126C36.8892 209.013 36.1473 212.595 35.6881 215.195C35.4549 216.495 35.2853 217.555 35.1723 218.283C35.1158 218.622 35.0734 218.905 35.038 219.124C35.0027 219.314 34.9815 219.413 34.9744 219.413C34.9674 219.413 34.9674 219.307 34.9886 219.117C35.0098 218.891 35.038 218.615 35.0734 218.269C35.1511 217.534 35.2995 216.474 35.5044 215.16C35.9142 212.545 36.6278 208.949 37.7088 205.049C38.7898 201.155 40.0334 197.707 41.0296 195.248C41.5242 194.019 41.9481 193.037 42.259 192.366C42.4074 192.055 42.5275 191.793 42.6194 191.595C42.7112 191.426 42.7607 191.341 42.7677 191.341Z" fill="#010E41"/>
<path d="M32.1059 232.951C26.0648 229.609 22.5038 223.328 22.1717 216.439C21.9385 211.62 23.4223 206.886 25.0969 202.364C25.2452 201.968 25.4148 201.551 25.7822 201.339C26.2909 201.05 26.9198 201.311 27.4285 201.594C31.8162 204.095 34.4799 208.864 35.893 213.711C36.8327 216.94 37.3203 220.339 36.8893 223.674C36.4512 227.009 34.5506 230.641 32.1059 232.951Z" fill="#FFD11C"/>
<path d="M32.106 232.951C32.0989 232.951 32.0918 232.853 32.0848 232.662C32.0777 232.443 32.0777 232.167 32.0706 231.828C32.0706 231.107 32.0424 230.054 31.9788 228.769C31.8657 226.182 31.5266 222.621 30.8554 218.735C30.1841 214.842 29.3716 211.358 28.771 208.843C28.4743 207.614 28.234 206.603 28.0574 205.861C27.9797 205.529 27.9232 205.261 27.8737 205.049C27.8313 204.865 27.8172 204.766 27.8242 204.759C27.8313 204.759 27.8666 204.851 27.9232 205.035C27.9868 205.247 28.0645 205.508 28.1563 205.833C28.3542 206.533 28.6297 207.543 28.9547 208.794C29.5977 211.302 30.4456 214.785 31.1168 218.686C31.788 222.586 32.0989 226.168 32.1625 228.754C32.1978 230.047 32.1978 231.1 32.1696 231.828C32.1554 232.167 32.1413 232.443 32.1342 232.662C32.1272 232.853 32.1201 232.951 32.106 232.951Z" fill="#010E41"/>
<g opacity="0.3">
<path d="M32.1059 232.951C26.0648 229.609 22.5038 223.328 22.1717 216.439C21.9385 211.62 23.4223 206.886 25.0969 202.364C25.2452 201.968 25.4148 201.551 25.7822 201.339C26.2909 201.05 26.9198 201.311 27.4285 201.594C31.8162 204.095 34.4799 208.864 35.893 213.711C36.8327 216.94 37.3203 220.339 36.8893 223.674C36.4512 227.009 34.5506 230.641 32.1059 232.951Z" fill="#010E41"/>
</g>
<path d="M38.9241 269.637C44.8733 270.944 49.7697 275.141 55.5069 277.176C59.3011 278.526 63.597 279.006 66.6281 281.656C65.9004 279.819 64.1764 278.596 62.5018 277.551C57.782 274.604 52.7302 272.195 47.4734 270.379C44.7744 269.446 41.8421 268.669 39.0936 269.439" fill="#FFD11C"/>
<path d="M30.3254 274.936C22.8783 274.816 15.0355 268.478 7.62378 268.097C15.3818 265.595 26.4888 267.637 30.3254 274.936Z" fill="#FFD11C"/>
<path d="M33.2363 257.074C37.0164 255.71 41.1709 255.647 45.1418 256.261C49.1126 256.876 52.9492 258.155 56.7646 259.42C56.3831 256.834 54.2917 254.891 52.3204 253.174C50.8437 251.881 49.3529 250.581 47.6501 249.584C45.9543 248.595 44.0184 247.924 42.0541 248.009C39.6872 248.108 37.4262 249.33 35.8788 251.125C34.3315 252.912 33.4978 254.714 33.2363 257.074Z" fill="#FFD11C"/>
<path d="M17.9536 248.849C13.2621 244.843 6.16117 245.239 0 245.38C9.47491 249.909 19.6846 256.12 27.8383 262.734C28.0927 258.367 23.8745 253.901 17.9536 248.849Z" fill="#FFD11C"/>
<g opacity="0.3">
<path d="M17.9536 248.849C13.2621 244.843 6.16117 245.239 0 245.38C9.47491 249.909 19.6846 256.12 27.8383 262.734C28.0927 258.367 23.8745 253.901 17.9536 248.849Z" fill="#010E41"/>
</g>
<path d="M35.349 243.324C37.7089 241.755 40.09 240.257 42.5559 239.134C45.0218 238.011 47.3252 236.23 49.7062 234.937C52.7939 233.262 55.4717 230.938 58.3121 228.86C61.1454 226.783 64.2613 224.911 67.7375 224.367C64.9043 223.78 61.9509 224.098 59.16 224.861C56.3691 225.624 53.7265 226.811 51.0911 227.998C47.4311 229.645 43.7147 231.333 40.7259 234.011C37.7301 236.682 35.0311 239.325 35.349 243.324Z" fill="#FFD11C"/>
<path d="M55.3728 274.936C55.3657 274.943 55.288 274.908 55.1396 274.837C54.963 274.745 54.751 274.632 54.4896 274.498C53.9314 274.201 53.1259 273.756 52.1085 273.248C51.6068 272.979 51.0487 272.703 50.4481 272.421C49.8475 272.124 49.2046 271.834 48.5121 271.531C47.1344 270.944 45.6011 270.329 43.9266 269.934C42.2591 269.524 40.5916 269.432 39.1503 269.814C38.4225 269.99 37.7372 270.16 37.1295 270.421C36.5148 270.669 35.9708 270.958 35.4974 271.262C34.5435 271.863 33.8794 272.499 33.4413 272.958C33.0103 273.417 32.7983 273.7 32.7842 273.686C32.7771 273.679 32.8195 273.608 32.9184 273.467C33.0103 273.325 33.1657 273.127 33.3706 272.887C33.7875 272.4 34.4375 271.735 35.3985 271.1C35.8789 270.782 36.43 270.478 37.0518 270.216C37.6736 269.948 38.3731 269.757 39.1008 269.58C40.5775 269.178 42.3086 269.262 43.9972 269.679C45.7 270.082 47.2403 270.711 48.6181 271.312C49.3035 271.615 49.9535 271.919 50.5541 272.223C51.1547 272.513 51.7058 272.802 52.2074 273.078C53.2107 273.608 54.0021 274.081 54.5532 274.406C54.8005 274.555 55.0124 274.682 55.182 274.788C55.3021 274.88 55.3728 274.929 55.3728 274.936Z" fill="#010E41"/>
<path d="M24.772 271.248C24.779 271.234 24.9415 271.283 25.2383 271.382C25.535 271.481 25.9519 271.658 26.4536 271.912C27.4569 272.407 28.7711 273.248 30.0146 274.435C31.2511 275.622 32.1413 276.908 32.6783 277.89C32.9468 278.377 33.1446 278.787 33.2506 279.084C33.3637 279.374 33.4202 279.536 33.4061 279.543C33.3637 279.564 33.0881 278.928 32.5158 277.989C31.9435 277.042 31.0462 275.798 29.8309 274.632C28.6156 273.467 27.3368 272.612 26.3688 272.082C25.3937 271.545 24.7578 271.29 24.772 271.248Z" fill="#010E41"/>
<path d="M8.29501 248.475C8.29501 248.468 8.40806 248.496 8.61296 248.567C8.84612 248.652 9.14288 248.758 9.51029 248.885C9.90596 249.033 10.3793 249.203 10.9163 249.408C11.4674 249.613 12.061 249.916 12.7392 250.213C15.4242 251.428 18.9923 253.477 22.4332 256.389C24.136 257.865 25.6692 259.37 26.9551 260.84C28.234 262.31 29.3221 263.695 30.1629 264.903C31.0108 266.104 31.6608 267.107 32.0989 267.807C32.3108 268.132 32.4804 268.4 32.6076 268.605C32.7206 268.789 32.7772 268.888 32.7701 268.895C32.763 268.902 32.6924 268.81 32.5581 268.641C32.431 268.464 32.2402 268.21 32.007 267.87C31.5407 267.192 30.8695 266.21 30.0004 265.023C29.1384 263.829 28.0432 262.465 26.7573 261.01C25.4714 259.554 23.9382 258.07 22.2495 256.593C18.8227 253.697 15.297 251.64 12.6474 250.383C11.9832 250.079 11.3897 249.761 10.8527 249.549C10.3158 249.337 9.8565 249.146 9.46083 248.991C9.10048 248.842 8.8108 248.722 8.5847 248.623C8.39393 248.531 8.28794 248.482 8.29501 248.475Z" fill="#010E41"/>
<path d="M44.4141 252.884C44.4071 252.905 44.1951 252.87 43.8206 252.806C43.6157 252.771 43.3896 252.729 43.1353 252.679C42.8668 252.63 42.5559 252.63 42.2238 252.594C40.8814 252.495 38.9313 252.608 37.1084 253.605C36.1828 254.071 35.4126 254.7 34.7767 255.336C34.1338 255.965 33.6462 256.615 33.2788 257.187C32.5299 258.332 32.3038 259.158 32.2543 259.144C32.2402 259.137 32.2826 258.932 32.4027 258.565C32.5369 258.205 32.7489 257.682 33.1163 257.095C33.4696 256.502 33.9501 255.823 34.6001 255.173C35.236 254.516 36.0273 253.866 36.9812 253.379C38.8677 252.354 40.8884 252.269 42.238 252.418C42.5771 252.467 42.895 252.481 43.1635 252.545C43.4179 252.608 43.644 252.665 43.8489 252.714C44.2163 252.806 44.4212 252.87 44.4141 252.884Z" fill="#010E41"/>
<path d="M51.8965 229.666C51.9036 229.673 51.8047 229.736 51.6139 229.842C51.4019 229.956 51.1264 230.111 50.7802 230.295C50.0595 230.683 49.0208 231.256 47.7561 232.005C46.4984 232.761 45.0147 233.686 43.4391 234.81C41.8705 235.94 40.1818 237.254 38.6203 238.844C37.8502 239.65 37.1436 240.484 36.6491 241.395C36.1615 242.335 35.6952 243.239 35.2642 244.108C34.4022 245.846 33.7027 247.443 33.194 248.821C32.6923 250.199 32.3744 251.344 32.1907 252.135C31.9999 252.933 31.9293 253.379 31.9081 253.379C31.901 253.379 31.9081 253.266 31.9363 253.046C31.9646 252.835 32.007 252.517 32.0918 252.114C32.2472 251.308 32.5369 250.15 33.0244 248.758C33.5119 247.366 34.1973 245.755 35.0522 244.002C35.4762 243.126 35.9425 242.215 36.423 241.275C36.9387 240.321 37.6524 239.473 38.4366 238.661C40.0123 237.05 41.7151 235.735 43.3048 234.612C44.8946 233.488 46.3925 232.577 47.6643 231.842C48.9431 231.114 49.9959 230.563 50.7378 230.203C51.0911 230.033 51.3737 229.899 51.5927 229.793C51.7905 229.701 51.8965 229.652 51.8965 229.666Z" fill="#010E41"/>
<path d="M31.0179 252.213C30.9967 252.213 30.9473 251.994 30.8695 251.584C30.7847 251.125 30.6717 250.545 30.5445 249.86C30.2619 248.411 29.8238 246.412 29.1385 244.271C28.4531 242.123 27.6194 240.257 27.0117 238.915C26.722 238.279 26.4818 237.749 26.284 237.318C26.1144 236.944 26.0296 236.725 26.0438 236.718C26.0579 236.71 26.178 236.908 26.3758 237.269C26.5737 237.636 26.8492 238.166 27.1813 238.83C27.8313 240.159 28.7004 242.024 29.3928 244.186C30.0923 246.348 30.4951 248.362 30.7353 249.825C30.8554 250.559 30.9331 251.153 30.9755 251.563C31.0179 251.98 31.032 252.213 31.0179 252.213Z" fill="#010E41"/>
<path d="M30.4737 235.269C30.29 232.457 29.3714 229.722 28.0502 227.228C24.4326 220.396 17.6426 215.329 10.0613 213.81C15.6148 222.084 21.1683 230.358 26.7148 238.632L28.8627 243.063C30.3394 240.66 30.6644 238.081 30.4737 235.269Z" fill="#FFD11C"/>
<path d="M54.3623 284.192H15.636V291.06H54.3623V284.192Z" fill="#E95226"/>
<path d="M18.533 289.697L21.8255 311H47.5371L51.4726 289.697H18.533Z" fill="#E95226"/>
<path d="M54.3483 291.067C54.3483 291.145 45.6152 291.202 34.8403 291.202C24.0653 291.202 15.3252 291.138 15.3252 291.067C15.3252 290.99 24.0582 290.933 34.8403 290.933C45.6082 290.933 54.3483 290.99 54.3483 291.067Z" fill="#010E41"/>
</svg>
