<svg width="298" height="299" viewBox="0 0 298 299" fill="none" xmlns="http://www.w3.org/2000/svg">
<g clip-path="url(#clip0_451_8191)">
<path d="M296.537 139.134C296.501 139.327 296.472 139.535 296.422 139.729C294.894 148.131 292.377 155.83 289.034 162.891C285.455 170.462 280.922 177.308 275.621 183.473C270.535 189.402 264.733 194.721 258.385 199.503C252.317 204.077 245.746 208.149 238.832 211.776C232.534 215.081 225.942 218.027 219.157 220.644C218.038 221.081 216.919 221.504 215.793 221.92C210.27 223.956 204.661 225.705 198.987 227.168C192.402 228.881 185.746 230.214 179.04 231.189C172.211 232.2 165.325 232.838 158.418 233.139C151.539 233.433 144.646 233.405 137.76 233.053C130.451 232.673 123.149 231.957 115.898 230.903C108.309 229.806 100.777 228.343 93.3321 226.551C91.1014 226.021 88.8779 225.462 86.6615 224.867C80.6866 223.261 74.5251 221.583 68.3924 219.655C59.3834 216.823 50.4175 213.461 42.1831 209.03C36.5812 206.019 31.302 202.521 26.568 198.356C24.1006 196.177 21.7766 193.847 19.596 191.381C19.3378 191.094 19.094 190.807 18.8501 190.513C12.2511 182.828 7.12977 173.867 3.90202 164.282C1.87213 158.26 0.588202 152.009 0.157835 145.665C-0.0932118 142.066 -0.0573479 138.46 0.236736 134.875C1.04009 124.731 3.93071 114.774 8.54998 105.698C11.9786 98.9378 16.3826 92.6794 21.5973 87.1952C23.3546 85.3456 25.1908 83.6394 27.0916 82.0551C35.0462 75.3952 44.1126 70.7928 53.3368 66.3696C60.61 62.8783 67.9764 59.5161 74.9627 55.3366C77.136 54.0462 79.2592 52.677 81.3393 51.2074C84.7033 48.8273 87.845 46.1891 90.8862 43.4148C95.5916 39.1278 100.046 34.5325 104.644 30.1093C107.685 27.1772 110.791 24.324 114.069 21.6787C116.113 20.0299 118.222 18.4742 120.395 17.0333C126.169 13.1406 132.359 9.92172 138.829 7.38394C145.579 4.70994 152.629 2.77434 159.824 1.5628C167.047 0.336921 174.42 -0.164901 181.772 0.0645033C193.163 0.415779 204.51 2.50909 215.226 6.30861C216.976 6.9323 218.712 7.59901 220.419 8.31589C225.785 10.5454 231.006 13.2338 236.042 16.3164C242.827 20.4743 249.275 25.3635 255.257 30.8405C261.082 36.1599 266.483 42.0383 271.332 48.3541C276.152 54.6126 280.434 61.3012 284.078 68.2836C287.894 75.5744 291.014 83.1878 293.323 90.9875C295.647 98.8159 297.154 106.824 297.735 114.881C298.316 122.961 297.957 131.105 296.537 139.134Z" fill="#B293FF"/>
<path opacity="0.5" d="M296.537 139.134C296.501 139.327 296.472 139.535 296.422 139.729C294.894 148.131 292.377 155.83 289.034 162.891C285.455 170.462 280.922 177.308 275.621 183.473C270.535 189.402 264.733 194.721 258.385 199.503C252.317 204.077 245.746 208.149 238.832 211.776C232.534 215.081 225.942 218.027 219.157 220.644C218.038 221.081 216.919 221.504 215.793 221.92C210.27 223.956 204.661 225.705 198.987 227.168C192.402 228.881 185.746 230.214 179.04 231.189C172.211 232.2 165.325 232.838 158.418 233.139C151.539 233.433 144.646 233.405 137.76 233.053C130.451 232.673 123.149 231.957 115.898 230.903C108.309 229.806 100.777 228.343 93.3321 226.551C91.1014 226.021 88.8779 225.462 86.6615 224.867C80.6866 223.261 74.5251 221.583 68.3924 219.655C59.3834 216.823 50.4175 213.461 42.1831 209.03C36.5812 206.019 31.302 202.521 26.568 198.356C24.1006 196.177 21.7766 193.847 19.596 191.381C19.3378 191.094 19.094 190.807 18.8501 190.513C12.2511 182.828 7.12977 173.867 3.90202 164.282C1.87213 158.26 0.588202 152.009 0.157835 145.665C-0.0932118 142.066 -0.0573479 138.46 0.236736 134.875C1.04009 124.731 3.93071 114.774 8.54998 105.698C11.9786 98.9378 16.3826 92.6794 21.5973 87.1952C23.3546 85.3456 25.1908 83.6394 27.0916 82.0551C35.0462 75.3952 44.1126 70.7928 53.3368 66.3696C60.61 62.8783 67.9764 59.5161 74.9627 55.3366C77.136 54.0462 79.2592 52.677 81.3393 51.2074C84.7033 48.8273 87.845 46.1891 90.8862 43.4148C95.5916 39.1278 100.046 34.5325 104.644 30.1093C107.685 27.1772 110.791 24.324 114.069 21.6787C116.113 20.0299 118.222 18.4742 120.395 17.0333C126.169 13.1406 132.359 9.92172 138.829 7.38394C145.579 4.70994 152.629 2.77434 159.824 1.5628C167.047 0.336921 174.42 -0.164901 181.772 0.0645033C193.163 0.415779 204.51 2.50909 215.226 6.30861C216.976 6.9323 218.712 7.59901 220.419 8.31589C225.785 10.5454 231.006 13.2338 236.042 16.3164C242.827 20.4743 249.275 25.3635 255.257 30.8405C261.082 36.1599 266.483 42.0383 271.332 48.3541C276.152 54.6126 280.434 61.3012 284.078 68.2836C287.894 75.5744 291.014 83.1878 293.323 90.9875C295.647 98.8159 297.154 106.824 297.735 114.881C298.316 122.961 297.957 131.105 296.537 139.134Z" fill="white"/>
<path d="M238.315 166.705V54.7488C238.315 51.0138 235.289 47.9885 231.551 47.9885H72.1725C68.4355 47.9885 65.4086 51.0138 65.4086 54.7488V166.705H238.315Z" fill="#010E41"/>
<path d="M227.614 58.1899H76.4475V155.988H227.614V58.1899Z" fill="white"/>
<path d="M65.4015 166.705L40.0887 218.529H264.389L238.315 166.705H65.4015Z" fill="white" stroke="#010E41" stroke-width="1.051" stroke-miterlimit="10"/>
<path d="M264.969 218.902H39.479V222.071H264.969V218.902Z" fill="#010E41"/>
<path d="M87.4074 169.788L85.1767 175.136H96.5671L98.6256 169.788H87.4074ZM73.4994 175.889L70.6949 182.226H81.3966L84.0434 175.889H73.4994ZM70.3577 182.979L67.5532 189.309H78.4415L81.0882 182.979H70.3577ZM107.233 182.979L105.347 189.309H114.599L115.984 182.979H107.233ZM127.31 175.889L126.47 182.226H135.207L135.788 175.889H127.31ZM116.758 182.979L115.367 189.309H124.792L125.631 182.979H116.758ZM126.377 182.979L125.545 189.309H134.561L135.142 182.979H126.377ZM136.555 175.889L135.974 182.226H144.531L144.847 175.889H136.555ZM137.115 169.788L136.627 175.136H144.89L145.163 169.788H137.115ZM154.078 175.889H145.607L145.292 182.226H154.15L154.078 175.889ZM135.895 182.979L135.322 189.309H144.18L144.488 182.979H135.895ZM154.157 182.979H145.256L144.94 189.309H154.215L154.157 182.979ZM163.267 182.979H154.91L154.968 189.309H163.604L163.267 182.979ZM171.465 169.788H163.31L163.597 175.136H172.025L171.465 169.788ZM172.104 175.889H163.64L163.977 182.226H172.778L172.104 175.889ZM180.273 169.788H172.218L172.785 175.136H181.091L180.273 169.788ZM181.206 175.889H172.871L173.531 182.226H182.181L181.206 175.889ZM172.849 182.979H164.02L164.357 189.309H173.517L172.849 182.979ZM182.289 182.979H173.61L174.27 189.309H183.257L182.289 182.979ZM226.674 175.889H218.339L220.556 182.226H229.134L226.674 175.889ZM204.015 190.062H194.138L195.35 196.6H205.686L204.015 190.062ZM220.018 182.979H213.024L215.011 189.309H222.234L220.018 182.979ZM229.421 182.979H220.814L223.023 189.309H231.881L229.421 182.979ZM78.9364 190.062L76.2107 196.6H88.3184L90.836 190.062H78.9364ZM244.183 197.352H235.812L238.861 205.195H238.05L235.002 197.352H63.9883L60.5095 205.195H247.532L244.183 197.352ZM67.2232 190.062L64.3183 196.6H75.393L78.1187 190.062H67.2232ZM232.175 190.062H223.288L225.569 196.6H234.715L232.175 190.062ZM241.07 190.062H232.979L235.525 196.6H243.86L241.07 190.062ZM238.057 182.979H230.232L232.699 189.309H240.761L238.057 182.979ZM222.492 190.062H215.248L217.306 196.6H224.78L222.492 190.062ZM214.452 190.062H204.79L206.468 196.6H216.517L214.452 190.062ZM193.378 190.062H184.139L185.144 196.6H194.59L193.378 190.062ZM183.379 190.062H174.363L175.052 196.6H184.383L183.379 190.062ZM173.61 190.062H164.414L164.759 196.6H174.298L173.61 190.062ZM163.647 190.062H154.975L155.039 196.6H163.998L163.647 190.062ZM154.222 190.062H144.897L144.574 196.6H154.294L154.222 190.062ZM135.25 190.062L134.654 196.6H143.814L144.144 190.062H135.25ZM125.452 190.062L124.584 196.6H133.894L134.497 190.062H125.452ZM115.202 190.062L113.76 196.6H123.824L124.684 190.062H115.202ZM105.131 190.062L103.188 196.6H113L114.434 190.062H105.131ZM91.6394 190.062L89.1217 196.6H102.399L104.342 190.062H91.6394ZM212.221 182.979H202.968L204.589 189.309H214.215L212.221 182.979ZM235.03 175.889H227.477L229.945 182.226H237.734L235.03 175.889ZM232.52 170.01L232.419 169.781H225.096L227.176 175.129H234.7L232.52 170.01ZM224.3 169.788H216.202L218.074 175.136H226.38L224.3 169.788ZM215.398 169.788H208.857L210.542 175.136H217.27L215.398 169.788ZM217.536 175.889H210.779L212.78 182.226H219.752L217.536 175.889ZM209.99 175.889H201.153L202.781 182.226H211.984L209.99 175.889ZM208.068 169.788H199.597L200.967 175.136H209.746L208.068 169.788ZM202.2 182.979H192.833L194.009 189.309H203.822L202.2 182.979ZM192.073 182.979H183.056L184.032 189.309H193.242L192.073 182.979ZM200.386 175.889H191.513L192.689 182.226H202.007L200.386 175.889ZM198.815 169.788H190.38L191.377 175.136H200.192L198.815 169.788ZM190.753 175.889H181.973L182.949 182.226H191.936L190.753 175.889ZM189.619 169.788H181.034L181.858 175.136H190.616L189.619 169.788ZM162.879 175.889H154.839L154.903 182.226H163.224L162.879 175.889ZM162.557 169.788H154.774L154.824 175.136H162.836L162.557 169.788ZM154.021 169.788H145.909L145.643 175.136H154.071L154.021 169.788ZM128.12 169.788L127.41 175.136H135.867L136.354 169.788H128.12ZM119.649 169.788L118.473 175.136H126.65L127.353 169.788H119.649ZM118.308 175.889L116.923 182.226H125.724L126.556 175.889H118.308ZM111.156 169.788L109.564 175.136H117.705L118.874 169.788H111.156ZM109.342 175.889L107.462 182.226H116.149L117.54 175.889H109.342ZM99.4433 169.788L97.3847 175.136H108.782L110.375 169.788H99.4433ZM97.0907 175.889L94.6591 182.226H106.681L108.567 175.889H97.0907ZM94.3578 182.979L91.9263 189.309H104.572L106.458 182.979H94.3578ZM81.8987 182.979L79.252 189.309H91.1157L93.5473 182.979H81.8987ZM84.8611 175.889L82.2143 182.226H93.8414L96.2873 175.889H84.8611ZM76.2035 169.788L73.8294 175.136H84.359L86.5897 169.788H76.2035ZM217.536 175.889H210.779L212.78 182.226H219.752L217.536 175.889Z" fill="#010E41"/>
<path d="M88.8276 197.352L88.6841 197.732L87.9812 197.46L88.0171 197.352H88.8276Z" fill="#010E41"/>
<path d="M75.8879 197.352L75.8162 197.539L75.3787 197.352H75.8879Z" fill="#010E41"/>
<path d="M194.318 124.71H110.827C106.494 124.71 102.98 121.197 102.98 116.867V86.6861C102.98 82.3561 106.494 78.8434 110.827 78.8434H194.318C198.65 78.8434 202.165 82.3561 202.165 86.6861V116.867C202.165 121.197 198.65 124.71 194.318 124.71Z" fill="#FFD11C" stroke="#010E41" stroke-width="1.5776" stroke-miterlimit="10"/>
<path d="M114.549 145.507H190.731C195.573 145.507 198.628 140.302 196.254 136.08L158.167 68.1762C155.75 63.8605 149.531 63.8605 147.114 68.1762L109.026 136.08C106.659 140.302 109.708 145.507 114.549 145.507Z" fill="#E95226"/>
<path d="M118.351 141.478H186.937C189.569 141.478 191.226 138.503 189.942 136.087L155.649 71.7463C154.337 69.2802 150.958 69.2802 149.646 71.7463L115.353 136.087C114.061 138.496 115.718 141.478 118.351 141.478Z" stroke="white" stroke-width="0.7883" stroke-miterlimit="10"/>
<path d="M151.46 120.466H153.383C154.86 120.466 156.108 119.082 156.273 117.247L158.167 96.4646C158.36 94.3068 157.012 92.4214 155.276 92.4214H149.258C147.501 92.4214 146.145 94.357 146.375 96.5292L148.577 117.312C148.77 119.118 150.004 120.466 151.46 120.466Z" fill="white"/>
<path d="M156.144 127.836C156.144 129.994 154.394 131.736 152.242 131.736C150.083 131.736 148.34 129.986 148.34 127.836C148.34 125.678 150.09 123.936 152.242 123.936C154.394 123.929 156.144 125.678 156.144 127.836Z" fill="white"/>
<path d="M251.972 250.065C246.019 240.946 247.296 239.584 246.177 235.713C245.058 231.849 239.105 223.397 237.125 219.848C235.145 216.3 234.263 198.076 234.263 198.076C234.794 194.449 232.771 191.911 232.771 191.911C232.771 191.911 233.237 188.341 233.417 183.473C233.603 178.606 231.752 177.086 230.727 175.609C229.708 174.125 226.602 165.221 225.713 164.512C224.824 163.802 223.066 167.128 223.066 167.128C222.213 170.992 226.122 178.448 226.122 178.448L224.608 187.388L219.917 180.663C219.917 180.663 216.905 166.304 214.997 164.433C213.082 162.562 205.873 166.626 205.873 166.626C205.873 166.626 204.991 165.444 202.875 163.788C200.766 162.139 187.482 168.627 187.482 168.627C185.459 166.741 180.431 163.737 177.677 165.329C174.915 166.92 168.51 179.631 170.97 181.194C173.431 182.764 179.09 178.555 179.09 178.555C179.09 178.555 186.277 182.893 187.482 186.14C188.694 189.388 191.779 202.356 192.13 205.087C192.481 207.826 190.294 214.701 190.294 214.701C187.066 205.03 175.869 196.557 171.903 196.721C167.936 196.879 168.625 199.546 169.127 201.209C169.622 202.879 174.657 207.102 174.657 207.102L177.842 213.633C177.842 213.633 187.97 235.72 189.383 238.079C190.796 240.43 192.682 240.545 192.682 240.545L214.466 248.811C220.183 254.582 236.486 290.569 236.486 290.569C275.119 299.294 278.254 276.138 278.254 276.138C278.254 276.138 257.94 259.177 251.972 250.065ZM193.744 175.043L197.015 174.19L198.241 174.648L202.545 184.685L193.744 175.043Z" fill="white"/>
<path d="M237.125 291.996C237.125 291.996 218.691 250.925 214.459 248.811C210.227 246.696 193.608 241.864 190.287 239.147C186.966 236.43 176.687 209.554 174.27 206.528C171.853 203.51 167.018 201.396 169.134 197.768C171.25 194.141 183.637 199.582 190.287 214.679C190.287 214.679 192.403 208.034 192.101 204.414C191.879 201.711 189.469 192.642 188.257 188.19C187.769 186.398 186.872 184.757 185.631 183.373C184.599 182.219 183.329 180.928 182.303 180.283C180.18 178.957 178.229 178.333 177.254 175.588" stroke="#010E41" stroke-width="1.051" stroke-miterlimit="10" stroke-linecap="round" stroke-linejoin="round"/>
<path d="M179.018 178.204C179.018 178.204 175.496 181.38 173.215 181.495C170.934 181.609 170.361 181.265 170.361 179.1C170.361 176.935 175.611 166.325 177.662 165.3C179.714 164.275 184.964 166.555 187.475 168.949C189.985 171.344 202.868 185.029 202.868 185.029L198.083 174.311C198.083 174.311 196.032 174.082 195.688 171.688" stroke="#010E41" stroke-width="1.051" stroke-miterlimit="10" stroke-linecap="round" stroke-linejoin="round"/>
<path d="M205.873 166.612C205.873 166.612 212.465 162.375 214.99 164.411C217.514 166.454 218.21 179.667 221.345 183.273C224.479 186.879 226.409 189.517 227.126 193.001" stroke="#010E41" stroke-width="1.051" stroke-miterlimit="10" stroke-linecap="round" stroke-linejoin="round"/>
<path d="M224.788 187.638C224.788 187.638 225.77 183.287 226.115 178.434C226.115 178.434 222.722 173.544 223.066 167.114C223.066 167.114 224.221 165.107 225.713 164.504C227.205 163.902 228.697 173.58 231.752 177.079C234.808 180.584 232.771 191.904 232.771 191.904C232.771 191.904 235.009 195.123 234.263 198.069C234.263 198.069 236.149 217.06 237.125 219.848C238.1 222.63 244.757 230.974 246.327 236.179C247.898 241.384 248.264 244.889 252.984 251.542C257.703 258.195 278.885 276.705 278.885 276.705" stroke="#010E41" stroke-width="1.051" stroke-miterlimit="10" stroke-linecap="round" stroke-linejoin="round"/>
<path d="M187.475 168.949C187.475 168.949 199.712 162.841 202.868 163.766C206.024 164.691 209.617 173.86 211.941 178.269C214.265 182.678 214.609 184.42 217.514 187.438C220.419 190.456 220.878 191.381 221.345 193.933" stroke="#010E41" stroke-width="1.051" stroke-miterlimit="10" stroke-linecap="round" stroke-linejoin="round"/>
<path d="M206.497 188.914C208.061 190.456 208.964 192.642 208.943 194.836" stroke="#010E41" stroke-width="1.051" stroke-miterlimit="10" stroke-linecap="round" stroke-linejoin="round"/>
<g opacity="0.3">
<path d="M212.034 245.542C208.312 243.807 202.997 241.118 199.045 240.014C194.461 238.731 189.763 236.114 188.752 231.161C188.199 228.451 189.311 225.583 191.728 224.236C196.491 221.576 200.271 227.877 205.27 224.006C207.623 222.185 208.8 219.246 208.67 216.271C208.477 211.962 206.174 208.091 204.474 204.134C202.767 200.163 201.863 195.797 203.814 191.725C204.037 191.252 204.309 190.786 204.725 190.463C206.519 189.094 208.728 192.313 210.162 193.001C212.651 194.198 215.355 189.717 218.088 190.126C220.814 190.535 222.005 193.001 222.464 198.377C224.859 194.133 229.156 194.291 229.679 197.524C230.576 203.08 233.087 211.339 233.452 214.601C234.657 225.397 241.751 225.168 244.298 235.727C247.511 249.018 253.407 255.908 260.895 261.858C263.894 264.238 266.117 267.414 268.929 270.016C269.244 270.303 269.539 270.626 269.825 270.97C272.264 273.909 268.965 278.081 265.45 276.59C263.241 275.651 260.91 275.006 258.528 274.697C247.676 273.271 236.006 279.658 228.969 269.371C222.837 260.41 223.03 250.674 212.034 245.542Z" fill="#B293FF"/>
<path opacity="0.2" d="M212.034 245.542C208.312 243.807 202.997 241.118 199.045 240.014C194.461 238.731 189.763 236.114 188.752 231.161C188.199 228.451 189.311 225.583 191.728 224.236C196.491 221.576 200.271 227.877 205.27 224.006C207.623 222.185 208.8 219.246 208.67 216.271C208.477 211.962 206.174 208.091 204.474 204.134C202.767 200.163 201.863 195.797 203.814 191.725C204.037 191.252 204.309 190.786 204.725 190.463C206.519 189.094 208.728 192.313 210.162 193.001C212.651 194.198 215.355 189.717 218.088 190.126C220.814 190.535 222.005 193.001 222.464 198.377C224.859 194.133 229.156 194.291 229.679 197.524C230.576 203.08 233.087 211.339 233.452 214.601C234.657 225.397 241.751 225.168 244.298 235.727C247.511 249.018 253.407 255.908 260.895 261.858C263.894 264.238 266.117 267.414 268.929 270.016C269.244 270.303 269.539 270.626 269.825 270.97C272.264 273.909 268.965 278.081 265.45 276.59C263.241 275.651 260.91 275.006 258.528 274.697C247.676 273.271 236.006 279.658 228.969 269.371C222.837 260.41 223.03 250.674 212.034 245.542Z" fill="white"/>
</g>
<path d="M19.9762 282.454C19.9762 282.454 31.4311 306.241 61.8078 296.763L80.665 256.374C80.665 256.374 96.3375 245.233 103.489 241.391C110.64 237.548 118.975 233.57 120.295 231.483C121.614 229.397 127.173 214.608 127.69 210.952C128.206 207.288 128.801 204.815 129.411 202.041C130.028 199.266 129.92 195.094 126.442 197.395C122.963 199.697 120.467 201.639 119.24 207.475C118.014 213.31 111.702 216.414 111.702 216.414C111.702 216.414 113.832 199.066 117.49 194.836C121.148 190.606 130.035 181.179 130.035 181.179C130.035 181.179 135.07 185.294 138.535 183.28C141.999 181.265 131.649 169.924 128.163 171.086C128.163 171.086 126.183 171.107 124.677 172.24L118.437 167.408C118.437 167.408 114.807 163.63 112.892 164.612C110.977 165.601 107.936 169.974 107.936 169.974C107.936 169.974 103.826 164.727 100.39 165.035C96.9544 165.343 92.0984 170.103 90.4846 172.498C88.8707 174.892 84.5957 182.19 83.5413 183.617C83.5413 183.617 85.1408 173.344 85.105 171.078C85.0691 168.813 85.6286 160.891 83.2759 160.891C80.9232 160.899 79.6824 168.017 78.463 173.473C77.2436 178.928 76.5694 181.595 74.9627 184.821C73.356 188.047 67.5604 208.959 67.5604 208.959C67.5604 208.959 60.5741 229.268 58.7594 232.975C56.9447 236.681 53.2866 242.76 51.0486 245.484C48.8179 248.216 19.9762 282.454 19.9762 282.454Z" fill="white"/>
<path d="M124.677 172.24C124.677 172.24 119.742 168.34 115.295 165.049C110.848 161.759 103.962 178.097 98.3675 182.685C92.7727 187.273 91.0513 188.277 89.6167 191.718" stroke="#010E41" stroke-width="1.051" stroke-miterlimit="10" stroke-linecap="round" stroke-linejoin="round"/>
<path d="M103.41 173.889C102.829 175.609 101.724 178.556 100.34 180.692" stroke="#010E41" stroke-width="1.051" stroke-miterlimit="10" stroke-linecap="round" stroke-linejoin="round"/>
<path d="M114.413 180.584C115.059 178.125 115.281 175.552 115.066 173.021" stroke="#010E41" stroke-width="1.051" stroke-miterlimit="10" stroke-linecap="round" stroke-linejoin="round"/>
<path d="M83.2831 183.99C83.2831 183.99 87.3931 161.15 83.2831 160.899C79.1731 160.648 79.1731 175.781 76.1462 181.961C73.1193 188.14 66.9364 213.11 62.6471 223.827C58.3577 234.545 56.084 238.832 52.9351 243.119C49.7791 247.406 19.1227 283.472 19.1227 283.472" stroke="#010E41" stroke-width="1.051" stroke-miterlimit="10" stroke-linecap="round" stroke-linejoin="round"/>
<path d="M107.936 169.974C107.936 169.974 102.915 164.433 99.3143 165.049C95.7136 165.666 91.2521 170.383 86.9341 178.168C82.6161 185.954 78.8719 189.431 75.7087 191.718C72.5455 194.004 73.1193 198.32 71.821 200.191" stroke="#010E41" stroke-width="1.051" stroke-miterlimit="10" stroke-linecap="round" stroke-linejoin="round"/>
<path d="M87.4433 195.567C87.099 196.729 86.9269 197.94 86.9341 199.145" stroke="#010E41" stroke-width="1.051" stroke-miterlimit="10" stroke-linecap="round" stroke-linejoin="round"/>
<path d="M61.1981 298.09C61.1981 298.09 78.5634 260.582 80.665 256.374C80.665 256.374 90.3124 248.839 96.6244 245.154C102.936 241.477 117.669 234.286 120.302 231.483C122.934 228.68 126.262 215.533 127.317 212.378C128.371 209.224 127.84 206.242 129.418 202.034C130.996 197.825 129.418 195.854 126.262 197.281C123.106 198.707 119.95 204.493 119.247 207.468C118.544 210.443 111.709 216.407 111.709 216.407C111.709 216.407 113.115 203.403 117.497 194.829C117.497 194.829 127.331 183.28 130.042 181.172C130.042 181.172 135.558 184.85 138.542 183.273C141.526 181.695 137.488 177.831 135.035 175.028C132.582 172.225 128.192 169.422 124.684 172.225C121.177 175.028 109.076 185.588 103.639 188.9C98.2025 192.212 98.2025 192.736 97.1481 195.718" stroke="#010E41" stroke-width="1.051" stroke-miterlimit="10" stroke-linecap="round" stroke-linejoin="round"/>
<g opacity="0.3">
<path d="M96.4022 242.789C101.079 240.645 106.007 237.663 110.368 234.939C114.729 232.215 120.782 227.304 117.548 222.178C115.324 218.006 106.609 225.612 102.937 221.712C102.183 220.916 101.76 219.863 101.645 218.773C101.122 213.97 105.712 209.511 106.258 204.715C106.631 201.396 106.344 193.639 101.064 192.019C97.8224 191.022 96.2157 195.56 96.2157 200.363C94.4153 196.621 93.1314 192.771 89.8893 193.323C86.9413 193.488 85.4852 195.911 85.6143 200.937C81.7841 200.191 81.8056 197.008 81.2891 193.911C80.8229 191.108 76.9711 190.929 74.9771 192.083C73.062 193.194 70.6376 201.912 70.0709 204.055C63.8521 227.498 57.8557 240.781 44.1844 256.618C41.6022 259.607 39.2782 261.88 36.8108 264.683C35.0893 266.64 36.8466 269.643 39.4073 269.149C48.8826 267.335 59.0822 259.636 67.5605 264.582C68.6938 265.242 69.9346 265.708 71.2401 265.837C77.8892 266.489 76.5121 258.596 79.6179 254.919C83.7064 250.065 90.6783 245.413 96.4022 242.789Z" fill="#B293FF"/>
<path opacity="0.2" d="M96.4022 242.789C101.079 240.645 106.007 237.663 110.368 234.939C114.729 232.215 120.782 227.304 117.548 222.178C115.324 218.006 106.609 225.612 102.937 221.712C102.183 220.916 101.76 219.863 101.645 218.773C101.122 213.97 105.712 209.511 106.258 204.715C106.631 201.396 106.344 193.639 101.064 192.019C97.8224 191.022 96.2157 195.56 96.2157 200.363C94.4153 196.621 93.1314 192.771 89.8893 193.323C86.9413 193.488 85.4852 195.911 85.6143 200.937C81.7841 200.191 81.8056 197.008 81.2891 193.911C80.8229 191.108 76.9711 190.929 74.9771 192.083C73.062 193.194 70.6376 201.912 70.0709 204.055C63.8521 227.498 57.8557 240.781 44.1844 256.618C41.6022 259.607 39.2782 261.88 36.8108 264.683C35.0893 266.64 36.8466 269.643 39.4073 269.149C48.8826 267.335 59.0822 259.636 67.5605 264.582C68.6938 265.242 69.9346 265.708 71.2401 265.837C77.8892 266.489 76.5121 258.596 79.6179 254.919C83.7064 250.065 90.6783 245.413 96.4022 242.789Z" fill="white"/>
</g>
<path d="M229.242 196.521C229.895 197.825 230.174 199.317 230.045 200.772" stroke="#010E41" stroke-width="1.051" stroke-miterlimit="10" stroke-linecap="round" stroke-linejoin="round"/>
<path d="M197.38 174.096L193.744 175.043" stroke="#010E41" stroke-width="1.051" stroke-miterlimit="10" stroke-linecap="round" stroke-linejoin="round"/>
<path d="M220.821 197.281C221.431 198.478 221.603 199.897 221.287 201.202" stroke="#010E41" stroke-width="1.051" stroke-miterlimit="10" stroke-linecap="round" stroke-linejoin="round"/>
</g>
<defs>
<clipPath id="clip0_451_8191">
<rect width="298" height="299" fill="white"/>
</clipPath>
</defs>
</svg>
