<svg width="356" height="311" viewBox="0 0 356 311" fill="none" xmlns="http://www.w3.org/2000/svg">
<g clip-path="url(#clip0_390_10105)">
<path d="M352.491 179.786C352.199 178.287 351.898 176.796 351.588 175.331C343.71 138.194 327.842 99.843 299.555 73.6692C287.299 62.3275 272.481 53.6748 255.968 50.5549C235.808 46.7456 214.849 52.02 196.323 60.8624C177.798 69.7048 161.173 81.9859 144.007 93.2414C132.92 100.507 121.198 107.513 108.117 109.625C92.4552 112.159 76.4325 107.418 60.6334 108.918C35.864 111.279 14.0273 129.792 5.10864 153.07C-3.81007 176.348 -0.584888 203.366 11.172 225.343C22.9288 247.319 42.6068 264.435 64.7874 275.725C95.5342 291.385 131.897 296.271 165.327 287.782C181.634 283.637 197.441 276.397 214.264 276.096C235.129 275.725 254.669 286.067 275.345 288.929C294.747 291.609 315.44 287.213 330.878 275.131C359.492 252.749 358.692 212.071 352.491 179.786Z" fill="#754BDD"/>
<path opacity="0.7" d="M352.491 179.786C352.199 178.287 351.898 176.796 351.588 175.331C343.71 138.194 327.842 99.843 299.555 73.6692C287.299 62.3275 272.481 53.6748 255.968 50.5549C235.808 46.7456 214.849 52.02 196.323 60.8624C177.798 69.7048 161.173 81.9859 144.007 93.2414C132.92 100.507 121.198 107.513 108.117 109.625C92.4552 112.159 76.4325 107.418 60.6334 108.918C35.864 111.279 14.0273 129.792 5.10864 153.07C-3.81007 176.348 -0.584888 203.366 11.172 225.343C22.9288 247.319 42.6068 264.435 64.7874 275.725C95.5342 291.385 131.897 296.271 165.327 287.782C181.634 283.637 197.441 276.397 214.264 276.096C235.129 275.725 254.669 286.067 275.345 288.929C294.747 291.609 315.44 287.213 330.878 275.131C359.492 252.749 358.692 212.071 352.491 179.786Z" fill="white"/>
<path d="M292.167 88.6651C289.372 87.1396 288.099 88.4065 287.084 87.1397C286.069 85.8641 289.879 82.5547 282.251 79.2453C282.251 79.2453 281.743 72.1093 271.32 71.8594C260.896 71.6009 263.691 78.9954 260.896 80.7793C258.101 82.5633 257.335 79.7624 254.54 81.5464C251.745 83.3304 253.018 86.8983 250.73 87.4068C248.442 87.9153 245.389 85.1144 242.594 86.8983C239.799 88.6823 239.799 90.2078 238.526 90.2078C237.253 90.2078 234.716 89.1908 233.185 90.2078C231.663 91.2247 229.882 92.5002 229.882 92.5002H294.205C294.197 92.483 294.962 90.1905 292.167 88.6651Z" fill="white"/>
<path opacity="0.5" d="M292.167 88.6651C289.372 87.1396 288.099 88.4065 287.084 87.1397C286.069 85.8641 289.879 82.5547 282.251 79.2453C282.251 79.2453 281.743 72.1093 271.32 71.8594C260.896 71.6009 263.691 78.9954 260.896 80.7793C258.101 82.5633 257.335 79.7624 254.54 81.5464C251.745 83.3304 253.018 86.8983 250.73 87.4068C248.442 87.9153 245.389 85.1144 242.594 86.8983C239.799 88.6823 239.799 90.2078 238.526 90.2078C237.253 90.2078 234.716 89.1908 233.185 90.2078C231.663 91.2247 229.882 92.5002 229.882 92.5002H294.205C294.197 92.483 294.962 90.1905 292.167 88.6651Z" fill="white"/>
<path d="M183.225 257.584C180.43 256.058 179.157 257.325 178.142 256.058C177.127 254.783 180.937 251.473 173.308 248.164C173.308 248.164 172.801 241.028 162.377 240.778C151.953 240.52 154.748 247.914 151.953 249.698C149.158 251.482 148.393 248.681 145.598 250.465C142.802 252.249 144.075 255.817 141.788 256.326C139.5 256.834 136.447 254.033 133.651 255.817C130.856 257.601 130.856 259.126 129.583 259.126C128.311 259.126 125.773 258.11 124.243 259.126C122.72 260.143 120.94 261.419 120.94 261.419H185.263C185.263 261.402 186.02 259.109 183.225 257.584Z" fill="white"/>
<path opacity="0.5" d="M183.225 257.584C180.43 256.058 179.157 257.325 178.142 256.058C177.127 254.783 180.937 251.473 173.308 248.164C173.308 248.164 172.801 241.028 162.377 240.778C151.953 240.52 154.748 247.914 151.953 249.698C149.158 251.482 148.393 248.681 145.598 250.465C142.802 252.249 144.075 255.817 141.788 256.326C139.5 256.834 136.447 254.033 133.651 255.817C130.856 257.601 130.856 259.126 129.583 259.126C128.311 259.126 125.773 258.11 124.243 259.126C122.72 260.143 120.94 261.419 120.94 261.419H185.263C185.263 261.402 186.02 259.109 183.225 257.584Z" fill="white"/>
<path d="M131.252 229.212C126.874 226.825 124.888 228.816 123.296 226.825C121.705 224.834 127.674 219.655 115.737 214.466C115.737 214.466 114.945 203.306 98.6303 202.909C82.3238 202.513 86.7014 214.07 82.3238 216.862C77.9461 219.655 76.7592 215.268 72.3816 218.06C68.0039 220.853 69.9907 226.429 66.4129 227.23C62.8351 228.023 58.0618 223.645 53.6841 226.429C49.3065 229.212 49.3065 231.608 47.3198 231.608C45.3331 231.608 41.351 230.014 38.9687 231.608C36.5778 233.203 33.7998 235.193 33.7998 235.193H134.434C134.434 235.193 135.63 231.608 131.252 229.212Z" fill="white"/>
<path opacity="0.5" d="M131.252 229.212C126.874 226.825 124.888 228.816 123.296 226.825C121.705 224.834 127.674 219.655 115.737 214.466C115.737 214.466 114.945 203.306 98.6303 202.909C82.3238 202.513 86.7014 214.07 82.3238 216.862C77.9461 219.655 76.7592 215.268 72.3816 218.06C68.0039 220.853 69.9907 226.429 66.4129 227.23C62.8351 228.023 58.0618 223.645 53.6841 226.429C49.3065 229.212 49.3065 231.608 47.3198 231.608C45.3331 231.608 41.351 230.014 38.9687 231.608C36.5778 233.203 33.7998 235.193 33.7998 235.193H134.434C134.434 235.193 135.63 231.608 131.252 229.212Z" fill="white"/>
<path d="M177.187 0.430908C147.163 0.430908 122.737 22.3817 121.895 49.7448L98.2261 62.7326L85.7984 50.8911L67.8406 78.2111L55.3354 77.6767L61.7514 102.609L62.3018 82.0893L71.1518 83.7526L85.7898 68.3345L100.712 80.1674L124.096 65.5249C130.839 86.5881 152.039 101.972 177.179 101.972C207.736 101.972 232.506 79.2367 232.506 51.2013C232.514 23.166 207.745 0.430908 177.187 0.430908Z" fill="#010E41" stroke="#010E41" stroke-miterlimit="10" stroke-linecap="round" stroke-linejoin="round"/>
<path d="M226.201 85.1574H126.384C123.615 85.1574 121.37 82.9081 121.37 80.133V23.2177C121.37 20.4426 123.615 18.1932 126.384 18.1932H226.21C228.979 18.1932 231.224 20.4426 231.224 23.2177V80.1416C231.215 82.9081 228.971 85.1574 226.201 85.1574Z" fill="#B293FF" stroke="#010E41" stroke-width="2" stroke-miterlimit="10" stroke-linecap="round" stroke-linejoin="round"/>
<path d="M180.679 50.0034L231.215 24.3898V23.2177C231.215 20.4426 228.971 18.1932 226.201 18.1932H126.384C123.615 18.1932 121.37 20.4426 121.37 23.2177V24.6053L170.986 50.1154C174.048 51.615 177.643 51.5719 180.679 50.0034Z" fill="white" stroke="#010E41" stroke-width="2" stroke-miterlimit="10" stroke-linecap="round" stroke-linejoin="round"/>
<path d="M229.274 43.1693C235.42 42.1659 239.591 36.3597 238.589 30.2008C237.588 24.0419 231.794 19.8625 225.648 20.8659C219.502 21.8693 215.331 27.6755 216.332 33.8344C217.333 39.9934 223.128 44.1727 229.274 43.1693Z" fill="#E95226"/>
<path d="M226.778 38.4893C226.511 38.1963 226.382 37.774 226.382 37.2311L226.373 27.1735L224.395 28.3887C224.249 28.4921 224.068 28.5438 223.879 28.5438C223.604 28.5438 223.38 28.4404 223.191 28.2249C223.002 28.0181 222.907 27.7682 222.907 27.4924C222.907 27.1218 223.079 26.8288 223.441 26.6133L227.044 24.476C227.319 24.3036 227.595 24.2174 227.87 24.2088C228.274 24.2088 228.601 24.3553 228.85 24.6483C229.108 24.9414 229.229 25.355 229.229 25.8894L229.237 37.2828C229.237 37.7826 229.1 38.1791 228.833 38.4807C228.558 38.7823 228.222 38.9289 227.801 38.9289C227.388 38.9375 227.044 38.791 226.778 38.4893Z" fill="white"/>
<path d="M122.127 181.579C122.127 181.579 156.099 232.858 164.269 233.72C172.44 234.582 198.241 207.865 198.241 207.865L190.931 206.141L166.583 222.637C166.583 222.637 145.752 197.04 127.485 177.459L122.127 181.579Z" fill="white" stroke="#010E41" stroke-width="2" stroke-miterlimit="10" stroke-linecap="round" stroke-linejoin="round"/>
<path d="M128.164 166.299C128.164 166.299 134.985 166.592 134.684 169.565C134.391 172.538 134.684 180.553 132.903 182.044C131.123 183.527 128.457 184.121 127.863 181.157C127.279 178.183 128.164 166.299 128.164 166.299Z" fill="white" stroke="#010E41" stroke-width="2" stroke-miterlimit="10" stroke-linecap="round" stroke-linejoin="round"/>
<path d="M126.393 180.26C126.393 180.26 126.1 189.172 125.507 190.059C124.913 190.947 120.768 194.222 118.093 193.627C115.427 193.033 116.313 190.361 116.313 188.879C116.313 187.396 116.313 165.411 116.313 165.411H126.393V180.26Z" fill="#010E41" stroke="#010E41" stroke-miterlimit="10" stroke-linecap="round" stroke-linejoin="round"/>
<path d="M112.46 183.527C112.46 183.527 110.387 187.388 112.168 190.361C113.948 193.334 118.988 193.334 121.06 191.843C123.133 190.361 121.654 188.275 119.874 187.681C118.093 187.086 115.72 185.604 115.72 183.82C115.72 182.044 113.346 182.337 112.46 183.527Z" fill="white" stroke="#010E41" stroke-width="2" stroke-miterlimit="10" stroke-linecap="round" stroke-linejoin="round"/>
<path d="M110.852 177.873C110.869 179.898 111.196 183.32 112.795 184.733C114.601 186.328 122.918 186.44 126.53 184.018C130.142 181.596 127.743 177.382 124.982 177.649C122.694 177.873 120.243 177.304 117.93 177.02C116.622 176.856 112.004 175.831 111.101 176.796C110.877 177.037 110.852 177.442 110.852 177.821C110.852 177.83 110.852 177.856 110.852 177.873Z" fill="white" stroke="#010E41" stroke-width="2" stroke-miterlimit="10" stroke-linecap="round" stroke-linejoin="round"/>
<path d="M109.828 170.513C109.544 172.564 109.407 176.029 111.092 177.528C112.993 179.226 122.841 179.735 127.494 177.459C132.146 175.184 129.945 170.815 126.625 170.953C123.881 171.073 121.052 170.384 118.351 169.979C116.829 169.746 111.505 168.496 110.284 169.427C109.983 169.66 109.888 170.074 109.837 170.444C109.837 170.47 109.828 170.487 109.828 170.513Z" fill="white" stroke="#010E41" stroke-width="2" stroke-miterlimit="10" stroke-linecap="round" stroke-linejoin="round"/>
<path d="M110.404 160.361C109.673 162.3 108.779 165.652 110.086 167.488C111.565 169.565 121.052 172.237 126.092 171.056C131.132 169.867 129.945 165.118 126.685 164.523C123.976 164.032 121.379 162.731 118.833 161.74C117.397 161.179 112.486 158.784 111.092 159.413C110.748 159.568 110.568 159.956 110.43 160.309C110.422 160.326 110.413 160.343 110.404 160.361Z" fill="white" stroke="#010E41" stroke-width="2" stroke-miterlimit="10" stroke-linecap="round" stroke-linejoin="round"/>
<path d="M189.271 309.302L216.362 207.813H225.531L196.77 310.138" fill="#010E41"/>
<path d="M189.271 309.302L216.362 207.813H225.531L196.77 310.138" stroke="#010E41" stroke-miterlimit="10" stroke-linecap="round" stroke-linejoin="round"/>
<path d="M207.212 299.598L233.443 207.399L225.531 207.813L196.771 310.138" fill="white"/>
<path d="M207.212 299.598L233.443 207.399L225.531 207.813L196.771 310.138" stroke="#010E41" stroke-width="2" stroke-miterlimit="10" stroke-linecap="round" stroke-linejoin="round"/>
<path d="M204.692 308.466L205.904 304.209" stroke="#010E41" stroke-width="2" stroke-miterlimit="10" stroke-linecap="round" stroke-linejoin="round"/>
<path d="M171.15 231.651C171.15 231.651 174.117 236.107 177.669 236.702C181.229 237.296 218.874 207.589 218.874 207.589L203.462 209.373L171.15 231.651Z" fill="white" stroke="#010E41" stroke-width="2" stroke-miterlimit="10" stroke-linecap="round" stroke-linejoin="round"/>
<path d="M147.249 184.009C147.249 184.009 154.336 125.12 170.169 104.652C187.491 82.2789 222.271 100.472 215.184 136.393C209.749 163.955 193.924 213.243 193.924 213.243L147.249 184.009Z" fill="#FFD11C" stroke="#010E41" stroke-width="2" stroke-miterlimit="10" stroke-linecap="round" stroke-linejoin="round"/>
<path d="M198.095 97.1368L290.705 126.465C293.732 127.422 296.528 129.033 298.815 131.239C304.655 136.876 313.359 149.002 306.048 166.885C296.897 189.249 282.294 205.727 282.294 205.727L193.932 213.243L211.856 143.908C211.856 143.908 220.19 113.425 198.095 97.1368Z" fill="white"/>
<mask id="mask0_390_10105" style="mask-type:luminance" maskUnits="userSpaceOnUse" x="193" y="97" width="116" height="117">
<path d="M198.095 97.1368L290.705 126.465C293.732 127.422 296.528 129.033 298.815 131.239C304.655 136.876 313.359 149.002 306.048 166.885C296.897 189.249 282.294 205.727 282.294 205.727L193.932 213.243L211.856 143.908C211.856 143.908 220.19 113.425 198.095 97.1368Z" fill="white"/>
</mask>
<g mask="url(#mask0_390_10105)">
<path d="M241.527 178.709C219.252 189.172 207.34 187.353 201.406 184.311L193.924 213.243L282.285 205.727C282.285 205.727 296.897 189.249 306.04 166.885C307.072 164.36 307.777 161.955 308.224 159.663C286.757 154.595 269.737 165.463 241.527 178.709Z" fill="#754BDD"/>
</g>
<mask id="mask1_390_10105" style="mask-type:luminance" maskUnits="userSpaceOnUse" x="193" y="97" width="116" height="117">
<path d="M198.095 97.1368L290.705 126.465C293.732 127.422 296.528 129.033 298.815 131.239C304.655 136.876 313.359 149.002 306.048 166.885C296.897 189.249 282.294 205.727 282.294 205.727L193.932 213.243L211.856 143.908C211.856 143.908 220.19 113.425 198.095 97.1368Z" fill="white"/>
</mask>
<g mask="url(#mask1_390_10105)">
<path opacity="0.5" d="M241.527 178.709C219.252 189.172 207.34 187.353 201.406 184.311L193.924 213.243L282.285 205.727C282.285 205.727 296.897 189.249 306.04 166.885C307.072 164.36 307.777 161.955 308.224 159.663C286.757 154.595 269.737 165.463 241.527 178.709Z" fill="white"/>
</g>
<path d="M198.095 97.1368L290.705 126.465C293.732 127.422 296.528 129.033 298.815 131.239C304.655 136.876 313.359 149.002 306.048 166.885C296.897 189.249 282.294 205.727 282.294 205.727L193.932 213.243L211.856 143.908C211.856 143.908 220.19 113.425 198.095 97.1368Z" stroke="#010E41" stroke-width="2" stroke-miterlimit="10" stroke-linecap="round" stroke-linejoin="round"/>
<path d="M250.154 105.876L235.653 151.225C233.185 151.639 230.785 153.673 229.581 156.681C227.93 160.835 229.212 165.256 232.445 166.549C235.679 167.841 239.644 165.514 241.295 161.36C242.654 157.939 242.026 154.345 239.954 152.458L250.154 117.545L264.379 122.406L268.258 112.357L250.154 105.876Z" fill="#010E41" stroke="#010E41" stroke-miterlimit="10" stroke-linecap="round" stroke-linejoin="round"/>
<path d="M161.543 146.054C161.543 146.054 168.011 153.182 168.337 156.75C168.664 160.318 162.842 169.712 162.842 169.712C162.842 169.712 174.805 177.166 186.123 171.978C197.441 166.79 202.937 144.762 202.937 144.762C202.937 144.762 189.357 151.243 184.179 151.243C179.002 151.243 161.543 146.054 161.543 146.054Z" fill="#010E41" stroke="#010E41" stroke-miterlimit="10" stroke-linecap="round" stroke-linejoin="round"/>
<path d="M186.123 171.978C189.245 170.548 191.92 167.833 194.165 164.653C193.734 163.248 192.849 162.222 191.301 161.929C184.506 160.636 177.394 168.083 177.394 168.083C177.394 168.083 176.645 169.832 176.241 173.771C179.372 173.934 182.777 173.512 186.123 171.978Z" fill="#754BDD" stroke="#010E41" stroke-miterlimit="10" stroke-linecap="round" stroke-linejoin="round"/>
<path d="M176.74 166.152C171.433 165.902 167.709 164.067 166.342 163.274C164.768 166.6 162.833 169.712 162.833 169.712C162.833 169.712 174.796 177.166 186.115 171.978C189.039 170.642 191.567 168.177 193.717 165.265C191.068 165.558 182.434 166.419 176.74 166.152Z" fill="white" stroke="#010E41" stroke-miterlimit="10" stroke-linecap="round" stroke-linejoin="round"/>
<path d="M184.179 151.243C179.002 151.243 161.543 146.054 161.543 146.054C161.543 146.054 165.241 150.131 167.185 153.664C171.468 155.388 179.045 158.042 185.151 158.042C190.681 158.042 196.323 156.112 199.961 153.647C201.957 148.7 202.937 144.762 202.937 144.762C202.937 144.762 189.357 151.243 184.179 151.243Z" fill="white" stroke="#010E41" stroke-miterlimit="10" stroke-linecap="round" stroke-linejoin="round"/>
<path d="M182.889 136.333C182.889 136.333 184.833 129.524 190.329 128.878C195.824 128.232 197.441 132.118 197.441 132.118C197.441 132.118 187.086 132.118 182.889 136.333Z" fill="#010E41"/>
<path d="M198.731 142.814L206.816 145.735" stroke="#010E41" stroke-miterlimit="10" stroke-linecap="round" stroke-linejoin="round"/>
<path d="M173.807 129.817C173.403 132.11 172.354 133.842 171.476 133.678C170.599 133.523 170.212 131.541 170.625 129.249C171.029 126.956 172.079 125.224 172.956 125.388C173.833 125.543 174.211 127.525 173.807 129.817Z" fill="#010E41"/>
<path d="M184.179 128.232C184.179 128.232 183.853 124.345 192.264 124.345C200.675 124.345 202.292 123.371 199.058 119.157C195.824 114.951 182.236 117.217 184.179 128.232Z" fill="#010E41"/>
<path d="M180.946 116.571C180.946 116.571 180.301 111.064 175.123 111.064C169.946 111.064 167.039 117.217 166.712 115.278C166.385 113.331 168.329 106.531 175.441 105.884C182.562 105.229 180.946 116.571 180.946 116.571Z" fill="#010E41"/>
<path d="M217.429 112.072C218.59 114.865 219.527 118.441 219.923 122.983C221.987 146.632 201.045 211.062 201.045 211.062" stroke="#010E41" stroke-miterlimit="10" stroke-linecap="round" stroke-linejoin="round"/>
<path d="M209.31 102.592C209.31 102.592 211.589 103.42 214.058 106.376" stroke="#010E41" stroke-miterlimit="10" stroke-linecap="round" stroke-linejoin="round"/>
<path d="M282.363 199.712C280.324 202.797 278.922 204.866 278.922 204.866" stroke="#010E41" stroke-miterlimit="10" stroke-linecap="round" stroke-linejoin="round"/>
<path d="M285.708 125.948C285.708 125.948 301.344 134.816 303.408 147.821C305.472 160.826 300.458 167.626 297.508 174.719C295.822 178.778 289.965 188.086 285.278 195.291" stroke="#010E41" stroke-miterlimit="10" stroke-linecap="round" stroke-linejoin="round"/>
<path d="M163.633 176.322C163.633 176.322 168.303 181.002 178.821 179.829C178.821 179.829 168.303 184.509 163.633 176.322Z" fill="#010E41"/>
<path d="M69.1736 172.538C69.1736 172.538 96.5489 158.154 146.518 166.971C151.3 167.816 155.867 164.618 156.718 159.826L157.44 155.784C158.154 151.794 156.064 147.83 152.375 146.166C139.104 140.194 108.237 123.629 91.9993 92.9311L69.1736 172.538Z" fill="#754BDD" stroke="#010E41" stroke-width="2" stroke-miterlimit="10" stroke-linecap="round" stroke-linejoin="round"/>
<path d="M93.6334 109.599C93.6334 109.599 107.007 130.61 129.188 138.22" stroke="white" stroke-width="2" stroke-miterlimit="10" stroke-linecap="round" stroke-linejoin="round"/>
<path d="M152.375 146.166C147.077 143.779 138.958 139.703 130.091 133.704C132.422 141.168 133.092 152.449 123.443 164.334C130.495 164.687 138.184 165.497 146.509 166.971C151.291 167.816 155.858 164.618 156.709 159.826L157.432 155.784C158.163 151.785 156.073 147.83 152.375 146.166Z" fill="#010E41" stroke="#010E41" stroke-miterlimit="10" stroke-linecap="round" stroke-linejoin="round"/>
<path d="M91.1108 136.111C98.909 111.126 97.4397 88.43 87.8291 85.4179C78.2184 82.4058 64.1058 100.218 56.3076 125.203C48.5094 150.188 49.9787 172.884 59.5894 175.896C69.2 178.908 83.3126 161.096 91.1108 136.111Z" fill="#010E41" stroke="#010E41" stroke-miterlimit="10" stroke-linecap="round" stroke-linejoin="round"/>
<path d="M87.2309 134.889C94.2464 112.412 93.4032 92.1437 85.3475 89.619C77.2917 87.0943 65.0741 103.269 58.0586 125.746C51.043 148.224 51.8863 168.492 59.942 171.017C67.9977 173.541 80.2154 157.367 87.2309 134.889Z" fill="white" stroke="#010E41" stroke-miterlimit="10" stroke-linecap="round" stroke-linejoin="round"/>
<path d="M90.4598 122.001L82.4699 121.578L76.484 142.107L82.8398 146.701C84.4481 143.038 85.9359 139.065 87.2346 134.885C88.6193 130.464 89.6858 126.137 90.4598 122.001Z" fill="#010E41" stroke="#010E41" stroke-miterlimit="10" stroke-linecap="round" stroke-linejoin="round"/>
<path d="M82.9258 132.851C81.2745 138.522 78.3848 142.667 76.4841 142.107C74.5834 141.547 74.377 136.505 76.0282 130.834C77.6795 125.164 80.5693 121.018 82.47 121.578C84.3707 122.139 84.5771 127.189 82.9258 132.851Z" fill="white" stroke="#010E41" stroke-miterlimit="10" stroke-linecap="round" stroke-linejoin="round"/>
<path d="M174.409 235.512C169.963 233.435 133.505 168.376 131.424 164.816C129.351 161.248 129.945 156.198 132.017 151.449C134.09 146.701 134.09 137.789 132.903 136.005C131.716 134.221 128.061 132.403 128.061 132.403C128.061 132.403 128.749 131.55 130.237 129.766C131.716 127.982 135.277 129.171 135.277 129.171C137.943 127.094 140.325 130.49 140.325 130.49C143.293 128.706 144.763 132.144 144.763 132.144C144.763 132.144 146.483 132.231 147.73 133.032C150.207 134.635 149.803 141.65 149.803 141.65C149.803 141.65 152.469 142.245 153.063 144.029C153.656 145.813 153.656 149.674 152.469 152.647C151.282 155.621 143.869 164.532 143.869 164.532L180.627 227.808" fill="white"/>
<path d="M174.409 235.512C169.963 233.435 133.505 168.376 131.424 164.816C129.351 161.248 129.945 156.198 132.017 151.449C134.09 146.701 134.09 137.789 132.903 136.005C131.716 134.221 128.061 132.403 128.061 132.403C128.061 132.403 128.749 131.55 130.237 129.766C131.716 127.982 135.277 129.171 135.277 129.171C137.943 127.094 140.325 130.49 140.325 130.49C143.293 128.706 144.763 132.144 144.763 132.144C144.763 132.144 146.483 132.231 147.73 133.032C150.207 134.635 149.803 141.65 149.803 141.65C149.803 141.65 152.469 142.245 153.063 144.029C153.656 145.813 153.656 149.674 152.469 152.647C151.282 155.621 143.869 164.532 143.869 164.532L180.627 227.808" stroke="#010E41" stroke-width="2" stroke-miterlimit="10" stroke-linecap="round" stroke-linejoin="round"/>
<path d="M135.286 129.171C135.286 129.171 139.543 131.92 139.543 134.316C139.543 136.712 140.024 139.901 140.024 139.901" stroke="#010E41" stroke-miterlimit="10" stroke-linecap="round" stroke-linejoin="round"/>
<path d="M140.334 130.481C140.334 130.481 142.88 133.196 143.043 134.79C143.207 136.385 143.525 141.331 143.525 141.331" stroke="#010E41" stroke-miterlimit="10" stroke-linecap="round" stroke-linejoin="round"/>
<path d="M144.772 132.136C144.772 132.136 146.234 134.152 146.234 136.548C146.234 138.944 146.552 141.495 146.552 141.495" stroke="#010E41" stroke-miterlimit="10" stroke-linecap="round" stroke-linejoin="round"/>
<path d="M149.812 141.642C149.812 141.642 151.007 149.312 150.534 150.906" stroke="#010E41" stroke-miterlimit="10" stroke-linecap="round" stroke-linejoin="round"/>
</g>
<defs>
<clipPath id="clip0_390_10105">
<rect width="356" height="311" fill="white"/>
</clipPath>
</defs>
</svg>
