<svg width="306" height="293" viewBox="0 0 306 293" fill="none" xmlns="http://www.w3.org/2000/svg">
<g clip-path="url(#clip0_451_8249)">
<path d="M41.0486 258.37V263.696H80.8881V258.37H41.0486Z" fill="#E0E0E0"/>
<path d="M46.4772 258.587C46.6188 258.587 46.7249 259.706 46.7249 261.08C46.7249 262.461 46.6117 263.573 46.4772 263.573C46.3357 263.573 46.2296 262.454 46.2296 261.08C46.2225 259.706 46.3357 258.587 46.4772 258.587Z" fill="#FAFAFA"/>
<path d="M45.6068 258.481C45.7483 258.481 45.8545 259.6 45.8545 260.974C45.8545 262.355 45.7412 263.467 45.6068 263.467C45.4653 263.467 45.3591 262.348 45.3591 260.974C45.3591 259.593 45.4653 258.481 45.6068 258.481Z" fill="#FAFAFA"/>
<path d="M77.8038 258.587C77.9453 258.587 78.0515 259.706 78.0515 261.08C78.0515 262.461 77.9383 263.573 77.8038 263.573C77.6623 263.573 77.5562 262.454 77.5562 261.08C77.5562 259.706 77.6694 258.587 77.8038 258.587Z" fill="#FAFAFA"/>
<path d="M76.9406 258.481C77.0821 258.481 77.1883 259.6 77.1883 260.974C77.1883 262.355 77.0751 263.467 76.9406 263.467C76.7991 263.467 76.6929 262.348 76.6929 260.974C76.6859 259.593 76.7991 258.481 76.9406 258.481Z" fill="#FAFAFA"/>
<path d="M71.7325 261.194C71.7325 261.335 67.1683 261.441 61.5426 261.441C55.9099 261.441 51.3528 261.328 51.3528 261.194C51.3528 261.052 55.917 260.946 61.5426 260.946C67.1683 260.939 71.7325 261.052 71.7325 261.194Z" fill="#FAFAFA"/>
<path d="M40.8723 282.351V293.003H80.7118V282.351H40.8723Z" fill="#E0E0E0"/>
<path d="M81.2218 290.004C81.2289 290.011 81.151 290.054 81.0024 290.132C80.8538 290.21 80.6345 290.309 80.3373 290.436C79.7428 290.677 78.8512 291.024 77.6341 291.208C76.4382 291.378 74.839 291.428 73.2539 290.585C72.4755 290.167 71.7325 289.537 71.1735 288.694C70.6215 287.858 70.2677 286.761 70.4517 285.627C70.5437 285.061 70.7843 284.501 71.1805 284.041C71.5697 283.581 72.1924 283.241 72.8576 283.276C73.5228 283.304 74.1243 283.687 74.5488 284.19C74.9734 284.693 75.2565 285.33 75.3202 286.01C75.4758 287.363 74.9097 288.765 73.9474 289.785C72.9991 290.847 71.5839 291.491 70.1191 291.654C68.6472 291.831 67.1187 291.598 65.6752 291.102C64.2316 290.606 62.8022 289.792 61.7903 288.489C61.295 287.844 60.9411 287.037 60.8845 286.187C60.8138 285.337 61.0827 284.423 61.7337 283.793C62.0592 283.474 62.5121 283.269 62.9791 283.248C63.4461 283.226 63.9061 283.375 64.2811 283.616C65.0525 284.091 65.5407 284.912 65.7459 285.769C66.121 287.511 65.4346 289.324 64.175 290.465C62.9154 291.612 61.2667 292.122 59.6886 292.292C58.1035 292.448 56.5114 292.334 55.0395 291.831C53.5747 291.343 52.2585 290.38 51.5014 289.076C50.7301 287.802 50.4753 286.194 51.0556 284.841C51.3315 284.176 51.9472 283.581 52.6831 283.467C53.3978 283.333 54.1338 283.531 54.6928 283.949C55.8179 284.841 56.0019 286.371 55.641 287.54C55.273 288.736 54.4663 289.657 53.6313 290.372C51.926 291.81 49.9092 292.433 48.1684 292.497C46.4064 292.561 44.9204 292.072 43.8378 291.513C42.748 290.946 42.0262 290.302 41.5804 289.841C41.361 289.608 41.1983 289.423 41.1063 289.289C41.0072 289.154 40.9577 289.091 40.9648 289.084C41.0143 289.013 41.7644 290.245 43.9297 291.343C45.0053 291.867 46.456 292.306 48.1614 292.221C49.8455 292.136 51.7844 291.506 53.4049 290.11C54.1974 289.416 54.9475 288.531 55.273 287.44C55.5985 286.385 55.3863 285.018 54.4451 284.296C53.9852 283.949 53.3483 283.786 52.768 283.899C52.1736 283.998 51.7066 284.445 51.466 285.032C50.9636 286.215 51.1829 287.681 51.9047 288.85C52.6123 290.047 53.8153 290.925 55.2023 291.385C56.5892 291.853 58.1248 291.966 59.6462 291.81C61.1534 291.647 62.7031 291.152 63.8495 290.103C64.9817 289.084 65.5973 287.419 65.2648 285.889C65.0808 285.146 64.6562 284.445 64.0193 284.055C63.3966 283.644 62.5828 283.659 62.0734 284.176C61.5568 284.671 61.3091 285.443 61.3799 286.173C61.4223 286.916 61.7337 287.617 62.1795 288.212C63.0923 289.402 64.451 290.188 65.8238 290.67C67.2178 291.152 68.6755 291.378 70.0625 291.215C71.4424 291.059 72.7373 290.479 73.6219 289.501C74.5205 288.559 75.0371 287.278 74.9027 286.074C74.8036 284.905 73.912 283.758 72.8364 283.687C72.3057 283.651 71.7962 283.913 71.4565 284.31C71.1027 284.707 70.8833 285.21 70.7984 285.712C70.6215 286.739 70.9329 287.752 71.4424 288.545C71.9589 289.338 72.6595 289.955 73.3883 290.358C74.8744 291.18 76.4382 291.173 77.6129 291.031C78.8088 290.875 79.7075 290.571 80.3019 290.358C80.9104 290.125 81.2147 289.99 81.2218 290.004Z" fill="#FAFAFA"/>
<path d="M44.4326 263.843V282.328H80.7128V263.843H44.4326Z" fill="#EBEBEB"/>
<path d="M50.4611 264.48C50.6026 264.48 50.7088 268.488 50.7088 273.425C50.7088 278.368 50.5956 282.37 50.4611 282.37C50.3196 282.37 50.2134 278.368 50.2134 273.425C50.2064 268.488 50.3196 264.48 50.4611 264.48Z" fill="#E0E0E0"/>
<path d="M53.2138 264.253C53.3553 264.253 53.4615 268.205 53.4615 273.085C53.4615 277.964 53.3483 281.916 53.2138 281.916C53.0723 281.916 52.9661 277.964 52.9661 273.085C52.9591 268.205 53.0723 264.253 53.2138 264.253Z" fill="#E0E0E0"/>
<path d="M76.6152 263.658C76.7567 263.658 76.8628 267.823 76.8628 272.957C76.8628 278.092 76.7496 282.256 76.6152 282.256C76.4736 282.256 76.3675 278.092 76.3675 272.957C76.3604 267.823 76.4736 263.658 76.6152 263.658Z" fill="#E0E0E0"/>
<path d="M73.3813 263.906C73.5228 263.906 73.629 267.964 73.629 272.964C73.629 277.971 73.5157 282.023 73.3813 282.023C73.2398 282.023 73.1336 277.964 73.1336 272.964C73.1265 267.964 73.2398 263.906 73.3813 263.906Z" fill="#E0E0E0"/>
<path d="M268.68 223.495C272.444 221.554 276.867 221.299 281.042 221.993C283.285 222.362 285.627 223.034 287.149 224.72C288.677 226.406 288.967 229.373 287.213 230.825C286.172 231.689 284.715 231.816 283.363 231.802C280.094 231.767 276.471 231.186 273.853 233.155C272.359 234.281 271.369 236.144 269.593 236.696C267.852 237.234 265.885 236.207 264.958 234.635C264.031 233.063 264.002 231.094 264.434 229.316C264.441 229.316 264.894 225.45 268.68 223.495Z" fill="#EBEBEB"/>
<path d="M260.061 206.844C262.361 210.131 266.833 209.047 268.906 207.036C270.98 205.031 271.857 202.121 272.65 199.344C274.468 193.006 276.308 186.363 274.956 179.903C274.553 177.977 273.831 176.051 272.473 174.62C271.121 173.19 269.034 172.34 267.13 172.842C264.873 173.437 263.479 175.647 262.46 177.75C259.481 183.926 257.91 190.775 257.881 197.637C257.881 200.846 258.256 204.203 260.061 206.844Z" fill="#EBEBEB"/>
<path d="M253.749 211.561C256.247 208.594 256.721 204.266 255.61 200.555C254.499 196.837 251.987 193.679 249.093 191.101C245.703 188.076 241.712 185.718 237.424 184.21C235.74 183.615 233.956 183.147 232.18 183.317C230.397 183.487 228.607 184.401 227.779 185.98C226.555 188.324 227.729 191.164 229.003 193.487C231.246 197.574 233.808 201.483 236.667 205.166C238.967 208.126 241.592 211.051 245.095 212.39C248.597 213.728 252.227 213.573 254.089 211.143" fill="#EBEBEB"/>
<path d="M259.905 256.441C259.948 256.441 260.018 255.91 260.11 254.947C260.217 253.856 260.351 252.497 260.507 250.868C260.698 249.154 260.945 247.114 261.42 244.89C261.894 242.674 262.637 240.273 263.592 237.829C264.583 235.407 265.786 233.205 267.194 231.441C268.595 229.671 270.215 228.389 271.744 227.652C273.265 226.901 274.631 226.59 275.579 226.455C276.534 226.356 277.065 226.285 277.065 226.243C277.065 226.2 276.534 226.193 275.551 226.221C274.581 226.285 273.159 226.533 271.553 227.263C269.939 227.978 268.22 229.281 266.748 231.087C265.269 232.886 264.024 235.138 263.019 237.603C262.049 240.081 261.313 242.511 260.861 244.777C260.408 247.036 260.202 249.104 260.068 250.832C259.941 252.56 259.891 253.963 259.863 254.933C259.856 255.896 259.863 256.434 259.905 256.441Z" fill="#E0E0E0"/>
<path d="M260.188 253.304C260.21 253.304 260.224 253.063 260.231 252.61C260.231 252.086 260.231 251.434 260.224 250.627C260.217 248.906 260.217 246.42 260.309 243.346C260.457 237.199 260.988 230.584 262.014 221.25C262.983 212.475 264.278 202.269 265.651 195.633C265.948 194.125 266.239 192.765 266.522 191.575C266.791 190.385 267.017 189.358 267.236 188.523C267.427 187.736 267.576 187.099 267.696 186.596C267.795 186.157 267.838 185.916 267.817 185.909C267.795 185.902 267.71 186.129 267.576 186.561C267.427 187.057 267.236 187.687 267.003 188.459C266.748 189.28 266.486 190.307 266.189 191.49C265.878 192.673 265.552 194.033 265.227 195.534C263.868 201.547 262.439 209.953 261.405 219.302C260.379 228.651 259.919 237.164 259.877 243.325C259.842 246.406 259.905 248.899 259.983 250.62C260.033 251.427 260.075 252.079 260.103 252.603C260.139 253.063 260.167 253.304 260.188 253.304Z" fill="#E0E0E0"/>
<path d="M260.231 236.887C260.273 236.887 260.266 236.151 260.217 234.819C260.139 233.488 259.955 231.569 259.58 229.21C259.183 226.859 258.632 224.068 257.754 221.037C257.379 219.649 256.487 216.328 254.336 211.363C251.506 204.635 247.656 199.139 244.309 195.732C243.524 194.826 242.646 194.174 241.953 193.537C241.592 193.232 241.273 192.928 240.948 192.68C240.622 192.453 240.318 192.241 240.035 192.05C238.931 191.299 238.316 190.895 238.294 190.931C238.195 191.065 240.764 192.574 244.005 196.03C247.232 199.472 250.975 204.932 253.784 211.604C255.348 215.223 256.445 218.445 257.216 221.186C258.115 224.189 258.709 226.951 259.155 229.281C259.58 231.611 259.827 233.516 259.976 234.834C260.096 236.158 260.188 236.887 260.231 236.887Z" fill="#E0E0E0"/>
<path d="M243.276 263.354L244.918 285.89H273.845L275.494 263.354H243.276Z" fill="#EBEBEB"/>
<path d="M278.941 254.465H240.481V263.347H278.941V254.465Z" fill="#EBEBEB"/>
<path d="M240.481 285.025V287.49H242.292H278.311V285.025H240.481Z" fill="#E0E0E0"/>
<path d="M244.062 291.548L242.292 287.214H276.931L274.865 291.548H244.062Z" fill="#E0E0E0"/>
<path d="M274.957 270.719C274.964 270.726 274.914 270.797 274.822 270.925C274.709 271.08 274.567 271.265 274.391 271.498C273.98 272.022 273.414 272.745 272.706 273.658L272.628 273.758L272.558 273.658C271.496 272.192 270.081 270.231 268.418 267.929H268.659C267.427 269.671 266.055 271.619 264.583 273.708L264.455 273.892L264.314 273.722C262.807 271.93 261.179 269.983 259.481 267.964L259.757 267.957C259.672 268.063 259.58 268.177 259.488 268.29C257.988 270.174 256.537 271.994 255.164 273.715L255.023 273.899L254.888 273.708C253.423 271.633 252.051 269.685 250.812 267.936L251.053 267.95C249.043 270.245 247.338 272.185 246.029 273.68L245.937 273.779L245.866 273.665C245.201 272.554 244.677 271.661 244.295 271.024C244.132 270.733 243.998 270.507 243.892 270.323C243.8 270.16 243.764 270.075 243.771 270.075C243.778 270.068 243.835 270.146 243.941 270.301C244.062 270.478 244.203 270.705 244.387 270.981C244.79 271.612 245.342 272.483 246.036 273.58L245.88 273.566C247.168 272.058 248.845 270.089 250.819 267.773L250.947 267.624L251.06 267.78C252.312 269.529 253.692 271.463 255.171 273.531L254.895 273.524C256.261 271.803 257.712 269.976 259.205 268.092C259.297 267.978 259.389 267.865 259.474 267.759L259.608 267.589L259.75 267.759C261.441 269.784 263.068 271.732 264.569 273.524L264.3 273.538C265.786 271.463 267.173 269.529 268.418 267.787L268.538 267.617L268.659 267.787C270.286 270.117 271.673 272.1 272.713 273.58L272.565 273.573C273.301 272.688 273.888 271.98 274.32 271.47C274.511 271.25 274.666 271.073 274.787 270.925C274.893 270.769 274.95 270.712 274.957 270.719Z" fill="#F5F5F5"/>
<path d="M275.898 263.205C275.898 263.304 268.652 263.382 259.707 263.382C250.763 263.382 243.517 263.304 243.517 263.205C243.517 263.106 250.763 263.028 259.707 263.028C268.645 263.021 275.898 263.099 275.898 263.205Z" fill="#F5F5F5"/>
<path d="M110.978 28.4423C110.978 28.4493 110.921 28.4281 110.815 28.3927C110.687 28.3431 110.532 28.2794 110.348 28.2085C109.909 28.0244 109.315 27.7765 108.565 27.4649C106.987 26.7921 104.765 25.836 102.026 24.6603C96.4924 22.2453 88.8996 18.9379 80.5071 15.2763C80.2523 15.163 79.9976 15.0497 79.7641 14.9506H79.9198C71.6759 18.4775 64.2458 21.6575 58.8395 23.9734C56.1647 25.0994 53.9993 26.006 52.4567 26.6575C51.7278 26.955 51.1476 27.1958 50.7159 27.3658C50.3196 27.5216 50.1074 27.5995 50.1003 27.5924C50.0932 27.5782 50.2984 27.4791 50.6876 27.2949C51.1122 27.1037 51.6783 26.8417 52.4001 26.5159C53.9285 25.8431 56.0797 24.8941 58.7333 23.7184C64.1255 21.3742 71.5414 18.1588 79.7712 14.5894L79.849 14.554L79.9268 14.5894C80.1603 14.6956 80.4151 14.8018 80.6698 14.9152C89.0411 18.6121 96.6198 21.962 102.139 24.3983C104.857 25.6164 107.064 26.608 108.628 27.3162C109.364 27.6561 109.952 27.9253 110.383 28.1306C110.567 28.2156 110.716 28.2935 110.836 28.3502C110.928 28.4068 110.978 28.4352 110.978 28.4423Z" fill="#E0E0E0"/>
<path d="M144.533 25.3474H6.34058V128.911H144.533V25.3474Z" fill="#E0E0E0"/>
<path d="M140.224 30.1633H11.1736V124.655H140.224V30.1633Z" fill="#FAFAFA"/>
<path d="M39.677 71.4458C39.677 71.4458 39.8115 87.3101 40.6181 92.1472L60.4954 91.2053C60.4954 91.2053 58.7476 75.6102 59.4199 71.4458H39.677Z" fill="#E0E0E0"/>
<path d="M49.4706 73.6909C49.4706 73.6909 49.4918 73.6838 49.5413 73.6838C49.5979 73.6838 49.6687 73.6767 49.7536 73.6767C49.9447 73.6625 50.2207 73.6767 50.5816 73.7192C50.9354 73.7758 51.3741 73.875 51.8482 74.0946C52.3152 74.3141 52.8035 74.6824 53.221 75.1852C53.6244 75.6951 53.9994 76.3325 54.1763 77.1045C54.3391 77.8694 54.2541 78.7334 53.9711 79.5621C53.8296 79.9799 53.6385 80.3907 53.4121 80.7873C53.1856 81.191 52.9592 81.5876 52.7752 82.0267C52.4002 82.8978 52.103 83.8539 51.9685 84.8525L51.9614 84.9162H51.8977C51.2679 84.9233 50.6099 84.9375 49.9376 84.9446C49.23 84.9587 48.5365 84.9658 47.8784 84.98H47.8076V84.9021C47.7723 83.9035 47.3265 82.9899 46.8523 82.1825C46.6118 81.7717 46.3499 81.3964 46.1093 81.0068C45.8687 80.6244 45.5998 80.2632 45.4088 79.8666C45.0196 79.0734 44.9488 78.1952 45.0974 77.4445C45.239 76.6867 45.4937 75.9997 45.8617 75.4614C46.2367 74.9232 46.7108 74.5478 47.1566 74.2929C47.6095 74.045 48.027 73.9033 48.3808 73.8183C48.7276 73.7334 49.0035 73.6979 49.1946 73.6838C49.2866 73.6767 49.3574 73.6767 49.4069 73.6767C49.4493 73.6838 49.4706 73.6909 49.4706 73.6909C49.4706 73.6909 49.4493 73.6979 49.3998 73.6979C49.3432 73.705 49.2724 73.7121 49.1875 73.7192C49.0035 73.7404 48.7276 73.7829 48.3879 73.875C48.0482 73.9671 47.6307 74.1087 47.192 74.3637C46.7533 74.6186 46.3004 74.9869 45.9395 75.5181C45.5857 76.0422 45.338 76.7221 45.2036 77.4657C45.062 78.2023 45.1328 79.0451 45.5149 79.8099C45.6989 80.1924 45.9678 80.5465 46.2084 80.936C46.449 81.3185 46.7179 81.7009 46.9585 82.1117C47.4397 82.9261 47.8996 83.8539 47.9421 84.9021L47.8643 84.8313C48.5223 84.8171 49.2158 84.81 49.9235 84.7958C50.5957 84.7888 51.2609 84.7746 51.8836 84.7675L51.8128 84.8313C51.9473 83.8043 52.2516 82.8482 52.6337 81.9629C52.8247 81.5238 53.0583 81.106 53.2776 80.7094C53.5041 80.3128 53.688 79.9162 53.8296 79.5054C54.1197 78.6909 54.2046 77.8552 54.0489 77.1116C53.8862 76.375 53.5253 75.7376 53.1361 75.2348C52.7257 74.739 52.2586 74.3778 51.8057 74.1512C51.3458 73.9246 50.9212 73.8254 50.5674 73.7617C50.2136 73.7121 49.9376 73.6909 49.7465 73.6979C49.6616 73.6979 49.5909 73.6909 49.5343 73.6909C49.4989 73.6979 49.4706 73.6909 49.4706 73.6909Z" fill="white"/>
<path d="M50.4896 84.7391C50.4896 84.7391 50.4825 84.7179 50.4754 84.6754C50.4683 84.6329 50.4613 84.5692 50.4471 84.4913C50.4188 84.3284 50.3834 84.0876 50.341 83.783C50.249 83.1669 50.1216 82.2745 50.0296 81.1555C50.0084 80.8793 49.9872 80.5819 49.9801 80.2773C49.973 79.9728 49.9589 79.6541 49.973 79.3283C49.9942 79.0025 50.0438 78.6555 50.1994 78.3297C50.348 78.011 50.6028 77.7135 50.9566 77.5719C51.3033 77.4232 51.7492 77.5011 52.0393 77.7773C52.1808 77.9189 52.2728 78.1172 52.2728 78.3226C52.2728 78.528 52.195 78.7263 52.0676 78.8892C51.9473 79.0592 51.7775 79.1867 51.5864 79.2787C51.4024 79.3708 51.1972 79.4275 50.9991 79.477C50.5886 79.562 50.1711 79.6116 49.7466 79.6258C49.322 79.6328 48.8974 79.6257 48.487 79.562C48.2818 79.5266 48.0766 79.477 47.8855 79.392C47.6944 79.307 47.5246 79.1867 47.3831 79.0379C47.2416 78.8892 47.1354 78.7051 47.093 78.5068C47.0434 78.3085 47.0788 78.096 47.1637 77.9189C47.2486 77.7419 47.3972 77.5861 47.5812 77.5152C47.7652 77.4373 47.9775 77.4586 48.1473 77.5436C48.3171 77.6215 48.4658 77.756 48.5719 77.9048C48.678 78.0535 48.7417 78.2305 48.7842 78.4005C48.8691 78.7476 48.862 79.0875 48.8833 79.4133C48.9186 80.0649 48.9469 80.681 48.9752 81.2334C49.0319 82.3453 49.0743 83.2448 49.1097 83.8751C49.1238 84.1867 49.138 84.4275 49.1451 84.5904C49.1451 84.6683 49.1522 84.7321 49.1522 84.7746C49.1522 84.817 49.1522 84.8383 49.1522 84.8383C49.1522 84.8383 49.1521 84.817 49.1451 84.7746C49.1451 84.7321 49.138 84.6683 49.1309 84.5904C49.1238 84.4204 49.1026 84.1796 49.0885 83.8751C49.0531 83.2519 49.0036 82.3524 48.9328 81.2405C48.9045 80.681 48.8691 80.0719 48.8337 79.4204C48.8125 79.0946 48.8125 78.7546 48.7347 78.4147C48.6922 78.2447 48.6285 78.0818 48.5294 77.9402C48.4304 77.7985 48.2888 77.6781 48.1261 77.6002C47.9633 77.5223 47.7723 77.5082 47.6024 77.579C47.4326 77.6427 47.2982 77.7844 47.2203 77.9543C47.1425 78.1243 47.1142 78.3155 47.1566 78.5068C47.1991 78.6909 47.2982 78.8679 47.4326 79.0096C47.7015 79.3 48.0978 79.4558 48.4941 79.5195C48.8974 79.5833 49.322 79.5903 49.7466 79.5762C50.1711 79.562 50.5886 79.5195 50.992 79.4345C51.1901 79.392 51.3883 79.3354 51.5652 79.2433C51.7421 79.1583 51.9048 79.0308 52.0251 78.875C52.1454 78.7192 52.2162 78.528 52.2162 78.3439C52.2233 78.1526 52.1313 77.9756 52.0039 77.841C51.735 77.579 51.3175 77.5011 50.9849 77.6427C50.6523 77.7773 50.4047 78.0677 50.2561 78.3722C50.1074 78.6838 50.0508 79.0238 50.0367 79.3495C50.0155 79.6753 50.0296 79.994 50.0367 80.2986C50.0438 80.6031 50.065 80.8935 50.0862 81.1697C50.1711 82.2816 50.2985 83.174 50.3764 83.7972C50.4188 84.1017 50.4542 84.3425 50.4754 84.5054C50.4825 84.5833 50.4966 84.6471 50.4966 84.6896C50.4896 84.7179 50.4896 84.7391 50.4896 84.7391Z" fill="white"/>
<path d="M47.8713 84.8454C47.8784 84.8525 47.8996 85.0933 47.9209 85.504C47.9421 85.9856 47.9775 86.5593 48.0128 87.225L47.9987 87.1825C48.395 87.6429 48.8479 88.167 49.3361 88.7265L49.2654 88.6981C49.7536 88.6698 50.2702 88.6415 50.8151 88.6132L50.7514 88.6486C50.999 88.344 51.2609 88.0324 51.5227 87.7066C51.6501 87.5508 51.7845 87.3879 51.9119 87.2392L51.8907 87.3029C51.8694 86.3964 51.8482 85.5395 51.834 84.7533L51.919 84.8312C50.7938 84.8454 49.8173 84.8525 49.0318 84.8666C48.7205 84.8666 48.4445 84.8666 48.1968 84.8666C47.9916 84.8525 47.8784 84.8525 47.8713 84.8454C47.8642 84.8383 47.9633 84.8312 48.1473 84.8171C48.3879 84.8029 48.6568 84.7887 48.9611 84.7746C49.7607 84.7462 50.7584 84.7037 51.9048 84.6613H51.9897V84.7462C52.011 85.5324 52.0393 86.3893 52.0676 87.2959V87.3313L52.0463 87.3596C51.919 87.5154 51.7916 87.6712 51.6571 87.8341C51.3953 88.1528 51.1335 88.4715 50.8858 88.776L50.8575 88.8044H50.8151C50.2773 88.8327 49.7536 88.8539 49.2654 88.8823H49.2229L49.1946 88.8539C48.7134 88.2874 48.2747 87.7562 47.8784 87.2888L47.8642 87.2675V87.2463C47.8572 86.5593 47.8501 85.9715 47.8501 85.4757C47.8643 85.0579 47.8642 84.8383 47.8713 84.8454Z" fill="white"/>
<path d="M51.8695 87.0834C51.8695 87.0905 51.8129 87.0621 51.7209 87.0196C51.6289 86.9771 51.4945 86.9205 51.3176 86.8638C50.9779 86.7434 50.4755 86.6301 49.9235 86.6514C49.3645 86.6655 48.8762 86.8072 48.5437 86.9488C48.3738 87.0196 48.2394 87.0834 48.1545 87.133C48.0625 87.1825 48.0129 87.2109 48.0129 87.2038C48.0129 87.2038 48.0554 87.1684 48.1403 87.1117C48.2252 87.0551 48.3597 86.9842 48.5295 86.9063C48.8621 86.7576 49.3645 86.6018 49.9235 86.5876C50.4896 86.5735 50.9921 86.6868 51.3388 86.8213C51.5086 86.8851 51.6431 86.9488 51.7351 86.9984C51.82 87.055 51.8695 87.0834 51.8695 87.0834Z" fill="white"/>
<path d="M51.8624 86.4673C51.8624 86.4744 51.8058 86.446 51.7138 86.4036C51.6218 86.3611 51.4874 86.3044 51.3105 86.2477C50.9708 86.1273 50.4684 86.0211 49.9165 86.0353C49.3574 86.0494 48.8692 86.1911 48.5366 86.3327C48.3668 86.4036 48.2323 86.4673 48.1474 86.5169C48.0554 86.5664 48.0059 86.5948 48.0059 86.5877C48.0059 86.5877 48.0483 86.5523 48.1332 86.4956C48.2181 86.439 48.3526 86.3681 48.5224 86.2902C48.855 86.1415 49.3574 85.9857 49.9165 85.9715C50.4826 85.9574 50.985 86.0707 51.3317 86.2053C51.5015 86.269 51.636 86.3327 51.728 86.3823C51.82 86.4319 51.8695 86.4673 51.8624 86.4673Z" fill="white"/>
<path d="M51.827 85.8794C51.827 85.8865 51.7704 85.8582 51.6784 85.8157C51.5864 85.7732 51.452 85.7165 51.2751 85.6599C50.9354 85.5395 50.433 85.4261 49.8811 85.4474C49.322 85.4616 48.8338 85.6032 48.5012 85.7448C48.3313 85.8157 48.1969 85.8794 48.112 85.929C48.02 85.9786 47.9705 86.0069 47.9705 85.9998C47.9705 85.9998 48.0129 85.9644 48.0978 85.9077C48.1827 85.8511 48.3172 85.7803 48.487 85.7024C48.8196 85.5536 49.322 85.3978 49.8811 85.3836C50.4472 85.3695 50.9496 85.4828 51.2963 85.6174C51.4661 85.6811 51.6006 85.7448 51.6926 85.7944C51.7846 85.844 51.8341 85.8723 51.827 85.8794Z" fill="white"/>
<path d="M17.5422 45.5176C17.5422 45.5176 17.6767 61.3818 18.4834 66.219L38.3607 65.2771C38.3607 65.2771 36.6128 49.6819 37.2851 45.5176H17.5422Z" fill="#EBEBEB"/>
<path d="M34.2917 52.182C34.2988 52.2883 31.3197 52.5574 27.6329 52.7769C23.9462 52.9965 20.96 53.0886 20.9529 52.9823C20.9458 52.8761 23.9249 52.607 27.6117 52.3874C31.2914 52.1608 34.2846 52.0687 34.2917 52.182Z" fill="white"/>
<path d="M34.2917 55.539C34.2988 55.6453 31.3197 55.9144 27.6329 56.1339C23.9462 56.3535 20.96 56.4456 20.9529 56.3393C20.9458 56.2331 23.9249 55.964 27.6117 55.7444C31.2984 55.5249 34.2846 55.4328 34.2917 55.539Z" fill="white"/>
<path d="M30.9164 58.8392C30.9234 58.9455 29.2251 59.1367 27.1305 59.2642C25.0289 59.3916 23.3235 59.4058 23.3164 59.2996C23.3094 59.1933 25.0077 59.0021 27.1022 58.8746C29.2039 58.7472 30.9093 58.733 30.9164 58.8392Z" fill="white"/>
<path d="M16.6011 92.1826C16.6011 92.1826 16.7355 108.047 17.5422 112.884L37.4195 111.942C37.4195 111.942 35.6717 96.347 36.3439 92.1826H16.6011Z" fill="#EBEBEB"/>
<path d="M33.3505 98.847C33.3576 98.9532 30.3785 99.2224 26.6917 99.4419C23.005 99.6615 20.0188 99.7535 20.0117 99.6473C20.0047 99.5411 22.9838 99.2719 26.6705 99.0524C30.3502 98.8328 33.3435 98.7408 33.3505 98.847Z" fill="white"/>
<path d="M33.3505 102.204C33.3576 102.31 30.3785 102.579 26.6917 102.799C23.005 103.018 20.0188 103.11 20.0117 103.004C20.0047 102.898 22.9838 102.629 26.6705 102.409C30.3573 102.19 33.3435 102.098 33.3505 102.204Z" fill="white"/>
<path d="M29.9752 105.504C29.9823 105.611 28.284 105.802 26.1894 105.929C24.0877 106.057 22.3823 106.071 22.3753 105.965C22.3682 105.859 24.0665 105.667 26.1611 105.54C28.2627 105.412 29.9681 105.398 29.9752 105.504Z" fill="white"/>
<path d="M70.926 49.7173L72.8932 95.4687L129.956 96.1627L127.395 50.3264L70.926 49.7173Z" fill="#EBEBEB"/>
<path d="M126.949 49.3916H70.2607V92.2322H126.949V49.3916Z" fill="#F5F5F5"/>
<path d="M126.949 92.2322C126.949 92.2322 126.935 91.956 126.935 91.439C126.928 90.9078 126.928 90.143 126.913 89.1514C126.906 87.1401 126.892 84.2151 126.871 80.4828C126.85 73.011 126.821 62.3239 126.786 49.3917L126.949 49.5546C110.921 49.5616 91.3621 49.5758 70.2677 49.59H70.2606L70.4588 49.3917C70.4517 64.7956 70.4446 79.385 70.4376 92.2322L70.2606 92.0552C87.0315 92.0906 101.184 92.1189 111.147 92.1402C116.129 92.1614 120.071 92.1756 122.774 92.1897C124.118 92.1968 125.151 92.2039 125.866 92.211C126.213 92.2181 126.475 92.2181 126.666 92.2181C126.85 92.2252 126.949 92.2322 126.949 92.2322C126.949 92.2322 126.864 92.2393 126.694 92.2393C126.51 92.2393 126.248 92.2464 125.916 92.2464C125.208 92.2535 124.189 92.2606 122.859 92.2676C120.163 92.2818 116.235 92.296 111.268 92.3172C101.269 92.3385 87.081 92.3668 70.2677 92.4022H70.0908V92.2251C70.0837 79.3779 70.0767 64.7956 70.0696 49.3846V49.1863H70.2677H70.2748C91.3692 49.2004 110.928 49.2146 126.956 49.2217H127.119V49.3846C127.083 62.3593 127.055 73.0818 127.034 80.5748C127.02 84.293 127.005 87.2038 126.991 89.2081C126.984 90.1855 126.977 90.9433 126.97 91.4673C126.963 91.9773 126.949 92.2322 126.949 92.2322Z" fill="#E0E0E0"/>
<path d="M100.08 58.4712H77.1035V87.4164H100.08V58.4712Z" fill="#F5F5F5"/>
<path d="M100.08 87.4164C100.08 87.4164 100.073 87.3668 100.073 87.2676C100.073 87.1614 100.066 87.0268 100.066 86.8569C100.059 86.4744 100.052 85.9503 100.045 85.2775C100.031 83.8823 100.016 81.871 99.9952 79.3426C99.974 74.2504 99.9457 67.0407 99.9103 58.4783L100.087 58.6553C93.2374 58.6624 85.4039 58.6695 77.1105 58.6766C77.061 58.7191 77.4785 58.3083 77.3016 58.4853V58.4924V58.5066V58.5349V58.5987V58.7261V58.974V59.4769V60.4755C77.3016 61.1412 77.3016 61.7998 77.3016 62.4585C77.3016 63.7758 77.3016 65.0718 77.3016 66.3608C77.3016 68.9317 77.2945 71.4388 77.2945 73.868C77.2874 78.7264 77.2803 83.2874 77.2733 87.4234L77.1105 87.2606C84.0028 87.296 89.7275 87.3243 93.7469 87.3455C95.7424 87.3668 97.3133 87.3809 98.4172 87.388C98.9409 87.3951 99.3513 87.4022 99.6556 87.4093C99.9245 87.4022 100.08 87.4164 100.08 87.4164C100.087 87.4234 99.9528 87.4305 99.6768 87.4376C99.3796 87.4447 98.9833 87.4518 98.4668 87.4589C97.377 87.4659 95.8132 87.4801 93.8318 87.5013C89.7842 87.5226 84.0311 87.5509 77.0893 87.5863H76.9265V87.4234C76.9195 83.2874 76.9124 78.7335 76.9053 73.868C76.9053 71.4388 76.8982 68.9246 76.8982 66.3608C76.8982 65.0789 76.8982 63.7758 76.8982 62.4585C76.8982 61.7998 76.8982 61.1412 76.8982 60.4755V59.4769V58.974V58.7261V58.5987V58.5349V58.4995V58.4853V58.4783C76.7213 58.6482 77.1317 58.2375 77.0964 58.28C85.3898 58.287 93.2232 58.2941 100.073 58.3012H100.25V58.4783C100.215 67.0832 100.186 74.3354 100.165 79.4559C100.144 81.9701 100.13 83.9673 100.116 85.3554C100.108 86.0141 100.101 86.5311 100.094 86.9064C100.087 87.0693 100.087 87.1968 100.087 87.296C100.087 87.3739 100.08 87.4164 100.08 87.4164Z" fill="#E0E0E0"/>
<path d="M122.017 51.842H77.981V56.0135H122.017V51.842Z" fill="#F5F5F5"/>
<path d="M122.017 56.0135C122.01 56.0065 122.01 55.9144 122.003 55.7303C121.995 55.5249 121.988 55.2628 121.981 54.9229C121.974 54.2005 121.953 53.1665 121.939 51.8492L122.017 51.9271C114.587 51.9979 97.6601 52.0404 77.9809 52.0404C78.3701 51.6509 78.0871 51.9342 78.1791 51.8492V51.8563V51.8633V51.8775V51.9129V51.9767V52.1112V52.3804V52.9115C78.1791 53.2656 78.1791 53.6197 78.1791 53.9668C78.1791 54.6679 78.1791 55.3478 78.1791 56.0135L77.988 55.8223C90.3008 55.8577 101.276 55.8861 109.202 55.9073C113.15 55.9286 116.341 55.9498 118.571 55.964C119.66 55.9781 120.509 55.9852 121.118 55.9923C121.394 55.9994 121.613 55.9994 121.783 56.0065C121.932 56.0065 122.017 56.0135 122.017 56.0135C122.024 56.0206 121.953 56.0206 121.804 56.0277C121.642 56.0277 121.429 56.0348 121.16 56.0419C120.566 56.049 119.724 56.056 118.655 56.0702C116.441 56.0844 113.263 56.1056 109.329 56.1269C101.368 56.1481 90.3432 56.1764 77.9739 56.2119H77.7828V56.0135C77.7828 55.3478 77.7828 54.6608 77.7828 53.9668C77.7828 53.6197 77.7828 53.2656 77.7828 52.9115V52.3804V52.1112V51.9767V51.9129V51.8775V51.8633V51.8563V51.8492C77.8677 51.7642 77.5847 52.0404 77.9809 51.6509C97.6601 51.6509 114.594 51.7005 122.017 51.7642H122.095V51.8421C122.073 53.1806 122.059 54.2288 122.052 54.9654C122.045 55.2982 122.038 55.5603 122.031 55.7586C122.031 55.9356 122.024 56.0206 122.017 56.0135Z" fill="#E0E0E0"/>
<path d="M122.024 58.4712H102.896V75.9148H122.024V58.4712Z" fill="#F5F5F5"/>
<path d="M122.017 75.9148C122.009 75.9077 122.002 75.7944 121.995 75.5748C121.988 75.334 121.981 75.0224 121.974 74.6258C121.967 73.7759 121.946 72.579 121.932 71.0705C121.91 68.0039 121.882 63.6696 121.847 58.4641L122.009 58.627C116.483 58.6341 109.916 58.6482 102.882 58.6553C102.84 58.6978 103.25 58.287 103.073 58.4641V58.4712V58.4783V58.4995V58.5349V58.6128V58.7616V59.059V59.6539C103.073 60.0505 103.073 60.4401 103.073 60.8296C103.073 61.6086 103.073 62.3877 103.073 63.1526C103.073 64.6894 103.073 66.1908 103.066 67.6498C103.059 70.5748 103.052 73.351 103.052 75.9077L102.882 75.7377C108.557 75.7731 113.306 75.8015 116.681 75.8227C118.337 75.844 119.66 75.8581 120.594 75.8652C121.026 75.8723 121.373 75.8794 121.641 75.8865C121.889 75.9006 122.009 75.9077 122.017 75.9148C122.024 75.9219 121.91 75.9289 121.684 75.936C121.429 75.9431 121.097 75.9502 120.672 75.9573C119.745 75.9714 118.443 75.9856 116.794 75.9998C113.398 76.021 108.607 76.0493 102.889 76.0848H102.72V75.9148C102.712 73.3581 102.705 70.5818 102.705 67.6569C102.705 66.1908 102.705 64.6894 102.698 63.1596C102.698 62.3948 102.698 61.6157 102.698 60.8367C102.698 60.4471 102.698 60.0505 102.698 59.661V59.0661V58.7686V58.6199V58.542V58.5066V58.4853V58.4783V58.4712C102.521 58.6412 102.932 58.2304 102.896 58.2729C109.93 58.28 116.497 58.2941 122.024 58.3012H122.193V58.4641C122.158 63.7121 122.13 68.0818 122.109 71.1768C122.087 72.6711 122.073 73.8538 122.066 74.6966C122.059 75.0791 122.052 75.3765 122.045 75.6102C122.031 75.8156 122.024 75.9219 122.017 75.9148Z" fill="#E0E0E0"/>
<path d="M122.024 78.6484H102.896V87.4163H122.024V78.6484Z" fill="#F5F5F5"/>
<path d="M122.017 87.4163C122.01 87.4092 121.995 87.1896 121.988 86.7789C121.981 86.3398 121.967 85.7519 121.953 85.0154C121.932 83.4714 121.911 81.3043 121.875 78.6484L122.017 78.7901C117.028 78.8042 110.298 78.8255 102.889 78.8467C102.713 79.0238 103.123 78.6059 103.081 78.6555V78.6626V78.6697V78.6909V78.7263V78.7972V78.9388V79.2292V79.8028C103.081 80.1853 103.081 80.5606 103.081 80.9431C103.081 81.6938 103.081 82.4445 103.081 83.174C103.081 84.64 103.073 86.0635 103.073 87.4233L102.889 87.2392C108.409 87.2746 113.15 87.3029 116.568 87.3242C118.238 87.3454 119.582 87.3596 120.552 87.3738C120.991 87.3808 121.352 87.3879 121.627 87.395C121.882 87.395 122.01 87.4021 122.017 87.4163C122.024 87.4233 121.903 87.4304 121.677 87.4375C121.408 87.4446 121.061 87.4517 120.637 87.4587C119.674 87.4729 118.344 87.4871 116.695 87.5083C113.249 87.5296 108.459 87.5579 102.897 87.5933H102.713V87.4092C102.713 86.0494 102.705 84.6258 102.705 83.1598C102.705 82.4233 102.705 81.6796 102.705 80.9289C102.705 80.5535 102.705 80.1711 102.705 79.7887V79.215V78.9246V78.783V78.7122V78.6767V78.6555V78.6484V78.6413C102.663 78.6838 103.073 78.2731 102.904 78.443C110.313 78.4643 117.042 78.4855 122.031 78.4997H122.172V78.6413C122.144 81.3326 122.116 83.5281 122.095 85.1004C122.08 85.8228 122.066 86.3964 122.059 86.8284C122.038 87.225 122.031 87.4233 122.017 87.4163Z" fill="#E0E0E0"/>
<path d="M99.5139 58.5208C92.4022 68.358 84.2149 77.5791 77.1033 87.4164Z" fill="white"/>
<path d="M77.1033 87.4165C77.0892 87.4094 77.16 87.2961 77.2944 87.0907C77.4572 86.8499 77.6553 86.5595 77.8959 86.2125C78.4195 85.4476 79.205 84.364 80.1957 83.0397C82.17 80.3838 84.9934 76.786 88.1565 72.8483C91.3196 68.9106 94.1784 65.3482 96.2093 62.7348C97.1929 61.46 98.0067 60.4189 98.6082 59.6399C98.87 59.307 99.0894 59.0308 99.2663 58.8042C99.422 58.613 99.5069 58.5209 99.521 58.528C99.5352 58.535 99.4644 58.6484 99.33 58.8538C99.1672 59.0945 98.9691 59.3849 98.7285 59.7319C98.2048 60.4968 97.4194 61.5804 96.4287 62.9048C94.4544 65.5606 91.631 69.1584 88.4608 73.0962C85.2977 77.0268 82.4389 80.5963 80.415 83.2096C79.4314 84.4844 78.6177 85.5255 78.0162 86.3046C77.7544 86.6374 77.535 86.9136 77.3581 87.1403C77.1953 87.3244 77.1104 87.4236 77.1033 87.4165Z" fill="#E0E0E0"/>
<path d="M100.08 87.4093C99.9951 87.473 94.7799 81.0494 88.4396 73.0606C82.0921 65.0648 77.0184 58.5349 77.1033 58.4641C77.1883 58.4004 82.3964 64.824 88.7438 72.8127C95.0913 80.8086 100.165 87.3455 100.08 87.4093Z" fill="#E0E0E0"/>
<path d="M72.8931 58.5277C72.8931 60.5178 71.2868 62.1255 69.2984 62.1255C67.3099 62.1255 65.7036 60.5178 65.7036 58.5277C65.7036 56.5376 67.3099 54.9299 69.2984 54.9299C71.2797 54.9299 72.8931 56.5447 72.8931 58.5277Z" fill="#E0E0E0"/>
<path d="M131.69 49.7953C131.69 51.7854 130.084 53.3931 128.095 53.3931C126.107 53.3931 124.5 51.7854 124.5 49.7953C124.5 47.8052 126.107 46.1975 128.095 46.1975C130.077 46.1975 131.69 47.8123 131.69 49.7953Z" fill="#E0E0E0"/>
<path d="M272.31 74.8595H230.885V134.96H272.31V74.8595Z" fill="#E0E0E0"/>
<path d="M270.237 74.8595H228.812V134.96H270.237V74.8595Z" fill="#F5F5F5"/>
<path d="M265.092 81.368H233.957V128.451H265.092V81.368Z" fill="white"/>
<path d="M265.092 128.444C265.092 128.444 265.085 128.366 265.085 128.21C265.085 128.054 265.085 127.835 265.078 127.544C265.078 126.949 265.071 126.085 265.064 124.959C265.057 122.7 265.05 119.414 265.036 115.264C265.021 106.963 265.007 95.2068 264.986 81.361L265.092 81.4672C255.582 81.4672 245.038 81.4743 233.964 81.4743H233.956L234.07 81.361C234.063 99.1233 234.056 115.497 234.048 128.437L233.956 128.345C243.439 128.366 251.208 128.38 256.615 128.394C259.318 128.401 261.434 128.408 262.877 128.416C263.592 128.423 264.144 128.423 264.519 128.423C264.894 128.437 265.092 128.444 265.092 128.444C265.092 128.444 264.908 128.451 264.54 128.451C264.165 128.451 263.62 128.458 262.913 128.458C261.476 128.465 259.367 128.472 256.671 128.479C251.251 128.493 243.46 128.508 233.956 128.529H233.864V128.437C233.857 115.49 233.85 99.1162 233.843 81.361V81.2477H233.956H233.964C245.038 81.2477 255.582 81.2548 265.092 81.2548H265.198V81.361C265.177 95.2351 265.163 107.013 265.149 115.327C265.135 119.471 265.128 122.75 265.12 125.002C265.113 126.114 265.113 126.978 265.106 127.566C265.106 127.849 265.099 128.068 265.099 128.224C265.092 128.373 265.092 128.444 265.092 128.444Z" fill="#E0E0E0"/>
<path d="M270.35 74.8595C270.371 74.8807 270.095 75.2915 269.614 75.936C269.133 76.5805 268.446 77.4587 267.668 78.4006C266.89 79.3496 266.161 80.1854 265.623 80.7803C265.085 81.3752 264.731 81.7293 264.71 81.708C264.689 81.6868 264.993 81.2973 265.503 80.674C266.055 80.0012 266.741 79.1726 267.498 78.2519C268.255 77.3312 268.935 76.5026 269.494 75.8298C270.003 75.2136 270.329 74.8383 270.35 74.8595Z" fill="#E0E0E0"/>
<path d="M265.248 128.295C266.798 130.753 268.616 133.04 270.676 135.094Z" fill="white"/>
<path d="M270.675 135.087C270.654 135.108 270.286 134.79 269.727 134.223C269.168 133.664 268.432 132.856 267.682 131.914C266.932 130.972 266.302 130.073 265.878 129.407C265.453 128.741 265.22 128.309 265.248 128.295C265.276 128.281 265.552 128.678 266.012 129.322C266.472 129.967 267.109 130.838 267.859 131.78C268.609 132.715 269.324 133.536 269.848 134.124C270.371 134.705 270.704 135.066 270.675 135.087Z" fill="#E0E0E0"/>
<path d="M228.805 134.91C230.616 132.679 232.421 130.441 234.232 128.21Z" fill="white"/>
<path d="M234.233 128.203C234.282 128.246 233.107 129.775 231.607 131.624C230.107 133.472 228.855 134.945 228.805 134.903C228.755 134.86 229.93 133.331 231.43 131.482C232.93 129.634 234.183 128.168 234.233 128.203Z" fill="#E0E0E0"/>
<path d="M228.812 74.8595C228.862 74.8241 230.043 76.2335 231.445 78.0111C232.853 79.7888 233.95 81.2619 233.9 81.3044C233.85 81.3398 232.669 79.9304 231.268 78.1528C229.859 76.3681 228.763 74.895 228.812 74.8595Z" fill="#E0E0E0"/>
<path d="M255.391 90.9221H244.967V120.547H255.391V90.9221Z" fill="#E0E0E0"/>
<path d="M262.767 11.0114L256.837 11.0432L256.995 40.5762L262.925 40.5444L262.767 11.0114Z" fill="#E0E0E0"/>
<path d="M220.818 11.0925L205.462 11.1748L205.549 27.4782L220.905 27.3959L220.818 11.0925Z" fill="#EBEBEB"/>
<path d="M236.096 11.0076L220.74 11.0898L220.827 27.3932L236.183 27.3109L236.096 11.0076Z" fill="#F5F5F5"/>
<path d="M205.481 15.6731C215.686 15.758 225.918 15.7014 236.122 15.5314C236.334 15.5314 236.327 15.2056 236.122 15.2056C225.918 15.149 215.686 15.1985 205.481 15.3898C205.298 15.3968 205.298 15.6731 205.481 15.6731Z" fill="#E0E0E0"/>
<path d="M223.784 27.1216L195.882 27.2712L195.953 40.5576L223.855 40.4079L223.784 27.1216Z" fill="#EBEBEB"/>
<path d="M251.559 26.973L223.657 27.1226L223.728 40.4089L251.63 40.2593L251.559 26.973Z" fill="#F5F5F5"/>
<path d="M195.9 30.9636C214.433 31.1761 233.037 30.9849 251.569 30.6874C251.782 30.6803 251.775 30.3616 251.569 30.3616C233.037 30.2625 214.433 30.2767 195.9 30.6803C195.723 30.6874 195.723 30.9636 195.9 30.9636Z" fill="#E0E0E0"/>
<path d="M293.567 40.5601H185.47V45.3193H293.567V40.5601Z" fill="#E0E0E0"/>
<path d="M207.555 42.8477H203.167V59.0873H207.555V42.8477Z" fill="#E0E0E0"/>
<path d="M273.06 42.8477H268.673V59.0873H273.06V42.8477Z" fill="#E0E0E0"/>
<path d="M268.554 -0.00152465L262.624 0.0302734L262.841 40.647L268.771 40.6152L268.554 -0.00152465Z" fill="#EBEBEB"/>
<path d="M277.816 7.56068L268.603 7.61011L268.779 40.5284L277.992 40.479L277.816 7.56068Z" fill="#F5F5F5"/>
<path d="M277.752 13.9026C277.752 13.9876 275.685 14.0655 273.145 14.0655C270.598 14.0655 268.538 13.9947 268.538 13.9026C268.538 13.8106 270.598 13.7397 273.145 13.7397C275.685 13.7397 277.752 13.8177 277.752 13.9026Z" fill="#E0E0E0"/>
<path d="M277.752 12.5215C277.752 12.6065 275.685 12.6844 273.145 12.6844C270.598 12.6844 268.538 12.6136 268.538 12.5215C268.538 12.4365 270.598 12.3586 273.145 12.3586C275.685 12.3586 277.752 12.4295 277.752 12.5215Z" fill="#E0E0E0"/>
<path d="M277.752 35.5247C277.752 35.6097 275.685 35.6876 273.145 35.6876C270.598 35.6876 268.538 35.6168 268.538 35.5247C268.538 35.4397 270.598 35.3618 273.145 35.3618C275.685 35.3618 277.752 35.4397 277.752 35.5247Z" fill="#E0E0E0"/>
<path d="M277.752 34.1436C277.752 34.2286 275.685 34.3065 273.145 34.3065C270.598 34.3065 268.538 34.2357 268.538 34.1436C268.538 34.0586 270.598 33.9807 273.145 33.9807C275.685 33.9807 277.752 34.0515 277.752 34.1436Z" fill="#E0E0E0"/>
<path d="M273.294 31.1266C273.209 31.1266 273.131 27.8051 273.131 23.7115C273.131 19.618 273.202 16.2964 273.294 16.2964C273.379 16.2964 273.456 19.618 273.456 23.7115C273.449 27.8051 273.379 31.1266 273.294 31.1266Z" fill="#E0E0E0"/>
<path d="M287.878 15.6448H277.851V40.4893H287.878V15.6448Z" fill="#EBEBEB"/>
<path d="M283.151 34.0444C281.834 34.0444 280.907 33.1025 280.907 31.8064C280.907 31.1053 281.176 30.4962 281.721 30.1279L281.948 30.4395C281.502 30.7582 281.29 31.254 281.29 31.7993C281.29 32.8404 282.033 33.6053 283.151 33.6053C284.269 33.6053 285.012 32.8404 285.012 31.7993C285.012 31.2469 284.799 30.7582 284.354 30.4395L284.58 30.1279C285.111 30.4891 285.394 31.1053 285.394 31.8064C285.387 33.1096 284.46 34.0444 283.151 34.0444Z" fill="#FAFAFA"/>
<path d="M284.821 29.5189L284.481 29.3206C284.771 28.9807 285.012 28.3787 285.012 27.7271C285.012 26.7922 284.679 26.424 284.184 26.424C282.896 26.424 283.844 29.356 282.11 29.356C281.445 29.356 280.9 28.7965 280.9 27.6775C280.9 27.118 281.07 26.5089 281.332 26.1619L281.672 26.3602C281.403 26.7356 281.275 27.2172 281.275 27.6917C281.275 28.5557 281.629 28.9382 282.103 28.9382C283.434 28.9382 282.493 26.0061 284.177 26.0061C284.898 26.0061 285.387 26.6223 285.387 27.7483C285.387 28.4778 285.146 29.1719 284.821 29.5189Z" fill="#FAFAFA"/>
<path d="M284.821 25.475L284.481 25.2837C284.771 24.9438 285.012 24.3418 285.012 23.6902C285.012 22.7625 284.679 22.3871 284.184 22.3871C282.896 22.3871 283.844 25.3191 282.11 25.3191C281.445 25.3191 280.9 24.7596 280.9 23.6407C280.9 23.0812 281.07 22.4721 281.332 22.125L281.672 22.3163C281.403 22.6916 281.275 23.1732 281.275 23.6477C281.275 24.5118 281.629 24.8942 282.103 24.8942C283.434 24.8942 282.493 21.9622 284.177 21.9622C284.898 21.9622 285.387 22.5783 285.387 23.7044C285.387 24.4339 285.146 25.1279 284.821 25.475Z" fill="#FAFAFA"/>
<path d="M265.495 8.64021C266.437 8.64021 267.201 7.87604 267.201 6.93339C267.201 5.99073 266.437 5.22656 265.495 5.22656C264.554 5.22656 263.79 5.99073 263.79 6.93339C263.79 7.87604 264.554 8.64021 265.495 8.64021Z" fill="#E0E0E0"/>
<path d="M266.019 11.6292H264.965V35.7938H266.019V11.6292Z" fill="#E0E0E0"/>
<path d="M306 292.731C306 292.83 237.65 292.915 153.357 292.915C69.0364 292.915 0.700684 292.83 0.700684 292.731C0.700684 292.632 69.0364 292.547 153.357 292.547C237.65 292.547 306 292.632 306 292.731Z" fill="#010E41"/>
<path d="M96.082 49.2571C84.7245 67.1327 85.4676 91.9206 97.8794 109.081C106.152 120.526 118.556 128.189 128.406 138.302C138.257 148.409 145.743 163.31 140.542 176.44C135.249 189.804 119.745 195.244 108.133 203.707C95.4876 212.928 86.6068 227.17 83.8825 242.588C81.1581 258.007 84.6325 274.437 93.3576 287.433H213.952C213.952 287.433 235.138 247.029 207.902 216.235C180.665 185.442 166.038 184.939 167.043 164.747C168.055 144.556 182.172 137.991 190.246 130.42C198.313 122.849 237.657 105.179 214.454 49.2571H96.082Z" fill="#FAFAFA"/>
<path d="M96.0819 49.2571C96.0819 49.2571 96.7825 49.243 98.1553 49.243C99.5351 49.2359 101.58 49.2359 104.269 49.2288C109.654 49.2217 117.587 49.2075 127.805 49.1934C148.262 49.1792 177.863 49.158 214.461 49.1296H214.553L214.581 49.2075C216.23 53.3932 217.893 57.7062 219.075 62.2743C220.292 66.8211 221.283 71.5662 221.637 76.4742C222.004 81.3752 221.849 86.439 220.872 91.4674C219.867 96.4816 218.07 101.446 215.424 106.043C214.107 108.344 212.558 110.533 210.881 112.636C209.189 114.733 207.314 116.701 205.326 118.585C203.337 120.462 201.221 122.233 199.021 123.925C196.827 125.625 194.534 127.233 192.298 128.925C191.18 129.768 190.154 130.717 189.086 131.666C188.01 132.601 186.906 133.501 185.795 134.386C183.566 136.171 181.316 137.955 179.193 139.903C174.905 143.741 171.282 148.536 169.286 154.124C168.317 156.907 167.623 159.825 167.404 162.814C167.347 163.558 167.241 164.301 167.22 165.052C167.206 165.803 167.163 166.553 167.199 167.304C167.206 168.806 167.376 170.314 167.651 171.794C168.218 174.762 169.463 177.602 171.275 180.059C173.058 182.545 175.251 184.734 177.53 186.837C182.108 191.03 186.963 195.024 191.619 199.344C196.296 203.636 200.832 208.169 205.205 212.935C207.378 215.329 209.579 217.73 211.475 220.4C213.435 223.02 215.084 225.874 216.527 228.835C219.379 234.784 221.141 241.307 221.721 247.978C222.344 254.65 221.87 261.449 220.547 268.099C219.896 271.427 219.025 274.728 217.957 277.971C216.888 281.215 215.657 284.416 214.129 287.504L214.079 287.603H213.966C212.989 287.603 211.928 287.603 210.859 287.603C169.689 287.603 129.97 287.596 93.3717 287.596H93.2797L93.2302 287.518C87.4842 278.885 84.0734 268.97 83.1323 259.026C82.1345 249.083 83.663 239.118 87.3073 230.265C90.9021 221.384 96.4923 213.601 103.25 207.475C106.618 204.387 110.369 201.866 114.134 199.528C117.898 197.191 121.698 195.024 125.286 192.659C128.859 190.286 132.305 187.758 135.101 184.67C137.91 181.603 140.054 178.005 141.172 174.131C142.297 170.257 142.311 166.192 141.653 162.368C140.981 158.529 139.636 154.896 137.924 151.553C136.212 148.203 134.131 145.13 131.853 142.325C129.581 139.513 127.055 137.013 124.507 134.655C119.405 129.952 114.176 125.838 109.477 121.609C107.121 119.499 104.892 117.374 102.84 115.186C100.802 112.983 98.9336 110.731 97.3344 108.394C94.1076 103.734 91.8927 98.8187 90.435 94.0807C88.9773 89.3356 88.2555 84.7463 88.0857 80.5253C87.9866 79.47 88.0291 78.436 88.0291 77.4303C88.0432 76.4247 88.0149 75.4331 88.114 74.477C88.1848 73.5209 88.2626 72.5861 88.3263 71.6725C88.4324 70.7659 88.5881 69.8877 88.7084 69.0379C89.7698 62.2035 91.829 57.2034 93.4354 54.0093C93.8175 53.1949 94.1571 52.4795 94.5251 51.9059C94.8719 51.3181 95.1549 50.8223 95.3884 50.4257C95.8413 49.6537 96.0819 49.2571 96.0819 49.2571C96.0324 49.3421 95.8342 49.6891 95.3955 50.4682C95.1691 50.8648 94.886 51.3605 94.5463 51.9484C94.1855 52.522 93.8529 53.2373 93.4707 54.0518C91.8857 57.253 89.8477 62.246 88.8004 69.0733C88.6801 69.9231 88.5315 70.8013 88.4254 71.7079C88.3546 72.6144 88.2909 73.5493 88.2201 74.5054C88.1211 75.4615 88.1494 76.4459 88.1423 77.4516C88.1423 78.4573 88.1069 79.4913 88.206 80.5394C88.3829 84.7463 89.1118 89.3214 90.5765 94.0524C92.0343 98.7763 94.2491 103.663 97.4759 108.302C99.0752 110.625 100.936 112.87 102.974 115.065C105.026 117.247 107.255 119.364 109.612 121.468C114.31 125.682 119.54 129.789 124.663 134.499C127.21 136.858 129.751 139.365 132.044 142.19C134.336 145.009 136.424 148.09 138.15 151.461C139.87 154.825 141.236 158.473 141.915 162.347C142.58 166.206 142.58 170.314 141.441 174.238C140.309 178.154 138.136 181.802 135.313 184.896C132.489 188.02 129.029 190.562 125.449 192.942C121.847 195.322 118.054 197.489 114.296 199.826C110.539 202.163 106.81 204.67 103.462 207.744C96.7471 213.835 91.1851 221.59 87.6187 230.421C83.9956 239.224 82.4813 249.133 83.479 259.019C84.4202 268.906 87.8168 278.765 93.5274 287.348L93.3788 287.27C129.984 287.27 169.704 287.263 210.866 287.263C211.928 287.263 212.989 287.263 213.973 287.263L213.81 287.363C215.324 284.31 216.556 281.109 217.617 277.887C218.679 274.657 219.542 271.371 220.193 268.056C221.509 261.434 221.983 254.671 221.361 248.042C220.787 241.413 219.04 234.933 216.202 229.026C214.765 226.087 213.131 223.247 211.185 220.648C209.303 217.999 207.109 215.605 204.944 213.218C200.577 208.459 196.049 203.934 191.385 199.642C186.743 195.329 181.896 191.334 177.304 187.127C175.025 185.017 172.81 182.814 171.006 180.293C169.173 177.8 167.906 174.896 167.333 171.886C167.057 170.378 166.887 168.855 166.873 167.34C166.838 166.582 166.88 165.824 166.894 165.066C166.923 164.308 167.022 163.558 167.085 162.807C167.312 159.797 168.012 156.851 168.996 154.032C171.013 148.395 174.678 143.543 178.995 139.683C181.132 137.722 183.389 135.93 185.618 134.152C186.736 133.26 187.833 132.367 188.902 131.44C189.949 130.505 191.003 129.534 192.128 128.685C194.379 126.985 196.664 125.384 198.851 123.685C201.045 121.999 203.153 120.235 205.135 118.366C207.109 116.496 208.977 114.534 210.661 112.452C212.324 110.356 213.867 108.181 215.183 105.901C217.815 101.34 219.606 96.4037 220.61 91.4249C221.587 86.4319 221.743 81.3893 221.382 76.5096C221.035 71.6158 220.044 66.8919 218.841 62.3593C217.667 57.8054 216.011 53.4994 214.369 49.3209L214.489 49.3988C177.912 49.3704 148.326 49.3492 127.883 49.335C117.658 49.3209 109.718 49.3067 104.333 49.2996C101.644 49.2925 99.5847 49.2854 98.2048 49.2854C96.7895 49.2713 96.0819 49.2571 96.0819 49.2571Z" fill="#010E41"/>
<path d="M209.649 82.0479C227.411 84.9728 199.403 116.453 183.552 128.876C174.374 136.071 164.517 143.869 160.158 154.691C155.211 166.971 158.877 180.767 156.478 193.119C156.082 195.173 153.053 194.847 153.081 192.758C153.202 184.649 152.982 176.546 151.638 168.565C149.734 157.247 145.382 146.05 137.457 137.75C130.989 130.979 122.505 126.475 115.598 120.15C105.522 110.908 95.1691 98.9886 94.1572 85.3411C94.1572 85.3411 113.504 69.746 124.246 71.7149C136.799 74.0166 149.154 93.4007 168.6 91.1769C182.193 89.633 189.043 78.6555 209.649 82.0479Z" fill="#754BDD"/>
<path d="M211.227 250.563C210.782 246.115 209.593 241.087 205.651 238.991C203.267 237.723 200.358 237.865 197.74 238.552C195.122 239.239 192.666 240.428 190.076 241.2C184.974 242.716 179.384 242.539 174.388 240.705C169.569 238.934 165.43 235.733 160.957 233.212C156.485 230.69 151.242 228.821 146.26 230.06C137.669 232.199 133.197 242.553 124.706 245.053C120.934 246.165 116.879 245.542 113.037 244.671C109.201 243.8 105.345 242.681 101.417 242.829C98.3393 242.943 95.1337 244.012 92.9684 246.123L92.9896 246.094C92.9684 246.115 92.9472 246.137 92.9259 246.165C92.5721 246.519 92.2466 246.895 91.9494 247.305C89.317 250.818 88.8925 255.549 89.7062 259.841C90.612 264.65 92.8552 269.09 95.2611 273.347C98.0987 278.361 101.318 283.354 106.003 286.697C111.784 290.819 119.059 287.972 126.135 288.531C142.644 289.834 160.413 290.727 176.922 289.445C185.647 288.765 193.82 289.714 200.74 284.36C205.609 280.592 208.779 274.912 210.307 268.942C211.85 262.964 211.843 256.696 211.227 250.563Z" fill="#754BDD"/>
<g opacity="0.24">
<path d="M180.063 242.05C179.129 243.481 178.733 245.393 179.632 246.845C180.53 248.297 181.747 249.614 182.137 251.278C182.752 253.885 181.181 256.441 180.007 258.849C177.912 263.162 176.964 268.077 177.664 272.823C178.372 277.568 180.799 282.093 184.592 285.025C186.269 286.321 188.449 287.327 190.472 286.69C192.376 286.095 193.607 284.161 193.982 282.199C194.357 280.238 194.046 278.219 193.798 276.243C192.645 267.051 192.878 257.688 194.499 248.566C194.768 247.043 195.03 245.301 194.06 244.09C193.444 243.318 192.461 242.957 191.52 242.638C187.847 241.413 183.877 242.773 180.063 242.05Z" fill="#010E41"/>
</g>
<path d="M84.5121 292.922C84.5121 292.922 84.1796 287.384 91.3974 284.296H218.24C218.24 284.296 224.856 287.646 225.67 292.802L84.5121 292.922Z" fill="#010E41"/>
<path d="M215.551 49.9369C215.487 49.9653 215.417 50.0007 215.353 50.029L96.082 49.2641C96.082 49.2641 95.6574 48.995 95.0276 48.4992C91.631 45.8363 93.5345 40.3759 97.8511 40.4113L213.612 41.3462C218.389 41.3745 219.875 47.8902 215.551 49.9369Z" fill="#010E41"/>
<g opacity="0.24">
<path d="M196.466 95.4687C196.707 95.9291 195.808 96.9277 194.103 98.4433C192.39 99.9659 189.885 102.048 186.701 104.619C183.502 107.169 179.625 110.235 174.685 113.104C172.209 114.534 169.456 115.83 166.449 116.885C164.934 117.395 163.363 117.87 161.715 118.196C160.073 118.55 158.36 118.783 156.598 118.861C153.089 119.06 149.515 118.55 146.317 117.452C143.139 116.347 140.422 114.789 138.051 113.231C135.674 111.652 133.622 110.094 131.69 108.606C129.765 107.112 128.01 105.674 126.446 104.314C120.184 98.8823 116.886 94.888 117.523 94.116C118.181 93.3157 122.618 95.8582 129.525 100.108C131.251 101.17 133.141 102.331 135.171 103.578C137.195 104.81 139.375 106.177 141.597 107.438C143.826 108.698 146.154 109.846 148.567 110.589C150.966 111.305 153.52 111.645 156.238 111.496C161.672 111.22 166.944 109.3 171.508 107.098C176.101 104.853 180.205 102.303 183.786 100.299C187.359 98.2733 190.423 96.7718 192.645 95.9715C194.867 95.1712 196.233 95.0296 196.466 95.4687Z" fill="#010E41"/>
</g>
<path d="M153.174 207.921C154.483 207.46 156.046 208.778 155.82 210.145C155.587 211.512 153.676 212.248 152.593 211.384C151.511 210.52 151.794 208.495 153.074 207.963" fill="#754BDD"/>
<path d="M110.511 115.228C110.503 115.235 110.355 115.094 110.086 114.803C109.803 114.492 109.414 114.067 108.933 113.536C108.444 112.976 107.8 112.325 107.142 111.489C106.477 110.66 105.72 109.718 104.892 108.684C104.121 107.594 103.25 106.425 102.373 105.122C101.955 104.456 101.524 103.769 101.078 103.061C100.858 102.707 100.625 102.353 100.413 101.977C100.207 101.602 100.002 101.22 99.79 100.83C98.0492 97.7634 96.4995 94.1656 95.3956 90.2421C94.2917 86.3114 93.7751 82.4303 93.7256 78.8963C93.7256 78.011 93.768 77.1541 93.7893 76.3184C93.8105 75.9005 93.8034 75.4897 93.8459 75.086C93.8883 74.6823 93.9308 74.2857 93.9733 73.8962C94.0653 73.1172 94.1219 72.3594 94.228 71.637C94.3554 70.9217 94.4828 70.2347 94.603 69.576C94.8083 68.2517 95.155 67.0973 95.4027 66.0703C95.5371 65.5604 95.6433 65.0788 95.7777 64.6468C95.9192 64.2219 96.0466 63.8252 96.1669 63.4641C96.3933 62.7842 96.5773 62.2388 96.7118 61.8351C96.8392 61.4669 96.9099 61.2756 96.9241 61.2756C96.9382 61.2827 96.8887 61.481 96.7825 61.8564C96.6623 62.2672 96.5066 62.8125 96.3014 63.4995C96.1952 63.8607 96.0749 64.2573 95.9475 64.6822C95.8202 65.1142 95.7282 65.6029 95.6008 66.1128C95.3673 67.1397 95.0418 68.3012 94.8578 69.6185C94.7446 70.2772 94.6314 70.9571 94.5111 71.6724C94.412 72.3877 94.3625 73.1455 94.2775 73.9175C94.2422 74.307 94.1997 74.7036 94.1572 75.1002C94.1219 75.5039 94.1289 75.9147 94.1148 76.3254C94.1006 77.1541 94.0582 78.011 94.0652 78.8892C94.1289 82.3949 94.6526 86.2406 95.7494 90.1429C96.8462 94.0382 98.3747 97.6076 100.087 100.667C100.292 101.057 100.498 101.439 100.703 101.814C100.908 102.19 101.142 102.537 101.361 102.898C101.8 103.606 102.224 104.293 102.635 104.959C103.498 106.262 104.354 107.438 105.111 108.528C105.925 109.577 106.661 110.519 107.312 111.361C107.949 112.204 108.579 112.863 109.046 113.444C109.506 113.996 109.874 114.428 110.15 114.754C110.397 115.051 110.525 115.214 110.511 115.228Z" fill="#010E41"/>
<path d="M103.795 220.442C103.788 220.442 103.838 220.357 103.93 220.209C104.036 220.046 104.17 219.826 104.347 219.543C104.538 219.245 104.772 218.884 105.041 218.466C105.182 218.254 105.331 218.027 105.486 217.779C105.663 217.546 105.861 217.312 106.067 217.05C106.484 216.54 106.951 215.973 107.454 215.35C107.998 214.762 108.621 214.153 109.279 213.487C110.624 212.184 112.244 210.796 114.141 209.394C117.898 206.547 122.745 203.714 127.996 200.407C130.6 198.728 133.346 196.957 135.943 194.804C138.54 192.666 141.045 190.201 143.076 187.262C147.074 181.313 148.694 174.422 148.843 168.26C149.006 162.056 147.682 156.525 146.133 152.12C144.562 147.7 142.757 144.329 141.448 142.063C140.79 140.923 140.252 140.059 139.884 139.471C139.707 139.188 139.573 138.968 139.467 138.805C139.375 138.656 139.332 138.571 139.332 138.571C139.339 138.564 139.396 138.642 139.495 138.784C139.608 138.947 139.757 139.159 139.941 139.435C140.33 140.009 140.889 140.866 141.568 141.992C142.92 144.244 144.767 147.601 146.38 152.035C147.972 156.454 149.331 162.014 149.19 168.274C149.161 169.832 149.034 171.433 148.8 173.048C148.574 174.67 148.234 176.306 147.767 177.942C146.854 181.214 145.397 184.471 143.394 187.474C141.342 190.456 138.809 192.942 136.19 195.088C133.572 197.255 130.819 199.018 128.201 200.697C122.929 203.99 118.082 206.795 114.318 209.606C112.428 210.995 110.801 212.354 109.449 213.636C108.791 214.295 108.161 214.89 107.616 215.47C107.107 216.08 106.633 216.639 106.208 217.142C105.996 217.397 105.791 217.623 105.614 217.857C105.451 218.098 105.295 218.325 105.154 218.53C104.871 218.941 104.63 219.295 104.432 219.585C104.241 219.854 104.092 220.067 103.979 220.23C103.859 220.371 103.802 220.442 103.795 220.442Z" fill="#010E41"/>
<path d="M97.2141 232.957C97.2283 232.964 97.1716 233.077 97.0584 233.282C96.924 233.523 96.7541 233.821 96.556 234.182C96.3296 234.564 96.0607 235.046 95.7847 235.62C95.5087 236.193 95.1549 236.824 94.8577 237.567C94.6949 237.935 94.5322 238.318 94.3624 238.722C94.1925 239.125 94.051 239.557 93.8882 239.996C93.5415 240.868 93.2726 241.838 92.9683 242.851C92.4235 244.89 91.9706 247.171 91.73 249.6C91.5177 252.029 91.5531 254.359 91.7158 256.463C91.8361 257.511 91.921 258.517 92.105 259.437C92.1899 259.898 92.2465 260.351 92.3385 260.776C92.4376 261.201 92.5296 261.604 92.6216 262.001C92.7773 262.787 93.0108 263.474 93.1806 264.083C93.3434 264.699 93.5203 265.216 93.676 265.634C93.8104 266.024 93.9165 266.35 94.0085 266.612C94.0793 266.838 94.1147 266.959 94.1005 266.966C94.0864 266.973 94.0368 266.859 93.9378 266.64C93.8316 266.385 93.6972 266.066 93.5415 265.684C93.3646 265.266 93.1665 264.756 92.9825 264.14C92.7914 263.531 92.5437 262.844 92.3668 262.058C92.2678 261.668 92.1687 261.257 92.0626 260.832C91.9564 260.407 91.8927 259.954 91.8007 259.487C91.6026 258.559 91.5035 257.546 91.3762 256.491C91.1922 254.366 91.1497 252.015 91.362 249.565C91.6026 247.114 92.0696 244.812 92.6357 242.758C92.9542 241.739 93.2372 240.768 93.5981 239.89C93.775 239.451 93.9165 239.012 94.1005 238.615C94.2845 238.219 94.4543 237.829 94.6242 237.468C94.9426 236.724 95.3106 236.094 95.6078 235.535C95.8979 234.968 96.188 234.501 96.4357 234.118C96.6621 233.771 96.8461 233.481 97.0018 233.247C97.1292 233.049 97.207 232.95 97.2141 232.957Z" fill="#010E41"/>
<path d="M184.705 249.975C184.705 249.982 184.663 250.018 184.564 250.082C184.444 250.152 184.302 250.244 184.125 250.358C183.708 250.606 183.134 250.953 182.406 251.392C182.031 251.618 181.613 251.859 181.16 252.128C180.693 252.383 180.177 252.624 179.625 252.907C178.514 253.446 177.275 254.133 175.818 254.678C175.096 254.975 174.339 255.287 173.553 255.606C172.768 255.924 171.911 256.165 171.048 256.47C169.329 257.1 167.418 257.546 165.43 258.07C161.41 258.963 156.917 259.621 152.162 259.777C147.406 259.876 142.877 259.451 138.816 258.771C136.799 258.354 134.874 258.007 133.119 257.468C132.242 257.213 131.378 257.015 130.572 256.739C129.772 256.456 129.001 256.186 128.265 255.931C126.779 255.457 125.512 254.841 124.373 254.359C123.807 254.111 123.276 253.892 122.795 253.665C122.328 253.417 121.903 253.198 121.514 252.992C120.764 252.596 120.177 252.277 119.745 252.05C119.561 251.951 119.412 251.866 119.292 251.795C119.193 251.739 119.144 251.703 119.144 251.696C119.144 251.689 119.2 251.71 119.313 251.76C119.441 251.817 119.596 251.895 119.787 251.98C120.226 252.192 120.828 252.49 121.585 252.858C121.974 253.049 122.406 253.269 122.88 253.502C123.361 253.722 123.899 253.927 124.465 254.168C125.611 254.628 126.878 255.223 128.364 255.684C129.1 255.931 129.864 256.194 130.671 256.47C131.47 256.739 132.334 256.93 133.211 257.178C134.959 257.702 136.877 258.035 138.886 258.439C142.927 259.097 147.427 259.508 152.162 259.416C156.888 259.267 161.361 258.623 165.366 257.752C167.347 257.242 169.251 256.81 170.97 256.194C171.834 255.903 172.683 255.662 173.468 255.358C174.254 255.046 175.011 254.742 175.726 254.458C177.183 253.927 178.422 253.261 179.54 252.744C180.092 252.475 180.615 252.242 181.082 251.994C181.542 251.739 181.96 251.498 182.342 251.286C183.078 250.875 183.665 250.549 184.09 250.315C184.274 250.216 184.429 250.138 184.55 250.067C184.649 249.997 184.698 249.968 184.705 249.975Z" fill="#010E41"/>
<path d="M192.086 100.086C192.093 100.093 192.036 100.136 191.937 100.228C191.817 100.327 191.661 100.455 191.47 100.61C191.039 100.957 190.43 101.439 189.666 102.055C188.088 103.302 185.816 105.108 182.936 107.261C180.056 109.399 176.561 111.892 172.414 114.223C170.319 115.342 168.083 116.489 165.635 117.346C163.193 118.21 160.561 118.868 157.808 119.088C152.282 119.463 147.038 118.061 142.778 115.958C140.648 114.888 138.724 113.691 136.969 112.502C135.242 111.283 133.664 110.101 132.27 108.967C129.468 106.715 127.274 104.81 125.746 103.507C125.003 102.863 124.415 102.36 123.998 101.991C123.814 101.829 123.665 101.694 123.552 101.588C123.453 101.496 123.404 101.446 123.411 101.439C123.418 101.432 123.474 101.474 123.58 101.559C123.701 101.659 123.856 101.779 124.055 101.935C124.486 102.282 125.088 102.771 125.845 103.394C127.402 104.669 129.616 106.538 132.433 108.762C133.834 109.881 135.419 111.043 137.146 112.247C138.894 113.415 140.811 114.598 142.927 115.653C147.159 117.721 152.331 119.088 157.787 118.72C160.497 118.507 163.094 117.856 165.515 117.006C167.942 116.163 170.164 115.03 172.251 113.925C176.391 111.623 179.886 109.159 182.788 107.048C185.682 104.924 187.982 103.153 189.581 101.942C190.366 101.354 190.989 100.887 191.428 100.554C191.626 100.405 191.789 100.292 191.916 100.2C192.022 100.122 192.079 100.079 192.086 100.086Z" fill="#010E41"/>
<g opacity="0.24">
<path d="M128.265 255.924C131.619 253.332 136.332 253.963 140.471 254.834C144.618 255.705 148.793 257.121 152.989 256.533C156.153 256.087 159.054 254.536 162.174 253.856C165.295 253.176 169.081 253.679 170.808 256.363C157.087 260.839 141.894 260.676 128.265 255.924Z" fill="#010E41"/>
</g>
<path d="M20.5781 274.197C20.571 274.19 20.6134 274.09 20.7054 273.899C20.8045 273.687 20.9389 273.403 21.1088 273.042C21.4484 272.284 21.8942 271.144 22.2834 269.614C23.0618 266.569 23.3378 261.916 22.1844 256.385C21.6466 253.616 20.7833 250.648 19.736 247.504C18.6958 244.352 17.4928 241.002 16.5092 237.39C15.5327 233.785 14.7684 229.869 14.917 225.761C15.0656 221.646 16.2827 217.539 17.6202 213.452C18.9576 209.359 20.3375 205.357 20.7479 201.334C21.2149 197.319 20.3587 193.374 18.5259 190.144C16.7569 186.879 14.5278 184.082 12.8578 181.192C11.1666 178.31 10.1051 175.342 9.45412 172.587C8.18747 167.028 8.63327 162.339 9.23476 159.252C9.89285 156.15 10.6217 154.542 10.6217 154.542C10.6288 154.542 10.6005 154.648 10.5368 154.853C10.466 155.073 10.374 155.378 10.2537 155.753C10.0061 156.546 9.68764 157.729 9.39044 159.28C8.83849 162.361 8.44221 167.014 9.73718 172.517C10.4023 175.243 11.4638 178.168 13.155 181.015C14.818 183.877 17.0541 186.653 18.8656 189.96C20.7337 193.225 21.6324 197.297 21.1583 201.384C20.7408 205.477 19.3468 209.507 18.0164 213.594C16.679 217.68 15.476 221.738 15.3204 225.782C15.1718 229.826 15.9148 233.7 16.8772 237.291C17.8466 240.889 19.0354 244.239 20.0615 247.397C21.1017 250.556 21.9509 253.545 22.4745 256.335C23.5996 261.902 23.2741 266.604 22.4391 269.657C22.0145 271.187 21.5475 272.327 21.1795 273.078C20.9956 273.432 20.847 273.708 20.7408 273.92C20.6417 274.112 20.5851 274.204 20.5781 274.197Z" fill="#010E41"/>
<path d="M15.1222 184.047C15.1222 184.047 11.7326 173.211 17.8112 166.865C18.0235 166.645 18.3985 166.745 18.4551 167.049C18.7806 168.841 19.184 174.287 15.1222 184.047Z" fill="#E95226"/>
<path d="M17.1532 170.47C17.2098 170.484 17.1107 171.242 16.9267 172.467C16.7073 173.841 16.4455 175.463 16.1554 177.248C15.8723 179.032 15.6176 180.654 15.3982 182.028C15.2143 183.253 15.101 184.011 15.0373 184.004C14.9807 183.997 14.9878 183.232 15.101 181.993C15.2143 180.753 15.4336 179.054 15.7379 177.184C16.0422 175.314 16.3677 173.629 16.6366 172.418C16.8913 171.206 17.0965 170.463 17.1532 170.47Z" fill="#010E41"/>
<path d="M19.0991 209.606C19.0991 209.606 21.1725 198.438 29.5083 195.676C29.7985 195.576 30.0815 195.846 29.9895 196.143C29.4376 197.878 27.251 202.885 19.0991 209.606Z" fill="#FFD11C"/>
<path d="M27.2369 198.558C27.2793 198.593 26.8406 199.224 26.0976 200.222C25.2555 201.334 24.2719 202.645 23.1821 204.089C22.0995 205.534 21.1159 206.844 20.2809 207.963C19.5449 208.962 19.0921 209.578 19.0425 209.543C18.993 209.514 19.3609 208.834 20.0403 207.793C20.7196 206.752 21.7103 205.35 22.8496 203.841C23.9959 202.333 25.0715 200.994 25.8711 200.045C26.6637 199.089 27.1873 198.523 27.2369 198.558Z" fill="#010E41"/>
<path d="M16.849 237.617C16.849 237.617 15.5894 226.328 22.7647 221.264C23.0195 221.087 23.3662 221.264 23.3592 221.568C23.3379 223.388 22.694 228.821 16.849 237.617Z" fill="#FFD11C"/>
<path d="M21.4272 224.685C21.4838 224.706 21.2432 225.435 20.8257 226.604C20.3445 227.914 19.7784 229.451 19.1557 231.151C18.5401 232.85 17.974 234.387 17.4999 235.697C17.0824 236.866 16.8276 237.588 16.771 237.574C16.7215 237.56 16.8701 236.802 17.2168 235.605C17.5636 234.409 18.1013 232.78 18.7594 231.002C19.4175 229.224 20.0544 227.631 20.5497 226.491C21.0309 225.35 21.3706 224.663 21.4272 224.685Z" fill="#010E41"/>
<path d="M23.1255 265.797C23.1255 265.797 22.2693 254.473 29.6216 249.664C29.8763 249.494 30.223 249.685 30.2089 249.989C30.1169 251.803 29.2819 257.206 23.1255 265.797Z" fill="#FFD11C"/>
<path d="M28.1639 253.028C28.2205 253.049 27.9516 253.771 27.4916 254.926C26.9609 256.215 26.3452 257.73 25.6588 259.409C24.9795 261.087 24.3639 262.603 23.8402 263.892C23.3803 265.039 23.1043 265.755 23.0477 265.74C22.9982 265.726 23.1751 264.975 23.5643 263.793C23.9535 262.61 24.5479 261.002 25.2697 259.246C25.9914 257.497 26.6849 255.924 27.2156 254.805C27.7464 253.686 28.1143 253.006 28.1639 253.028Z" fill="#010E41"/>
<path d="M10.2537 174.521C10.2537 174.521 0.198245 169.266 0.000108774 160.477C-0.00696752 160.165 0.332694 159.974 0.587441 160.151C2.08054 161.192 6.22017 164.755 10.2537 174.521Z" fill="#E95226"/>
<path d="M2.08754 163.501C2.13707 163.466 2.60411 164.075 3.34004 165.073C4.15382 166.206 5.11619 167.531 6.17764 168.997C7.23908 170.463 8.20146 171.78 9.0223 172.913C9.75824 173.912 10.2182 174.521 10.1687 174.563C10.1262 174.599 9.58841 174.054 8.78879 173.097C7.98917 172.141 6.94188 170.789 5.83797 169.245C4.73407 167.708 3.7717 166.284 3.09945 165.243C2.42013 164.202 2.03801 163.529 2.08754 163.501Z" fill="#010E41"/>
<path d="M21.0522 197.8C21.0522 197.8 10.6925 193.161 9.96361 184.408C9.9353 184.103 10.2679 183.891 10.5297 184.047C12.0865 184.989 16.4384 188.296 21.0522 197.8Z" fill="#FFD11C"/>
<path d="M12.2351 187.29C12.2846 187.255 12.7871 187.836 13.5796 188.785C14.4641 189.861 15.5044 191.129 16.6507 192.531C17.8041 193.926 18.8444 195.187 19.7289 196.263C20.5214 197.212 21.0168 197.8 20.9743 197.843C20.9319 197.878 20.3587 197.368 19.5095 196.462C18.6533 195.555 17.5282 194.266 16.3252 192.8C15.1293 191.334 14.082 189.974 13.3461 188.969C12.6101 187.97 12.1856 187.326 12.2351 187.29Z" fill="#010E41"/>
<path d="M15.0938 223.764C15.0938 223.764 7.98213 214.918 11.3151 206.788C11.4354 206.504 11.8175 206.462 11.9802 206.724C12.9426 208.268 15.3132 213.197 15.0938 223.764Z" fill="#FFD11C"/>
<path d="M12.0226 210.385C12.0793 210.378 12.2703 211.122 12.5392 212.333C12.8364 213.7 13.1832 215.293 13.5653 217.064C13.9545 218.827 14.3083 220.428 14.6055 221.788C14.8815 222.992 15.0513 223.743 14.9947 223.764C14.9452 223.778 14.6621 223.063 14.3154 221.866C13.9686 220.669 13.5511 219.005 13.1478 217.156C12.7515 215.301 12.4401 213.615 12.242 212.39C12.051 211.164 11.966 210.4 12.0226 210.385Z" fill="#010E41"/>
<path d="M22.1419 254.317C22.1419 254.317 11.86 249.508 11.2798 240.74C11.2585 240.435 11.5911 240.223 11.853 240.393C13.3885 241.356 17.6838 244.734 22.1419 254.317Z" fill="#FFD11C"/>
<path d="M13.4947 243.665C13.5442 243.63 14.0396 244.217 14.818 245.181C15.6813 246.271 16.7003 247.56 17.8254 248.977C18.9505 250.393 19.9695 251.668 20.8399 252.759C21.6183 253.722 22.0995 254.317 22.057 254.359C22.0146 254.395 21.4484 253.871 20.6134 252.957C19.7784 252.036 18.6675 250.726 17.4928 249.239C16.3181 247.751 15.2992 246.377 14.5844 245.358C13.8627 244.345 13.4522 243.7 13.4947 243.665Z" fill="#010E41"/>
<path d="M42.6134 209.67C42.6205 209.67 42.6275 209.755 42.6275 209.918C42.6205 210.116 42.6134 210.357 42.6063 210.647C42.578 211.327 42.5355 212.248 42.486 213.402C42.3516 215.825 42.1676 219.196 41.9482 223.233V223.24V223.254C41.2123 227.362 39.1248 231.915 36.3155 236.342C34.2563 239.6 32.098 242.56 30.2299 245.315C28.3546 248.063 26.7696 250.605 25.6727 252.858C24.5618 255.11 23.9178 257.043 23.5428 258.396C23.3588 259.076 23.2243 259.6 23.1465 259.968C23.0616 260.329 23.0121 260.521 22.9979 260.514C22.9837 260.514 23.005 260.315 23.0616 259.947C23.1111 259.579 23.2243 259.04 23.38 258.353C23.7126 256.98 24.3212 255.018 25.4038 252.73C26.4794 250.443 28.0504 247.865 29.9114 245.095C31.7583 242.319 33.9095 239.359 35.9617 236.115C38.7568 231.717 40.8372 227.227 41.5944 223.183V223.204C41.8774 219.167 42.111 215.796 42.2808 213.381C42.3728 212.234 42.4506 211.313 42.5002 210.633C42.5285 210.343 42.5497 210.109 42.5709 209.911C42.5851 209.755 42.6063 209.67 42.6134 209.67Z" fill="#010E41"/>
<path d="M36.4924 235.499C36.4924 235.499 40.8443 225.01 35.3672 218.14C35.1762 217.9 34.7941 217.971 34.7091 218.268C34.228 220.017 33.3293 225.414 36.4924 235.499Z" fill="#FFD11C"/>
<path d="M35.6998 221.795C35.7564 221.788 35.8909 222.546 36.0465 223.778C36.2022 225.01 36.372 226.717 36.5065 228.608C36.6409 230.499 36.7046 232.213 36.7046 233.459C36.7046 234.706 36.6409 235.471 36.5843 235.471C36.5206 235.471 36.4782 234.706 36.4074 233.467C36.3154 232.078 36.2022 230.442 36.0819 228.636C35.9545 226.83 35.8413 225.194 35.7422 223.806C35.6715 222.567 35.6432 221.802 35.6998 221.795Z" fill="#010E41"/>
<g opacity="0.3">
<path d="M36.4924 235.499C36.4924 235.499 40.8443 225.01 35.3672 218.14C35.1762 217.9 34.7941 217.971 34.7091 218.268C34.228 220.017 33.3293 225.414 36.4924 235.499Z" fill="#010E41"/>
</g>
<path d="M23.0122 260.769C23.0122 260.769 26.5008 249.961 20.4859 243.559C20.2736 243.332 19.8986 243.438 19.842 243.736C19.4952 245.528 19.0424 250.974 23.0122 260.769Z" fill="#FFD11C"/>
<path d="M21.1087 247.178C21.1654 247.164 21.3635 247.914 21.6112 249.125C21.8659 250.343 22.1773 252.029 22.4603 253.899C22.7504 255.768 22.9486 257.475 23.0547 258.715C23.1538 259.954 23.1538 260.726 23.0972 260.733C23.0335 260.74 22.9344 259.975 22.7575 258.75C22.5523 257.369 22.3117 255.754 22.0428 253.962C21.7739 252.171 21.5262 250.556 21.314 249.175C21.1441 247.95 21.0521 247.185 21.1087 247.178Z" fill="#010E41"/>
<g opacity="0.3">
<path d="M23.0122 260.769C23.0122 260.769 26.5008 249.961 20.4859 243.559C20.2736 243.332 19.8986 243.438 19.842 243.736C19.4952 245.528 19.0424 250.974 23.0122 260.769Z" fill="#010E41"/>
</g>
<path d="M42.0332 222.68C42.0332 222.68 51.3314 216.165 50.3903 207.432C50.3549 207.128 49.994 206.979 49.7676 207.184C48.4231 208.402 44.7717 212.475 42.0332 222.68Z" fill="#FFD11C"/>
<g opacity="0.3">
<path d="M42.0332 222.68C42.0332 222.68 51.3314 216.165 50.3903 207.432C50.3549 207.128 49.994 206.979 49.7676 207.184C48.4231 208.402 44.7717 212.475 42.0332 222.68Z" fill="#010E41"/>
</g>
<path d="M48.7132 210.69C48.7628 210.718 48.4727 211.427 47.9419 212.553C47.4112 213.672 46.6399 215.208 45.7412 216.873C44.8425 218.544 43.9792 220.024 43.307 221.073C42.6347 222.121 42.1748 222.737 42.1252 222.701C42.0757 222.666 42.4507 222 43.0451 220.917C43.7103 219.692 44.4958 218.254 45.3591 216.667C46.2224 215.074 47.0008 213.636 47.666 212.411C48.2745 211.327 48.6566 210.669 48.7132 210.69Z" fill="#010E41"/>
<path d="M26.7556 250.053C26.7556 250.053 37.9645 248.304 40.9719 240.046C41.078 239.756 40.8162 239.465 40.519 239.55C38.7712 240.053 33.7045 242.1 26.7556 250.053Z" fill="#FFD11C"/>
<g opacity="0.3">
<path d="M26.7556 250.053C26.7556 250.053 37.9645 248.304 40.9719 240.046C41.078 239.756 40.8162 239.465 40.519 239.55C38.7712 240.053 33.7045 242.1 26.7556 250.053Z" fill="#010E41"/>
</g>
<path d="M38.0281 242.234C38.0635 242.284 37.4903 242.787 36.5138 243.566C35.5443 244.338 34.1786 245.379 32.636 246.477C31.0934 247.581 29.6639 248.531 28.6025 249.175C27.5411 249.819 26.8547 250.167 26.8264 250.117C26.7981 250.06 27.4278 249.628 28.4397 248.92C29.579 248.113 30.9165 247.171 32.3883 246.13C33.8602 245.081 35.1976 244.132 36.3298 243.325C37.3488 242.61 37.9927 242.192 38.0281 242.234Z" fill="#010E41"/>
<path d="M16.0632 270.705L12.7939 292.738H33.1737L30.5271 270.705H16.0632Z" fill="#455A64"/>
<path d="M31.3481 277.532C31.3481 277.653 27.6685 277.745 23.1326 277.745C18.5896 277.745 14.917 277.653 14.917 277.532C14.917 277.412 18.5967 277.32 23.1326 277.32C27.6685 277.32 31.3481 277.412 31.3481 277.532Z" fill="#010E41"/>
<path d="M31.7514 279.282C31.7514 279.402 27.9514 279.494 23.2669 279.494C18.5754 279.494 14.7825 279.402 14.7825 279.282C14.7825 279.161 18.5824 279.069 23.2669 279.069C27.9514 279.069 31.7514 279.168 31.7514 279.282Z" fill="#010E41"/>
</g>
<defs>
<clipPath id="clip0_451_8249">
<rect width="306" height="293" fill="white"/>
</clipPath>
</defs>
</svg>
