<svg width="60" height="60" viewBox="0 0 60 60" fill="none" xmlns="http://www.w3.org/2000/svg">
<path d="M42.5 52.5V47.5C42.5 44.8478 41.4464 42.3043 39.5711 40.4289C37.6957 38.5536 35.1522 37.5 32.5 37.5H17.5C14.8478 37.5 12.3043 38.5536 10.4289 40.4289C8.55357 42.3043 7.5 44.8478 7.5 47.5V52.5" stroke="#754BDD" stroke-width="4" stroke-linecap="round" stroke-linejoin="round"/>
<path d="M25 27.5C30.5228 27.5 35 23.0228 35 17.5C35 11.9772 30.5228 7.5 25 7.5C19.4772 7.5 15 11.9772 15 17.5C15 23.0228 19.4772 27.5 25 27.5Z" stroke="#754BDD" stroke-width="4" stroke-linecap="round" stroke-linejoin="round"/>
<path d="M55 17.5L45 27.5L55 37.5" stroke="#754BDD" stroke-width="4" stroke-linecap="round"/>
</svg>
