<svg width="19" height="18" viewBox="0 0 19 18" fill="none" xmlns="http://www.w3.org/2000/svg">
<g clip-path="url(#clip0_212_7351)">
<g clip-path="url(#clip1_212_7351)">
<mask id="mask0_212_7351" style="mask-type:luminance" maskUnits="userSpaceOnUse" x="0" y="0" width="19" height="18">
<path d="M18.0716 0.428589H0.928711V17.5715H18.0716V0.428589Z" fill="white"/>
</mask>
<g mask="url(#mask0_212_7351)">
<path d="M18.0714 9.19683C18.0714 8.61421 18.0232 8.02837 17.9203 7.45514H9.67188V10.7558H14.3954C14.1994 11.8204 13.5696 12.7621 12.6473 13.3605V15.5022H15.4654C17.1202 14.0093 18.0714 11.8046 18.0714 9.19683Z" fill="#4285F4"/>
<path d="M9.67187 17.5714C12.0304 17.5714 14.0194 16.8123 15.4686 15.5021L12.6505 13.3605C11.8665 13.8833 10.8543 14.1793 9.67508 14.1793C7.39365 14.1793 5.45926 12.6707 4.76519 10.6424H1.85718V12.8502C3.34171 15.7446 6.36541 17.5714 9.67187 17.5714Z" fill="#34A853"/>
<path d="M4.76205 10.6425C4.39574 9.57799 4.39574 8.42528 4.76205 7.36071V5.15289H1.85725C0.616921 7.57491 0.616921 10.4284 1.85725 12.8503L4.76205 10.6425Z" fill="#FBBC04"/>
<path d="M9.67187 3.82059C10.9186 3.8017 12.1236 4.26153 13.0266 5.1056L15.5232 2.65842C13.9423 1.20334 11.844 0.40336 9.67187 0.428556C6.36541 0.428556 3.34171 2.25528 1.85718 5.15284L4.76198 7.36063C5.45283 5.32922 7.39044 3.82059 9.67187 3.82059Z" fill="#EA4335"/>
</g>
</g>
</g>
<defs>
<clipPath id="clip0_212_7351">
<rect width="18" height="18" fill="white" transform="translate(0.5)"/>
</clipPath>
<clipPath id="clip1_212_7351">
<rect width="18" height="18" fill="white" transform="translate(0.5)"/>
</clipPath>
</defs>
</svg>
