<svg width="18" height="18" viewBox="0 0 18 18" fill="none" xmlns="http://www.w3.org/2000/svg">
<g clip-path="url(#clip0_212_7362)">
<g clip-path="url(#clip1_212_7362)">
<path d="M3.79707 11.394C3.79707 12.4316 2.94939 13.2793 1.91175 13.2793C0.874106 13.2793 0.0263672 12.4316 0.0263672 11.394C0.0263672 10.3564 0.874049 9.50867 1.91169 9.50867H3.79701L3.79707 11.394Z" fill="#E01E5A"/>
<path d="M4.74707 11.394C4.74707 10.3564 5.59475 9.50867 6.63239 9.50867C7.67003 9.50867 8.51772 10.3564 8.51772 11.394V16.1147C8.51772 17.1523 7.67003 18 6.63239 18C5.59475 18 4.74707 17.1523 4.74707 16.1147V11.394Z" fill="#E01E5A"/>
<path d="M6.63237 3.82344C5.59469 3.82344 4.74707 2.97575 4.74707 1.93812C4.74707 0.900472 5.59475 0.0527344 6.63237 0.0527344C7.67001 0.0527344 8.5177 0.900416 8.5177 1.93805V3.82337L6.63237 3.82344Z" fill="#36C5F0"/>
<path d="M6.63229 4.77332C7.66999 4.77332 8.51762 5.621 8.51762 6.65862C8.51762 7.69627 7.66994 8.54401 6.63229 8.54401H1.91169C0.873987 8.54401 0.0263672 7.69632 0.0263672 6.65868C0.0263672 5.62105 0.874049 4.77332 1.91169 4.77332H6.63229Z" fill="#36C5F0"/>
<path d="M14.203 6.65862C14.203 5.62094 15.0507 4.77332 16.0883 4.77332C17.126 4.77332 17.9737 5.621 17.9737 6.65862C17.9737 7.69627 17.126 8.54396 16.0883 8.54396H14.203V6.65862Z" fill="#2EB67D"/>
<path d="M13.253 6.65865C13.253 7.69635 12.4053 8.54398 11.3677 8.54398C10.3301 8.54398 9.48242 7.69629 9.48242 6.65865V1.93805C9.48242 0.900354 10.3301 0.0527344 11.3677 0.0527344C12.4053 0.0527344 13.253 0.900416 13.253 1.93805V6.65865Z" fill="#2EB67D"/>
<path d="M11.3677 14.2292C12.4053 14.2292 13.253 15.0769 13.253 16.1146C13.253 17.1522 12.4053 18 11.3677 18C10.3301 18 9.48242 17.1523 9.48242 16.1146V14.2293L11.3677 14.2292Z" fill="#ECB22E"/>
<path d="M11.3677 13.2793C10.3301 13.2793 9.48242 12.4316 9.48242 11.394C9.48242 10.3564 10.3301 9.50867 11.3677 9.50867H16.0884C17.1261 9.50867 17.9738 10.3564 17.9738 11.394C17.9738 12.4316 17.1261 13.2793 16.0884 13.2793H11.3677Z" fill="#ECB22E"/>
</g>
</g>
<defs>
<clipPath id="clip0_212_7362">
<rect width="18" height="18" fill="white"/>
</clipPath>
<clipPath id="clip1_212_7362">
<rect width="18" height="18" fill="white"/>
</clipPath>
</defs>
</svg>
